<?xml version="1.0" encoding="utf-8"?>
<!-- Generator: Adobe Illustrator 25.1.0, SVG Export Plug-In . SVG Version: 6.00 Build 0)  -->
<svg version="1.1" id="Layer_1" xmlns="http://www.w3.org/2000/svg" xmlns:xlink="http://www.w3.org/1999/xlink" x="0px" y="0px"
	 viewBox="0 0 615.1 432.3" style="enable-background:new 0 0 615.1 432.3;" xml:space="preserve">
<style type="text/css">
	.st0{fill:#DEBD68;}
</style>
<g>
	<g>
		<ellipse transform="matrix(0.4592 -0.8884 0.8884 0.4592 -76.6793 276.8608)" class="st0" cx="189" cy="201.4" rx="6.8" ry="5"/>
		<path class="st0" d="M439.1,85.8c-6.2-6.5-14.5-9.7-24.9-9.7c-11.8,0-25.1,4.7-40,14.1c-16.3-8.8-35.5-13.2-57.7-13.2
			c-31.3,0-59.6,9.7-84.9,29.2c-25.3,19.5-38,41.3-38,65.4v2.6c0,0,0.1,2.7,0.5,5.1c0,0,0,0,0,0c1.6,8.9,5.4,16,11.5,21.3
			c6.1,5.3,13.4,7.9,22,7.9c16.4,0,32.9-8.1,49.3-24.4c16.4-16.3,24.7-32.6,24.7-49.1c0-13.2-6.6-19.9-19.9-19.9
			c-9.9,0-20.3,3.8-31.1,11.4c-10.8,7.5-18.6,16.4-23.6,26.7c-0.5,1.2-1.2,2.8-1.9,4.9c-1.6,4.8-2.3,9.1-2.3,12.8
			c0,5.3,1.5,9.8,4.6,13.6c3,3.8,6.6,5.7,10.8,5.7c1.9,0,2.9-0.4,2.9-1.2c0-0.6-0.6-1-1.9-1c-6.7,0.2-10.1-4-10.1-12.5
			c0-6.1,2.5-13.6,7.4-22.5c0.1,0,0.1,0,0.2,0c0-0.2,0.1-0.3,0.2-0.5c0-0.1,0.1-0.2,0.2-0.2c0,0,0,0,0,0c0.2-0.4,0.4-0.8,0.7-1.2
			c0,0,0,0-0.1,0c6.7-10.4,14.1-18.6,22.2-24.8c8.1-6.1,15.6-9.2,22.6-9.2c11.3,0,17,6,17,18c0,15.5-8,31.3-23.9,47.3
			c-16,16-31.7,24.1-47.2,24.1c-8.3,0-14.8-2.5-19.5-7.4c-4.7-4.9-7.1-11.8-7.1-20.6c0-1.5,0.2-4,0.6-7.3c0,0,0-0.1,0-0.2
			c0-0.4,0.1-0.8,0.1-1.2c0,0,0,0,0,0c0.2-1.2,0.6-3.2,1.3-5.6c0-0.1,0.1-0.1,0.1-0.2c5.9-21.7,20.2-41.1,43-58.1
			c23.7-17.7,48.2-26.6,73.4-26.6c20,0,36.2,4.7,48.9,14.2c-21.7,15.5-42.9,39.4-63.5,71.6c-13.6,21.1-22.2,34.3-26,39.5
			c-3.8,5.2-8.4,10.2-14,15c-13.6,12-28.1,18-43.6,18c-11,0-19.9-3-26.6-8.9c-6.7-6-10.1-13.8-10.1-23.4c0-2,0.2-3.9,0.4-5.8
			l-2.2,1.5c-0.3,1.9-0.2,1.9-0.2,3.8c0,10.4,3.6,18.7,10.8,24.9s16.8,9.3,29,9.3c18,0,36.7-4.9,56-14.6
			c12.3-6.2,21.9-13.3,28.9-21.3c6.9-8,13.1-19.1,18.6-33.3c7.3-19.5,14.4-34.8,21.1-46c6.7-11.2,14.6-20.6,23.7-28.3
			c6.7,6.2,10.1,13.6,10.1,22.3c0,16.3-8.5,27.8-25.6,34.5c-4-1-7.9-1.4-11.7-1.4c-6.4,0-9.6,0.9-9.6,2.6c0,1.1,2.4,1.7,7.2,1.7
			c4.6,0,9.4-0.5,14.4-1.4c11.8,3,17.7,12.9,17.7,29.5c0,13.6-4.3,26-12.8,37.4c-8.5,11.3-18,17-28.4,17c-11.3,0-17-6.1-17-18.2
			c0-10.2,3.8-20.1,11.5-29.7c7.7-9.6,15.6-14.4,23.7-14.4c4.1,0,7.6,1.4,10.4,4.2c2.8,2.8,4.2,6.3,4.2,10.4
			c0,5.3-1.5,10.5-4.6,15.6c-0.3,0.5-0.5,0.8-0.5,1c0,0.5,0.2,0.7,0.7,0.7c1.3,0,2.6-2,4.1-5.9c1.4-3.9,2.2-7.8,2.2-11.6
			c0-4.6-1.6-8.5-4.8-11.6c-3.2-3.1-7.2-4.7-12-4.7c-8.6,0-17,5-25.1,15.1c-8.1,10.1-12.2,20.4-12.2,31.1c0,13.6,7.2,20.4,21.6,20.4
			c15.3,0,28.9-5.2,40.8-15.7c11.9-10.5,17.8-22.4,17.8-35.8c0-9.9-3.3-18.1-9.9-24.5c-6.6-6.5-15.4-10.1-26.5-10.9
			c12.6-1.3,22.4-4.7,29.3-10.2c6.9-5.5,10.4-12.6,10.4-21.2c0-12.1-6.7-22.2-20.1-30.2c13.2-9.1,25.7-13.6,37.4-13.6
			c9.7,0,17.5,3.1,23.3,9.2c5.8,6.1,8.7,14.3,8.7,24.5c0,3.4-0.4,7.2-1.2,11.5c-0.3,1.8-0.5,2.8-0.5,3.1c0,0.6,0.2,1,0.7,1
			c2.1,0,3.1-5.2,3.1-15.6C448.4,100.9,445.3,92.3,439.1,85.8z"/>
	</g>
	<path class="st0" d="M453.6,14.5v294.2H159.4V14.5H453.6 M463.3,4.8H149.8v313.5h313.5V4.8L463.3,4.8z"/>
</g>
<g>
	<g>
		<path class="st0" d="M107.8,381.5l3.5-6.2c1.1,0.2,2.1,0.3,3.2,0.3c1,0,2.6-0.1,4.8-0.3l-5.6,9.2c-4.3,7.1-6.4,11-6.4,11.6
			c0,1,0.6,1.4,1.7,1.4c2.8,0,7-4.2,12.7-12.6c0.5-0.7,0.8-1,1-1c0.2,0,0.3,0.1,0.3,0.2c0,0.5-2,3.3-6.1,8.4c-3.2,4-6.2,6-8.9,6
			c-1.5,0-2.8-0.5-3.9-1.6c-1.1-1.1-1.6-2.4-1.6-4c0-1.2,0.4-2.6,1.2-4.1c-3.8,6.5-7.4,9.8-10.6,9.8c-1.8,0-3.4-0.7-4.7-2.2
			c-1.3-1.5-2-3.2-2-5.3c0-3.5,2.1-6.9,6.4-10.4c4.3-3.5,8.5-5.2,12.6-5.2c2.3,0,3.5,0.9,3.5,2.7C108.9,378.9,108.6,380,107.8,381.5
			z M106.4,375.9c-2,0-4.9,2.6-8.7,7.7c-3.8,5.1-5.7,9-5.7,11.8c0,1.5,0.6,2.2,1.9,2.2c2.4,0,5.4-2.7,9-8.2
			c3.7-5.7,5.6-9.5,5.6-11.3C108.3,376.6,107.7,375.9,106.4,375.9z"/>
		<path class="st0" d="M148.1,353.3l-23.3,39.4c-1.1,1.8-1.6,3-1.6,3.5c0,0.9,0.5,1.4,1.6,1.4c2.9,0,7.1-4.2,12.7-12.6
			c0.5-0.7,0.8-1,1.1-1c0.1,0,0.2,0.1,0.2,0.2c0,0.6-2,3.4-6,8.4c-3.2,4-6.2,6-8.9,6c-1.5,0-2.7-0.6-3.8-1.7c-1.1-1.1-1.6-2.5-1.6-4
			c0-1.3,0.4-2.7,1.1-4.2c0.7-1.5,2.6-4.7,5.5-9.5c1.2-1.9,2.5-4.1,3.9-6.5l11.4-19.4c1.2,0.3,2.4,0.5,3.6,0.5
			C144.6,353.8,146,353.6,148.1,353.3z"/>
		<path class="st0" d="M163.8,353.3l-23.3,39.4c-1.1,1.8-1.6,3-1.6,3.5c0,0.9,0.5,1.4,1.6,1.4c2.9,0,7.1-4.2,12.7-12.6
			c0.5-0.7,0.8-1,1.1-1c0.1,0,0.2,0.1,0.2,0.2c0,0.6-2,3.4-6,8.4c-3.2,4-6.2,6-8.9,6c-1.5,0-2.7-0.6-3.8-1.7c-1.1-1.1-1.6-2.5-1.6-4
			c0-1.3,0.4-2.7,1.1-4.2c0.7-1.5,2.6-4.7,5.5-9.5c1.2-1.9,2.5-4.1,3.9-6.5l11.4-19.4c1.2,0.3,2.4,0.5,3.6,0.5
			C160.3,353.8,161.7,353.6,163.8,353.3z"/>
		<path class="st0" d="M250.5,381.5l3.5-6.2c1.1,0.2,2.1,0.3,3.2,0.3c1,0,2.6-0.1,4.8-0.3l-5.6,9.2c-4.3,7.1-6.4,11-6.4,11.6
			c0,1,0.6,1.4,1.7,1.4c2.8,0,7-4.2,12.7-12.6c0.5-0.7,0.8-1,1-1c0.2,0,0.3,0.1,0.3,0.2c0,0.5-2,3.3-6.1,8.4c-3.2,4-6.2,6-8.9,6
			c-1.5,0-2.8-0.5-3.9-1.6c-1.1-1.1-1.6-2.4-1.6-4c0-1.2,0.4-2.6,1.2-4.1c-3.8,6.5-7.4,9.8-10.6,9.8c-1.8,0-3.4-0.7-4.7-2.2
			c-1.3-1.5-2-3.2-2-5.3c0-3.5,2.1-6.9,6.4-10.4c4.3-3.5,8.5-5.2,12.6-5.2c2.3,0,3.5,0.9,3.5,2.7C251.6,378.9,251.2,380,250.5,381.5
			z M249,375.9c-2,0-4.9,2.6-8.7,7.7c-3.8,5.1-5.7,9-5.7,11.8c0,1.5,0.6,2.2,1.9,2.2c2.4,0,5.4-2.7,9-8.2c3.7-5.7,5.6-9.5,5.6-11.3
			C251,376.6,250.3,375.9,249,375.9z"/>
		<path class="st0" d="M272.5,382.4c1.5-2.5,2.2-4.2,2.2-5c0-0.8-0.4-1.2-1.2-1.2c-1.7,0-4.5,3-8.5,9c-0.2,0.3-0.4,0.5-0.6,0.5
			c-0.2-0.1-0.3-0.1-0.3-0.3c0-0.5,1.4-2.5,4.3-6.1c2.2-2.8,4.3-4.1,6.2-4.1c1.4,0,2.6,0.5,3.6,1.6c1,1,1.5,2.3,1.5,3.8
			c0,1.6-0.6,3.6-1.9,5.7c5-7.4,9.3-11.1,12.9-11.1c1.4,0,2.6,0.5,3.6,1.6c1,1,1.5,2.3,1.5,3.8c0,1.4-0.7,3.4-2.1,5.8
			c4.7-7.5,8.9-11.2,12.6-11.2c1.6,0,2.9,0.6,4,1.7c1.1,1.2,1.6,2.6,1.6,4.2c0,1.1-0.3,2.2-0.8,3.3c-0.5,1.1-1.7,3.1-3.7,6
			c-2.2,3.3-3.3,5.2-3.3,5.7c0,1,0.5,1.4,1.6,1.4c2.8,0,7.1-4.2,12.8-12.6c0.5-0.7,0.8-1,1-1c0.2,0,0.3,0.1,0.3,0.2
			c0,0.6-2,3.4-6.1,8.4c-3.2,4-6.2,6-8.9,6c-1.6,0-3-0.6-4.1-1.8c-1.2-1.2-1.8-2.6-1.8-4.1c0-1.1,0.3-2.2,0.9-3.3
			c0.6-1.2,2.6-4.4,6-9.7c0.8-1.2,1.2-2.1,1.2-2.5c0-0.8-0.5-1.3-1.4-1.3c-2,0-4.7,2-8,6.1c-3.3,4.1-6.8,9.6-10.4,16.6
			c-1.1-0.4-2.4-0.6-3.7-0.6c-1.1,0-2.6,0.2-4.5,0.6l3-5c5.8-9.6,8.7-15,8.7-16.1c0-0.8-0.4-1.2-1.3-1.2c-2,0-4.8,2.2-8.4,6.6
			c-3.6,4.4-6.9,9.6-10,15.8c-0.9-0.4-2.1-0.6-3.6-0.6c-1.2,0-2.8,0.2-4.6,0.6l5.7-9.3L272.5,382.4z"/>
		<path class="st0" d="M332.5,375l-10,16.9c-1.4,2.3-2,3.7-2,4.2c0,1,0.5,1.4,1.6,1.4c2.7,0,6.9-4.2,12.6-12.6c0.5-0.7,0.8-1,1-1
			c0.2,0,0.3,0.1,0.3,0.2c0,0.6-2,3.4-6,8.4c-3.2,4-6.2,6-9,6c-1.5,0-2.7-0.6-3.8-1.7c-1-1.1-1.6-2.5-1.6-4.1c0-1.9,0.9-4.4,2.8-7.5
			l6.1-10.2c0.9,0.3,2.1,0.4,3.6,0.4C329.3,375.4,330.8,375.3,332.5,375z M336.1,361.1c1.7,0,2.5,0.9,2.5,2.6c0,1.6-0.8,3.2-2.5,4.9
			c-1.6,1.7-3.3,2.5-4.9,2.5c-1.7,0-2.6-0.9-2.6-2.6c0-1.6,0.8-3.2,2.5-4.9C332.9,362,334.5,361.1,336.1,361.1z"/>
		<path class="st0" d="M361,353.3l-23.3,39.4c-1.1,1.8-1.6,3-1.6,3.5c0,0.9,0.5,1.4,1.6,1.4c2.9,0,7.1-4.2,12.7-12.6
			c0.5-0.7,0.8-1,1.1-1c0.1,0,0.2,0.1,0.2,0.2c0,0.6-2,3.4-6,8.4c-3.2,4-6.2,6-8.9,6c-1.5,0-2.7-0.6-3.8-1.7c-1.1-1.1-1.6-2.5-1.6-4
			c0-1.3,0.4-2.7,1.1-4.2c0.7-1.5,2.6-4.7,5.5-9.5c1.2-1.9,2.5-4.1,3.9-6.5l11.4-19.4c1.2,0.3,2.4,0.5,3.6,0.5
			C357.6,353.8,359,353.6,361,353.3z"/>
		<path class="st0" d="M349.8,385.4l3.2-5.5c0.7-1.1,1.5-2.6,2.5-4.6c1.1,0.2,2.5,0.3,4.1,0.3c1.4,0,2.7-0.1,4-0.3l-6.3,10.7
			c-3.5,5.9-5.2,9.3-5.2,10.2c0,0.8,0.5,1.3,1.4,1.3c3.8,0,10-7.4,18.4-22.2c0.9,0.2,2.1,0.3,3.5,0.3c1.2,0,2.8-0.1,4.6-0.3
			l-4.6,7.5c-1.6,2.6-3.5,5.9-5.7,10c-0.8,1.4-1.8,3.2-3,5.4c6.1-2.4,11.4-6.8,15.6-13.3c0.5-0.7,0.8-1,1-1c0.2,0,0.3,0.1,0.3,0.2
			c0,0.1,0,0.2-0.1,0.3l-0.7,1c-4.6,6.9-10.1,11.4-16.5,13.5c-3.4,5.9-6,10-7.8,12.4c-1.8,2.4-4.1,4.9-6.9,7.4
			c-2.8,2.5-6,4.6-9.4,6.3c-3.5,1.7-6.4,2.5-8.8,2.5c-1.9,0-3.5-0.7-4.8-2.1c-1.3-1.4-1.9-3.2-1.9-5.3c0-5.1,3.3-9.5,10-13.3
			c3.9-2.2,11-4.4,21.3-6.6l7.2-13.1c-4.9,7.4-9.2,11.2-12.8,11.2c-1.5,0-2.7-0.6-3.8-1.7c-1-1.1-1.6-2.5-1.6-4.1
			C346.8,391.2,347.8,388.8,349.8,385.4z M355.5,404.7l2.1-3.6c-8,1.7-14.7,4.6-20,8.7c-5.4,4.1-8,8.4-8,12.8c0,3.1,1.4,4.6,4.1,4.6
			c3.3,0,6.5-1.7,9.7-5C346.6,418.8,350.6,413,355.5,404.7z"/>
		<path class="st0" d="M480.6,367.9l-11.1,18.3c4.8-7.4,9-11.1,12.3-11.1c1.6,0,3,0.6,4.1,1.7c1.1,1.2,1.6,2.6,1.6,4.3
			c0,1.2-1,3.4-3,6.8l-2,3.3c-0.4,0.6-1,1.5-1.8,2.7c-0.6,1-0.9,1.7-0.9,2.2c0,1,0.5,1.4,1.6,1.4c2.8,0,7.1-4.2,12.8-12.6
			c0.5-0.7,0.8-1,1-1c0.2,0,0.3,0.1,0.3,0.2c0,0.5-2,3.3-6.1,8.4c-3.2,4-6.2,6-8.9,6c-1.6,0-3-0.6-4.1-1.8c-1.2-1.2-1.8-2.6-1.8-4.1
			c0-1.2,0.3-2.4,0.8-3.5c0.6-1.1,2.5-4.2,5.9-9.3c0.8-1.3,1.3-2.2,1.3-2.7c0-0.8-0.4-1.3-1.3-1.3c-2.1,0-5,2.3-8.7,6.9
			c-3.6,4.6-6.7,9.8-9.3,15.8c-0.8-0.3-2-0.4-3.4-0.4c-1.1,0-2.6,0.1-4.5,0.4l7.6-13.8c0.7-1.3,2.4-4.3,5.1-8.9l13-22.6
			c1.2,0.3,2.4,0.5,3.5,0.5c1,0,2.6-0.2,4.8-0.5c-0.3,0.5-1.4,2.2-3,5C485.3,360.4,483.3,363.6,480.6,367.9z"/>
		<path class="st0" d="M513.2,381.5l3.6-6.2c1.1,0.2,2.1,0.3,3.2,0.3c1,0,2.6-0.1,4.8-0.3l-5.6,9.2c-4.3,7.1-6.4,11-6.4,11.6
			c0,1,0.6,1.4,1.7,1.4c2.8,0,7-4.2,12.7-12.6c0.5-0.7,0.8-1,1-1c0.2,0,0.3,0.1,0.3,0.2c0,0.5-2,3.3-6.1,8.4c-3.2,4-6.2,6-8.9,6
			c-1.5,0-2.8-0.5-3.9-1.6c-1.1-1.1-1.6-2.4-1.6-4c0-1.2,0.4-2.6,1.2-4.1c-3.8,6.5-7.4,9.8-10.6,9.8c-1.8,0-3.4-0.7-4.7-2.2
			c-1.3-1.5-2-3.2-2-5.3c0-3.5,2.1-6.9,6.4-10.4c4.3-3.5,8.5-5.2,12.6-5.2c2.3,0,3.5,0.9,3.5,2.7C514.3,378.9,513.9,380,513.2,381.5
			z M511.7,375.9c-2,0-4.9,2.6-8.7,7.7c-3.8,5.1-5.7,9-5.7,11.8c0,1.5,0.6,2.2,1.9,2.2c2.4,0,5.4-2.7,9-8.2
			c3.7-5.7,5.6-9.5,5.6-11.3C513.7,376.6,513,375.9,511.7,375.9z"/>
		<path class="st0" d="M546.4,364.2l-10.3,17.9c3.2-4.6,6.2-6.9,8.9-6.9c1.8,0,3.4,0.7,4.7,2.2c1.3,1.5,2,3.3,2,5.3
			c0,3.5-2.1,7-6.4,10.5c-4.3,3.5-8.5,5.3-12.8,5.3c-2.2,0-3.3-1-3.3-3c0-0.9,0.4-2.2,1.2-3.8l-18.4,32.2c-1.3-0.3-2.5-0.5-3.7-0.5
			c-0.5,0-1.6,0.1-3.3,0.4l-0.8,0.1l18.1-30.3c4.2-7.4,9.9-17.2,16.9-29.5c0.8,0.3,1.9,0.4,3.3,0.4
			C543.2,364.6,544.5,364.5,546.4,364.2z M544.2,375.9c-2.1,0-4.8,2.3-8,7c-4.3,6.1-6.4,10.3-6.4,12.4c0,1.5,0.6,2.3,1.9,2.3
			c2.4,0,5.7-3.2,10.1-9.6c3-4.5,4.6-7.8,4.6-9.9C546.2,376.7,545.5,375.9,544.2,375.9z"/>
		<path class="st0" d="M561.1,387.4c-1.4,2.4-2.1,4.6-2.1,6.8c0,2.4,1.4,3.5,4.1,3.5c5.1,0,10.5-4.3,16.1-12.8c0.5-0.7,0.8-1,1-1
			c0.2,0,0.3,0.1,0.3,0.2c0,0.3-0.7,1.3-2,3.1c-1.3,1.8-2.5,3.2-3.5,4.3c-4.5,4.7-8.6,7-12.5,7c-2.6,0-4.9-0.8-6.6-2.3
			c-1.8-1.5-2.7-3.5-2.7-5.8c0-3.5,2-6.9,6-10.2c4-3.3,8.2-5,12.4-5c1.4,0,2.6,0.3,3.5,1c0.9,0.7,1.4,1.5,1.4,2.5
			C576.5,382.2,571.3,385.2,561.1,387.4z M561.3,386.8c3.5-1,6.1-2.3,7.9-4.1c2.2-2.1,3.3-4.1,3.3-5.8c0-0.8-0.5-1.3-1.4-1.3
			C568.7,375.7,565.4,379.4,561.3,386.8z"/>
		<path class="st0" d="M605.4,353.3l-23.3,39.4c-1.1,1.8-1.6,3-1.6,3.5c0,0.9,0.5,1.4,1.6,1.4c2.9,0,7.1-4.2,12.7-12.6
			c0.5-0.7,0.8-1,1.1-1c0.1,0,0.2,0.1,0.2,0.2c0,0.6-2,3.4-6,8.4c-3.2,4-6.2,6-8.9,6c-1.5,0-2.7-0.6-3.8-1.7c-1.1-1.1-1.6-2.5-1.6-4
			c0-1.3,0.4-2.7,1.1-4.2c0.7-1.5,2.6-4.7,5.5-9.5c1.2-1.9,2.5-4.1,3.9-6.5l11.4-19.4c1.2,0.3,2.4,0.5,3.6,0.5
			C602,353.8,603.4,353.6,605.4,353.3z"/>
	</g>
	<path class="st0" d="M174,376.9c-1.5,0.6-2.7,2-3.6,4.1c-1,2.2-1.1,4-0.6,5.5c0.6,1.6,1.8,2.1,3.4,1.5c1.5-0.6,2.7-2,3.6-4.1
		c0.9-2.1,1.1-4,0.5-5.4C176.6,376.8,175.5,376.3,174,376.9z"/>
	<path class="st0" d="M269.4,347.6c-2.5-0.9-5.5-1.4-9-1.4c-5.8,0-11.2,1-16.1,3c-9.7-2.9-17.4-4.4-23.1-4.4c-2.9,0-5.9,0.4-8.9,1.1
		c-2.5-2.9-5.9-4.4-10.3-4.4c-5.9,0-11.3,2.3-16.2,7c-2.5,2.4-3.7,3.8-3.7,4.2c0,0.1,0.1,0.2,0.3,0.3c0.2,0,0.4-0.2,0.8-0.6
		c6.2-6.8,12.5-10.2,18.8-10.2c4.4,0,7.6,1.3,9.6,4c-9.5,2.7-16.9,8-22.1,15.9l-1.6,2.9c-1.2,2.6-1.9,4.8-1.9,6.8c0,0,0,1.9,0.5,3.3
		c0.1,0.1,0.1,0.3,0.2,0.4c0,0.1,0.1,0.2,0.1,0.2c0.1,0.2,0.3,0.5,0.4,0.8c1.4,2.2,3.6,3.3,6.4,3.3c4.5,0,9-2,13.3-6.1l0-0.1
		l1.1-1.1c0,0,0,0,0,0c4.7-4.9,7.1-10.4,7.1-16.6c0-2.3-0.5-4.7-1.4-7.1c3.4,0,7.3,0.5,11.6,1.5c1.6,0.3,5.4,1.4,11.2,3
		c-6.9,4.6-12.6,10.3-17.1,17.1c-3.2,0.1-5.5,0.7-7.1,2c-1.6,1.3-2.3,2.5-2.3,3.7c0,0.2,0.1,0.3,0.3,0.3c0.2,0,0.3-0.2,0.5-0.6
		c1.1-3.1,3.8-4.6,8-4.6c-5.4,8.2-9.3,13.6-11.7,16.4c-2.9,3.3-6.2,6-10,7.9c-3.8,2-7.5,3-11,3c-4.2,0-7.6-1.1-10.1-3.2
		c-2.5-2.1-3.8-5-3.8-8.5c0-0.7,0-1.3,0.1-2c-1-0.1-2-0.2-3-0.2c0.1,4.4,1.7,7.9,4.8,10.6c3.2,2.8,7.5,4.1,12.8,4.1
		c4.3,0,8.8-0.6,13.3-1.9c4.5-1.3,8.4-3,11.7-5.2c3-2,5.5-4.5,7.6-7.4c2.1-2.9,4.2-7.3,6.5-13c1.7,0.2,2.7,0.3,3.1,0.3
		c0.6,0,1.1,0,1.5-0.1c-1.5,4.7-3.1,7.4-4.8,8.1c-0.6,0.2-0.8,0.4-0.8,0.5c0,0.3,0.2,0.4,0.6,0.4c1.9,0,3.6-0.8,5.2-2.5
		c1.5-1.7,2.6-3.9,3.1-6.7c4.1-0.9,6.2-2.4,6.2-4.4c0-1.4-1-2.1-2.9-2.1c-2.7,0-4.8,2-6.3,6c-0.5,0.1-1,0.1-1.5,0.1
		c-0.6,0-1.6-0.1-3-0.3c0.6-1.5,1.1-2.6,1.4-3.3c2.5-6.5,5.7-11.2,9.8-14.1c7,1.9,13.1,2.9,18.2,2.9c5,0,9.2-0.5,12.5-1.6
		c3.3-1.1,4.9-2.5,4.9-4.1C273.1,349.6,271.9,348.5,269.4,347.6z M207.9,368.2C207.9,368.2,207.9,368.2,207.9,368.2
		c-0.3,0.5-1.4,1.9-1.4,1.9l-0.1,0.1c-4.5,5.8-9,8.8-13.5,8.8c-2.5,0-4.3-1.1-5.4-3.4c0,0,0,0-0.1-0.1c-0.1-0.2-0.2-0.5-0.3-0.8
		c0,0,0-0.1,0-0.1c0,0,0,0,0,0c-0.3-1-0.3-2.4-0.3-2.4c0.2-2.6,0.9-5.1,2.2-7.6c0.7-1.5,2.3-3.5,2.3-3.5l0.1,0
		c6.2-7.8,13.5-11.8,21.9-11.9c0.3,1.4,0.5,2.7,0.5,3.9C213.7,357.5,211.8,362.6,207.9,368.2z M237.8,366.2c0.9,0,1.4,0.5,1.4,1.4
		c0,1.5-1.7,2.7-5.1,3.5C234.8,367.8,236,366.2,237.8,366.2z M265.7,353.6c-4.5,0-10.2-1-17.1-3c-1.4-0.4-2.5-0.7-3.3-1
		c4.1-1.6,9.2-2.5,15.1-2.5c3.1,0,5.9,0.4,8.3,1.1c2.4,0.8,3.6,1.6,3.6,2.7C272.4,352.7,270.1,353.6,265.7,353.6z"/>
	<circle class="st0" cx="433.2" cy="386.7" r="3.3"/>
	<path class="st0" d="M469.3,347.1c0-2.3-1.8-3.4-5.5-3.4c-2.1,0-4.5,0.3-7.4,0.8c-7.4-4.5-15-6.8-23-6.8c-7.7,0-14.3,1.8-19.8,5.4
		c-5.5,3.6-8.3,7.9-8.3,12.8c0,6.5,4.6,10.5,13.9,12.1c-3.2,5.2-4.7,10.2-4.7,15.1c0,4.7,1.5,8.6,4.5,11.7c3,3.1,6.9,4.6,11.5,4.6
		c0.5,0,1.2,0,1.9,0c0.1,0,1.2-0.1,2.6-0.3c0.1,0,0.2,0,0.4-0.1c6.1-1.5,11.3-4.2,15.7-8.2c3.2-2.9,5.7-6,7.6-9.5
		c1.9-3.5,2.8-6.7,2.8-9.8c0-4.8-2.3-7.3-6.8-7.3c-4.8,0-10.1,2.5-15.7,7.4c-5,4.4-8.1,9.2-9.2,14.4l0,0l3.2-0.6
		c1.3-3.5,3.6-7.1,6.8-10.9c5.4-6.4,10.5-9.6,15.2-9.6c1.6,0,2.8,0.5,3.8,1.5c1,1,1.4,2.3,1.4,3.9c0,4.7-2.6,10.1-7.9,16.3
		c-5.5,6.6-11.5,10.4-18.1,11.6c-0.5,0.1-1.4,0.3-2.6,0.4c0,0-0.1,0-0.1,0c-0.2,0-0.4,0-0.7,0c-3.3,0-5.9-0.9-7.9-2.8
		c-1.9-1.9-2.9-4.5-2.9-7.7c0-5.9,2.6-12.6,7.7-19.9c5.7-0.5,12.1-2,19-4.8c6.9-2.7,12.8-6,17.7-9.8c1.5,2.8,2.2,5.7,2.2,8.7
		c0,0.6,0.1,0.9,0.3,0.9c0.4,0,0.7-0.4,0.7-1.3c0-3-0.8-6-2.5-9C468,350.8,469.3,348.7,469.3,347.1z M419.9,367.4
		c-3.9-0.5-7.1-1.7-9.3-3.5c-2.3-1.8-3.4-4.1-3.4-6.7c0-4.5,2.7-8.5,8.2-11.8c5.4-3.4,11.8-5.1,19.1-5.1c7.4,0,14.2,1.6,20.5,4.6
		C439.4,348.9,427.7,356.4,419.9,367.4z M447.5,362.7c-7.1,2.8-13.4,4.4-18.9,4.9c3.4-4.8,7.6-9.2,12.7-13.1
		c5.1-4,10.2-6.8,15.2-8.6c2.9,1.8,5.5,4.3,7.8,7.5C460.2,356.8,454.6,359.9,447.5,362.7z M457.8,345.5c2.6-0.7,4.7-1.1,6.3-1.1
		c2.9,0,4.4,1,4.4,2.9c0,1.6-1.2,3.4-3.5,5.3C463.4,350,461,347.6,457.8,345.5z"/>
	<g>
		
			<ellipse transform="matrix(0.4592 -0.8884 0.8884 0.4592 -337.849 217.3475)" class="st0" cx="9.6" cy="386.1" rx="2.4" ry="1.8"/>
		<path class="st0" d="M99.9,344.4c-2.2-2.3-5.2-3.5-9-3.5c-4.3,0-9.1,1.7-14.4,5.1c-5.9-3.2-12.8-4.8-20.8-4.8
			c-11.3,0-21.5,3.5-30.6,10.5c-9.1,7-13.7,14.9-13.7,23.6v0.9c0,0,0,1,0.2,1.8c0,0,0,0,0,0c0.6,3.2,2,5.8,4.1,7.7
			c2.2,1.9,4.8,2.9,8,2.9c5.9,0,11.9-2.9,17.8-8.8c5.9-5.9,8.9-11.8,8.9-17.7c0-4.8-2.4-7.2-7.2-7.2c-3.6,0-7.3,1.4-11.2,4.1
			c-3.9,2.7-6.7,5.9-8.5,9.6c-0.2,0.4-0.4,1-0.7,1.8c-0.6,1.7-0.8,3.3-0.8,4.6c0,1.9,0.5,3.5,1.6,4.9c1.1,1.4,2.4,2.1,3.9,2.1
			c0.7,0,1-0.1,1-0.4c0-0.2-0.2-0.3-0.7-0.3c-2.4,0.1-3.6-1.4-3.6-4.5c0-2.2,0.9-4.9,2.7-8.1c0,0,0,0,0.1,0c0-0.1,0-0.1,0.1-0.2
			c0,0,0-0.1,0.1-0.1c0,0,0,0,0,0c0.1-0.1,0.2-0.3,0.3-0.4c0,0,0,0,0,0c2.4-3.7,5.1-6.7,8-8.9c2.9-2.2,5.6-3.3,8.2-3.3
			c4.1,0,6.1,2.2,6.1,6.5c0,5.6-2.9,11.3-8.6,17.1c-5.8,5.8-11.4,8.7-17,8.7c-3,0-5.3-0.9-7-2.7c-1.7-1.8-2.6-4.3-2.6-7.4
			c0-0.6,0.1-1.4,0.2-2.6c0,0,0,0,0-0.1c0-0.1,0-0.3,0.1-0.4c0,0,0,0,0,0c0.1-0.4,0.2-1.2,0.5-2c0,0,0,0,0-0.1
			c2.1-7.8,7.3-14.8,15.5-21c8.6-6.4,17.4-9.6,26.5-9.6c7.2,0,13.1,1.7,17.6,5.1c-7.8,5.6-15.5,14.2-22.9,25.8
			c-4.9,7.6-8,12.4-9.4,14.3c-1.4,1.9-3,3.7-5.1,5.4c-4.9,4.3-10.1,6.5-15.7,6.5c-4,0-7.2-1.1-9.6-3.2c-2.4-2.2-3.6-5-3.6-8.5
			c0-0.7,0.1-1.4,0.1-2.1L7.7,386c-0.1,0.7-0.1,0.7-0.1,1.4c0,3.7,1.3,6.7,3.9,9s6.1,3.4,10.5,3.4c6.5,0,13.3-1.8,20.2-5.3
			c4.4-2.2,7.9-4.8,10.4-7.7c2.5-2.9,4.7-6.9,6.7-12c2.7-7,5.2-12.6,7.6-16.6c2.4-4,5.3-7.4,8.6-10.2c2.4,2.2,3.6,4.9,3.6,8
			c0,5.9-3.1,10-9.3,12.4c-1.4-0.3-2.9-0.5-4.2-0.5c-2.3,0-3.5,0.3-3.5,1c0,0.4,0.9,0.6,2.6,0.6c1.7,0,3.4-0.2,5.2-0.5
			c4.3,1.1,6.4,4.6,6.4,10.6c0,4.9-1.5,9.4-4.6,13.5c-3.1,4.1-6.5,6.1-10.2,6.1c-4.1,0-6.1-2.2-6.1-6.6c0-3.7,1.4-7.3,4.1-10.7
			c2.8-3.5,5.6-5.2,8.6-5.2c1.5,0,2.8,0.5,3.8,1.5c1,1,1.5,2.3,1.5,3.8c0,1.9-0.5,3.8-1.6,5.6c-0.1,0.2-0.2,0.3-0.2,0.3
			c0,0.2,0.1,0.3,0.3,0.3c0.5,0,1-0.7,1.5-2.1c0.5-1.4,0.8-2.8,0.8-4.2c0-1.7-0.6-3.1-1.7-4.2c-1.2-1.1-2.6-1.7-4.3-1.7
			c-3.1,0-6.1,1.8-9.1,5.4c-2.9,3.6-4.4,7.4-4.4,11.2c0,4.9,2.6,7.3,7.8,7.3c5.5,0,10.4-1.9,14.7-5.7c4.3-3.8,6.4-8.1,6.4-12.9
			c0-3.6-1.2-6.5-3.6-8.9c-2.4-2.3-5.6-3.6-9.6-3.9c4.6-0.5,8.1-1.7,10.6-3.7c2.5-2,3.8-4.5,3.8-7.7c0-4.4-2.4-8-7.3-10.9
			c4.8-3.3,9.3-4.9,13.5-4.9c3.5,0,6.3,1.1,8.4,3.3c2.1,2.2,3.2,5.2,3.2,8.9c0,1.2-0.1,2.6-0.4,4.1c-0.1,0.6-0.2,1-0.2,1.1
			c0,0.2,0.1,0.3,0.3,0.3c0.7,0,1.1-1.9,1.1-5.6C103.2,349.9,102.1,346.7,99.9,344.4z"/>
	</g>
</g>
</svg>
