<svg xmlns="http://www.w3.org/2000/svg" width="37" height="37" viewBox="0 0 37 37"><defs><style>.a{fill:#fff;}.b,.d{fill:none;}.b{stroke:#fff;}.c{stroke:none;}</style></defs><g transform="translate(-386 -54)"><g transform="translate(395.01 63.008)"><g transform="translate(-0.01 -0.008)"><path class="a" d="M18.776,12.437a2.913,2.913,0,0,0-2.915-2.575c-1.712-.078-3.438-.039-5.15-.039a.665.665,0,0,0-.183.052,1.518,1.518,0,0,0,.118.183c1.19,1.19,2.353,2.392,3.582,3.529a3.618,3.618,0,0,0,1.294.732,3.287,3.287,0,0,0,2.6-.484C18.985,13.417,18.972,13.391,18.776,12.437ZM12.24,7.169c-.588.575-1.176,1.137-1.817,1.765.157.078.17.092.2.092,1.739,0,3.464.013,5.2-.026a2.629,2.629,0,0,0,1.922-.81,4.925,4.925,0,0,0,1.124-2.523.394.394,0,0,0-.144-.314c-1.686-1.255-3.229-1.451-4.8.131C13.377,6.045,12.8,6.607,12.24,7.169ZM8.671,8.11a3.387,3.387,0,0,0,.3.248.8.8,0,0,0,.065-.2c0-1.7,0-3.412-.026-5.111A2.632,2.632,0,0,0,8.462,1.4,4.353,4.353,0,0,0,5.678.019a.391.391,0,0,0-.327.131c-1.176,1.529-1.477,3.137.026,4.667Zm2.8,3.908c-.5-.5-.98-.993-1.542-1.556a2.183,2.183,0,0,0-.065.314c.013,1.752,0,3.5.039,5.255a2.456,2.456,0,0,0,1.4,2.183,6.649,6.649,0,0,0,1.268.523c.824.248.837.222,1.294-.5a3.116,3.116,0,0,0-.444-4.261C12.789,13.313,12.122,12.672,11.469,12.018Zm2.314-7.582A2.51,2.51,0,0,0,14.4,2.254,5.31,5.31,0,0,0,13.508.189a.635.635,0,0,0-.444-.2C11.024.28,9.8,1.247,9.821,3.522c.013.863,0,1.739,0,2.6v2.2c.118-.013.157,0,.17-.013C11.259,7.025,12.553,5.757,13.782,4.437ZM7.22,11.117c.379-.379.8-.719,1.2-1.085-.039-.039-.065-.092-.1-.131a1,1,0,0,0-.275-.039c-1.66,0-3.333-.013-4.993.013A2.609,2.609,0,0,0,.593,11.469a10.293,10.293,0,0,0-.549,1.66.426.426,0,0,0,.1.353,4.279,4.279,0,0,0,2.013.98,3.128,3.128,0,0,0,2.81-1.1C5.717,12.62,6.462,11.862,7.22,11.117ZM3.4,9.051H8.357c-.052-.118-.052-.157-.078-.183C7.011,7.6,5.756,6.319,4.462,5.091A2.382,2.382,0,0,0,2.776,4.45a4.747,4.747,0,0,0-2.627.967.409.409,0,0,0-.157.314C.24,7.509,1.011,9.051,3.4,9.051ZM9.063,10.5a.706.706,0,0,0-.183.092c-1.242,1.255-2.51,2.51-3.738,3.791a2.5,2.5,0,0,0-.667,1.961,4.885,4.885,0,0,0,.954,2.379.44.44,0,0,0,.34.157,4.525,4.525,0,0,0,2.144-.771A3.028,3.028,0,0,0,9.063,15.5c.013-1.15,0-2.288,0-3.438Z" transform="translate(0.01 0.008)"/></g></g><g class="b" transform="translate(386 54)"><circle class="c" cx="18.5" cy="18.5" r="18.5"/><circle class="d" cx="18.5" cy="18.5" r="18"/></g></g></svg>