<svg xmlns="http://www.w3.org/2000/svg" viewBox="0 0 368.7 331.3"><path d="M333.2 173.3l-13.3-4.3c-.7-.2-1.2-.7-1.4-1.4-2.9-9.2-7.3-17.9-13-25.8-2.2-3.1-4.7-6.1-7.4-8.9 1.8-8.4 2.7-17.7 2.6-25.7-.2-13.6-3.1-21.3-9.1-24.5-5.5-2.9-16.7-3.9-55.4 13.8-.7.3-1.4.7-2 1.1-1.5-.4-2.9-.7-4.4-1.1 2.6-6.8 4.1-14 4.5-21.3.1-2.2-.7-4.2-2.1-5.8-1.5-1.6-3.5-2.5-5.6-2.6-2.2-.1-4.2.6-5.8 2.1s-2.5 3.5-2.6 5.6c-.6 12.9-5.9 25-15.1 34.1-5.1 5.1-11.1 9-17.9 11.6-12.3-1.7-24.8-1.7-37.2 0-6.7-2.6-12.7-6.5-17.9-11.6-9.7-9.7-15.1-22.7-15.1-36.5s5.4-26.7 15.1-36.5c9.7-9.7 22.7-15.1 36.5-15.1s26.7 5.4 36.5 15.1c3.9 3.9 7.2 8.4 9.6 13.3 1 1.9 2.6 3.4 4.7 4 2.1.7 4.2.5 6.2-.5 1.9-1 3.4-2.6 4-4.7.7-2.1.5-4.2-.5-6.2-3.2-6.4-7.5-12.3-12.6-17.4-12.8-12.8-29.8-19.8-47.9-19.8s-35.1 7-47.9 19.8c-12.9 12.9-20 29.9-20 48s7 35.1 19.8 47.9c1.9 1.9 3.9 3.7 6 5.4-.7.2-1.4.4-2.1.7-2 .7-3.7 2.1-4.7 4.1-1 1.9-1.1 4.1-.4 6.2.7 2 2.1 3.7 4.1 4.7 1.9 1 4.1 1.1 6.2.4 25-8.4 52.6-8.4 77.6 0 .8.3 1.7.4 2.6.4 3.5 0 6.6-2.2 7.7-5.5 1.4-4.2-.9-8.8-5.1-10.2-.7-.2-1.4-.5-2.1-.7 2.1-1.7 4.1-3.5 6-5.4 2.7-2.7 5.1-5.6 7.4-8.7.5.1 1.1.2 1.6.3.6.1 1.2.3 1.8.4-1.9 10.4-1.5 19.8 1 27.8 2.6 8 7.2 14.5 13.7 19.3 7.1 5.2 16 8 25.2 8 6.3 0 12.2-1.4 16.7-3.9 4-2.3 7.5-6.3 10.3-12.2l.3.3c4.7 6.4 8.3 13.5 10.7 21.1 1.8 5.7 6.2 10.2 11.9 12l13.3 4.3c2.1.7 3.5 2.6 3.5 4.8v22c0 2.2-1.4 4.1-3.5 4.8l-21.4 6.9c-4.2 1.4-7.8 4.2-10 8.1-8.1 14-20.8 25.5-37.9 34.4-3 1.5-5 4.3-5.6 7.6l-6.7 35.2h-20.2l-3.6-19c-1.1-5.7-6.5-9.5-12.2-8.7-9.4 1.4-19.1 2.1-28.9 2.1-7.2 0-14.4-.4-21.2-1.2-5.6-.6-10.8 3.2-11.9 8.7l-3.4 18H125l-6.4-33.3c-.6-3.2-2.6-5.9-5.5-7.5-28.9-15.4-44.2-41.3-44.2-74.6 0-16.9 3.7-31.9 10.9-44.4 6.8-11.7 16.7-21.3 29.4-28.7 3.9-2.2 5.2-7.2 3-11.1s-7.2-5.2-11.1-3c-22.8 13.2-38.1 32.8-44.7 57.3-3.4-6.9-9.6-11.8-16.1-12.7-5.9-.8-11.6 1.7-15.4 6.8-5.8 7.7-4.2 14-2.7 17.1 2.4 4.9 7.5 8.5 15.5 11-4.4 4.1-9.1 5.2-12.5 5.3-4.5.2-8.1 3.8-8.1 8.3 0 4.4 3.5 8.1 7.9 8.3h1.2c6.8 0 16.9-2.5 26.4-14.3v.1c0 20.3 4.9 38.4 14.4 53.8 8.6 13.8 20.7 25.2 36.1 33.9l6.1 31.7c1.3 7 7.5 12.2 14.7 12.2h22.3c7.2 0 13.3-5.1 14.7-12.1l2.7-14.2c5.9.5 12 .8 18.1.8 8.8 0 17.6-.5 26.2-1.6l2.8 15c1.3 7 7.5 12.1 14.7 12.1h22.3c7.2 0 13.3-5.1 14.7-12.2l6.4-33.7c18.7-10.2 32.9-23.4 42.1-39.4.2-.4.6-.7 1-.8l21.4-6.9c8.8-2.8 14.7-10.9 14.7-20.2v-22c-.1-9.3-6-17.4-14.8-20.2zm-49.4-53.2c-2 17.1-7.1 27.4-9.9 29-4.6 2.6-16 3-24.4-3.1-10.7-7.9-10.3-22.4-8-33.3.1-.7.7-1.3 1.3-1.6 21.9-10 35.3-13.8 40.4-14 1 2.9 2 10.6.6 23zM41.5 173.7c-2.2-.7-3.5-1.4-4.2-1.8.1-.2.3-.4.5-.7s.4-.4.4-.5c.6.1 2.1 1 3.3 3z" fill="#68162a"/></svg>