<?xml version="1.0" encoding="utf-8"?>
<!-- Generator: Adobe Illustrator 24.2.3, SVG Export Plug-In . SVG Version: 6.00 Build 0)  -->
<svg version="1.1" id="Layer_1" xmlns="http://www.w3.org/2000/svg" xmlns:xlink="http://www.w3.org/1999/xlink" x="0px" y="0px"
	 viewBox="0 0 90.8 90" style="enable-background:new 0 0 90.8 90;" xml:space="preserve">
<style type="text/css">
	.st0{fill:#68162A;}
</style>
<path class="st0" d="M77,57.9c0.5-0.1,0.9-0.4,1.3-0.7c1.2-1.2,1.2-3.1,0-4.2l-3.2-3.2l3.2-3.2c1.2-1.2,1.2-3.1,0-4.2
	c-1.2-1.2-3.1-1.2-4.2,0l-1.1,1c0-0.7-0.3-1.5-0.9-2.1c-0.3-0.3-0.6-0.4-0.9-0.6c-0.1-0.5-0.1-1-0.2-1.6l0.8,0.8
	c1.2,1.2,3.1,1.2,4.2,0c1.2-1.2,1.2-3.1,0-4.2l-3.2-3.2l3.2-3.2c1.2-1.2,1.2-3.1,0-4.2c-1-1.1-2.9-1.1-4,0l-3-3l3.2-3.2
	c1.2-1.2,1.2-3.1,0-4.2c-1.2-1.2-3.1-1.2-4.2,0l-3.2,3.2l-0.5-0.5c0.6-1.1,0.4-2.5-0.5-3.5c-1.2-1.2-3-1.2-4.2,0
	c-0.3,0-0.6,0-0.8,0.1l-0.7-0.7l3.2-3.2c1.2-1.2,1.2-3.1,0-4.2c-1.2-1.2-3.1-1.2-4.2,0L53.7,9l-3.2-3.2c-1.2-1.2-3.1-1.2-4.2,0
	C46.2,5.9,46.1,6,46,6.1V6c-1.2-1.2-3.1-1.2-4.2,0l-3.2,3.2L35.4,6c-1.2-1.2-3.1-1.2-4.2,0c-1.2,1.2-1.2,3.1,0,4.2l3.2,3.2L34,13.7
	l-1.2-1.2c-1.2-1.2-3.1-1.2-4.2,0c-0.9,0.9-1.1,2.1-0.7,3.2l-1.6,1.6l-3.2-3.2c-1.2-1.2-3.1-1.2-4.2,0c-1.2,1.2-1.2,3.1,0,4.2
	l3.2,3.2l-1.8,1.8l-0.5-0.5c-1.2-1.2-3.1-1.2-4.2,0c-1.2,1.2-1.2,3.1,0,4.2l3.2,3.2l-3.2,3.2c-1.2,1.2-1.2,3.1,0,4.2
	c0.9,0.9,2.3,1.1,3.4,0.6c-0.1,0.8-0.3,1.6-0.4,2.4l-2-2c-1.2-1.2-3.1-1.2-4.2,0c-1.2,1.2-1.2,3.1,0,4.2l3.2,3.2l-3.2,3.2
	c-1.2,1.2-1.2,3.1,0,4.2c1.2,1.2,3.1,1.2,4.2,0l2-2c0,0.2,0,0.3,0.1,0.5L2.2,68.6h9.4v11.8l12.6-12.6c0.4,0.6,0.8,1.2,1.2,1.8
	l-2.8,2.8c-1.2,1.2-1.2,3.1,0,4.2c1.2,1.2,3.1,1.2,4.2,0l2.5-2.5c0.3,0.3,0.7,0.6,1,0.9l1.8,1.8L28.9,80c-1.2,1.2-1.2,3.1,0,4.2
	c1.2,1.2,3.1,1.2,4.2,0l3.2-3.2l3.2,3.2c1.2,1.2,3.1,1.2,4.2,0c1-0.9,1.1-2.4,0.5-3.5c0.2,0,0.4,0,0.6,0c1,0,2-0.1,2.9-0.2
	c-0.7,1.2-0.6,2.7,0.4,3.7c1.2,1.2,3.1,1.2,4.2,0l3.2-3.2l3.2,3.2c1.2,1.2,3.1,1.2,4.2,0c1.2-1.2,1.2-3.1,0-4.2l-3.2-3.2l1.7-1.7
	l1.1,1.1c1.2,1.2,3.1,1.2,4.2,0c1.2-1.2,1.2-3.1,0-4.2l-2.5-2.5c0.4-0.6,0.8-1.1,1.1-1.7l0,0l12.5,12.5V68.6h9.5L77,57.9z
	 M57.3,20.2c0.6,0.6,0.6,1.5,0,2.1s-1.5,0.6-2.1,0s-0.6-1.5,0-2.1C55.7,19.6,56.7,19.6,57.3,20.2z M53,13.7c0.6-0.6,1.5-0.6,2.1,0
	s0.6,1.5,0,2.1c-0.6,0.6-1.5,0.6-2.1,0C52.4,15.2,52.4,14.3,53,13.7z M46,10.2c0.1-0.1,0.2-0.2,0.2-0.3c0,0,0,0.1,0.1,0.1l1.3,1.3
	c-0.9-0.1-1.7-0.2-2.6-0.2L46,10.2z M37.8,13.9c0.6-0.6,1.5-0.6,2.1,0s0.6,1.5,0,2.1s-1.5,0.6-2.1,0S37.2,14.5,37.8,13.9z M35,18.9
	c0.6-0.6,1.5-0.6,2.1,0s0.6,1.5,0,2.1s-1.5,0.6-2.1,0S34.4,19.5,35,18.9z M20.9,47.2c-0.6,0.6-1.5,0.6-2.1,0s-0.6-1.5,0-2.1
	s1.5-0.6,2.1,0C21.5,45.6,21.5,46.6,20.9,47.2z M24.1,31.3c-0.6,0.6-1.5,0.6-2.1,0s-0.6-1.5,0-2.1s1.5-0.6,2.1,0
	S24.7,30.7,24.1,31.3z M25.3,20.4c0.6-0.6,1.5-0.6,2.1,0s0.6,1.5,0,2.1s-1.5,0.6-2.1,0C24.7,22,24.7,21,25.3,20.4z M27.6,50.2
	c-0.6,0.6-1.5,0.6-2.1,0s-0.6-1.5,0-2.1s1.5-0.6,2.1,0C28.2,48.6,28.2,49.6,27.6,50.2z M31.1,70.2c-0.6,0.6-1.5,0.6-2.1,0
	s-0.6-1.5,0-2.1s1.5-0.6,2.1,0S31.7,69.6,31.1,70.2z M37.4,77.8c-0.6,0.6-1.5,0.6-2.1,0s-0.6-1.5,0-2.1s1.5-0.6,2.1,0
	S38,77.2,37.4,77.8z M56.8,77.8c-0.6,0.6-1.5,0.6-2.1,0s-0.6-1.5,0-2.1s1.5-0.6,2.1,0C57.3,76.3,57.3,77.2,56.8,77.8z M60.6,69.8
	c-0.6,0.6-1.5,0.6-2.1,0s-0.6-1.5,0-2.1s1.5-0.6,2.1,0C61.2,68.3,61.2,69.2,60.6,69.8z M61.5,41.3c-1.2-1.2-3.1-1.2-4.2,0
	c-1.2,1.2-1.2,3.1,0,4.2l3.2,3.2l-3.2,3.2c-1.2,1.2-1.2,3.1,0,4.2c0.4,0.4,0.9,0.7,1.4,0.8c-0.8,1.2-0.6,2.7,0.4,3.8l0.1,0.1
	c-0.4,0.7-0.8,1.5-1.2,2.2l-1.7-1.7c-1.2-1.2-3.1-1.2-4.2,0c-1.2,1.2-1.2,3.1,0,4.2l2.1,2.1c-0.6,0.6-1.2,1.1-1.9,1.5
	c-1.2-1-3-1-4.1,0.1c-0.6,0.6-0.9,1.3-0.9,2.1c-0.8,0.2-1.6,0.3-2.5,0.3c-0.1,0-0.2,0-0.3,0c0.1-0.8-0.2-1.7-0.9-2.3
	c-1.2-1.2-3.1-1.2-4.2,0L38.9,70c-1.1-0.6-2.2-1.4-3.1-2.3l1.8-1.8c1.2-1.2,1.2-3.1,0-4.2c-1.2-1.2-3.1-1.2-4.2,0L31.9,63
	c-1.4-2.2-2.5-4.8-3.3-7.6l1.1,1.1c1.2,1.2,3.1,1.2,4.2,0c1.2-1.2,1.2-3.1,0-4.2l-3.2-3.2l3.2-3.2c1.2-1.2,1.2-3.1,0-4.2
	c-1.2-1.2-3.1-1.2-4.2,0L27.4,44c0-0.4,0.1-0.9,0.1-1.3c0.7-0.9,0.8-2.1,0.4-3.1c0.1-0.4,0.1-0.7,0.2-1.1c0.8,0.1,1.7-0.2,2.3-0.9
	c1.2-1.2,1.2-3.1,0-4.2l-0.6-0.6c0.5-1.1,1-2.1,1.5-3.1c0.9,0.1,1.8-0.2,2.4-0.8c0.9-0.9,1.1-2.1,0.7-3.2l1.6-1.6l3.2,3.2
	c1.2,1.2,3.1,1.2,4.2,0c1.2-1.2,1.2-3.1,0-4.2l-2.3-2.3c0.1,0,0.3-0.1,0.4-0.1l0.1,0.1c1.2,1.2,3.1,1.2,4.2,0
	c0.1-0.1,0.2-0.2,0.2-0.3c0,0,0,0.1,0.1,0.1c0.9,0.9,2.3,1.1,3.4,0.6c0.5,0.2,1,0.5,1.5,0.8l-2.5,2.5c-1.2,1.2-1.2,3.1,0,4.2
	c1.2,1.2,3.1,1.2,4.2,0l2.8-2.8c0.2,0.3,0.5,0.5,0.7,0.8c-0.2,1,0,2,0.8,2.8c0.4,0.4,1,0.7,1.5,0.8c0.9,1.7,1.7,3.6,2.3,5.6
	c-1,1.2-1,2.9,0.2,4.1c0.3,0.3,0.6,0.5,0.9,0.6c0.1,0.5,0.1,1,0.2,1.6L61.5,41.3z M67.6,31.5c0.6-0.6,1.5-0.6,2.1,0
	c0.6,0.6,0.6,1.5,0,2.1s-1.5,0.6-2.1,0C67.1,33.1,67.1,32.1,67.6,31.5z M63.6,21c0.6-0.6,1.5-0.6,2.1,0s0.6,1.5,0,2.1
	s-1.5,0.6-2.1,0C63.1,22.6,63.1,21.6,63.6,21z M63.6,49.8c-0.6-0.6-0.6-1.5,0-2.1s1.5-0.6,2.1,0s0.6,1.5,0,2.1
	C65.2,50.4,64.2,50.4,63.6,49.8z M67.6,65c-0.6,0.6-1.5,0.6-2.1,0s-0.6-1.5,0-2.1s1.5-0.6,2.1,0S68.2,64.4,67.6,65z M71.1,50.8
	c-0.6,0.6-1.5,0.6-2.1,0s-0.6-1.5,0-2.1s1.5-0.6,2.1,0S71.7,50.2,71.1,50.8z"/>
</svg>
