<?xml version="1.0" encoding="utf-8"?>
<!-- Generator: Adobe Illustrator 24.2.3, SVG Export Plug-In . SVG Version: 6.00 Build 0)  -->
<svg version="1.1" id="Layer_1" xmlns="http://www.w3.org/2000/svg" xmlns:xlink="http://www.w3.org/1999/xlink" x="0px" y="0px"
	 viewBox="0 0 55 90" style="enable-background:new 0 0 55 90;" xml:space="preserve">
<style type="text/css">
	.st0{fill:#68162A;}
</style>
<path class="st0" d="M13.1,22.8h28l0,0l2-3v-1.6c0-0.8-0.6-1.4-1.4-1.4h-3.8c-2-1.9-4.5-3.2-7.2-3.8c0.6-0.8,0.9-1.7,0.9-2.7
	c0-2.5-2-4.5-4.5-4.5H27c-2.5,0-4.5,2-4.5,4.5c0,1,0.4,2,0.9,2.7c-2.7,0.6-5.2,2-7.2,3.8h-3.8c-0.8,0-1.4,0.6-1.4,1.4v1.6L13.1,22.8
	L13.1,22.8z M39,32.3c-0.1-0.4-0.3-0.5-0.3-0.6c0,0-1.7-1.9-2.4-4.9h3.4c1.8,2.4,4.2,3.9,7.4,4.9h0.1c0,0,0.2,0.2,0.3,0.6
	c0.4,1.2,0.7,2.3,0.9,3.5h3.1c-0.3-1.4-0.6-2.9-1.1-4.4c-0.4-1.3-1.3-2.3-2.6-2.6c-2.4-0.6-4.4-2-5.7-4h-30c-1.3,2-3.3,3.4-5.7,4
	c-1.3,0.3-2.2,1.3-2.6,2.6c-0.5,1.5-0.8,2.9-1.1,4.4h37.1C39.6,34.6,39.3,33.4,39,32.3z M40.8,39.7H49c0.1,0.6,0.1,1.3,0.1,1.9h3
	c-0.1-1.3-0.2-2.6-0.4-3.9H2.4C2.2,39,2.1,40.3,2,41.6h39C41,41,40.9,40.4,40.8,39.7z M52.2,41.6L52.2,41.6c0,0.7,0,1.3,0,2
	C52.2,42.9,52.2,42.3,52.2,41.6z M2,41.6c0,0.7,0,1.3,0,2C2,42.9,2,42.3,2,41.6L2,41.6z M2,43.6C1.9,66.2,19.6,83.7,19.6,83.7h14.9
	c0,0,17.8-17.5,17.7-40.1H2z M33.2,80.7c3.3-3.6,9.6-17.6,8.3-35.1h7.6C48.4,63.1,36.5,77.2,33.2,80.7z"/>
</svg>
