<?xml version="1.0" encoding="utf-8"?>
<!-- Generator: Adobe Illustrator 24.2.3, SVG Export Plug-In . SVG Version: 6.00 Build 0)  -->
<svg version="1.1" id="Layer_1" xmlns="http://www.w3.org/2000/svg" xmlns:xlink="http://www.w3.org/1999/xlink" x="0px" y="0px"
	 viewBox="0 0 70 90" style="enable-background:new 0 0 70 90;" xml:space="preserve">
<style type="text/css">
	.st0{fill:#68162A;}
</style>
<path class="st0" d="M35,51c6.6,0,12-5.4,12-12v-6c0-6.6-5.4-12-12-12s-12,5.4-12,12v6C23,45.6,28.3,51,35,51z M62,72h-3v-4.1
	L42.9,84H68V58.9l-6,6V72z M2,6v78h32.4L68,50.4V6H2z M62,39.4L45.1,56.3L42,55.5l-7,6.9l-7-6.9l-14.8,3.6c-1.3,0.3-2.3,1.5-2.3,2.9
	v10H8V12h54V39.4z"/>
</svg>
