<?xml version="1.0" encoding="utf-8"?>
<!-- Generator: Adobe Illustrator 24.2.3, SVG Export Plug-In . SVG Version: 6.00 Build 0)  -->
<svg version="1.1" id="Layer_1" xmlns="http://www.w3.org/2000/svg" xmlns:xlink="http://www.w3.org/1999/xlink" x="0px" y="0px"
	 viewBox="0 0 67.2 90" style="enable-background:new 0 0 67.2 90;" xml:space="preserve">
<style type="text/css">
	.st0{fill:#68162A;}
</style>
<path class="st0" d="M36,8.8h-2c-7.7,0.6-13.8,7.1-13.8,14.9h30C50.2,15.7,43.9,9.2,36,8.8z M20.2,56.6c-1.7,0-3,1.3-3,3v14.8h6
	V59.6C23.2,58,21.8,56.6,20.2,56.6z M33.2,31.7v10h4v-10c0-1.1-0.9-2-2-2C34.1,29.7,33.2,30.6,33.2,31.7z M50,42V26.7h-3v15
	c-5.8,0.1-10.9,3.5-13.3,8.5c-2-4.2-6-7.3-10.7-8.2V26.7h-3v15c-8.2,0.1-14.8,6.8-14.8,15v24h3v-24c0-6.5,5.3-11.9,11.8-12
	c0.1,0,0.1,0,0.2,0c0.4,0,0.9,0,1.3,0.1c0.5,0.1,1,0.1,1.5,0.3c5.3,1.3,9.2,6,9.2,11.7v24h30v-24C62.2,49.4,56.9,43.3,50,42z
	 M50.2,74.5h-6V59.6c0-1.7,1.3-3,3-3s3,1.3,3,3V74.5z"/>
</svg>
