<svg xmlns="http://www.w3.org/2000/svg" viewBox="0 0 746.2 187.4"><style>.st0{display:none}.st1{display:inline}.st3{fill:#780000}.st4{fill:#710000}.st5{font-family:&apos;TrajanPro3-Regular&apos;}.st6{font-size:53.9978px}</style><g id="hor"><g id="Layer_1_1_" class="st0"><g class="st1"><path d="M97.1 199.4c.6 3.6 1.9 7 3.8 9.9s4.5 5.3 7.6 6.8c3.1 1.6 6.6 2.2 10.1 2.5s7.1 0 10.8-.3c-3.5 1.1-7.1 1.8-10.8 1.9-3.7 0-7.5-.6-10.9-2.3-1.7-.9-3.3-2-4.7-3.3-1.4-1.3-2.5-2.9-3.4-4.5-1.9-3.3-2.7-7-2.5-10.7z"/><path d="M100.4 183.2c-2.8 1.3-4.8 3.7-6 6.4-1.3 2.7-1.9 5.6-2 8.6s0 5.9.7 8.7 2.1 5.5 3.9 7.7l.7.8c.2.3.5.5.8.8l.8.7.4.4.4.3 1.8 1.3 1.9 1c.6.4 1.3.6 2 .9.7.3 1.3.6 2.1.7l2.1.6c.7.1 1.5.2 2.2.3 5.9.8 12 0 17.9-1.3-1.4.5-2.9 1-4.3 1.4-1.5.4-3 .7-4.5 1-1.5.2-3 .4-4.6.5h-3.5l-1.2-.1c-.8-.1-1.5-.1-2.3-.2l-2.3-.5c-.8-.1-1.5-.4-2.2-.7s-1.5-.5-2.2-.9l-2.1-1.1-1.9-1.4-.5-.3-.4-.4-.9-.8c-.3-.3-.6-.5-.9-.8l-.8-.9c-2-2.5-3.5-5.4-4.1-8.5-.7-3.1-.8-6.3-.5-9.3.3-3.1 1.2-6.2 2.7-8.9.8-1.3 1.8-2.6 2.9-3.6 1.1-1.2 2.4-2 3.9-2.4z"/><path d="M74.2 197.1c.9 3.5 2.4 6.8 4.2 9.9 1.8 3.1 3.9 5.9 6.4 8.5 5 5 11.3 8.6 18 10.6 3.4 1 6.9 1.6 10.4 2l2.7.2 2.7.1c1.8.1 3.6 0 5.3-.1 7.1-.4 14.2-2.1 20.7-5.1-3.1 1.9-6.5 3.3-9.9 4.4-3.5 1.1-7.1 1.8-10.7 2.2-7.3.7-14.7.1-21.8-1.9-3.5-1.1-6.9-2.5-10.1-4.5-3.1-1.9-6-4.3-8.5-7-4.9-5.3-8.3-12.2-9.4-19.3z"/><path d="M81.1 171.9c-2.4-3.9-6.4-6.5-10.7-7.7-2.1-.6-4.4-.9-6.6-.9-2.2-.1-4.4.2-6.5.7-2.1.6-4.1 1.5-5.9 2.7-1.8 1.3-3.3 2.8-4.7 4.5-1.3 1.8-2.4 3.6-3.3 5.7-.8 2-1.5 4.1-1.8 6.3-.8 4.3-.8 8.9.2 13.1.6 2.1 1.5 4 2.8 5.8.7.8 1.4 1.7 2.2 2.4.8.8 1.6 1.5 2.5 2.2s1.8 1.3 2.7 1.9c1 .6 1.9 1.1 2.9 1.7 1 .5 2 1.1 3 1.6l3.1 1.5c4.1 1.9 8.4 3.6 12.6 5.3-4.4-1.3-8.7-2.8-13-4.4-4.2-1.7-8.5-3.6-12.3-6.3-1.9-1.3-3.7-2.9-5.2-4.8-1.4-1.9-2.5-4.1-3.2-6.4-.6-2.3-.9-4.7-.9-7s.1-4.7.6-7c.8-4.6 2.7-9.1 5.6-12.8 1.5-1.8 3.2-3.5 5.2-4.8s4.2-2.2 6.5-2.8c2.3-.5 4.7-.7 7-.5 2.3.1 4.6.5 6.8 1.3s4.3 1.9 6.1 3.3c1.8 1.6 3.4 3.3 4.3 5.4z"/><path d="M144.9 228.3c-1.6 2-3.6 3.7-5.7 5.1-2.1 1.5-4.4 2.7-6.8 3.7-4.8 2-9.9 3.2-15 3.7s-10.4.3-15.5-.7-10-2.9-14.6-5.4c-4.5-2.5-8.7-5.7-12.5-9.3-3.7-3.6-7-7.6-9.6-12.2-2.6-4.5-4.4-9.3-6.3-14.1-.9-2.4-1.8-4.8-3-7s-2.7-4.3-4.6-6c2.1 1.5 3.7 3.6 5.1 5.8 1.4 2.2 2.4 4.5 3.5 6.9 2 4.7 4 9.4 6.7 13.7 1.3 2.2 2.8 4.1 4.4 6.1 1.6 1.9 3.3 3.8 5.2 5.5 3.7 3.5 7.7 6.5 12.1 8.9s9.1 4.3 14 5.3c4.9 1.1 9.9 1.3 15 1 5-.3 10-1.3 14.8-3 4.6-1.8 9.2-4.3 12.8-8z"/><path d="M150.8 218.3c-1.3 2.2-3.1 4.2-5 5.9-1.9 1.8-4 3.3-6.3 4.6-4.5 2.6-9.5 4.4-14.7 5.3-5.2.9-10.4 1.1-15.6.7l-3.9-.5-3.8-.8c-2.5-.7-5-1.5-7.5-2.5-9.6-4.2-18.1-11.1-23.4-20.3-.6-1.2-1.2-2.4-1.6-3.6-.4-1.3-.7-2.5-1-3.8-.5-2.6-.8-5.1-1.1-7.7-.5-5.1-1.1-10.3-3.1-15 1.2 2.3 2 4.8 2.6 7.3s1 5.1 1.4 7.6.8 5.1 1.4 7.6c.3 1.2.6 2.5 1.1 3.6.4 1.2 1 2.3 1.6 3.4.3.6.7 1.1 1 1.6s.7 1 1.1 1.5l1.2 1.5 1.2 1.4c.8 1 1.7 1.8 2.6 2.7 1 .8 1.9 1.7 2.8 2.5 3.9 3.2 8.2 5.9 12.9 7.9 4.6 2 9.6 3.4 14.6 3.8 5 .5 10.2.4 15.2-.3 5-.8 9.9-2.3 14.4-4.6 2.3-1.1 4.4-2.6 6.4-4.2.5-.4 1-.8 1.5-1.3.5-.4.9-.9 1.4-1.3 1-.9 1.9-1.9 2.6-3z"/><path class="st3" d="M84.4 173.3s-5.6 4.1-4.8 11.1c.8 7-1.3 12.4-6 12.3-4.6-.2-12.7-12.5 10.8-23.4zm-35.7-18.9s7 4.3 6.7 12.4c-.3 8.2 2.8 14.4 8.2 13.7s13.6-15.8-14.9-26.1zm-19.3 19.2s7 .2 10.3 6.4 8.1 9.5 11.9 6.7 3.4-17.4-22.2-13.1z"/><path d="M348.9 199.4c.2 3.6-.6 7.4-2.4 10.7-.9 1.7-2 3.2-3.4 4.5s-3 2.4-4.7 3.3c-3.4 1.7-7.2 2.3-10.9 2.3s-7.3-.7-10.8-1.9c3.6.3 7.2.6 10.8.3 3.5-.3 7-1 10.1-2.5s5.7-3.9 7.6-6.8c1.8-2.9 3.1-6.3 3.7-9.9z"/><path d="M345.6 183.2c1.5.4 2.8 1.3 4 2.3s2.1 2.3 2.9 3.6c1.6 2.7 2.4 5.8 2.7 8.9.3 3.1.2 6.2-.5 9.3s-2.2 6-4.1 8.5l-.8.9c-.3.3-.6.6-.9.8l-.9.8-.4.4-.5.3-1.9 1.4-2.1 1.1c-.7.4-1.5.6-2.2.9-.7.3-1.5.6-2.2.7l-2.3.5c-.8.1-1.5.2-2.3.2l-1.2.1h-3.5c-1.5-.1-3.1-.3-4.6-.5-1.5-.3-3-.7-4.5-1-1.5-.5-2.9-.9-4.3-1.4 5.9 1.4 12 2.1 17.9 1.3.7-.1 1.5-.2 2.2-.3l2.1-.6c.7-.1 1.4-.4 2.1-.7s1.4-.5 2-.9l1.9-1 1.8-1.3.4-.3.4-.4.8-.7.8-.8.7-.8c1.8-2.2 3.2-4.8 3.9-7.7.7-2.8.9-5.8.7-8.7-.2-2.9-.8-5.9-2-8.6-1.3-2.6-3.4-5-6.1-6.3z"/><path d="M371.8 197.1c-1.1 7.1-4.5 14-9.5 19.4-2.5 2.7-5.4 5.1-8.5 7s-6.6 3.4-10.1 4.5c-7.1 2.1-14.5 2.6-21.8 1.9-3.6-.3-7.2-1.1-10.7-2.2-3.5-1.2-6.8-2.6-9.9-4.4 6.6 3 13.6 4.7 20.7 5.1 1.8.1 3.6.1 5.3.1l2.7-.1 2.7-.2c3.5-.4 7-1 10.4-2 6.8-2 13.1-5.6 18-10.6 2.5-2.5 4.6-5.4 6.4-8.5 1.9-3.2 3.3-6.5 4.3-10z"/><path d="M364.8 171.9c1-2.1 2.5-3.8 4.3-5.3 1.8-1.4 3.9-2.6 6.1-3.3 2.2-.8 4.5-1.2 6.8-1.3 2.3-.2 4.7 0 7 .5s4.5 1.5 6.5 2.8 3.7 3 5.2 4.8c2.9 3.7 4.8 8.2 5.6 12.8.5 2.3.6 4.6.6 7 0 2.3-.3 4.7-.9 7-.7 2.3-1.8 4.5-3.2 6.4-1.5 1.9-3.2 3.5-5.2 4.8-3.8 2.7-8 4.6-12.3 6.3-4.3 1.6-8.6 3.1-13 4.4 4.2-1.7 8.5-3.4 12.6-5.3l3.1-1.5c1-.5 2-1 3-1.6 1-.5 1.9-1.1 2.9-1.7.9-.6 1.9-1.2 2.7-1.9.9-.7 1.7-1.4 2.5-2.2.8-.7 1.5-1.6 2.2-2.4 1.3-1.8 2.2-3.7 2.8-5.8 1-4.2 1-8.8.2-13.1-.4-2.2-1-4.3-1.8-6.3s-2-3.9-3.3-5.7c-1.4-1.7-2.9-3.2-4.7-4.5-1.8-1.2-3.8-2.2-5.9-2.7s-4.3-.8-6.5-.7c-2.2 0-4.4.3-6.6.9-4.3 1.1-8.3 3.7-10.7 7.6z"/><path d="M301.1 228.3c3.6 3.7 8.1 6.2 12.8 7.9 4.7 1.7 9.8 2.7 14.8 3s10.1.1 15-1 9.6-2.9 14-5.3 8.5-5.4 12.1-8.9c1.9-1.7 3.5-3.6 5.2-5.5 1.6-2 3.1-4 4.4-6.1 2.6-4.3 4.7-9 6.7-13.7 1-2.3 2.1-4.7 3.5-6.9 1.3-2.2 3-4.2 5.1-5.8-1.9 1.7-3.4 3.8-4.6 6s-2.1 4.6-3 7c-1.8 4.8-3.7 9.6-6.3 14.1-2.6 4.5-5.9 8.5-9.6 12.2-3.7 3.6-7.9 6.7-12.5 9.3-4.6 2.5-9.5 4.4-14.6 5.4s-10.4 1.2-15.5.7-10.2-1.7-15-3.7c-2.4-1-4.7-2.2-6.8-3.7-2.1-1.3-4.1-3-5.7-5z"/><path d="M295.1 218.3c.7 1.1 1.6 2 2.5 2.9.4.5.9.9 1.4 1.3.5.4 1 .9 1.5 1.3 2 1.6 4.1 3 6.4 4.2 4.5 2.4 9.4 3.9 14.4 4.6 5 .7 10.2.8 15.2.3s10-1.9 14.6-3.8c4.7-2 9-4.7 12.9-7.9 1-.8 1.9-1.7 2.8-2.5.9-.9 1.8-1.8 2.6-2.7l1.2-1.4 1.2-1.5c.4-.5.8-1 1.1-1.5.3-.5.7-1 1-1.6.6-1.1 1.2-2.2 1.6-3.4s.8-2.4 1.1-3.6c.6-2.5 1-5 1.4-7.6.4-2.5.8-5.1 1.4-7.6s1.4-5 2.6-7.3c-2 4.8-2.5 9.9-3.1 15-.3 2.6-.6 5.1-1.1 7.7-.3 1.3-.6 2.6-1 3.8-.4 1.3-1 2.5-1.6 3.6-5.3 9.1-13.8 16.1-23.4 20.3-2.4 1-4.9 1.8-7.5 2.5l-3.8.8-3.9.5c-5.2.4-10.5.3-15.6-.7-5.1-.9-10.2-2.7-14.7-5.3-2.3-1.3-4.4-2.9-6.3-4.6-1.8-1.6-3.6-3.5-4.9-5.8z"/><path class="st3" d="M361.5 173.3s5.6 4.1 4.8 11.1c-.8 7 1.3 12.4 6 12.3 4.7-.2 12.8-12.5-10.8-23.4zm35.8-18.9s-7 4.3-6.7 12.4c.3 8.2-2.8 14.4-8.2 13.7s-13.6-15.8 14.9-26.1zm19.3 19.2s-7 .2-10.3 6.4-8.1 9.5-11.9 6.7c-3.7-2.7-3.4-17.4 22.2-13.1z"/><path d="M255.5 230.7c-2 1.7-3.8 3.3-6 5.2-3.8-9.3-9.9-15.8-17.7-20.9-7.3-4.8-12.8-4.7-20.1.1-7.9 5.1-13.7 11.9-17.7 20.8-2.1-2-3.9-3.6-5.7-5.3 6.5-9.6 15.5-15.5 25.3-20.5-2.3.7-5.2.7-7 2.1-8.7 6.6-19 7.9-29.1 10.5-5.8 1.5-11.3 4.3-17 6.5 4.5-11 12.4-19.2 24.5-20.8 10.4-1.4 21.1-.1 31.7-.2 7.1-.1 14.2-.3 21.3-.7 9.1-.6 18.2-1.2 26.9 2.7 8.8 3.9 14.5 10.6 17.7 18.2-8.4-2.6-17.5-5.1-26.4-8.2-8.9-3.1-17.6-6.7-26.7-9.6 10.3 4.5 19.3 10.3 26 20.1zm-86.7-58.6c7.5 4.5 15.6 9.5 23.9 14 7.2 4 13.5 8.8 17 16.7-22.7-.1-41-13.9-40.9-30.7zm181.4-55.3c1.5-23.7 15.1-39.9 36.1-39.6C374.8 84.3 371 96 363.7 105c-3.7 4.6-9 7.9-13.5 11.8zM308 154.1c1.2 22-12.5 35.2-35.6 40.8 2.2-7.7 6.4-13.6 12.4-18.2 8.5-6.4 17.5-12.4 23.2-22.6zm-204.4-11.3c-9.2-1.3-15.8-6.2-22.1-12.2-6.6-6.3-13.8-12-20.2-17.5 16.2-4.6 35.2 7.2 42.3 29.7zm10.8-24.4c1.2 12.6 8.2 21.6 13.1 31.7 2.9 6 4.3 12.3 3.2 19.2-16.7-11.1-27-31-16.3-50.9zm56.8 76.4c-23.6-5.1-36.2-19.2-35.6-38.9.3 0 .8-.2.8-.1 5.2 8.8 13.7 14.3 21.6 20.3 6.2 4.7 10.9 10.5 13.2 18.7zm103.9-24.1c.2 17.6-20.3 33.8-41 32 3.2-7.7 9.3-12.3 16.2-16.2 4.3-2.4 9-4.3 13.1-7 4.1-2.5 7.8-5.8 11.7-8.8zM101.8 83.1c1.3-24.3 14.2-41.1 33-41.8-9.5 7.5-12.8 18.1-18 27.6-4.1 7.5-8.8 11.8-15 14.2zm228 36.3c9.7 18.9.2 39.3-17.1 49.7-.9-7.8 1.2-14.8 4.7-21.4 2.4-4.5 5.3-8.8 7.3-13.5 2-4.7 3.3-9.6 5.1-14.8zM109.3 47.3c.5-24.1 14-41.7 30.3-42-4.5 8-9.5 16.4-14.1 25.1-3.7 7-8.5 12.9-16.2 16.9zm6.9 116.6c-8.1.9-15-1.2-21.7-4.9-8.9-4.9-17.9-9.5-26.3-13.8 15.4-8.7 35.5-.1 48 18.7zm212 1c10.5-18 29.1-28.8 47.7-19.9-10.5 5.4-21.6 11.5-33 16.8-4.4 2.1-9.8 2.2-14.7 3.1zm28.9 12.4c-11.8-1.4-21.4 2.6-31.1 5.7-7.3 2.3-14.6 2.5-21.9-.1 13.5-14.5 36.8-19.7 53-5.6zm-53-172c17.9 1.2 30.4 19.8 29.8 41.8-7.7-3.9-12.3-10.3-16.2-17.6-4.4-8.2-9.1-16.3-13.6-24.2zM326.9 79c17.9 9.8 21.2 30.6 14.4 49.6-6.3-6.6-8.5-14.7-9.8-23.3-1.2-7.8-3.2-15.4-4.8-23.1-.2-.8.1-1.7.2-3.2zM184.2 201.7c-6.5 7.6-14.9 9.7-23.6 11.5-8.6 1.8-17.1 4.2-25 6.1 3.2-12.2 19.3-24 48.6-17.6zm159.5-135c-7.3-19.8-5.4-39.5 15.3-51.8-6.7 11.7-5.2 24.1-7.5 35.8-1.2 5.6-4.1 10.9-6.3 16.3l-1.5-.3zM340 143c6.7-20.3 23.5-34.7 44.6-29.4-11.2 4.1-18.3 12.7-26.2 20.2-5.3 5.1-11.4 7.6-18.4 9.2zM118.9 78c-6 10.6-6.3 21.8-7.6 32.8-.9 7-4.9 14-9.2 17.3-7.5-24.2-.2-42 16.8-50.1zM349 94.2c-4.5-21.5 3.8-41.5 25.3-46.9-9.3 9.7-10.4 22.1-15.5 32.8-2.6 5-6.5 9.4-9.8 14.1zm-8.5 109.2c-10.7-4.3-21.3-2.3-31.7-1.9-7.4.3-14.4-.8-20.8-5 13.9-9.8 39.4-12.4 52.5 6.9zM100 67.1c-7.5-8-8.3-17.7-9.4-27.4-1-7.9-2.6-15.7-3.8-23 15.3 6.1 21.4 27.4 13.2 50.4zm-4 26.6c-5.9-4.5-10.1-9.9-12.5-16.8-3.5-10.1-5.8-20.8-13.7-29.2 18 2.2 29.7 23 26.2 46zm-8.8 83.6c12.2-12.2 34.3-11.6 52.6 5.4-6.9 2.8-13.6 2.6-20.4.8-10.5-2.9-20.5-7.7-32.2-6.2zm7.1-61.2c-8.3-3.8-13.8-9.6-18.4-16.8-4.9-7.7-10.6-15-15.5-21.8 17.4-1.8 32.3 17.1 33.9 38.6zm9.4 86.4c11.1-15.4 31.4-18.1 52.5-6.5-6.7 4.6-13.7 5.8-21.2 5.4-5.3-.3-10.6-.9-15.9-.7-5.1.2-10.1 1.2-15.4 1.8zm156.6-1c27.9-5.3 41.2 3 48.7 18.5-7-2.1-14.4-4.4-21.9-6.4-5.1-1.4-10.5-1.7-15.4-3.5-4.3-1.6-8.1-4.7-12.1-7.1.2-.5.4-1 .7-1.5zm78-135.9c-3.6 1.1-7.2 2.1-10.8 3.2-5.5-9.2-11.2-18.6-16.4-27.4 12 .7 23.9 10.9 27.2 24.2zm-6.8 10.6c3.4-1.5 5.6-2.4 8.8-3.8.6 3.9 1.1 7.1 1.6 10.4-.3.3-.7.5-1 .8-2.8-2.3-5.7-4.6-9.4-7.4z"/><path class="st3" d="M244.9 168.9c-.1-.3-.4-.6-.4-.9 3.9-17.4 7.4-34.9 11.8-52.2 2-7.9 5.7-15.5 8.6-23.2.5-1.3 1.1-2.6 1.7-4-.4-.3-.8-.6-1.3-.9-6.2 7.4-12.6 14.6-18.6 22.2-13 16.2-25.4 33-41.7 46.2-8.8 7.2-18.7 11.5-30.6 11-19.4-.8-29.6-18.3-19.3-34.8 7.4-11.7 18.1-18.8 32.7-18.4 9.7.3 16 6.1 15.7 14.8-.2 5-3.4 9.6-7.4 12.5-4.2 3-10.5 4.6-15 1.6-6.2-4.2-3.6-15.1 3.7-16.5-2.8 3.2-4.5 7.1-3.8 11.4.1.7.3 1.4.7 2 .4.5.9 1 1.5 1.3 1.5.9 3.4 1 5.1.7 2.3-.5 4.5-1.9 6.5-3.2 3.8-2.5 7.2-6.5 7-11.3-.3-6.3-6.1-9.8-11.8-10.4-14.2-1.6-31.9 15.4-34.2 28.5-2.3 12.7 5.8 18.3 16.9 19.6 10.9 1.3 20-3.7 27.6-10.6 9.5-8.5 18.1-18.1 26.5-26.7-2.8-1.9-6.4-2.8-8.3-5.8-.8-1.3-1.3-2.9-1.7-4.4-1.3-5.5-1-11.3.8-16.7 1.9-5.7 4.7-11 7-16.5-5.6 0-11.8-.1-17.9.1-1.1.1-2.2 1.8-3.1 2.9-12.1 14.8-25.9 27.1-44.5 33-8.5 2.7-16.7 2.3-24.6-1.5-8-3.9-12.6-14.4-10.5-23.2 3.7-16 20.1-28.4 36.4-27.5 9.7.5 15.5 5.5 15.5 13.3 0 8.9-8.4 18.9-18 17.5-3.3-.5-6.4-2.7-7.5-5.8-1.2-3.4.1-7.4 2.7-9.9 1.3-1.3 2.9-2.3 4.7-2.3-.6 1.1-1.4 2.1-2.3 3-.8.8-1.8 1.4-2.4 2.4-1.4 2.3-1 4.9 0 7.2 1.5 3.3 4.6 3.8 8.1 3 6.4-1.5 11.4-6.5 12.4-12.8 1.3-8.2-6.6-14.6-16.2-12.9-13.2 2.3-21 11.3-26.9 22.4-3.5 6.5-5.1 13.4.1 19.6 5.3 6.4 12.7 8.2 20.7 6.9 15.3-2.4 25-12.9 34.2-24 2.5-3.1 4.7-6.4 7.7-10.4h-12.7c-.1-.5-.8-1.8-.2-2.1l1.2-.6c.7-.3 1.4-.6 2.1-.8 1.8-.4 3.9.5 5.9.4 1.8-.1 3.5-.5 5-1.4 3.3-1.8 5.7-5 7.7-8.1 9.2-14.5 19.6-28.1 32.5-39.9-4.7 3.3-9.5 6.5-14.2 9.9-11 8-21.8 16.5-35 20.5-4.4 1.3-9.7 2.1-14 .9-11.1-3.2-14.3-15.1-7.6-25.4 8.7-13.3 30.7-18.8 44.5-11 1.9 1.1 3.4 2.7 4.5 5.1-.6 0-1.3.1-1.7-.2-13.2-9.4-26.8-8.1-38.9 3.6-5.2 5-7.6 10.9-6.2 18 1.4 7 8.7 10.3 14.1 8.1 9.9-4.1 19.6-8.7 28.8-14.2 12.1-7.2 23.5-15.5 35.4-22.9 3.5-2.2 7.9-2.8 13-4.5-.9 1.8-1.1 2.6-1.5 2.8-9.4 2.6-14.7 10.1-20 17.2-9.5 12.8-18.2 26-28.1 40.3 7.5 0 13.5.1 19.6-.1.8 0 1.8-1.2 2.5-2.1 15.8-19.9 32.8-38.4 52.9-54 2.1-1.7 4.7-2.7 7.1-4.1l1.2 1.2c-1 1.4-1.9 2.9-3.1 4-25.7 24.3-46.9 52-64 82.9-1.4 2.6-2.4 5.5-2.8 8.4-.3 1.7.4 4.3 1.6 5.2 1.4 1.1 4.2 1.5 5.8.9 2.3-.9 4.4-2.9 6.2-4.8 14.1-15 28.2-30.1 42.3-45.1 1.6-1.7 3.8-2.9 5.9-4.3.4.9.8 1.3.7 1.5-10.3 13.7-12.1 30.6-16.8 46.3-3.3 10.9-6.3 21.8-9.8 33.9 6.6-8.3 12.6-15.9 18.7-23.4 8.7-10.6 17.5-21.3 26.3-31.9 7.8-9.4 15.4-19 26.5-24.7 5.2-2.7 13.5-5.1 17.4.8-8.8-2.2-15.9 2.7-21.9 8.6-14.4 14.1-27.4 29.6-40.4 44.9-3.3 3.9-38.4 43.7-36.8 45.3-1-.4-1.5-.9-2-1.4z"/></g><path d="M5.9 249.3c.5 0 1.4.1 1.8.2 1.8.4 2.2 1.2 2.3 3.1.1 1.7.1 3.2.1 11.6v9.4c0 5.1 0 9.4-.3 11.6-.2 1.6-.5 2.7-1.6 2.9-.5.1-1.1.2-1.6.2-.3 0-.4.2-.4.3 0 .3.3.4.9.4 1.6 0 5-.2 5.2-.2.3 0 3.6.2 6.6.2.6 0 .9-.2.9-.4s-.1-.3-.4-.3c-.5 0-1.7-.1-2.4-.2-1.6-.2-1.9-1.4-2.1-2.9-.3-2.2-.3-6.5-.3-11.6V268c0-.3.2-.3.3-.3h22.7c.2 0 .3.1.3.3v5.6c0 5.1 0 9.4-.3 11.6-.2 1.6-.5 2.7-1.6 2.9-.5.1-1.1.2-1.6.2-.3 0-.4.2-.4.3 0 .3.3.4.9.4 1.6 0 5-.2 5.2-.2.3 0 3.6.2 6.6.2.6 0 .9-.2.9-.4s-.1-.3-.4-.3c-.5 0-1.7-.1-2.4-.2-1.6-.2-1.9-1.4-2.1-2.9-.3-2.2-.3-6.5-.3-11.6v-9.4c0-8.4 0-9.9.1-11.6.1-1.9.5-2.8 2-3.1.6-.1 1-.2 1.3-.2.2 0 .4-.1.4-.3 0-.3-.3-.4-.9-.4-1.6 0-5 .2-5.2.2-.3 0-3.6-.2-6.1-.2-.6 0-.9.1-.9.4 0 .2.2.3.4.3.5 0 1.4.1 1.8.2 1.8.4 2.2 1.2 2.3 3.1.1 1.7.1 3.2.1 11.6v1.1c0 .3-.2.3-.3.3H14.9c-.2 0-.3-.1-.3-.3v-1.1c0-8.4 0-9.9.1-11.6.1-1.9.5-2.8 2-3.1.6-.1 1-.2 1.3-.2.2 0 .4-.1.4-.3 0-.3-.3-.4-.9-.4-1.6 0-5 .2-5.2.2-.3 0-3.6-.2-6.1-.2-.6 0-.9.1-.9.4.1.2.4.3.6.3zm45 39.7c2.2 0 4.6-.2 5.1-.2.6 0 3.1.2 4.2.2.4 0 .8-.1.8-.4 0-.2-.2-.4-.6-.4H60c-1.2 0-1.8-.4-1.8-1.4 0-.9.4-2.3.9-3.8l2.4-6.7c.1-.3.3-.4.5-.4h9.7c.2 0 .3.1.4.3l4.2 10.8c.3.8 0 1.1-.2 1.2s-.4.2-.4.4c0 .3.3.3 1.3.4 3.6.1 7.6.1 8.1.1.6 0 .8-.1.8-.4s-.3-.4-.6-.4-1.1 0-1.8-.3-2.3-1-4.1-5.2c-2.8-6.7-10.1-25.4-10.9-27.1-.6-1.5-.8-1.7-1.1-1.7-.4 0-.5.3-1.1 1.8L55.9 284c-.9 2.2-1.8 4-4.1 4.2-.3.1-.8.1-1.1.1-.4 0-.6.2-.6.4-.1.2.2.3.8.3zm11.6-15.2l4-11.8c.3-.7.3-.7.6 0l4.2 11.8c.1.2.1.3-.2.3h-8.6s-.1-.1 0-.3zm26.7-18.5c.4 0 1 .1 1.3.1 1.7.3 2 1.1 2.1 2.6.1 1.4.1 2.7.1 9.8v8c0 4 .1 8.4-.2 10.3-.2 1.3-.5 1.9-1.4 2-.4.1-.8.1-1.2.1-.3 0-.6.2-.6.3 0 .3.2.4.8.4 1.4 0 3.8-.2 4.7-.2.2 0 3.2.2 6 .2.5 0 .7-.2.7-.4s-.2-.3-.7-.3c-.4 0-1-.1-1.6-.1-1.8-.2-1.9-1.3-2.1-2.6-.3-1.9-.3-5.8-.3-10.1v-.8c0-.2.1-.3.3-.3l5.5.1c.3 0 .4.1.6.3.9 1.1 3.1 4 5.1 6.6 2.8 3.6 4.4 6 6.6 7 1.2.5 2.4.6 4.9.6h3.7c.3 0 .5 0 .6-.1.1 0 .3.1.5.1 1.4 0 3.8-.2 4.7-.2.2 0 3.2.2 6 .2.5 0 .7-.2.7-.4s-.2-.3-.7-.3c-.4 0-1-.1-1.6-.1-1.8-.2-1.9-1.3-2.1-2.6-.3-1.9-.3-5.8-.3-10.1v-.8c0-.2.1-.3.3-.3l5.5.1c.3 0 .4.1.6.3.9 1.1 3.1 4 5.1 6.6 2.8 3.6 4.4 6 6.6 7 1.2.5 2.4.6 4.9.6h3.7c.3 0 .5 0 .6-.1.1 0 .3.1.5.1 1.4 0 3.8-.2 4.7-.2.2 0 3.2.2 6 .2.5 0 .7-.2.7-.4s-.2-.3-.7-.3c-.4 0-1-.1-1.6-.1-1.8-.2-1.9-1.3-2.1-2.6-.3-1.9-.3-5.8-.3-10.1v-.8c0-.2.1-.3.3-.3l5.5.1c.3 0 .4.1.6.3.9 1.1 3.1 4 5.1 6.6 2.8 3.6 4.4 6 6.6 7 1.2.5 2.4.6 4.9.6h3.7c.3 0 .5 0 .6-.1.1 0 .3.1.5.1 1.5 0 4.7-.2 4.8-.2.3 0 3.4.2 6.1.2.5 0 .8-.2.8-.4s-.1-.3-.6-.4c-.2 0-1.3-.1-2-.2-1.4-.3-1.6-.9-1.8-2.5-.3-1.9-.2-5.7-.2-9.8v-8c0-7.1-.1-8.3.1-9.7.1-1.6.3-2.4 1.8-2.6.4-.1.6-.1 1-.1.4-.1.6-.2.6-.4 0-.3-.3-.4-.8-.4-1.5 0-4.6.2-4.8.2s-3.2-.2-4.9-.2c-.6 0-.8.1-.8.4 0 .2.2.3.6.4.3.1.7.1 1.2.2 1.1.2 1.4 1 1.6 2.5.1 1.4.1 2.7.1 9.8v8c0 4 0 7.8-.3 9.7-.2 1.3-.3 2.4-1.2 2.6-.4.1-1 .2-1.3.2h-.6c-.2 0-1.3-.1-1.7-.1-1.5-.2-3.1-.6-5.7-3.3-2.7-2.8-5.9-6.8-9.9-11.6 4.2-3.4 5.7-7.2 5.7-10.1 0-3.6-2.2-5.8-3.2-6.5-2.5-1.8-5.8-2-8.8-2-1.5 0-5.1.2-5.6.2-.1 0-3.4-.2-5.7-.2-.5 0-.6.2-.6.4s.2.3.6.3c.4 0 1 .1 1.3.1 1.7.3 2 1.1 2.1 2.6.1 1.4.1 2.7.1 9.8v8c0 4 .1 8.4-.2 10.3-.2 1.3-.5 1.9-1.4 2-.4.1-.8.1-1.2.1-.1 0-.2 0-.3.1-.1 0-.2-.1-.3-.1-.2 0-1.3-.1-1.7-.1-1.5-.2-3.1-.6-5.7-3.3-2.7-2.8-5.9-6.8-9.9-11.6 4.2-3.4 5.7-7.2 5.7-10.1 0-3.6-2.2-5.8-3.2-6.5-2.5-1.8-5.8-2-8.8-2-1.5 0-5.1.2-5.6.2-.1 0-3.4-.2-5.7-.2-.5 0-.6.2-.6.4s.2.3.6.3 1 .1 1.3.1c1.7.3 2 1.1 2.1 2.6.1 1.4.1 2.7.1 9.8v8c0 4 .1 8.4-.2 10.3-.2 1.3-.5 1.9-1.4 2-.4.1-.8.1-1.2.1-.1 0-.2 0-.3.1-.1 0-.2-.1-.3-.1-.2 0-1.3-.1-1.7-.1-1.5-.2-3.1-.6-5.7-3.3-2.7-2.8-5.9-6.8-9.9-11.6 4.2-3.4 5.7-7.2 5.7-10.1 0-3.6-2.2-5.8-3.2-6.5-2.5-1.8-5.8-2-8.8-2-1.5 0-5.1.2-5.6.2-.1 0-3.4-.2-5.7-.2-.5 0-.6.2-.6.4.7.2 1 .3 1.3.3zm77.2 1.7c0-.3.2-.4.3-.5.6-.2 1.8-.3 3.1-.3 4.8 0 7.9 3.2 7.9 9 0 3.4-1.1 5.8-2.7 6.8-1.1.7-2.5.8-3.6.8-1.9 0-4.1-.3-4.8-.7-.2-.1-.3-.4-.3-.6V257h.1zm-34.8 0c0-.3.2-.4.3-.5.6-.2 1.8-.3 3.1-.3 4.8 0 7.9 3.2 7.9 9 0 3.4-1.1 5.8-2.7 6.8-1.1.7-2.5.8-3.6.8-1.9 0-4.1-.3-4.8-.7-.2-.1-.3-.4-.3-.6V257h.1zm-34.7 0c0-.3.2-.4.3-.5.6-.2 1.8-.3 3.1-.3 4.8 0 7.9 3.2 7.9 9 0 3.4-1.1 5.8-2.7 6.8-1.1.7-2.5.8-3.6.8-1.9 0-4.1-.3-4.8-.7-.2-.1-.3-.4-.3-.6l.1-14.5zm117.4 31.4c2 .9 4.1 1.2 6.4 1.2 2.6 0 5.1-.5 7.2-1.9 3.3-2.2 4.1-5.7 4.1-7.6 0-3.8-1.4-6.6-7-10.9l-1.2-1c-4.4-3.4-5.7-4.9-5.7-7.4 0-3.2 2.4-5.1 5.6-5.1 4.5 0 5.7 2 6 2.5.5.9.6 2 .6 2.5.1.4.1.6.4.6s.4-.3.4-1.1c0-3.1.2-5 .2-5.2s-.1-.3-.5-.3-.8-.1-1.8-.3c-1.2-.3-2.5-.4-4.3-.4-6 0-9.9 3.3-9.9 8.2 0 3.2 1.1 6 6.2 10.1l2.1 1.7c3.9 3.2 5.3 5 5.3 8.1 0 2.7-2.1 5.7-6.6 5.7-3.1 0-6.3-1.3-7-4.8-.2-.6-.2-1.3-.2-1.6 0-.4-.1-.5-.4-.5-.3 0-.4.3-.4.7-.1.8-.2 2.6-.2 5 0 1.3 0 1.5.7 1.8zm24-13.5h13.5v3.9h-13.5zm20 14.1c2.4 0 4.7-.2 5.1-.2.5 0 2.6.2 5.7.2.6 0 1-.1 1-.4 0-.2-.2-.3-.4-.3-.5 0-1.7-.1-2.7-.3-1.4-.4-2-1.8-2.1-6.2l-.7-25.6c1.7 1.9 7.8 8.7 14 15.4 5.7 6.1 13.4 14 14 14.5 2.8 2.8 3.5 3.4 3.9 3.4s.5-.3.5-3.8l.1-31.3c0-3.7.4-4.5 1.9-4.8.6-.1 1-.2 1.4-.2.4-.1.6-.2.6-.4 0-.3-.4-.4-1-.4-2.2 0-4 .2-4.6.2s-3.2-.2-5.6-.2c-.6 0-1.1.1-1.1.4 0 .2.2.4.8.4.5 0 1.3.1 2.3.3 1.7.4 2 1.6 2.1 5.1l.6 27.2c-1.7-1.8-7.5-8.3-12.9-14-8.2-8.8-16.2-17.5-17-18.4-.5-.5-1.4-1.7-1.9-1.7s-.6.6-.6 2.7c.1 10.4-.1 3.4-.1 22.8v7.9c0 4.9-.3 6.4-1.6 6.8-.8.3-1.8.3-2.2.3-.3 0-.4.1-.4.3.1.3.4.3.9.3zm45.8 0c2.2 0 4.6-.2 5.1-.2.6 0 3.1.2 4.2.2.4 0 .8-.1.8-.4 0-.2-.2-.4-.6-.4h-.4c-1.2 0-1.8-.4-1.8-1.4 0-.9.4-2.3.9-3.8l2.4-6.7c.1-.3.3-.4.5-.4h9.7c.2 0 .3.1.4.3l4.2 10.8c.3.8 0 1.1-.2 1.2s-.4.2-.4.4c0 .3.3.3 1.3.4 3.6.1 7.6.1 8.1.1.6 0 .8-.1.8-.4s-.3-.4-.6-.4c-.4 0-1.1 0-1.8-.3s-2.3-1-4.1-5.2c-2.8-6.7-10.1-25.4-10.9-27.1-.6-1.5-.8-1.7-1.1-1.7-.4 0-.5.3-1.1 1.8L309.1 284c-.9 2.2-1.8 4-4.1 4.2-.3.1-.8.1-1.1.1-.4 0-.6.2-.6.4-.1.2.2.3.8.3zm11.6-15.2l4-11.8c.3-.7.3-.7.6 0l4.2 11.8c.1.2.1.3-.2.3h-8.6s-.1-.1 0-.3zm26.5-18.5c.4 0 1.2.1 1.6.1 1.6.3 2 1.1 2.1 2.5.1 1.4.1 2.7.1 9.8v7.9c0 4.3.1 8-.3 10-.2 1.2-.5 2.3-1.4 2.5-.4.1-.8.2-1.2.2-.4 0-.6.2-.6.4 0 .3.3.4.7.4.8 0 2.1-.1 3.1-.1 1-.1 1.7-.1 1.8-.1.2 0 1.8.2 3.9.3 2 .2 4.7.3 6.7.3 8.1 0 12.2-3.2 14.3-5.2 2.6-2.7 5.1-7.1 5.1-12.8 0-5.4-2.2-9.2-4.6-11.5-5.7-5.7-14.5-5.2-19.2-5.2-3 0-5.8.2-6.2.2-.2 0-3.5-.2-5.7-.2-.5 0-.8.1-.8.4 0 0 .3.1.6.1zm8.1 11.6c0-3.2 0-7.8.1-9.3 0-.5.2-.7.6-.9.3-.2 2-.4 2.7-.4 5.3 0 10.5.5 15.1 5.1 1.8 1.8 4.6 5.5 4.6 11.5 0 4.3-1.1 8.3-3.5 10.7-2.8 2.8-6.7 4.2-11.1 4.2-5.6 0-7.3-1.1-7.9-2-.4-.5-.5-1.9-.5-3.6 0-.8-.1-5-.1-9.8v-5.5zm35-11.6c.4 0 1 .1 1.3.1 1.6.3 1.9 1.1 2 2.6.1 1.4.1 2.7.1 9.7v8c0 4.1-.1 6.3-.1 8.1-.1 3.3-.8 4-1.7 4.2-.4.1-.7.2-1.1.2-.3 0-.5.2-.5.4 0 .3.3.4.8.4 1.3 0 2.3-.2 3.5-.2 2 0 4.4.1 6.3.2 1.9 0 3.4.1 6.9.1 1.8 0 2.1-.1 2.4-1.2.2-.9.6-4.3.6-4.7 0-.3 0-.8-.3-.8-.2 0-.4.2-.5.8-.4 2-.8 3.1-2.4 3.5-1.3.4-3.1.3-4.1.3-1.8 0-3.1-.1-3.9-.5-1.1-.5-1.4-1.5-1.5-3.5-.1-.9 0-5.6 0-7.3v-3.9c0-.2.1-.4.4-.4.9 0 5.2.1 6.4.2 2 .2 2.4.9 2.6 1.6.1.4.2 1 .2 1.3 0 .4.1.7.3.7.2 0 .3-.2.4-.6.1-.7.1-1.8.2-3.3.2-1.6.4-2.6.4-2.8s-.1-.3-.2-.3c-.2 0-.4.1-.6.4-.4.6-1.2.8-2.5.8-1.1.1-6.6.2-7.2.2-.3 0-.3-.2-.3-.5v-12.2c0-.3.1-.4.3-.4.1 0 5.4.1 6.1.1 2.7.2 3.2.5 3.5 1.6.2.4.3.9.4 1.7 0 .4.1.6.4.6s.4-.3.4-.8c.1-1 .1-1.9.2-2.8.1-1.3.4-2.1.4-2.4 0-.3-.1-.4-.2-.4-.2 0-.3.1-.6.2-.4.2-1 .2-2.1.3s-10.6.1-10.9.1c-3-.1-4.4-.2-5.5-.2-.5 0-.8.1-.8.4-.2.3.1.4.5.4zm59.4 33c-.4 0-1.1 0-1.8-.3s-2.3-1-4.1-5.2c-2.8-6.7-10.1-25.4-10.9-27.1-.6-1.5-.8-1.7-1.1-1.7-.4 0-.5.3-1.1 1.8L415.1 284c-.9 2.2-1.8 4-4.1 4.2-.3.1-.8.1-1.1.1-.4 0-.6.2-.6.4 0 .3.3.4.9.4 2.2 0 4.6-.2 5.1-.2.6 0 3.1.2 4.2.2.4 0 .8-.1.8-.4 0-.2-.2-.4-.6-.4h-.4c-1.2 0-1.8-.4-1.8-1.4 0-.9.4-2.3.9-3.8l2.4-6.7c.1-.3.3-.4.5-.4h9.7c.2 0 .3.1.4.3l4.2 10.8c.3.8 0 1.1-.2 1.2s-.4.2-.4.4c0 .3.3.3 1.3.4 3.6.1 7.6.1 8.1.1.6 0 .8-.1.8-.4s-.1-.5-.5-.5zm-14.3-14.2h-8.6c-.1 0-.2-.1-.1-.3l4-11.8c.3-.7.3-.7.6 0l4.2 11.8c.1.1.1.3-.1.3zm-304.9 80.5c-.5 0-1.8 0-3.3-.5-2.3-.7-2.7-3.7-2.9-5.7l-3.6-32.9c-.1-1-.3-1.4-.6-1.4-.4 0-.6.4-.8.9l-15.7 33.6L82.1 315c-.3-.6-.5-.8-.8-.8s-.5.5-.6 1.1L76.9 350c-.3 2.2-.4 4.1-2.1 4.4-.8.2-1.2.2-1.6.2-.3 0-.5.1-.5.3 0 .4.4.4.9.4 1.4 0 4-.2 4.5-.2.4 0 3.2.2 5.1.2.5 0 .8-.1.8-.5 0-.2-.2-.3-.5-.3s-1 0-1.9-.2c-.8-.2-1.4-.6-1.4-1.9 0-.9.1-1.7.1-2.5l2.2-25.2c.6 1.4 6.7 14.7 7.2 15.6.3.5 4.9 9.8 6.3 12.4 1 1.9 1.3 2.5 1.7 2.5.5 0 .6-.5 1.8-2.8l13.3-28.2 2.6 28c.1 1 .2 1.8-.2 1.9-.3.1-.4.2-.4.4 0 .3.3.4 1.5.5 2 .2 8.1.3 9.3.3.6 0 .8-.1.8-.4-.3-.2-.6-.3-.9-.3zm22.8-34.3c-13.2 0-18.7 10.7-18.7 17.8 0 8.1 5.4 17.9 18.5 17.9 11.4 0 19-8.4 19-18.6-.1-10.8-8.2-17.1-18.8-17.1zm1.1 33.9c-9 0-14.8-7-14.8-17.5 0-10.1 6-14.7 13.4-14.7 7.3 0 14 6 14 16.8 0 13.5-9 15.4-12.6 15.4zm59.7.4c-.2 0-1.3-.1-1.7-.1-1.5-.2-3.1-.6-5.7-3.3-2.7-2.8-5.9-6.8-9.9-11.6 4.2-3.4 5.7-7.2 5.7-10.1 0-3.6-2.2-5.8-3.2-6.5-2.5-1.8-5.8-2-8.8-2-1.5 0-5.1.2-5.6.2-.1 0-3.4-.2-5.7-.2-.5 0-.6.2-.6.4s.2.3.6.3c.4 0 1 .1 1.3.1 1.7.3 2 1.1 2.1 2.6.1 1.4.1 2.7.1 9.8v8c0 4 .1 8.4-.2 10.3-.2 1.3-.5 1.9-1.4 2-.4.1-.8.1-1.2.1-.3 0-.6.2-.6.3 0 .3.2.4.8.4 1.4 0 3.8-.2 4.7-.2.2 0 3.2.2 6 .2.5 0 .7-.2.7-.4s-.2-.3-.7-.3c-.4 0-1-.1-1.6-.1-1.8-.2-1.9-1.3-2.1-2.6-.3-1.9-.3-5.8-.3-10.1v-.8c0-.2.1-.3.3-.3l5.5.1c.3 0 .4.1.6.3.9 1.1 3.1 4 5.1 6.6 2.8 3.6 4.4 6 6.6 7 1.2.5 2.4.6 4.9.6h3.7c.7 0 1-.1 1-.4.2-.1.1-.3-.4-.3zm-18.5-16.1c-1.1.7-2.5.8-3.6.8-1.9 0-4.1-.3-4.8-.7-.2-.1-.3-.4-.3-.6v-14.6c0-.3.2-.4.3-.5.6-.2 1.8-.3 3.1-.3 4.8 0 7.9 3.2 7.9 9 0 3.5-1 5.8-2.6 6.9zm43.5-17.9c-.2 0-.3.1-1 .2-.8.2-2.4.3-3.9.3h-17.6c-.1 0-1.6-.1-3.4-.3-1-.1-2-.6-2.4-.6-.2 0-.3.2-.5.9-.3 1.4-1.1 5-1.1 5.3s.1.5.3.5.3-.1.5-.4c.1-.3.3-.9.8-1.7.7-1.1 1.5-1.7 4.9-1.7 2.1-.1 5-.1 6.7-.1v19.1c0 4 0 7.9-.2 9.8-.2 1.8-.4 2.5-1.4 2.6-.4.1-.7.1-1.2.1-.4 0-.6.2-.6.4 0 .3.2.4.8.4 1.4 0 4.6-.2 4.8-.2s3.4.2 6.1.2c.5 0 .7-.2.7-.4s-.2-.3-.6-.3-1.4-.1-2.1-.2c-1.3-.3-1.4-1.1-1.6-2.4-.2-2-.3-5.8-.3-9.9V323c1.6 0 3.2.1 5.2.1 5.4.1 6.1.6 6.3 2.7.1.5.1.6.1.8 0 .4.1.6.4.6.2 0 .4-.2.4-.6s.1-4 .1-5.5c.2-.2.1-.5-.2-.5zm38.6.4c-1.5 0-3.8.2-4.1.2-.2 0-2.9-.2-5.2-.2-.5 0-.8.1-.8.4 0 .2.2.3.5.3.5 0 1.1.1 1.5.1 1.7.3 1.9 1.1 2 2.6.1 1.4.1 2.7.1 9.7v5.7c0 4.7-.5 8.7-2.6 11.2-2 2.4-4.6 3.1-7.3 3.1-2.2 0-4.8-.4-7.1-2.5-2-1.8-3.3-4.6-3.3-11.1v-6.4c0-7.1 0-8.3.1-9.7.1-1.5.3-2.4 1.6-2.6.4-.1.9-.1 1.2-.1s.6-.1.6-.4-.2-.4-.8-.4c-1.4 0-4.6.2-5 .2s-3.3-.2-5.6-.2c-.6 0-.8.1-.8.4 0 .2.2.3.6.3.4 0 1.1.1 1.4.1 1.7.2 1.9 1.1 2 2.6.2 1.4.2 2.7.2 9.7v6.6c0 6.6 1.7 9.9 4 12 3.5 3.2 8.5 3.2 10 3.2 2.9 0 6.3-.3 9.8-3.2 3.8-3.3 4.3-9 4.3-13.9v-4.8c0-7 0-8.2.1-9.7.1-1.6.3-2.5 1.8-2.7.5-.1.6-.1 1-.1s.5-.2.5-.4c0 .1-.2 0-.7 0zm36.8 33.6c-.4 0-1.1 0-1.8-.3s-2.3-1-4.1-5.2c-2.8-6.7-10.1-25.4-10.9-27.1-.6-1.5-.8-1.7-1.1-1.7-.4 0-.5.3-1.1 1.8l-10.7 28.2c-.9 2.2-1.8 4-4.1 4.2-.3.1-.8.1-1.1.1-.4 0-.6.2-.6.4 0 .3.3.4.9.4 2.2 0 4.6-.2 5.1-.2.6 0 3.1.2 4.2.2.4 0 .8-.1.8-.4 0-.2-.2-.4-.6-.4h-.4c-1.2 0-1.8-.4-1.8-1.4 0-.9.4-2.3.9-3.8l2.4-6.7c.1-.3.3-.4.5-.4h9.7c.2 0 .3.1.4.3l4.2 10.8c.3.8 0 1.1-.2 1.2s-.4.2-.4.4c0 .3.3.3 1.3.4 3.6.1 7.6.1 8.1.1.6 0 .8-.1.8-.4s0-.5-.4-.5zm-14.3-14.2h-8.6c-.1 0-.2-.1-.1-.3l4-11.8c.3-.7.3-.7.6 0l4.2 11.8c.1.2.1.3-.1.3zm52.9 14.2c-.2 0-1.3-.1-1.7-.1-1.5-.2-3.1-.6-5.7-3.3-2.7-2.8-5.9-6.8-9.9-11.6 4.2-3.4 5.7-7.2 5.7-10.1 0-3.6-2.2-5.8-3.2-6.5-2.5-1.8-5.8-2-8.8-2-1.5 0-5.1.2-5.6.2-.1 0-3.4-.2-5.7-.2-.5 0-.6.2-.6.4s.2.3.6.3 1 .1 1.3.1c1.7.3 2 1.1 2.1 2.6.1 1.4.1 2.7.1 9.8v8c0 4 .1 8.4-.2 10.3-.2 1.3-.5 1.9-1.4 2-.4.1-.8.1-1.2.1-.3 0-.6.2-.6.3 0 .3.2.4.8.4 1.4 0 3.8-.2 4.7-.2.2 0 3.2.2 6 .2.5 0 .7-.2.7-.4s-.2-.3-.7-.3c-.4 0-1-.1-1.6-.1-1.8-.2-1.9-1.3-2.1-2.6-.3-1.9-.3-5.8-.3-10.1v-.8c0-.2.1-.3.3-.3l5.5.1c.3 0 .4.1.6.3.9 1.1 3.1 4 5.1 6.6 2.8 3.6 4.4 6 6.6 7 1.2.5 2.4.6 4.9.6h3.7c.7 0 1-.1 1-.4.2-.1 0-.3-.4-.3zm-18.6-16.1c-1.1.7-2.5.8-3.6.8-1.9 0-4.1-.3-4.8-.7-.2-.1-.3-.4-.3-.6v-14.6c0-.3.2-.4.3-.5.6-.2 1.8-.3 3.1-.3 4.8 0 7.9 3.2 7.9 9 .1 3.5-1 5.8-2.6 6.9zm45.9-17.5c-.9 0-4 .2-4.7.2-.9 0-2-.2-3.3-.2-.5 0-.6.2-.6.3 0 .2.2.4.6.4.6.1 1.2.1 1.2.8 0 .6-.2 1.1-1.2 2.8-.7 1.3-6.7 11.1-7.6 13-.8-1.3-7.9-12.7-8.6-14-.4-.7-.7-1.2-.7-1.8 0-.4.1-.7.9-.9.4-.1.6-.2.6-.4s-.2-.3-.7-.3c-2 0-3.7.2-4.1.2-.1 0-4.2-.2-5-.2-.4 0-.6.2-.6.3 0 .3.3.4.6.4 1.1.1 1.8.3 2.5.8.7.6 1.3 1.2 2.7 3.3 1.7 2.3 7.9 12.4 8.2 13 .8 1.4 1.2 2.4 1.2 4.9v3.9c0 .4 0 2.4-.2 4.3-.1 1.3-.5 2.4-1.4 2.6-.4.1-.9.2-1.3.2s-.5.2-.5.3c0 .3.2.4.7.4 1.5 0 4.7-.2 4.8-.2.2 0 3.5.2 6.2.2.5 0 .6-.2.6-.4s-.2-.3-.6-.3-1.3-.1-2-.2c-1.7-.3-1.8-1.2-1.9-2.5-.1-1.9-.1-3.9-.1-4.3v-3.9c0-1.4-.1-2.6.5-4.2.8-1.9 6-10.6 9.1-14.9.9-1.2 1.2-1.7 2-2.2s1.6-.6 2.7-.7c.4 0 .6-.2.6-.4s-.1-.3-.6-.3zM3.3 301.9h439.3v1.8H3.3z"/><path class="st1" d="M262.3 247.7c-1.2-.1-2.9-.1-4.5-.1-.5 0-1.2 0-1.2.5s.7.5.9.5c.3 0 1.2 0 2.3.3 1.2.3 1.7 1 1.9 3h3.5c0-.5.1-.8.1-1.2l-3-3z"/></g><g id="Layer_1_copy"><path class="st4" d="M53.9 150.2c.4 2.5 1.3 5 2.7 7 1.3 2.1 3.2 3.8 5.4 4.8 2.2 1.1 4.7 1.6 7.2 1.8s5.1 0 7.6-.2c-2.5.8-5 1.3-7.7 1.3-2.6 0-5.3-.4-7.8-1.6-1.2-.6-2.3-1.4-3.3-2.3-1-1-1.8-2-2.4-3.2-1.3-2.4-1.9-5-1.7-7.6z"/><path class="st4" d="M56.2 138.6c-2 .9-3.4 2.6-4.3 4.5-.9 1.9-1.3 4-1.4 6.1-.1 2.1 0 4.2.5 6.2s1.5 3.9 2.7 5.5l.5.6.5.5.6.5.3.3.3.2 1.2.9 1.4.7c.4.3.9.4 1.4.6.5.2 1 .4 1.5.5l1.5.4c.5.1 1 .2 1.6.2 4.2.6 8.5 0 12.7-.9-1 .3-2 .7-3.1 1s-2.1.5-3.2.7c-1.1.1-2.2.3-3.3.4h-2.4l-.8-.1c-.5-.1-1.1-.1-1.7-.2l-1.6-.4c-.6-.1-1.1-.3-1.6-.5s-1.1-.3-1.6-.6l-1.5-.8-1.4-1-.3-.2-.3-.3-.6-.6-.6-.6-.5-.7c-1.4-1.8-2.5-3.8-2.9-6-.5-2.2-.6-4.5-.3-6.6.2-2.2.8-4.4 1.9-6.3.6-1 1.2-1.8 2.1-2.6.7-.5 1.7-1.1 2.7-1.4z"/><path class="st4" d="M37.6 148.5c.7 2.5 1.7 4.8 3 7s2.8 4.2 4.6 6c3.5 3.6 8 6.1 12.8 7.5 2.4.7 4.9 1.2 7.4 1.4l1.9.2 1.9.1H73c5-.3 10.1-1.5 14.7-3.6-2.2 1.3-4.6 2.3-7 3.2-2.5.8-5 1.3-7.6 1.5-5.2.5-10.4.1-15.5-1.4-2.5-.8-4.9-1.8-7.2-3.2-2.2-1.4-4.3-3-6-5-3.6-3.7-6-8.6-6.8-13.7z"/><path class="st4" d="M42.6 130.6c-1.7-2.8-4.6-4.6-7.6-5.4-1.5-.4-3.1-.7-4.7-.7-1.6-.1-3.1.1-4.7.5-1.5.4-2.9 1.1-4.2 1.9-1.3.9-2.4 2-3.3 3.2-.9 1.3-1.7 2.6-2.3 4-.6 1.4-1.1 2.9-1.3 4.5-.6 3.1-.6 6.3.1 9.3.4 1.5 1.1 2.9 2 4.1.5.6 1 1.2 1.6 1.7.5.6 1.2 1 1.8 1.5.6.5 1.3.9 2 1.4l2.1 1.2c.7.4 1.4.8 2.1 1.1l2.2 1c2.9 1.4 5.9 2.5 8.9 3.8-3.1-.9-6.2-2-9.2-3.1-3-1.2-6-2.5-8.7-4.5-1.4-1-2.6-2.1-3.7-3.4-1-1.4-1.8-2.9-2.3-4.5-.4-1.6-.6-3.3-.6-5s.1-3.3.4-5c.6-3.3 1.9-6.4 4-9.1 1.1-1.3 2.3-2.5 3.7-3.4 1.4-.9 3-1.6 4.6-2s3.3-.5 5-.4c1.6.1 3.3.4 4.9.9 1.6.5 3 1.3 4.3 2.4 1.1 1.3 2.2 2.5 2.9 4z"/><path class="st4" d="M87.9 170.7c-1.1 1.4-2.5 2.6-4.1 3.7-1.5 1-3.1 1.9-4.8 2.6-3.4 1.4-7 2.3-10.7 2.6-3.7.4-7.4.2-11-.5s-7.1-2.1-10.4-3.8c-3.2-1.8-6.2-4-8.9-6.6-2.6-2.6-5-5.4-6.8-8.6-1.8-3.2-3.2-6.6-4.4-10-.6-1.7-1.3-3.4-2.2-5-.9-1.6-1.9-3.1-3.3-4.3 1.5 1.1 2.7 2.5 3.6 4.1 1 1.6 1.7 3.2 2.5 4.9 1.4 3.3 2.9 6.7 4.8 9.7.9 1.5 2 2.9 3.1 4.3 1.2 1.4 2.4 2.7 3.7 3.9 2.6 2.5 5.5 4.6 8.6 6.3s6.5 3 10 3.8 7.1.9 10.7.7 7.1-.9 10.5-2.1c3.3-1.3 6.5-3.1 9.1-5.7z"/><path class="st4" d="M92.1 163.6c-.9 1.6-2.2 3-3.5 4.2-1.4 1.2-2.9 2.4-4.5 3.3-3.2 1.9-6.8 3.1-10.4 3.8-3.7.7-7.4.8-11.1.5l-2.8-.4-2.7-.6c-1.8-.5-3.6-1.1-5.3-1.8-6.8-3-12.9-7.9-16.7-14.4-.5-.8-.9-1.7-1.2-2.6-.3-.9-.5-1.8-.7-2.7-.4-1.8-.6-3.7-.8-5.5-.4-3.6-.8-7.3-2.2-10.7.9 1.6 1.4 3.4 1.9 5.2.4 1.8.7 3.6 1 5.4.3 1.8.5 3.6 1 5.4.2.9.4 1.7.8 2.6.3.8.7 1.6 1.2 2.4.2.4.5.8.7 1.1.2.4.5.7.8 1.1.3.4.5.7.8 1.1l.9 1c.6.7 1.2 1.3 1.9 2 .7.6 1.3 1.2 2 1.8 2.8 2.3 5.9 4.2 9.2 5.6 3.3 1.4 6.8 2.4 10.4 2.7 3.6.4 7.2.3 10.8-.2 3.6-.5 7.1-1.6 10.3-3.3 1.6-.8 3.1-1.8 4.6-3 .4-.3.7-.6 1-.9.3-.3.7-.6 1-1 .5-.6 1.1-1.3 1.6-2.1z"/><path class="st4" d="M44.9 131.6s-4 2.9-3.4 7.9-.9 8.8-4.2 8.7c-3.4-.1-9.2-8.8 7.6-16.6zm-25.4-13.4s5 3 4.8 8.9c-.2 5.9 2 10.2 5.8 9.7s9.7-11.3-10.6-18.6zM5.7 131.8s5 .2 7.3 4.6c2.3 4.4 5.8 6.8 8.4 4.8s2.6-12.4-15.7-9.4zm227.2 18.4c.1 2.6-.5 5.3-1.7 7.6-.6 1.2-1.5 2.3-2.4 3.2-1 .9-2.1 1.7-3.3 2.3-2.4 1.2-5.1 1.6-7.8 1.6-2.6 0-5.2-.5-7.7-1.3 2.6.2 5.1.4 7.6.2s5-.7 7.2-1.8 4.1-2.8 5.4-4.8c1.4-2 2.3-4.5 2.7-7z"/><path class="st4" d="M230.6 138.6c1 .3 2 .9 2.8 1.6.8.7 1.5 1.6 2.1 2.6 1.1 1.9 1.7 4.1 1.9 6.3s.2 4.4-.3 6.6c-.5 2.2-1.5 4.3-2.9 6l-.5.7-.6.6-.6.6-.3.3-.3.2-1.4 1-1.5.8c-.5.3-1 .4-1.6.6-.5.2-1 .4-1.6.5l-1.6.4c-.5.1-1.1.1-1.7.2l-.8.1h-2.4c-1.1-.1-2.2-.2-3.3-.4s-2.1-.5-3.2-.7c-1-.3-2.1-.7-3.1-1 4.2 1 8.5 1.5 12.7.9.5-.1 1-.1 1.6-.2l1.5-.4c.5-.1 1-.3 1.5-.5s1-.3 1.4-.6l1.4-.7 1.2-.9.3-.2.3-.3.6-.5c.2-.2.4-.3.5-.5l.5-.6c1.3-1.6 2.3-3.4 2.7-5.5.5-2 .6-4.1.5-6.2-.1-2.1-.5-4.2-1.4-6.1-1-2-2.5-3.7-4.4-4.7z"/><path class="st4" d="M249.2 148.5c-.8 5.1-3.2 9.9-6.7 13.8-1.7 1.9-3.8 3.6-6 5s-4.7 2.4-7.2 3.2c-5 1.5-10.3 1.8-15.5 1.4-2.6-.2-5.1-.8-7.6-1.5-2.5-.8-4.8-1.8-7-3.2 4.7 2.1 9.7 3.3 14.7 3.6 1.3.1 2.5.1 3.8 0l1.9-.1 1.9-.2c2.5-.3 5-.7 7.4-1.4 4.8-1.4 9.3-4 12.8-7.5 1.8-1.8 3.3-3.8 4.6-6 1.2-2.2 2.2-4.6 2.9-7.1z"/><path class="st4" d="M244.2 130.6c.7-1.5 1.8-2.7 3.1-3.7s2.8-1.8 4.3-2.4c1.6-.5 3.2-.8 4.9-.9 1.6-.1 3.3 0 5 .4 1.6.4 3.2 1.1 4.6 2s2.6 2.1 3.7 3.4c2.1 2.7 3.4 5.8 4 9.1.3 1.6.4 3.3.4 5s-.2 3.3-.6 5c-.5 1.6-1.3 3.2-2.3 4.5-1.1 1.3-2.3 2.5-3.7 3.4-2.7 1.9-5.7 3.2-8.7 4.5-3 1.1-6.1 2.2-9.2 3.1 3-1.2 6-2.4 8.9-3.8l2.2-1c.7-.4 1.4-.7 2.1-1.1l2.1-1.2c.7-.5 1.3-.9 2-1.4l1.8-1.5c.6-.5 1.1-1.1 1.6-1.7.9-1.3 1.6-2.6 2-4.1.7-3 .7-6.2.1-9.3-.2-1.6-.7-3.1-1.3-4.5-.6-1.4-1.4-2.8-2.3-4-1-1.2-2.1-2.3-3.3-3.2-1.3-.8-2.7-1.5-4.2-1.9s-3.1-.6-4.7-.5c-1.6 0-3.2.2-4.7.7-3.2.5-6 2.4-7.8 5.1z"/><path class="st4" d="M199 170.7c2.5 2.6 5.8 4.4 9.1 5.6 3.4 1.2 6.9 1.9 10.5 2.1 3.6.2 7.2.1 10.7-.7 3.5-.7 6.8-2 10-3.8 3.1-1.7 6-3.9 8.6-6.3 1.3-1.2 2.5-2.5 3.7-3.9 1.1-1.4 2.2-2.8 3.1-4.3 1.9-3.1 3.3-6.4 4.8-9.7.7-1.7 1.5-3.3 2.5-4.9 1-1.6 2.1-3 3.6-4.1-1.4 1.2-2.4 2.7-3.3 4.3s-1.5 3.3-2.2 5c-1.3 3.4-2.6 6.8-4.4 10-1.8 3.2-4.2 6.1-6.8 8.6-2.7 2.6-5.6 4.8-8.9 6.6-3.2 1.8-6.7 3.1-10.4 3.8-3.6.7-7.4.8-11 .5-3.7-.3-7.3-1.2-10.7-2.6-1.7-.7-3.3-1.6-4.8-2.6-1.6-1-3-2.2-4.1-3.6z"/><path class="st4" d="M194.7 163.6c.5.8 1.1 1.4 1.8 2.1l1 1c.3.3.7.6 1 .9 1.4 1.1 2.9 2.2 4.6 3 3.2 1.7 6.7 2.8 10.3 3.3s7.2.6 10.8.2c3.6-.3 7.1-1.3 10.4-2.7 3.3-1.4 6.4-3.3 9.2-5.6.7-.6 1.3-1.2 2-1.8.6-.7 1.3-1.3 1.9-2l.9-1c.3-.3.5-.7.8-1.1.3-.4.5-.7.8-1.1.2-.4.5-.7.7-1.1.5-.8.9-1.5 1.2-2.4.3-.8.5-1.7.8-2.6.4-1.8.7-3.6 1-5.4.3-1.8.6-3.6 1-5.4.4-1.8 1-3.6 1.9-5.2-1.4 3.4-1.8 7.1-2.2 10.7-.2 1.8-.4 3.7-.8 5.5-.2.9-.4 1.8-.7 2.7s-.7 1.8-1.2 2.6c-3.8 6.5-9.8 11.4-16.7 14.4-1.7.7-3.5 1.3-5.3 1.8l-2.7.6-2.8.4c-3.7.3-7.5.2-11.1-.5-3.7-.6-7.2-1.9-10.4-3.8-1.6-.9-3.1-2-4.5-3.3-1.5-1.2-2.8-2.6-3.7-4.2z"/><path class="st4" d="M241.9 131.6s4 2.9 3.4 7.9.9 8.8 4.2 8.7c3.4-.1 9.2-8.8-7.6-16.6zm25.5-13.4s-5 3-4.8 8.9c.2 5.8-2 10.2-5.8 9.7-3.9-.5-9.7-11.3 10.6-18.6zm13.7 13.6s-5 .2-7.3 4.6c-2.3 4.4-5.8 6.8-8.4 4.8-2.7-2-2.5-12.4 15.7-9.4z"/><path d="M166.5 172.5c-1.4 1.2-2.7 2.3-4.3 3.7-2.7-6.6-7-11.2-12.6-14.9-5.2-3.4-9.1-3.3-14.3.1-5.6 3.6-9.7 8.5-12.6 14.8-1.5-1.4-2.8-2.6-4.1-3.8 4.7-6.8 11-11 18-14.5-1.7.5-3.7.5-4.9 1.5-6.2 4.7-13.5 5.6-20.7 7.4-4.1 1-8 3-12.1 4.6 3.2-7.8 8.8-13.7 17.4-14.8 7.4-1 15-.1 22.6-.1 5.1 0 10.1-.2 15.2-.5 6.5-.4 12.9-.8 19.1 1.9 6.3 2.8 10.3 7.5 12.6 12.9-6-1.8-12.4-3.6-18.8-5.8-6.3-2.2-12.5-4.8-19-6.8 7.4 3.1 13.8 7.3 18.5 14.3zm-61.6-41.7c5.4 3.2 11.1 6.7 17 10 5.1 2.8 9.6 6.2 12.1 11.9-16.2-.2-29.2-10-29.1-21.9zm128.9-39.3c1-16.8 10.7-28.4 25.6-28.2-8.1 5.1-10.8 13.4-16 19.7-2.6 3.3-6.3 5.7-9.6 8.5zm-30 26.5c.9 15.6-8.9 25-25.3 29 1.5-5.5 4.6-9.7 8.8-12.9 6.1-4.6 12.5-8.9 16.5-16.1zm-145.3-8c-6.5-.9-11.3-4.4-15.7-8.6-4.7-4.5-9.8-8.6-14.3-12.4 11.5-3.4 25 5 30 21zm7.7-17.4c.8 8.9 5.8 15.4 9.3 22.5 2.1 4.2 3.1 8.7 2.3 13.7-11.9-7.9-19.2-22.1-11.6-36.2zm40.4 54.3c-16.7-3.7-25.7-13.6-25.3-27.7.2 0 .6-.2.6-.1 3.7 6.3 9.7 10.2 15.3 14.4 4.4 3.5 7.8 7.6 9.4 13.4zm73.8-17.1c.2 12.5-14.5 24-29.2 22.8 2.3-5.5 6.6-8.8 11.5-11.5 3.1-1.7 6.4-3.1 9.3-5 3.1-1.9 5.7-4.2 8.4-6.3zM57.2 67.5c.9-17.3 10.1-29.2 23.4-29.7-6.7 5.4-9.1 12.9-12.8 19.6-2.8 5.3-6.1 8.4-10.6 10.1zm162.2 25.8c6.9 13.4.1 27.9-12.2 35.3-.6-5.6.8-10.5 3.3-15.2 1.7-3.2 3.7-6.3 5.2-9.6s2.4-6.8 3.7-10.5zM62.6 42c.4-17.1 10-29.6 21.5-29.9-3.2 5.7-6.7 11.7-10 17.8-2.6 5.1-6 9.3-11.5 12.1zm4.9 83c-5.8.7-10.7-.9-15.4-3.5-6.3-3.5-12.8-6.7-18.7-9.8 10.9-6.3 25.2-.1 34.1 13.3zm150.7.7c7.5-12.8 20.7-20.4 33.9-14.1-7.5 3.9-15.3 8.2-23.5 11.9-3.1 1.4-6.9 1.5-10.4 2.2zm20.6 8.8c-8.4-1-15.2 1.8-22.1 4-5.2 1.6-10.4 1.8-15.6-.1 9.6-10.3 26.2-14 37.7-3.9zM201.1 12.2c12.7.9 21.6 14.1 21.2 29.7-5.5-2.8-8.8-7.3-11.5-12.5-3.2-5.9-6.5-11.6-9.7-17.2zm16.2 52.4c12.7 7 15.1 21.7 10.2 35.2-4.5-4.7-6-10.4-7-16.5-.9-5.5-2.3-11-3.4-16.4-.1-.6.1-1.3.2-2.3zm-101.5 87.2c-4.6 5.4-10.6 6.9-16.7 8.2s-12.2 3-17.8 4.3c2.2-8.6 13.7-17 34.5-12.5zm113.5-96c-5.2-14.1-3.8-28.1 10.9-36.8-4.8 8.3-3.7 17.2-5.4 25.4-.8 4-2.9 7.8-4.5 11.6-.3 0-.7-.1-1-.2zm-2.7 54.3c4.8-14.4 16.7-24.6 31.7-20.9-8 2.9-13 9.1-18.6 14.4-3.8 3.5-8.1 5.4-13.1 6.5zM69.4 63.9C65.2 71.4 65 79.4 64 87.2c-.6 5-3.5 10-6.6 12.3-5.3-17.3-.1-29.8 12-35.6zM233 75.4c-3.2-15.3 2.7-29.5 18-33.3-6.6 6.9-7.4 15.7-11 23.3-1.8 3.5-4.7 6.6-7 10zm-6 77.6c-7.6-3-15.1-1.7-22.6-1.4-5.2.2-10.2-.6-14.8-3.6 9.9-6.8 28.1-8.7 37.4 5zM56 56.1c-5.4-5.7-5.9-12.6-6.7-19.5-.7-5.6-1.8-11.2-2.7-16.3 10.8 4.3 15.2 19.5 9.4 35.8zM53.1 75c-4.2-3.2-7.2-7-8.9-12-2.5-7.2-4.1-14.8-9.7-20.8C47.3 43.9 55.6 58.7 53.1 75zm-6.2 59.4c8.7-8.7 24.4-8.3 37.4 3.8-4.9 2-9.7 1.8-14.5.6-7.5-2-14.6-5.4-22.9-4.4zm5-43.5C46 88.2 42.1 84.1 38.8 79c-3.5-5.5-7.5-10.6-11-15.5 12.3-1.2 23 12.2 24.1 27.4zm6.7 61.5c7.9-10.9 22.3-12.9 37.3-4.6-4.8 3.2-9.8 4.1-15.1 3.9-3.8-.2-7.6-.6-11.3-.5-3.6 0-7.1.7-10.9 1.2zm111.3-.7c19.8-3.8 29.3 2.1 34.6 13.2-5-1.5-10.3-3.2-15.6-4.6-3.6-1-7.5-1.2-11-2.5-3.1-1.1-5.7-3.3-8.6-5 .3-.5.5-.8.6-1.1zm55.5-96.6c-2.6.8-5.1 1.5-7.7 2.3-3.9-6.6-7.9-13.2-11.7-19.5 8.6.4 17.1 7.7 19.4 17.2zm-4.9 7.4c2.4-1 4-1.7 6.3-2.7.4 2.8.8 5.1 1.2 7.4-.2.2-.5.4-.7.6-2.1-1.6-4.1-3.2-6.8-5.3z"/><path class="st4" d="M159 128.5c-.1-.2-.3-.4-.3-.6 2.7-12.4 5.3-24.8 8.4-37.1 1.4-5.6 4-11 6.1-16.5.4-.9.8-1.9 1.2-2.8-.3-.2-.6-.4-.9-.7-4.4 5.2-9 10.4-13.3 15.8-9.2 11.5-18.1 23.4-29.6 32.9-6.3 5.1-13.3 8.2-21.7 7.8-13.8-.6-21-13-13.7-24.7 5.2-8.3 12.8-13.4 23.2-13.1 6.9.2 11.4 4.3 11.1 10.5-.1 3.6-2.4 6.8-5.2 8.9-3 2.1-7.4 3.3-10.7 1.1-4.4-3-2.5-10.7 2.6-11.7-2 2.3-3.2 5-2.7 8.1.1.5.2 1 .5 1.4s.6.7 1 .9c1.1.6 2.4.7 3.6.5 1.7-.3 3.2-1.3 4.6-2.3 2.7-1.8 5.1-4.6 5-8-.2-4.5-4.4-6.9-8.4-7.4-10.1-1.2-22.7 10.9-24.4 20.3-1.6 9 4.1 13 12 13.9 7.8.9 14.2-2.7 19.6-7.5 6.7-6.1 12.8-12.8 18.9-19-2-1.4-4.6-2-5.9-4.1-.6-1-.9-2-1.2-3.1-.9-3.9-.7-8.1.6-11.9 1.4-4 3.4-7.8 5-11.7-4 0-8.4-.1-12.7.1-.8 0-1.6 1.3-2.2 2.1-8.6 10.5-18.4 19.3-31.7 23.5-6 1.9-11.9 1.6-17.5-1.1-5.7-2.8-9-10.2-7.5-16.5 2.6-11.4 14.3-20.2 25.9-19.6 6.9.4 11.1 3.9 11 9.5 0 6.3-6 13.5-12.8 12.4-2.3-.4-4.5-1.9-5.3-4.1-.9-2.4.1-5.2 1.9-7 .9-.9 2.1-1.6 3.4-1.7-.5.8-1 1.5-1.7 2.1-.6.6-1.2 1-1.7 1.7-1 1.6-.7 3.5 0 5.1 1.1 2.3 3.3 2.7 5.7 2.1 4.6-1.1 8.1-4.6 8.8-9.1.9-5.9-4.7-10.4-11.5-9.2-9.4 1.7-14.9 8-19.1 15.9-2.5 4.6-3.6 9.5 0 13.9 3.8 4.5 9 5.8 14.7 4.9 10.9-1.7 17.8-9.1 24.3-17.1 1.8-2.2 3.4-4.5 5.5-7.4h-9c-.1-.4-.6-1.3-.1-1.5.3-.1.6-.3.8-.4.5-.2 1-.5 1.5-.6 1.3-.3 2.8.4 4.2.3 1.2-.1 2.5-.4 3.6-1 2.4-1.3 4.1-3.5 5.5-5.7 6.6-10.3 14-20 23.1-28.4-3.4 2.4-6.8 4.6-10.1 7.1-7.8 5.7-15.5 11.8-24.9 14.5-3.1.9-6.9 1.5-9.9.6-7.9-2.3-10.2-10.7-5.4-18 6.2-9.5 21.8-13.4 31.7-7.8 1.3.8 2.4 1.9 3.2 3.6-.4 0-.9.1-1.2-.1-9.4-6.7-19.1-5.7-27.7 2.6-3.7 3.5-5.4 7.7-4.4 12.8 1 5 6.2 7.3 10 5.8 7-2.9 14-6.2 20.5-10.1 8.6-5.1 16.7-11 25.2-16.3 2.5-1.5 5.6-2 9.3-3.2-.6 1.2-.8 1.9-1 2-6.6 1.9-10.5 7.2-14.2 12.2-6.7 9.1-13 18.5-20 28.6 5.4 0 9.6.1 13.9-.1.6 0 1.3-.9 1.7-1.5 11.2-14.1 23.3-27.3 37.6-38.4 1.5-1.2 3.4-1.9 5.1-2.9.3.3.6.5.9.8-.7 1-1.3 2.1-2.2 2.9-18.3 17.2-33.3 37-45.5 58.9-1 1.8-1.7 3.9-2 6-.2 1.2.3 3.1 1.1 3.7 1 .8 3 1.1 4.1.6 1.7-.7 3.1-2.1 4.4-3.4 10.1-10.7 20-21.4 30.1-32 1.2-1.2 2.7-2 4.2-3.1.3.6.6 1 .5 1-7.3 9.8-8.6 21.7-12 32.9-2.3 7.7-4.5 15.5-7 24.1 4.7-5.9 8.9-11.3 13.3-16.6 6.2-7.6 12.4-15.1 18.7-22.7 5.5-6.7 11-13.5 18.8-17.6 3.7-1.9 9.6-3.6 12.3.6-6.3-1.6-11.3 1.9-15.6 6.1-10.2 10.1-19.5 21-28.8 31.9-2.4 2.8-27.3 31.1-26.2 32.2-.3-.1-.6-.4-1-.8z"/></g><path d="M329.9 59.7c.2 0 .3-.1.3-.3v-1.1c0-8.4 0-9.9-.1-11.7-.1-1.8-.5-2.7-2.3-3.1-.4-.1-1.4-.2-1.8-.2-.2 0-.4-.1-.4-.3 0-.3.3-.4.9-.4 2.4 0 5.8.2 6.1.2s3.7-.2 5.3-.2c.6 0 .9.1.9.4 0 .2-.2.3-.4.3-.4 0-.7.1-1.4.2-1.5.3-1.9 1.2-2 3.1-.1 1.7-.1 3.2-.1 11.7v9.5c0 5.2 0 9.4.3 11.7.2 1.6.5 2.8 2.1 3 .8.1 1.9.2 2.4.2.3 0 .4.2.4.3 0 .3-.3.4-.9.4-3 0-6.4-.2-6.6-.2s-3.7.2-5.3.2c-.6 0-.9-.1-.9-.4 0-.2.1-.3.4-.3.5 0 1.1-.1 1.6-.2 1.1-.2 1.4-1.4 1.6-3 .3-2.3.3-6.5.3-11.7v-5.7c0-.2-.2-.3-.3-.3h-23c-.2 0-.3.1-.3.3v5.7c0 5.2 0 9.4.3 11.7.2 1.6.5 2.8 2.1 3 .8.1 1.9.2 2.4.2.3 0 .4.2.4.3 0 .3-.3.4-.9.4-3 0-6.4-.2-6.6-.2s-3.7.2-5.3.2c-.6 0-.9-.1-.9-.4 0-.2.1-.3.4-.3.5 0 1.1-.1 1.6-.2 1.1-.2 1.3-1.4 1.6-3 .3-2.3.3-6.5.3-11.7v-9.5c0-8.4 0-9.9-.1-11.7-.1-1.8-.5-2.7-2.3-3.1-.4-.1-1.4-.2-1.8-.2-.2 0-.4-.1-.4-.3 0-.3.3-.4.9-.4 2.4 0 5.8.2 6.1.2s3.7-.2 5.3-.2c.6 0 .9.1.9.4 0 .2-.2.3-.4.3-.4 0-.7.1-1.4.2-1.5.3-1.9 1.2-2 3.1-.1 1.7-.1 3.2-.1 11.7v1.1c0 .3.2.3.3.3h22.8zm24.7 10.5c-.3 0-.4.2-.5.4l-2.4 6.8c-.5 1.5-.9 3-.9 3.8 0 1 .6 1.4 1.8 1.4h.4c.5 0 .6.2.6.4 0 .3-.4.4-.8.4-1.2 0-3.7-.2-4.3-.2-.5 0-2.9.2-5.2.2-.6 0-.9-.1-.9-.4 0-.2.2-.4.6-.4.3 0 .8 0 1.1-.1 2.3-.2 3.2-2 4.2-4.3l10.8-28.5c.6-1.6.8-1.8 1.1-1.8.3 0 .5.2 1.1 1.7.8 1.8 8.1 20.6 11 27.4 1.8 4.3 3.3 5 4.1 5.2.7.3 1.5.3 1.8.3s.6.1.6.4-.2.4-.8.4c-.5 0-4.6 0-8.2-.1-1-.1-1.4-.1-1.4-.4 0-.2.2-.3.4-.4.2-.1.5-.4.2-1.2l-4.3-10.9c-.1-.2-.2-.3-.4-.3h-9.7zm9.2-1.9c.2 0 .2-.2.2-.3l-4.3-11.9c-.3-.8-.3-.8-.6 0L355 68c-.1.2 0 .3.1.3h8.7zm21.7-6.3c0-7.1 0-8.4-.1-9.9s-.5-2.3-2.2-2.6c-.3-.1-.9-.1-1.3-.1s-.6-.1-.6-.3c0-.2.2-.4.6-.4 2.3 0 5.6.2 5.7.2.5 0 4.2-.2 5.7-.2 3 0 6.3.3 8.9 2.1 1 .8 3.2 2.9 3.2 6.6 0 3-1.5 6.8-5.7 10.2 3.9 4.9 7.2 8.9 9.9 11.7 2.6 2.6 4.2 3.1 5.7 3.3.4.1 1.5.1 1.7.1.4 0 .6.2.6.4 0 .3-.2.4-1 .4H413c-2.5 0-3.7-.2-4.9-.6-2.3-1-3.9-3.4-6.7-7-2.1-2.6-4.3-5.5-5.2-6.6-.2-.2-.3-.3-.6-.3l-5.6-.1c-.2 0-.3.1-.3.3v.8c0 4.3 0 8.3.3 10.2.2 1.3.3 2.4 2.1 2.6.5.1 1.1.1 1.6.1s.7.2.7.3c0 .3-.2.4-.8.4-2.8 0-5.8-.2-6-.2-.9 0-3.2.2-4.7.2-.5 0-.8-.1-.8-.4 0-.2.3-.3.6-.3.4 0 .8 0 1.2-.1.9-.2 1.2-.8 1.4-2.1.3-1.9.2-6.4.2-10.4V62zm4.2 3.8c0 .3.1.5.3.6.7.4 2.9.7 4.8.7 1.1 0 2.5-.1 3.6-.8 1.6-1 2.7-3.4 2.7-6.9 0-5.9-3.1-9.1-7.9-9.1-1.3 0-2.5.1-3.1.3-.2.1-.3.2-.3.5v14.7z"/><path d="M420.6 62c0-7.1 0-8.4-.1-9.9s-.5-2.3-2.2-2.6c-.3-.1-.9-.1-1.3-.1s-.6-.1-.6-.3c0-.2.2-.4.6-.4 2.3 0 5.6.2 5.7.2.5 0 4.2-.2 5.7-.2 3 0 6.3.3 8.9 2.1 1 .8 3.2 2.9 3.2 6.6 0 3-1.5 6.8-5.7 10.2 3.9 4.9 7.2 8.9 9.9 11.7 2.6 2.6 4.2 3.1 5.7 3.3.4.1 1.5.1 1.7.1.4 0 .6.2.6.4 0 .3-.2.4-1 .4H448c-2.5 0-3.7-.2-4.9-.6-2.3-1-3.9-3.4-6.7-7-2.1-2.6-4.3-5.5-5.2-6.6-.2-.2-.3-.3-.6-.3l-5.6-.1c-.2 0-.3.1-.3.3v.8c0 4.3 0 8.3.3 10.2.2 1.3.3 2.4 2.1 2.6.5.1 1.1.1 1.6.1s.7.2.7.3c0 .3-.2.4-.8.4-2.8 0-5.8-.2-6-.2-.9 0-3.2.2-4.7.2-.5 0-.8-.1-.8-.4 0-.2.3-.3.6-.3.4 0 .8 0 1.2-.1.9-.2 1.2-.8 1.4-2.1.3-1.9.2-6.4.2-10.4V62zm4.1 3.8c0 .3.1.5.3.6.7.4 2.9.7 4.8.7 1.1 0 2.5-.1 3.6-.8 1.6-1 2.7-3.4 2.7-6.9 0-5.9-3.1-9.1-7.9-9.1-1.3 0-2.5.1-3.1.3-.2.1-.3.2-.3.5v14.7z"/><path d="M455.6 62c0-7.1 0-8.4-.1-9.9s-.4-2.3-1.6-2.5c-.5-.1-.9-.1-1.2-.2-.4-.1-.6-.2-.6-.4 0-.3.2-.4.8-.4 1.7 0 4.8.2 4.9.2.2 0 3.3-.2 4.9-.2.5 0 .8.1.8.4 0 .2-.2.3-.6.4-.3.1-.6.1-1 .1-1.6.2-1.7 1-1.8 2.6-.1 1.5-.1 2.7-.1 9.8V70c0 4.2-.1 7.9.2 9.9.2 1.6.4 2.2 1.8 2.5.7.2 1.8.2 2.1.2.5.1.6.2.6.4s-.2.4-.8.4c-2.8 0-5.9-.2-6.2-.2-.2 0-3.3.2-4.9.2-.5 0-.9-.1-.9-.4 0-.2.2-.4.7-.4.3 0 .9-.1 1.3-.2.9-.2 1.1-1.3 1.2-2.6.3-1.9.3-5.8.3-9.8v-8zm17.5 20.8c-.7-.3-.7-.5-.7-1.8 0-2.5.2-4.3.2-5.1.1-.5.2-.8.4-.8.3 0 .4.2.4.5s0 1 .2 1.6c.7 3.5 3.9 4.9 7 4.9 4.5 0 6.6-3.1 6.6-5.8 0-3.1-1.4-5-5.3-8.2l-2.2-1.7c-5.2-4.2-6.3-7-6.3-10.2 0-5 3.9-8.3 10-8.3 1.9 0 3.2.2 4.4.4 1 .2 1.5.3 1.8.3s.5.1.5.3c0 .2-.2 2.1-.2 5.2 0 .8-.1 1.1-.4 1.1-.3 0-.3-.2-.4-.6-.1-.5-.2-1.6-.6-2.5-.3-.5-1.5-2.5-6-2.5-3.2 0-5.7 1.9-5.7 5.2 0 2.5 1.3 4.1 5.8 7.5l1.2 1c5.6 4.3 7.1 7.2 7.1 11 0 1.9-.8 5.4-4.1 7.7-2.1 1.3-4.7 1.9-7.3 1.9-2.3.1-4.4-.2-6.4-1.1zm36.7-19.1c1.2 0 1.3.2 1.3.4 0 .4-.8.6-1.8.8-3.7.6-8.3 1.4-10.7 2.1-1.1.3-1.8.6-2.1.6-.3 0-.3-.3-.2-.8l.7-2.8c.1-.4.3-.4 1.1-.4h11.7zm11.1 3.8c0-19.5.1-12.5.1-23 0-2.1.2-2.7.6-2.7.4 0 1.3 1.2 1.9 1.7.8.9 8.9 9.6 17.2 18.5 5.3 5.7 11.2 12.3 13 14.1l-.6-27.4c-.1-3.5-.4-4.7-2.1-5.1-1-.2-1.8-.3-2.3-.3-.6 0-.8-.2-.8-.4 0-.3.4-.4 1.1-.4 2.4 0 5 .2 5.6.2.6 0 2.4-.2 4.6-.2.6 0 1 .1 1 .4 0 .2-.2.3-.6.4-.4.1-.8.1-1.4.2-1.5.3-1.9 1.1-1.9 4.9L556 80c0 3.6-.1 3.8-.5 3.8s-1.1-.6-3.9-3.5c-.6-.5-8.4-8.5-14.1-14.6-6.3-6.8-12.4-13.6-14.1-15.5l.7 25.9c.1 4.4.6 5.8 2.1 6.3 1 .3 2.2.3 2.7.3.3 0 .4.1.4.3 0 .3-.3.4-1 .4-3.1 0-5.2-.2-5.7-.2s-2.8.2-5.2.2c-.5 0-.9-.1-.9-.4 0-.2.2-.3.4-.3.4 0 1.4-.1 2.2-.3 1.4-.4 1.6-1.9 1.6-6.9v-8zm54 2.7c-.3 0-.4.2-.5.4l-2.4 6.8c-.5 1.5-.9 3-.9 3.8 0 1 .6 1.4 1.8 1.4h.4c.5 0 .6.2.6.4 0 .3-.4.4-.8.4-1.2 0-3.7-.2-4.3-.2-.5 0-2.9.2-5.2.2-.6 0-.9-.1-.9-.4 0-.2.2-.4.6-.4.3 0 .8 0 1.1-.1 2.3-.2 3.2-2 4.2-4.3l10.8-28.5c.6-1.6.8-1.8 1.1-1.8.3 0 .5.2 1.1 1.7.8 1.8 8.1 20.6 11 27.4 1.8 4.3 3.3 5 4.1 5.2.7.3 1.5.3 1.8.3s.6.1.6.4-.2.4-.8.4c-.5 0-4.6 0-8.2-.1-1-.1-1.3-.1-1.3-.4 0-.2.2-.3.4-.4.2-.1.5-.4.2-1.2l-4.3-10.9c-.1-.2-.2-.3-.4-.3h-9.8zm9.2-1.9c.2 0 .2-.2.2-.3L580 56.1c-.3-.8-.3-.8-.6 0L575.3 68c-.1.2 0 .3.1.3h8.7zm21.7-6.3c0-7.1 0-8.5-.1-9.9-.1-1.5-.5-2.2-2.1-2.5-.3-.1-1.1-.1-1.6-.1-.3 0-.5-.2-.5-.3 0-.3.3-.4.8-.4 2.2 0 5.6.2 5.8.2.4 0 3.2-.2 6.2-.2 4.8 0 13.6-.5 19.3 5.3 2.4 2.4 4.6 6.2 4.6 11.6 0 5.7-2.5 10.2-5.1 12.9-2.1 2.1-6.2 5.3-14.4 5.3-2.1 0-4.7-.1-6.8-.3-2.1-.1-3.7-.3-3.9-.3-.1 0-.8 0-1.8.1-1 0-2.3.1-3.1.1-.5 0-.8-.1-.8-.4 0-.2.2-.4.6-.4s.8-.1 1.2-.2c.9-.2 1.2-1.3 1.4-2.5.3-2 .3-5.7.3-10v-8zm4.4 4.6c0 4.9.1 9.1.1 9.9.1 1.7.2 3.1.5 3.6.6.9 2.3 2.1 7.9 2.1 4.4 0 8.4-1.4 11.2-4.2 2.4-2.4 3.5-6.4 3.5-10.7 0-6.1-2.8-9.8-4.6-11.6-4.6-4.6-9.9-5.1-15.2-5.1-.8 0-2.4.2-2.8.4-.4.2-.6.4-.6.9-.1 1.6-.1 6.2-.1 9.4v5.3zM649 62c0-7.1 0-8.4-.1-9.8-.1-1.5-.5-2.3-2.1-2.6-.3-.1-.9-.1-1.3-.1s-.7-.2-.7-.3c0-.3.3-.4.8-.4 1.1 0 2.5.1 5.6.2.3 0 9.9 0 11-.1 1.1-.1 1.7-.1 2.1-.3.3-.1.4-.2.6-.2.1 0 .2.1.2.4 0 .3-.3 1.1-.4 2.4-.1.9-.1 1.8-.2 2.8 0 .5-.1.8-.4.8-.3 0-.4-.2-.4-.6-.1-.8-.2-1.4-.4-1.7-.3-1.1-.8-1.5-3.5-1.6-.7-.1-6-.1-6.2-.1-.2 0-.3.1-.3.4v12.3c0 .3.1.5.3.5.6 0 6.2-.1 7.3-.2 1.2-.1 2.1-.2 2.5-.8.2-.3.4-.4.6-.4.1 0 .2.1.2.3s-.2 1.3-.4 2.9c-.2 1.5-.2 2.6-.2 3.3-.1.4-.2.6-.4.6-.3 0-.3-.3-.3-.7 0-.3-.1-.9-.2-1.3-.2-.7-.5-1.5-2.6-1.6-1.2-.1-5.6-.2-6.5-.2-.3 0-.4.2-.4.4v3.9c0 1.7-.1 6.4 0 7.3.1 2 .4 3 1.5 3.5.8.4 2.1.5 3.9.5 1 0 2.8.1 4.1-.3 1.6-.5 2-1.6 2.4-3.6.1-.5.3-.8.5-.8.3 0 .3.5.3.8 0 .4-.4 3.8-.6 4.7-.2 1.1-.6 1.2-2.4 1.2-3.6 0-5.1-.1-7-.1-1.9-.1-4.4-.2-6.4-.2-1.2 0-2.3.2-3.6.2-.5 0-.8-.1-.8-.4 0-.2.2-.4.5-.4s.7-.1 1.1-.2c1-.2 1.6-.9 1.7-4.3.1-1.8.1-4.1.1-8.2V62zm32.8 8.2c-.3 0-.4.2-.5.4l-2.4 6.8c-.5 1.5-.9 3-.9 3.8 0 1 .6 1.4 1.8 1.4h.4c.5 0 .6.2.6.4 0 .3-.4.4-.8.4-1.2 0-3.7-.2-4.3-.2-.5 0-2.9.2-5.2.2-.6 0-.9-.1-.9-.4 0-.2.2-.4.6-.4.3 0 .8 0 1.1-.1 2.3-.2 3.2-2 4.2-4.3l10.8-28.5c.6-1.6.8-1.8 1.1-1.8.3 0 .5.2 1.1 1.7.8 1.8 8.1 20.6 11 27.4 1.8 4.3 3.3 5 4.1 5.2.7.3 1.5.3 1.8.3s.6.1.6.4-.2.4-.8.4c-.5 0-4.6 0-8.2-.1-1-.1-1.3-.1-1.3-.4 0-.2.2-.3.4-.4.2-.1.5-.4.2-1.2L692 70.3c-.1-.2-.2-.3-.4-.3h-9.8zm9.2-1.9c.2 0 .2-.2.2-.3l-4.3-11.9c-.3-.8-.3-.8-.6 0l-4 11.9c-.1.2 0 .3.1.3h8.6zm23.1.1c0 6.6 1.2 9.4 3.3 11.2 2.3 2.1 4.9 2.5 7.1 2.5 2.8 0 5.3-.8 7.4-3.1 2.2-2.5 2.6-6.6 2.6-11.3V62c0-7.1 0-8.3-.1-9.8-.1-1.6-.3-2.4-2-2.6-.4-.1-1-.1-1.5-.1-.3 0-.5-.2-.5-.3 0-.3.3-.4.8-.4 2.3 0 5 .2 5.2.2.3 0 2.6-.2 4.1-.2.5 0 .8.1.8.4 0 .2-.2.4-.5.4s-.4 0-1 .1c-1.5.2-1.7 1.1-1.8 2.7-.1 1.5-.1 2.7-.1 9.8V67c0 4.9-.5 10.7-4.4 14-3.5 3-7 3.2-9.9 3.2-1.5 0-6.6 0-10.1-3.2-2.3-2.2-4-5.4-4-12.1V62c0-7.1 0-8.4-.2-9.8-.1-1.5-.3-2.4-2-2.6-.3-.1-1-.1-1.4-.1-.4 0-.6-.2-.6-.3 0-.3.2-.4.8-.4 2.3 0 5.2.2 5.6.2.4 0 3.6-.2 5.1-.2.6 0 .8.1.8.4s-.4.4-.6.4c-.3 0-.8.1-1.2.1-1.3.2-1.5 1.1-1.6 2.6-.1 1.5-.1 2.7-.1 9.8v6.3zm-295 80.3c-.5 0-1.8 0-3.3-.5-2.3-.7-2.7-3.7-2.9-5.7l-3.6-32.9c-.1-1-.3-1.4-.6-1.4-.4 0-.6.4-.8.9l-15.8 33.6-16.4-33.7c-.3-.6-.5-.8-.8-.8s-.5.5-.6 1.1l-3.9 34.8c-.3 2.2-.4 4.1-2.1 4.4-.8.2-1.2.2-1.6.2-.3 0-.5.1-.5.3 0 .4.4.4.9.4 1.4 0 4-.2 4.5-.2.4 0 3.2.2 5.1.2.5 0 .8-.1.8-.5 0-.2-.2-.3-.5-.3s-1 0-1.9-.2c-.8-.2-1.4-.6-1.4-1.9 0-.9.1-1.7.1-2.5l2.2-25.2c.6 1.4 6.7 14.7 7.2 15.6.3.5 4.9 9.8 6.3 12.4 1 1.9 1.3 2.5 1.7 2.5.5 0 .6-.5 1.8-2.8l13.3-28.2 2.6 28c.1 1 .2 1.8-.2 1.9-.3.1-.4.2-.4.4 0 .3.3.4 1.5.5 2 .2 8.1.3 9.3.3.6 0 .8-.1.8-.4-.2-.2-.5-.3-.8-.3zm22.8-34.3c-13.2 0-18.7 10.7-18.7 17.8 0 8.1 5.4 17.9 18.5 17.9 11.4 0 19-8.4 19-18.6-.1-10.8-8.2-17.1-18.8-17.1zm1.1 33.8c-9 0-14.8-7-14.8-17.5 0-10.1 6-14.7 13.4-14.7 7.3 0 14 6 14 16.8 0 13.6-9 15.4-12.6 15.4zm59.7.5c-.2 0-1.3-.1-1.7-.1-1.5-.2-3.1-.6-5.7-3.3-2.7-2.8-5.9-6.8-9.9-11.6 4.2-3.4 5.7-7.2 5.7-10.1 0-3.6-2.2-5.8-3.2-6.5-2.5-1.8-5.8-2-8.8-2-1.5 0-5.1.2-5.6.2-.1 0-3.4-.2-5.7-.2-.5 0-.6.2-.6.4s.2.3.6.3 1 .1 1.3.1c1.7.3 2 1.1 2.1 2.6.1 1.4.1 2.7.1 9.8v8c0 4 .1 8.4-.2 10.3-.2 1.3-.5 1.9-1.4 2-.4.1-.8.1-1.2.1-.3 0-.6.2-.6.3 0 .3.2.4.8.4 1.4 0 3.8-.2 4.7-.2.2 0 3.2.2 6 .2.5 0 .7-.2.7-.4s-.2-.3-.7-.3c-.4 0-1-.1-1.6-.1-1.8-.2-1.9-1.3-2.1-2.6-.3-1.9-.3-5.8-.3-10.1v-.8c0-.2.1-.3.3-.3l5.5.1c.3 0 .4.1.6.3.9 1.1 3.1 4 5.1 6.6 2.8 3.6 4.4 6 6.6 7 1.2.5 2.4.6 4.9.6h3.7c.7 0 1-.1 1-.4.2-.1.1-.3-.4-.3zm-18.5-16.1c-1.1.7-2.5.8-3.6.8-1.9 0-4.1-.3-4.8-.7-.2-.1-.3-.4-.3-.6v-14.6c0-.3.2-.4.3-.5.6-.2 1.8-.3 3.1-.3 4.8 0 7.9 3.2 7.9 9 0 3.5-1 5.8-2.6 6.9zm43.5-17.9c-.2 0-.3.1-1 .2-.8.2-2.4.3-3.9.3h-17.6c-.1 0-1.6-.1-3.4-.3-1-.1-2-.6-2.4-.6-.2 0-.3.2-.5.9-.3 1.4-1.1 5-1.1 5.3s.1.5.3.5.3-.1.5-.4c.1-.3.3-.9.8-1.7.7-1.1 1.5-1.7 4.9-1.7 2.1-.1 5-.1 6.7-.1v19.1c0 4 0 7.9-.2 9.8-.2 1.8-.4 2.5-1.4 2.6-.4.1-.7.1-1.2.1-.4 0-.6.2-.6.4 0 .3.2.4.8.4 1.4 0 4.6-.2 4.8-.2s3.4.2 6.1.2c.5 0 .7-.2.7-.4s-.2-.3-.6-.3-1.4-.1-2.1-.2c-1.3-.3-1.4-1.1-1.6-2.4-.2-2-.3-5.8-.3-9.9v-19.1c1.6 0 3.2.1 5.2.1 5.4.1 6.1.6 6.3 2.7.1.5.1.6.1.8 0 .4.1.6.4.6.2 0 .4-.2.4-.6s.1-4 .1-5.5c.2-.3.1-.6-.2-.6zm38.6.3c-1.5 0-3.8.2-4.1.2-.2 0-2.9-.2-5.2-.2-.5 0-.8.1-.8.4 0 .2.2.3.5.3.5 0 1.1.1 1.5.1 1.7.3 1.9 1.1 2 2.6.1 1.4.1 2.7.1 9.7v5.7c0 4.7-.5 8.7-2.6 11.2-2 2.4-4.6 3.1-7.3 3.1-2.2 0-4.8-.4-7.1-2.5-2-1.8-3.3-4.6-3.3-11.1v-6.4c0-7.1 0-8.3.1-9.7.1-1.5.3-2.4 1.6-2.6.4-.1.9-.1 1.2-.1s.6-.1.6-.4-.2-.4-.8-.4c-1.4 0-4.6.2-5 .2s-3.3-.2-5.6-.2c-.6 0-.8.1-.8.4 0 .2.2.3.6.3.4 0 1.1.1 1.4.1 1.7.2 1.9 1.1 2 2.6.2 1.4.2 2.7.2 9.7v6.6c0 6.6 1.7 9.9 4 12 3.5 3.2 8.5 3.2 10 3.2 2.9 0 6.3-.3 9.8-3.2 3.8-3.3 4.3-9 4.3-13.9v-4.8c0-7 0-8.2.1-9.7.1-1.6.3-2.5 1.8-2.7.5-.1.6-.1 1-.1s.5-.2.5-.4c0 .2-.2 0-.7 0zm36.8 33.7c-.4 0-1.1 0-1.8-.3s-2.3-1-4.1-5.2c-2.8-6.7-10.1-25.4-10.9-27.1-.6-1.5-.8-1.7-1.1-1.7-.4 0-.5.3-1.1 1.8l-10.6 28.2c-.9 2.2-1.8 4-4.1 4.2-.3.1-.8.1-1.1.1-.4 0-.6.2-.6.4 0 .3.3.4.9.4 2.2 0 4.6-.2 5.1-.2.6 0 3.1.2 4.2.2.4 0 .8-.1.8-.4 0-.2-.2-.4-.6-.4h-.4c-1.2 0-1.8-.4-1.8-1.4 0-.9.4-2.3.9-3.8l2.4-6.7c.1-.3.3-.4.5-.4h9.7c.2 0 .3.1.4.3l4.3 10.7c.3.8 0 1.1-.2 1.2-.2.1-.4.2-.4.4 0 .3.3.3 1.3.4 3.6.1 7.6.1 8.1.1.6 0 .8-.1.8-.4s-.2-.4-.6-.4zm-14.3-14.2h-8.6c-.1 0-.2-.1-.1-.3l4-11.8c.3-.7.3-.7.6 0l4.2 11.8c.1.2.1.3-.1.3zm52.9 14.2c-.2 0-1.3-.1-1.7-.1-1.5-.2-3.1-.6-5.7-3.3-2.7-2.8-5.9-6.8-9.9-11.6 4.2-3.4 5.7-7.2 5.7-10.1 0-3.6-2.2-5.8-3.2-6.5-2.5-1.8-5.8-2-8.8-2-1.5 0-5.1.2-5.6.2-.1 0-3.4-.2-5.7-.2-.5 0-.6.2-.6.4s.2.3.6.3c.4 0 1 .1 1.3.1 1.7.3 2 1.1 2.1 2.6.1 1.4.1 2.7.1 9.8v8c0 4 .1 8.4-.2 10.3-.2 1.3-.5 1.9-1.4 2-.4.1-.8.1-1.2.1-.3 0-.6.2-.6.3 0 .3.2.4.8.4 1.4 0 3.8-.2 4.7-.2.2 0 3.2.2 6 .2.5 0 .7-.2.7-.4s-.2-.3-.7-.3c-.4 0-1-.1-1.6-.1-1.8-.2-1.9-1.3-2.1-2.6-.3-1.9-.3-5.8-.3-10.1v-.8c0-.2.1-.3.3-.3l5.5.1c.3 0 .4.1.6.3.9 1.1 3.1 4 5.1 6.6 2.8 3.6 4.4 6 6.6 7 1.2.5 2.4.6 4.9.6h3.7c.7 0 1-.1 1-.4.2-.1 0-.3-.4-.3zm-18.6-16.1c-1.1.7-2.5.8-3.6.8-1.9 0-4.1-.3-4.8-.7-.2-.1-.3-.4-.3-.6v-14.6c0-.3.2-.4.3-.5.6-.2 1.8-.3 3.1-.3 4.8 0 7.9 3.2 7.9 9 .1 3.5-1 5.8-2.6 6.9zM669 115c-.9 0-4 .2-4.7.2-.9 0-2-.2-3.3-.2-.5 0-.6.2-.6.3 0 .2.2.4.6.4.6.1 1.2.1 1.2.8 0 .6-.2 1.1-1.2 2.8-.7 1.3-6.7 11.1-7.6 13-.8-1.3-7.9-12.7-8.6-14-.4-.7-.7-1.2-.7-1.8 0-.4.1-.7.9-.9.4-.1.6-.2.6-.4s-.2-.3-.7-.3c-2 0-3.7.2-4.1.2-.1 0-4.2-.2-5-.2-.4 0-.6.2-.6.3 0 .3.3.4.6.4 1.1.1 1.8.3 2.5.8.7.6 1.3 1.2 2.7 3.3 1.7 2.3 7.9 12.4 8.2 13 .8 1.4 1.2 2.4 1.2 4.9v3.9c0 .4 0 2.4-.2 4.3-.1 1.3-.5 2.4-1.4 2.6-.4.1-.9.2-1.3.2s-.5.2-.5.3c0 .3.2.4.7.4 1.5 0 4.7-.2 4.8-.2.2 0 3.5.2 6.2.2.5 0 .6-.2.6-.4s-.2-.3-.6-.3c-.4 0-1.3-.1-2-.2-1.7-.3-1.8-1.2-1.9-2.5-.1-1.9-.1-3.9-.1-4.3v-3.9c0-1.4-.1-2.6.5-4.2.8-1.9 6-10.6 9.1-14.9.9-1.2 1.2-1.7 2-2.2s1.6-.6 2.7-.7c.4 0 .6-.2.6-.4 0-.1-.1-.3-.6-.3zM295.6 96h444.6v1.8H295.6zm34.3-36.3c.2 0 .3-.1.3-.3v-1.1c0-8.4 0-9.9-.1-11.7-.1-1.8-.5-2.7-2.3-3.1-.4-.1-1.4-.2-1.8-.2-.2 0-.4-.1-.4-.3 0-.3.3-.4.9-.4 2.4 0 5.8.2 6.1.2s3.7-.2 5.3-.2c.6 0 .9.1.9.4 0 .2-.2.3-.4.3-.4 0-.7.1-1.4.2-1.5.3-1.9 1.2-2 3.1-.1 1.7-.1 3.2-.1 11.7v9.5c0 5.2 0 9.4.3 11.7.2 1.6.5 2.8 2.1 3 .8.1 1.9.2 2.4.2.3 0 .4.2.4.3 0 .3-.3.4-.9.4-3 0-6.4-.2-6.6-.2s-3.7.2-5.3.2c-.6 0-.9-.1-.9-.4 0-.2.1-.3.4-.3.5 0 1.1-.1 1.6-.2 1.1-.2 1.4-1.4 1.6-3 .3-2.3.3-6.5.3-11.7v-5.7c0-.2-.2-.3-.3-.3h-23c-.2 0-.3.1-.3.3v5.7c0 5.2 0 9.4.3 11.7.2 1.6.5 2.8 2.1 3 .8.1 1.9.2 2.4.2.3 0 .4.2.4.3 0 .3-.3.4-.9.4-3 0-6.4-.2-6.6-.2s-3.7.2-5.3.2c-.6 0-.9-.1-.9-.4 0-.2.1-.3.4-.3.5 0 1.1-.1 1.6-.2 1.1-.2 1.3-1.4 1.6-3 .3-2.3.3-6.5.3-11.7v-9.5c0-8.4 0-9.9-.1-11.7-.1-1.8-.5-2.7-2.3-3.1-.4-.1-1.4-.2-1.8-.2-.2 0-.4-.1-.4-.3 0-.3.3-.4.9-.4 2.4 0 5.8.2 6.1.2s3.7-.2 5.3-.2c.6 0 .9.1.9.4 0 .2-.2.3-.4.3-.4 0-.7.1-1.4.2-1.5.3-1.9 1.2-2 3.1-.1 1.7-.1 3.2-.1 11.7v1.1c0 .3.2.3.3.3h22.8zm24.7 10.5c-.3 0-.4.2-.5.4l-2.4 6.8c-.5 1.5-.9 3-.9 3.8 0 1 .6 1.4 1.8 1.4h.4c.5 0 .6.2.6.4 0 .3-.4.4-.8.4-1.2 0-3.7-.2-4.3-.2-.5 0-2.9.2-5.2.2-.6 0-.9-.1-.9-.4 0-.2.2-.4.6-.4.3 0 .8 0 1.1-.1 2.3-.2 3.2-2 4.2-4.3l10.8-28.5c.6-1.6.8-1.8 1.1-1.8.3 0 .5.2 1.1 1.7.8 1.8 8.1 20.6 11 27.4 1.8 4.3 3.3 5 4.1 5.2.7.3 1.5.3 1.8.3s.6.1.6.4-.2.4-.8.4c-.5 0-4.6 0-8.2-.1-1-.1-1.4-.1-1.4-.4 0-.2.2-.3.4-.4.2-.1.5-.4.2-1.2l-4.3-10.9c-.1-.2-.2-.3-.4-.3h-9.7zm9.2-1.9c.2 0 .2-.2.2-.3l-4.3-11.9c-.3-.8-.3-.8-.6 0L355 68c-.1.2 0 .3.1.3h8.7zm21.7-6.3c0-7.1 0-8.4-.1-9.9s-.5-2.3-2.2-2.6c-.3-.1-.9-.1-1.3-.1s-.6-.1-.6-.3c0-.2.2-.4.6-.4 2.3 0 5.6.2 5.7.2.5 0 4.2-.2 5.7-.2 3 0 6.3.3 8.9 2.1 1 .8 3.2 2.9 3.2 6.6 0 3-1.5 6.8-5.7 10.2 3.9 4.9 7.2 8.9 9.9 11.7 2.6 2.6 4.2 3.1 5.7 3.3.4.1 1.5.1 1.7.1.4 0 .6.2.6.4 0 .3-.2.4-1 .4H413c-2.5 0-3.7-.2-4.9-.6-2.3-1-3.9-3.4-6.7-7-2.1-2.6-4.3-5.5-5.2-6.6-.2-.2-.3-.3-.6-.3l-5.6-.1c-.2 0-.3.1-.3.3v.8c0 4.3 0 8.3.3 10.2.2 1.3.3 2.4 2.1 2.6.5.1 1.1.1 1.6.1s.7.2.7.3c0 .3-.2.4-.8.4-2.8 0-5.8-.2-6-.2-.9 0-3.2.2-4.7.2-.5 0-.8-.1-.8-.4 0-.2.3-.3.6-.3.4 0 .8 0 1.2-.1.9-.2 1.2-.8 1.4-2.1.3-1.9.2-6.4.2-10.4V62zm4.2 3.8c0 .3.1.5.3.6.7.4 2.9.7 4.8.7 1.1 0 2.5-.1 3.6-.8 1.6-1 2.7-3.4 2.7-6.9 0-5.9-3.1-9.1-7.9-9.1-1.3 0-2.5.1-3.1.3-.2.1-.3.2-.3.5v14.7z"/><path d="M420.6 62c0-7.1 0-8.4-.1-9.9s-.5-2.3-2.2-2.6c-.3-.1-.9-.1-1.3-.1s-.6-.1-.6-.3c0-.2.2-.4.6-.4 2.3 0 5.6.2 5.7.2.5 0 4.2-.2 5.7-.2 3 0 6.3.3 8.9 2.1 1 .8 3.2 2.9 3.2 6.6 0 3-1.5 6.8-5.7 10.2 3.9 4.9 7.2 8.9 9.9 11.7 2.6 2.6 4.2 3.1 5.7 3.3.4.1 1.5.1 1.7.1.4 0 .6.2.6.4 0 .3-.2.4-1 .4H448c-2.5 0-3.7-.2-4.9-.6-2.3-1-3.9-3.4-6.7-7-2.1-2.6-4.3-5.5-5.2-6.6-.2-.2-.3-.3-.6-.3l-5.6-.1c-.2 0-.3.1-.3.3v.8c0 4.3 0 8.3.3 10.2.2 1.3.3 2.4 2.1 2.6.5.1 1.1.1 1.6.1s.7.2.7.3c0 .3-.2.4-.8.4-2.8 0-5.8-.2-6-.2-.9 0-3.2.2-4.7.2-.5 0-.8-.1-.8-.4 0-.2.3-.3.6-.3.4 0 .8 0 1.2-.1.9-.2 1.2-.8 1.4-2.1.3-1.9.2-6.4.2-10.4V62zm4.1 3.8c0 .3.1.5.3.6.7.4 2.9.7 4.8.7 1.1 0 2.5-.1 3.6-.8 1.6-1 2.7-3.4 2.7-6.9 0-5.9-3.1-9.1-7.9-9.1-1.3 0-2.5.1-3.1.3-.2.1-.3.2-.3.5v14.7z"/><path d="M455.6 62c0-7.1 0-8.4-.1-9.9s-.4-2.3-1.6-2.5c-.5-.1-.9-.1-1.2-.2-.4-.1-.6-.2-.6-.4 0-.3.2-.4.8-.4 1.7 0 4.8.2 4.9.2.2 0 3.3-.2 4.9-.2.5 0 .8.1.8.4 0 .2-.2.3-.6.4-.3.1-.6.1-1 .1-1.6.2-1.7 1-1.8 2.6-.1 1.5-.1 2.7-.1 9.8V70c0 4.2-.1 7.9.2 9.9.2 1.6.4 2.2 1.8 2.5.7.2 1.8.2 2.1.2.5.1.6.2.6.4s-.2.4-.8.4c-2.8 0-5.9-.2-6.2-.2-.2 0-3.3.2-4.9.2-.5 0-.9-.1-.9-.4 0-.2.2-.4.7-.4.3 0 .9-.1 1.3-.2.9-.2 1.1-1.3 1.2-2.6.3-1.9.3-5.8.3-9.8v-8zm17.5 20.8c-.7-.3-.7-.5-.7-1.8 0-2.5.2-4.3.2-5.1.1-.5.2-.8.4-.8.3 0 .4.2.4.5s0 1 .2 1.6c.7 3.5 3.9 4.9 7 4.9 4.5 0 6.6-3.1 6.6-5.8 0-3.1-1.4-5-5.3-8.2l-2.2-1.7c-5.2-4.2-6.3-7-6.3-10.2 0-5 3.9-8.3 10-8.3 1.9 0 3.2.2 4.4.4 1 .2 1.5.3 1.8.3s.5.1.5.3c0 .2-.2 2.1-.2 5.2 0 .8-.1 1.1-.4 1.1-.3 0-.3-.2-.4-.6-.1-.5-.2-1.6-.6-2.5-.3-.5-1.5-2.5-6-2.5-3.2 0-5.7 1.9-5.7 5.2 0 2.5 1.3 4.1 5.8 7.5l1.2 1c5.6 4.3 7.1 7.2 7.1 11 0 1.9-.8 5.4-4.1 7.7-2.1 1.3-4.7 1.9-7.3 1.9-2.3.1-4.4-.2-6.4-1.1zm36.7-19.1c1.2 0 1.3.2 1.3.4 0 .4-.8.6-1.8.8-3.7.6-8.3 1.4-10.7 2.1-1.1.3-1.8.6-2.1.6-.3 0-.3-.3-.2-.8l.7-2.8c.1-.4.3-.4 1.1-.4h11.7zm11.1 3.8c0-19.5.1-12.5.1-23 0-2.1.2-2.7.6-2.7.4 0 1.3 1.2 1.9 1.7.8.9 8.9 9.6 17.2 18.5 5.3 5.7 11.2 12.3 13 14.1l-.6-27.4c-.1-3.5-.4-4.7-2.1-5.1-1-.2-1.8-.3-2.3-.3-.6 0-.8-.2-.8-.4 0-.3.4-.4 1.1-.4 2.4 0 5 .2 5.6.2.6 0 2.4-.2 4.6-.2.6 0 1 .1 1 .4 0 .2-.2.3-.6.4-.4.1-.8.1-1.4.2-1.5.3-1.9 1.1-1.9 4.9L556 80c0 3.6-.1 3.8-.5 3.8s-1.1-.6-3.9-3.5c-.6-.5-8.4-8.5-14.1-14.6-6.3-6.8-12.4-13.6-14.1-15.5l.7 25.9c.1 4.4.6 5.8 2.1 6.3 1 .3 2.2.3 2.7.3.3 0 .4.1.4.3 0 .3-.3.4-1 .4-3.1 0-5.2-.2-5.7-.2s-2.8.2-5.2.2c-.5 0-.9-.1-.9-.4 0-.2.2-.3.4-.3.4 0 1.4-.1 2.2-.3 1.4-.4 1.6-1.9 1.6-6.9v-8zm54 2.7c-.3 0-.4.2-.5.4l-2.4 6.8c-.5 1.5-.9 3-.9 3.8 0 1 .6 1.4 1.8 1.4h.4c.5 0 .6.2.6.4 0 .3-.4.4-.8.4-1.2 0-3.7-.2-4.3-.2-.5 0-2.9.2-5.2.2-.6 0-.9-.1-.9-.4 0-.2.2-.4.6-.4.3 0 .8 0 1.1-.1 2.3-.2 3.2-2 4.2-4.3l10.8-28.5c.6-1.6.8-1.8 1.1-1.8.3 0 .5.2 1.1 1.7.8 1.8 8.1 20.6 11 27.4 1.8 4.3 3.3 5 4.1 5.2.7.3 1.5.3 1.8.3s.6.1.6.4-.2.4-.8.4c-.5 0-4.6 0-8.2-.1-1-.1-1.3-.1-1.3-.4 0-.2.2-.3.4-.4.2-.1.5-.4.2-1.2l-4.3-10.9c-.1-.2-.2-.3-.4-.3h-9.8zm9.2-1.9c.2 0 .2-.2.2-.3L580 56.1c-.3-.8-.3-.8-.6 0L575.3 68c-.1.2 0 .3.1.3h8.7zm21.7-6.3c0-7.1 0-8.5-.1-9.9-.1-1.5-.5-2.2-2.1-2.5-.3-.1-1.1-.1-1.6-.1-.3 0-.5-.2-.5-.3 0-.3.3-.4.8-.4 2.2 0 5.6.2 5.8.2.4 0 3.2-.2 6.2-.2 4.8 0 13.6-.5 19.3 5.3 2.4 2.4 4.6 6.2 4.6 11.6 0 5.7-2.5 10.2-5.1 12.9-2.1 2.1-6.2 5.3-14.4 5.3-2.1 0-4.7-.1-6.8-.3-2.1-.1-3.7-.3-3.9-.3-.1 0-.8 0-1.8.1-1 0-2.3.1-3.1.1-.5 0-.8-.1-.8-.4 0-.2.2-.4.6-.4s.8-.1 1.2-.2c.9-.2 1.2-1.3 1.4-2.5.3-2 .3-5.7.3-10v-8zm4.4 4.6c0 4.9.1 9.1.1 9.9.1 1.7.2 3.1.5 3.6.6.9 2.3 2.1 7.9 2.1 4.4 0 8.4-1.4 11.2-4.2 2.4-2.4 3.5-6.4 3.5-10.7 0-6.1-2.8-9.8-4.6-11.6-4.6-4.6-9.9-5.1-15.2-5.1-.8 0-2.4.2-2.8.4-.4.2-.6.4-.6.9-.1 1.6-.1 6.2-.1 9.4v5.3zM649 62c0-7.1 0-8.4-.1-9.8-.1-1.5-.5-2.3-2.1-2.6-.3-.1-.9-.1-1.3-.1s-.7-.2-.7-.3c0-.3.3-.4.8-.4 1.1 0 2.5.1 5.6.2.3 0 9.9 0 11-.1 1.1-.1 1.7-.1 2.1-.3.3-.1.4-.2.6-.2.1 0 .2.1.2.4 0 .3-.3 1.1-.4 2.4-.1.9-.1 1.8-.2 2.8 0 .5-.1.8-.4.8-.3 0-.4-.2-.4-.6-.1-.8-.2-1.4-.4-1.7-.3-1.1-.8-1.5-3.5-1.6-.7-.1-6-.1-6.2-.1-.2 0-.3.1-.3.4v12.3c0 .3.1.5.3.5.6 0 6.2-.1 7.3-.2 1.2-.1 2.1-.2 2.5-.8.2-.3.4-.4.6-.4.1 0 .2.1.2.3s-.2 1.3-.4 2.9c-.2 1.5-.2 2.6-.2 3.3-.1.4-.2.6-.4.6-.3 0-.3-.3-.3-.7 0-.3-.1-.9-.2-1.3-.2-.7-.5-1.5-2.6-1.6-1.2-.1-5.6-.2-6.5-.2-.3 0-.4.2-.4.4v3.9c0 1.7-.1 6.4 0 7.3.1 2 .4 3 1.5 3.5.8.4 2.1.5 3.9.5 1 0 2.8.1 4.1-.3 1.6-.5 2-1.6 2.4-3.6.1-.5.3-.8.5-.8.3 0 .3.5.3.8 0 .4-.4 3.8-.6 4.7-.2 1.1-.6 1.2-2.4 1.2-3.6 0-5.1-.1-7-.1-1.9-.1-4.4-.2-6.4-.2-1.2 0-2.3.2-3.6.2-.5 0-.8-.1-.8-.4 0-.2.2-.4.5-.4s.7-.1 1.1-.2c1-.2 1.6-.9 1.7-4.3.1-1.8.1-4.1.1-8.2V62zm32.8 8.2c-.3 0-.4.2-.5.4l-2.4 6.8c-.5 1.5-.9 3-.9 3.8 0 1 .6 1.4 1.8 1.4h.4c.5 0 .6.2.6.4 0 .3-.4.4-.8.4-1.2 0-3.7-.2-4.3-.2-.5 0-2.9.2-5.2.2-.6 0-.9-.1-.9-.4 0-.2.2-.4.6-.4.3 0 .8 0 1.1-.1 2.3-.2 3.2-2 4.2-4.3l10.8-28.5c.6-1.6.8-1.8 1.1-1.8.3 0 .5.2 1.1 1.7.8 1.8 8.1 20.6 11 27.4 1.8 4.3 3.3 5 4.1 5.2.7.3 1.5.3 1.8.3s.6.1.6.4-.2.4-.8.4c-.5 0-4.6 0-8.2-.1-1-.1-1.3-.1-1.3-.4 0-.2.2-.3.4-.4.2-.1.5-.4.2-1.2L692 70.3c-.1-.2-.2-.3-.4-.3h-9.8zm9.2-1.9c.2 0 .2-.2.2-.3l-4.3-11.9c-.3-.8-.3-.8-.6 0l-4 11.9c-.1.2 0 .3.1.3h8.6zm23.1.1c0 6.6 1.2 9.4 3.3 11.2 2.3 2.1 4.9 2.5 7.1 2.5 2.8 0 5.3-.8 7.4-3.1 2.2-2.5 2.6-6.6 2.6-11.3V62c0-7.1 0-8.3-.1-9.8-.1-1.6-.3-2.4-2-2.6-.4-.1-1-.1-1.5-.1-.3 0-.5-.2-.5-.3 0-.3.3-.4.8-.4 2.3 0 5 .2 5.2.2.3 0 2.6-.2 4.1-.2.5 0 .8.1.8.4 0 .2-.2.4-.5.4s-.4 0-1 .1c-1.5.2-1.7 1.1-1.8 2.7-.1 1.5-.1 2.7-.1 9.8V67c0 4.9-.5 10.7-4.4 14-3.5 3-7 3.2-9.9 3.2-1.5 0-6.6 0-10.1-3.2-2.3-2.2-4-5.4-4-12.1V62c0-7.1 0-8.4-.2-9.8-.1-1.5-.3-2.4-2-2.6-.3-.1-1-.1-1.4-.1-.4 0-.6-.2-.6-.3 0-.3.2-.4.8-.4 2.3 0 5.2.2 5.6.2.4 0 3.6-.2 5.1-.2.6 0 .8.1.8.4s-.4.4-.6.4c-.3 0-.8.1-1.2.1-1.3.2-1.5 1.1-1.6 2.6-.1 1.5-.1 2.7-.1 9.8v6.3zm-295 80.3c-.5 0-1.8 0-3.3-.5-2.3-.7-2.7-3.7-2.9-5.7l-3.6-32.9c-.1-1-.3-1.4-.6-1.4-.4 0-.6.4-.8.9l-15.8 33.6-16.4-33.7c-.3-.6-.5-.8-.8-.8s-.5.5-.6 1.1l-3.9 34.8c-.3 2.2-.4 4.1-2.1 4.4-.8.2-1.2.2-1.6.2-.3 0-.5.1-.5.3 0 .4.4.4.9.4 1.4 0 4-.2 4.5-.2.4 0 3.2.2 5.1.2.5 0 .8-.1.8-.5 0-.2-.2-.3-.5-.3s-1 0-1.9-.2c-.8-.2-1.4-.6-1.4-1.9 0-.9.1-1.7.1-2.5l2.2-25.2c.6 1.4 6.7 14.7 7.2 15.6.3.5 4.9 9.8 6.3 12.4 1 1.9 1.3 2.5 1.7 2.5.5 0 .6-.5 1.8-2.8l13.3-28.2 2.6 28c.1 1 .2 1.8-.2 1.9-.3.1-.4.2-.4.4 0 .3.3.4 1.5.5 2 .2 8.1.3 9.3.3.6 0 .8-.1.8-.4-.2-.2-.5-.3-.8-.3zm22.8-34.3c-13.2 0-18.7 10.7-18.7 17.8 0 8.1 5.4 17.9 18.5 17.9 11.4 0 19-8.4 19-18.6-.1-10.8-8.2-17.1-18.8-17.1zm1.1 33.8c-9 0-14.8-7-14.8-17.5 0-10.1 6-14.7 13.4-14.7 7.3 0 14 6 14 16.8 0 13.6-9 15.4-12.6 15.4zm59.7.5c-.2 0-1.3-.1-1.7-.1-1.5-.2-3.1-.6-5.7-3.3-2.7-2.8-5.9-6.8-9.9-11.6 4.2-3.4 5.7-7.2 5.7-10.1 0-3.6-2.2-5.8-3.2-6.5-2.5-1.8-5.8-2-8.8-2-1.5 0-5.1.2-5.6.2-.1 0-3.4-.2-5.7-.2-.5 0-.6.2-.6.4s.2.3.6.3 1 .1 1.3.1c1.7.3 2 1.1 2.1 2.6.1 1.4.1 2.7.1 9.8v8c0 4 .1 8.4-.2 10.3-.2 1.3-.5 1.9-1.4 2-.4.1-.8.1-1.2.1-.3 0-.6.2-.6.3 0 .3.2.4.8.4 1.4 0 3.8-.2 4.7-.2.2 0 3.2.2 6 .2.5 0 .7-.2.7-.4s-.2-.3-.7-.3c-.4 0-1-.1-1.6-.1-1.8-.2-1.9-1.3-2.1-2.6-.3-1.9-.3-5.8-.3-10.1v-.8c0-.2.1-.3.3-.3l5.5.1c.3 0 .4.1.6.3.9 1.1 3.1 4 5.1 6.6 2.8 3.6 4.4 6 6.6 7 1.2.5 2.4.6 4.9.6h3.7c.7 0 1-.1 1-.4.2-.1.1-.3-.4-.3zm-18.5-16.1c-1.1.7-2.5.8-3.6.8-1.9 0-4.1-.3-4.8-.7-.2-.1-.3-.4-.3-.6v-14.6c0-.3.2-.4.3-.5.6-.2 1.8-.3 3.1-.3 4.8 0 7.9 3.2 7.9 9 0 3.5-1 5.8-2.6 6.9zm43.5-17.9c-.2 0-.3.1-1 .2-.8.2-2.4.3-3.9.3h-17.6c-.1 0-1.6-.1-3.4-.3-1-.1-2-.6-2.4-.6-.2 0-.3.2-.5.9-.3 1.4-1.1 5-1.1 5.3s.1.5.3.5.3-.1.5-.4c.1-.3.3-.9.8-1.7.7-1.1 1.5-1.7 4.9-1.7 2.1-.1 5-.1 6.7-.1v19.1c0 4 0 7.9-.2 9.8-.2 1.8-.4 2.5-1.4 2.6-.4.1-.7.1-1.2.1-.4 0-.6.2-.6.4 0 .3.2.4.8.4 1.4 0 4.6-.2 4.8-.2s3.4.2 6.1.2c.5 0 .7-.2.7-.4s-.2-.3-.6-.3-1.4-.1-2.1-.2c-1.3-.3-1.4-1.1-1.6-2.4-.2-2-.3-5.8-.3-9.9v-19.1c1.6 0 3.2.1 5.2.1 5.4.1 6.1.6 6.3 2.7.1.5.1.6.1.8 0 .4.1.6.4.6.2 0 .4-.2.4-.6s.1-4 .1-5.5c.2-.3.1-.6-.2-.6zm38.6.3c-1.5 0-3.8.2-4.1.2-.2 0-2.9-.2-5.2-.2-.5 0-.8.1-.8.4 0 .2.2.3.5.3.5 0 1.1.1 1.5.1 1.7.3 1.9 1.1 2 2.6.1 1.4.1 2.7.1 9.7v5.7c0 4.7-.5 8.7-2.6 11.2-2 2.4-4.6 3.1-7.3 3.1-2.2 0-4.8-.4-7.1-2.5-2-1.8-3.3-4.6-3.3-11.1v-6.4c0-7.1 0-8.3.1-9.7.1-1.5.3-2.4 1.6-2.6.4-.1.9-.1 1.2-.1s.6-.1.6-.4-.2-.4-.8-.4c-1.4 0-4.6.2-5 .2s-3.3-.2-5.6-.2c-.6 0-.8.1-.8.4 0 .2.2.3.6.3.4 0 1.1.1 1.4.1 1.7.2 1.9 1.1 2 2.6.2 1.4.2 2.7.2 9.7v6.6c0 6.6 1.7 9.9 4 12 3.5 3.2 8.5 3.2 10 3.2 2.9 0 6.3-.3 9.8-3.2 3.8-3.3 4.3-9 4.3-13.9v-4.8c0-7 0-8.2.1-9.7.1-1.6.3-2.5 1.8-2.7.5-.1.6-.1 1-.1s.5-.2.5-.4c0 .2-.2 0-.7 0zm36.8 33.7c-.4 0-1.1 0-1.8-.3s-2.3-1-4.1-5.2c-2.8-6.7-10.1-25.4-10.9-27.1-.6-1.5-.8-1.7-1.1-1.7-.4 0-.5.3-1.1 1.8l-10.6 28.2c-.9 2.2-1.8 4-4.1 4.2-.3.1-.8.1-1.1.1-.4 0-.6.2-.6.4 0 .3.3.4.9.4 2.2 0 4.6-.2 5.1-.2.6 0 3.1.2 4.2.2.4 0 .8-.1.8-.4 0-.2-.2-.4-.6-.4h-.4c-1.2 0-1.8-.4-1.8-1.4 0-.9.4-2.3.9-3.8l2.4-6.7c.1-.3.3-.4.5-.4h9.7c.2 0 .3.1.4.3l4.3 10.7c.3.8 0 1.1-.2 1.2-.2.1-.4.2-.4.4 0 .3.3.3 1.3.4 3.6.1 7.6.1 8.1.1.6 0 .8-.1.8-.4s-.2-.4-.6-.4zm-14.3-14.2h-8.6c-.1 0-.2-.1-.1-.3l4-11.8c.3-.7.3-.7.6 0l4.2 11.8c.1.2.1.3-.1.3zm52.9 14.2c-.2 0-1.3-.1-1.7-.1-1.5-.2-3.1-.6-5.7-3.3-2.7-2.8-5.9-6.8-9.9-11.6 4.2-3.4 5.7-7.2 5.7-10.1 0-3.6-2.2-5.8-3.2-6.5-2.5-1.8-5.8-2-8.8-2-1.5 0-5.1.2-5.6.2-.1 0-3.4-.2-5.7-.2-.5 0-.6.2-.6.4s.2.3.6.3c.4 0 1 .1 1.3.1 1.7.3 2 1.1 2.1 2.6.1 1.4.1 2.7.1 9.8v8c0 4 .1 8.4-.2 10.3-.2 1.3-.5 1.9-1.4 2-.4.1-.8.1-1.2.1-.3 0-.6.2-.6.3 0 .3.2.4.8.4 1.4 0 3.8-.2 4.7-.2.2 0 3.2.2 6 .2.5 0 .7-.2.7-.4s-.2-.3-.7-.3c-.4 0-1-.1-1.6-.1-1.8-.2-1.9-1.3-2.1-2.6-.3-1.9-.3-5.8-.3-10.1v-.8c0-.2.1-.3.3-.3l5.5.1c.3 0 .4.1.6.3.9 1.1 3.1 4 5.1 6.6 2.8 3.6 4.4 6 6.6 7 1.2.5 2.4.6 4.9.6h3.7c.7 0 1-.1 1-.4.2-.1 0-.3-.4-.3zm-18.6-16.1c-1.1.7-2.5.8-3.6.8-1.9 0-4.1-.3-4.8-.7-.2-.1-.3-.4-.3-.6v-14.6c0-.3.2-.4.3-.5.6-.2 1.8-.3 3.1-.3 4.8 0 7.9 3.2 7.9 9 .1 3.5-1 5.8-2.6 6.9zM669 115c-.9 0-4 .2-4.7.2-.9 0-2-.2-3.3-.2-.5 0-.6.2-.6.3 0 .2.2.4.6.4.6.1 1.2.1 1.2.8 0 .6-.2 1.1-1.2 2.8-.7 1.3-6.7 11.1-7.6 13-.8-1.3-7.9-12.7-8.6-14-.4-.7-.7-1.2-.7-1.8 0-.4.1-.7.9-.9.4-.1.6-.2.6-.4s-.2-.3-.7-.3c-2 0-3.7.2-4.1.2-.1 0-4.2-.2-5-.2-.4 0-.6.2-.6.3 0 .3.3.4.6.4 1.1.1 1.8.3 2.5.8.7.6 1.3 1.2 2.7 3.3 1.7 2.3 7.9 12.4 8.2 13 .8 1.4 1.2 2.4 1.2 4.9v3.9c0 .4 0 2.4-.2 4.3-.1 1.3-.5 2.4-1.4 2.6-.4.1-.9.2-1.3.2s-.5.2-.5.3c0 .3.2.4.7.4 1.5 0 4.7-.2 4.8-.2.2 0 3.5.2 6.2.2.5 0 .6-.2.6-.4s-.2-.3-.6-.3c-.4 0-1.3-.1-2-.2-1.7-.3-1.8-1.2-1.9-2.5-.1-1.9-.1-3.9-.1-4.3v-3.9c0-1.4-.1-2.6.5-4.2.8-1.9 6-10.6 9.1-14.9.9-1.2 1.2-1.7 2-2.2s1.6-.6 2.7-.7c.4 0 .6-.2.6-.4 0-.1-.1-.3-.6-.3zM295.6 96h444.6v1.8H295.6z"/><text transform="translate(293.553 84.823)" class="st0 st5 st6">Harris-Nadeau</text></g><g id="vertical" class="st0"><text transform="translate(293.553 84.823)" class="st5 st6">Harris-Nadeau</text><g class="st1"><path d="M33.3 265.3c.2 0 .3-.1.3-.3v-1.1c0-8.4 0-9.9-.1-11.7-.1-1.8-.5-2.7-2.3-3.1-.4-.1-1.4-.2-1.8-.2-.2 0-.4-.1-.4-.3 0-.3.3-.4.9-.4 2.4 0 5.8.2 6.1.2s3.7-.2 5.3-.2c.6 0 .9.1.9.4 0 .2-.2.3-.4.3-.4 0-.7.1-1.4.2-1.5.3-1.9 1.2-2 3.1-.1 1.7-.1 3.2-.1 11.7v9.5c0 5.2 0 9.4.3 11.7.2 1.6.5 2.8 2.1 3 .8.1 1.9.2 2.4.2.3 0 .4.2.4.3 0 .3-.3.4-.9.4-3 0-6.4-.2-6.6-.2s-3.7.2-5.3.2c-.6 0-.9-.1-.9-.4 0-.2.1-.3.4-.3.5 0 1.1-.1 1.6-.2 1.1-.2 1.4-1.4 1.6-3 .3-2.3.3-6.5.3-11.7v-5.7c0-.2-.2-.3-.3-.3h-23c-.2 0-.3.1-.3.3v5.7c0 5.2 0 9.4.3 11.7.2 1.6.5 2.8 2.1 3 .8.1 1.9.2 2.4.2.3 0 .4.2.4.3 0 .3-.3.4-.9.4-3 0-6.4-.2-6.6-.2-.3 0-3.7.2-5.3.2-.6 0-.9-.1-.9-.4 0-.2.1-.3.4-.3.5 0 1.1-.1 1.6-.2 1.1-.2 1.3-1.4 1.6-3 .3-2.3.3-6.5.3-11.7v-9.5c0-8.4 0-9.9-.1-11.7-.1-1.8-.5-2.7-2.3-3.1-.4-.1-1.4-.2-1.8-.2-.2 0-.4-.1-.4-.3 0-.3.3-.4.9-.4 2.4 0 5.8.2 6.1.2.3 0 3.7-.2 5.3-.2.6 0 .9.1.9.4 0 .2-.2.3-.4.3-.4 0-.7.1-1.4.2-1.5.3-1.9 1.2-2 3.1-.1 1.7-.1 3.2-.1 11.7v1.1c0 .3.2.3.3.3h22.8zM58 275.8c-.3 0-.4.2-.5.4l-2.4 6.8c-.5 1.5-.9 3-.9 3.8 0 1 .6 1.4 1.8 1.4h.4c.5 0 .6.2.6.4 0 .3-.4.4-.8.4-1.2 0-3.7-.2-4.3-.2-.5 0-2.9.2-5.2.2-.6 0-.9-.1-.9-.4 0-.2.2-.4.6-.4.3 0 .8 0 1.1-.1 2.3-.2 3.2-2 4.2-4.3l10.8-28.5c.6-1.6.8-1.8 1.1-1.8.3 0 .5.2 1.1 1.7.8 1.8 8.1 20.6 11 27.4 1.8 4.3 3.3 5 4.1 5.2.7.3 1.5.3 1.8.3s.6.1.6.4-.2.4-.8.4c-.5 0-4.6 0-8.2-.1-1-.1-1.4-.1-1.4-.4 0-.2.2-.3.4-.4.2-.1.5-.4.2-1.2l-4.3-10.9c-.1-.2-.2-.3-.4-.3H58zm9.2-1.9c.2 0 .2-.2.2-.3l-4.3-11.9c-.3-.8-.3-.8-.6 0l-4 11.9c-.1.2 0 .3.1.3h8.6zm21.7-6.3c0-7.1 0-8.4-.1-9.9s-.5-2.3-2.2-2.6c-.3-.1-.9-.1-1.3-.1s-.6-.1-.6-.3c0-.2.2-.4.6-.4 2.3 0 5.6.2 5.7.2.5 0 4.2-.2 5.7-.2 3 0 6.3.3 8.9 2.1 1 .8 3.2 2.9 3.2 6.6 0 3-1.5 6.8-5.7 10.2 3.9 4.9 7.2 8.9 9.9 11.7 2.6 2.6 4.2 3.1 5.7 3.3.4.1 1.5.1 1.7.1.4 0 .6.2.6.4 0 .3-.2.4-1 .4h-3.8c-2.5 0-3.7-.2-4.9-.6-2.3-1-3.9-3.4-6.7-7-2.1-2.6-4.3-5.5-5.2-6.6-.2-.2-.3-.3-.6-.3l-5.6-.1c-.2 0-.3.1-.3.3v.8c0 4.3 0 8.3.3 10.2.2 1.3.3 2.4 2.1 2.6.5.1 1.1.1 1.6.1s.7.2.7.3c0 .3-.2.4-.8.4-2.8 0-5.8-.2-6-.2-.9 0-3.2.2-4.7.2-.5 0-.8-.1-.8-.4 0-.2.3-.3.6-.3.4 0 .8 0 1.2-.1.9-.2 1.2-.8 1.4-2.1.3-1.9.2-6.4.2-10.4v-8.3zm4.2 3.8c0 .3.1.5.3.6.7.4 2.9.7 4.8.7 1.1 0 2.5-.1 3.6-.8 1.6-1 2.7-3.4 2.7-6.9 0-5.9-3.1-9.1-7.9-9.1-1.3 0-2.5.1-3.1.3-.2.1-.3.2-.3.5v14.7z"/><path d="M124 267.6c0-7.1 0-8.4-.1-9.9s-.5-2.3-2.2-2.6c-.3-.1-.9-.1-1.3-.1s-.6-.1-.6-.3c0-.2.2-.4.6-.4 2.3 0 5.6.2 5.7.2.5 0 4.2-.2 5.7-.2 3 0 6.3.3 8.9 2.1 1 .8 3.2 2.9 3.2 6.6 0 3-1.5 6.8-5.7 10.2 3.9 4.9 7.2 8.9 9.9 11.7 2.6 2.6 4.2 3.1 5.7 3.3.4.1 1.5.1 1.7.1.4 0 .6.2.6.4 0 .3-.2.4-1 .4h-3.8c-2.5 0-3.7-.2-4.9-.6-2.3-1-3.9-3.4-6.7-7-2.1-2.6-4.3-5.5-5.2-6.6-.2-.2-.3-.3-.6-.3l-5.6-.1c-.2 0-.3.1-.3.3v.8c0 4.3 0 8.3.3 10.2.2 1.3.3 2.4 2.1 2.6.5.1 1.1.1 1.6.1s.7.2.7.3c0 .3-.2.4-.8.4-2.8 0-5.8-.2-6-.2-.9 0-3.2.2-4.7.2-.5 0-.8-.1-.8-.4 0-.2.3-.3.6-.3.4 0 .8 0 1.2-.1.9-.2 1.2-.8 1.4-2.1.3-1.9.2-6.4.2-10.4v-8.3zm4.1 3.8c0 .3.1.5.3.6.7.4 2.9.7 4.8.7 1.1 0 2.5-.1 3.6-.8 1.6-1 2.7-3.4 2.7-6.9 0-5.9-3.1-9.1-7.9-9.1-1.3 0-2.5.1-3.1.3-.2.1-.3.2-.3.5v14.7z"/><path d="M159 267.6c0-7.1 0-8.4-.1-9.9s-.4-2.3-1.6-2.5c-.5-.1-.9-.1-1.2-.2-.4-.1-.6-.2-.6-.4 0-.3.2-.4.8-.4 1.7 0 4.8.2 4.9.2.2 0 3.3-.2 4.9-.2.5 0 .8.1.8.4 0 .2-.2.3-.6.4-.3.1-.6.1-1 .1-1.6.2-1.7 1-1.8 2.6-.1 1.5-.1 2.7-.1 9.8v8.1c0 4.2-.1 7.9.2 9.9.2 1.6.4 2.2 1.8 2.5.7.2 1.8.2 2.1.2.5.1.6.2.6.4s-.2.4-.8.4c-2.8 0-5.9-.2-6.2-.2-.2 0-3.3.2-4.9.2-.5 0-.9-.1-.9-.4 0-.2.2-.4.7-.4.3 0 .9-.1 1.3-.2.9-.2 1.1-1.3 1.2-2.6.3-1.9.3-5.8.3-9.8v-8zm17.4 20.8c-.7-.3-.7-.5-.7-1.8 0-2.5.2-4.3.2-5.1.1-.5.2-.8.4-.8.3 0 .4.2.4.5s0 1 .2 1.6c.7 3.5 3.9 4.9 7 4.9 4.5 0 6.6-3.1 6.6-5.8 0-3.1-1.4-5-5.3-8.2L183 272c-5.2-4.2-6.3-7-6.3-10.2 0-5 3.9-8.3 10-8.3 1.9 0 3.2.2 4.4.4 1 .2 1.5.3 1.8.3s.5.1.5.3c0 .2-.2 2.1-.2 5.2 0 .8-.1 1.1-.4 1.1-.3 0-.3-.2-.4-.6-.1-.5-.2-1.6-.6-2.5-.3-.5-1.5-2.5-6-2.5-3.2 0-5.7 1.9-5.7 5.2 0 2.5 1.3 4.1 5.8 7.5l1.2 1c5.6 4.3 7.1 7.2 7.1 11 0 1.9-.8 5.4-4.1 7.7-2.1 1.3-4.7 1.9-7.3 1.9-2.2.1-4.3-.2-6.4-1.1zm36.8-19.1c1.2 0 1.3.2 1.3.4 0 .4-.8.6-1.8.8-3.7.6-8.3 1.4-10.7 2.1-1.1.3-1.8.6-2.1.6-.3 0-.3-.3-.2-.8l.7-2.8c.1-.4.3-.4 1.1-.4h11.7zm11 3.8c0-19.5.1-12.5.1-23 0-2.1.2-2.7.6-2.7.4 0 1.3 1.2 1.9 1.7.8.9 8.9 9.6 17.2 18.5 5.3 5.7 11.2 12.3 13 14.1l-.6-27.4c-.1-3.5-.4-4.7-2.1-5.1-1-.2-1.8-.3-2.3-.3-.6 0-.8-.2-.8-.4 0-.3.4-.4 1.1-.4 2.4 0 5 .2 5.6.2.6 0 2.4-.2 4.6-.2.6 0 1 .1 1 .4 0 .2-.2.3-.6.4-.4.1-.8.1-1.4.2-1.5.3-1.9 1.1-1.9 4.9l-.1 31.5c0 3.6-.1 3.8-.5 3.8s-1.1-.6-3.9-3.5c-.6-.5-8.4-8.5-14.1-14.6-6.3-6.8-12.4-13.6-14.1-15.5l.7 25.9c.1 4.4.6 5.8 2.1 6.3 1 .3 2.2.3 2.7.3.3 0 .4.1.4.3 0 .3-.3.4-1 .4-3.1 0-5.2-.2-5.7-.2s-2.8.2-5.2.2c-.5 0-.9-.1-.9-.4 0-.2.2-.3.4-.3.4 0 1.4-.1 2.2-.3 1.4-.4 1.6-1.9 1.6-6.9v-7.9zm54.1 2.7c-.3 0-.4.2-.5.4l-2.4 6.8c-.5 1.5-.9 3-.9 3.8 0 1 .6 1.4 1.8 1.4h.4c.5 0 .6.2.6.4 0 .3-.4.4-.8.4-1.2 0-3.7-.2-4.3-.2-.5 0-2.9.2-5.2.2-.6 0-.9-.1-.9-.4 0-.2.2-.4.6-.4.3 0 .8 0 1.1-.1 2.3-.2 3.2-2 4.2-4.3l10.8-28.5c.6-1.6.8-1.8 1.1-1.8.3 0 .5.2 1.1 1.7.8 1.8 8.1 20.6 11 27.4 1.8 4.3 3.3 5 4.1 5.2.7.3 1.5.3 1.8.3s.6.1.6.4-.2.4-.8.4c-.5 0-4.6 0-8.2-.1-1-.1-1.3-.1-1.3-.4 0-.2.2-.3.4-.4.2-.1.5-.4.2-1.2l-4.3-10.9c-.1-.2-.2-.3-.4-.3h-9.8zm9.2-1.9c.2 0 .2-.2.2-.3l-4.3-11.9c-.3-.8-.3-.8-.6 0l-4.1 11.9c-.1.2 0 .3.1.3h8.7zm21.7-6.3c0-7.1 0-8.5-.1-9.9-.1-1.5-.5-2.2-2.1-2.5-.3-.1-1.1-.1-1.6-.1-.3 0-.5-.2-.5-.3 0-.3.3-.4.8-.4 2.2 0 5.6.2 5.8.2.4 0 3.2-.2 6.2-.2 4.8 0 13.6-.5 19.3 5.3 2.4 2.4 4.6 6.2 4.6 11.6 0 5.7-2.5 10.2-5.1 12.9-2.1 2.1-6.2 5.3-14.4 5.3-2.1 0-4.7-.1-6.8-.3-2.1-.1-3.7-.3-3.9-.3-.1 0-.8 0-1.8.1-1 0-2.3.1-3.1.1-.5 0-.8-.1-.8-.4 0-.2.2-.4.6-.4s.8-.1 1.2-.2c.9-.2 1.2-1.3 1.4-2.5.3-2 .3-5.7.3-10v-8zm4.4 4.6c0 4.9.1 9.1.1 9.9.1 1.7.2 3.1.5 3.6.6.9 2.3 2.1 7.9 2.1 4.4 0 8.4-1.4 11.2-4.2 2.4-2.4 3.5-6.4 3.5-10.7 0-6.1-2.8-9.8-4.6-11.6-4.6-4.6-9.9-5.1-15.2-5.1-.8 0-2.4.2-2.8.4-.4.2-.6.4-.6.9-.1 1.6-.1 6.2-.1 9.4v5.3zm38.8-4.6c0-7.1 0-8.4-.1-9.8-.1-1.5-.5-2.3-2.1-2.6-.3-.1-.9-.1-1.3-.1s-.7-.2-.7-.3c0-.3.3-.4.8-.4 1.1 0 2.5.1 5.6.2.3 0 9.9 0 11-.1 1.1-.1 1.7-.1 2.1-.3.3-.1.4-.2.6-.2.1 0 .2.1.2.4 0 .3-.3 1.1-.4 2.4-.1.9-.1 1.8-.2 2.8 0 .5-.1.8-.4.8-.3 0-.4-.2-.4-.6-.1-.8-.2-1.4-.4-1.7-.3-1.1-.8-1.5-3.5-1.6-.7-.1-6-.1-6.2-.1-.2 0-.3.1-.3.4V269c0 .3.1.5.3.5.6 0 6.2-.1 7.3-.2 1.2-.1 2.1-.2 2.5-.8.2-.3.4-.4.6-.4.1 0 .2.1.2.3s-.2 1.3-.4 2.9c-.2 1.5-.2 2.6-.2 3.3-.1.4-.2.6-.4.6-.3 0-.3-.3-.3-.7 0-.3-.1-.9-.2-1.3-.2-.7-.5-1.5-2.6-1.6-1.2-.1-5.6-.2-6.5-.2-.3 0-.4.2-.4.4v3.9c0 1.7-.1 6.4 0 7.3.1 2 .4 3 1.5 3.5.8.4 2.1.5 3.9.5 1 0 2.8.1 4.1-.3 1.6-.5 2-1.6 2.4-3.6.1-.5.3-.8.5-.8.3 0 .3.5.3.8 0 .4-.4 3.8-.6 4.7-.2 1.1-.6 1.2-2.4 1.2-3.6 0-5.1-.1-7-.1-1.9-.1-4.4-.2-6.4-.2-1.2 0-2.3.2-3.6.2-.5 0-.8-.1-.8-.4 0-.2.2-.4.5-.4s.7-.1 1.1-.2c1-.2 1.6-.9 1.7-4.3.1-1.8.1-4.1.1-8.2v-7.8zm32.8 8.2c-.3 0-.4.2-.5.4l-2.4 6.8c-.5 1.5-.9 3-.9 3.8 0 1 .6 1.4 1.8 1.4h.4c.5 0 .6.2.6.4 0 .3-.4.4-.8.4-1.2 0-3.7-.2-4.3-.2-.5 0-2.9.2-5.2.2-.6 0-.9-.1-.9-.4 0-.2.2-.4.6-.4.3 0 .8 0 1.1-.1 2.3-.2 3.2-2 4.2-4.3l10.8-28.5c.6-1.6.8-1.8 1.1-1.8.3 0 .5.2 1.1 1.7.8 1.8 8.1 20.6 11 27.4 1.8 4.3 3.3 5 4.1 5.2.7.3 1.5.3 1.8.3s.6.1.6.4-.2.4-.8.4c-.5 0-4.6 0-8.2-.1-1-.1-1.3-.1-1.3-.4 0-.2.2-.3.4-.4.2-.1.5-.4.2-1.2l-4.3-10.9c-.1-.2-.2-.3-.4-.3h-9.8zm9.2-1.9c.2 0 .2-.2.2-.3l-4.3-11.9c-.3-.8-.3-.8-.6 0l-4.1 11.9c-.1.2 0 .3.1.3h8.7zm23 .1c0 6.6 1.2 9.4 3.3 11.2 2.3 2.1 4.9 2.5 7.1 2.5 2.8 0 5.3-.8 7.4-3.1 2.2-2.5 2.6-6.6 2.6-11.3v-5.7c0-7.1 0-8.3-.1-9.8-.1-1.6-.3-2.4-2-2.6-.4-.1-1-.1-1.5-.1-.3 0-.5-.2-.5-.3 0-.3.3-.4.8-.4 2.3 0 5 .2 5.2.2.3 0 2.6-.2 4.1-.2.5 0 .8.1.8.4 0 .2-.2.4-.5.4s-.4 0-1 .1c-1.5.2-1.7 1.1-1.8 2.7-.1 1.5-.1 2.7-.1 9.8v4.8c0 4.9-.5 10.7-4.4 14-3.5 3-7 3.2-9.9 3.2-1.5 0-6.6 0-10.1-3.2-2.3-2.2-4-5.4-4-12.1v-6.7c0-7.1 0-8.4-.2-9.8-.1-1.5-.3-2.4-2-2.6-.3-.1-1-.1-1.4-.1-.4 0-.6-.2-.6-.3 0-.3.2-.4.8-.4 2.3 0 5.2.2 5.6.2.4 0 3.6-.2 5.1-.2.6 0 .8.1.8.4s-.4.4-.6.4c-.3 0-.8.1-1.2.1-1.3.2-1.5 1.1-1.6 2.6-.1 1.5-.1 2.7-.1 9.8v6.1zm-294.9 80.3c-.5 0-1.8 0-3.3-.5-2.3-.7-2.7-3.7-2.9-5.7l-3.6-32.9c-.1-1-.3-1.4-.6-1.4-.4 0-.6.4-.8.9l-15.8 33.6-16.4-33.7c-.3-.6-.5-.8-.8-.8s-.5.5-.6 1.1l-3.9 34.8c-.3 2.2-.4 4.1-2.1 4.4-.8.2-1.2.2-1.6.2-.3 0-.5.1-.5.3 0 .4.4.4.9.4 1.4 0 4-.2 4.5-.2.4 0 3.2.2 5.1.2.5 0 .8-.1.8-.5 0-.2-.2-.3-.5-.3s-1 0-1.9-.2c-.8-.2-1.4-.6-1.4-1.9 0-.9.1-1.7.1-2.5l2.2-25.2c.6 1.4 6.7 14.7 7.2 15.6.3.5 4.9 9.8 6.3 12.4 1 1.9 1.3 2.5 1.7 2.5.5 0 .6-.5 1.8-2.8l13.3-28.2 2.6 28c.1 1 .2 1.8-.2 1.9-.3.1-.4.2-.4.4 0 .3.3.4 1.5.5 2 .2 8.1.3 9.3.3.6 0 .8-.1.8-.4-.2-.2-.5-.3-.8-.3zm22.8-34.3c-13.2 0-18.7 10.7-18.7 17.8 0 8.1 5.4 17.9 18.5 17.9 11.4 0 19-8.4 19-18.6-.1-10.8-8.2-17.1-18.8-17.1zm1.1 33.8c-9 0-14.8-7-14.8-17.5 0-10.1 6-14.7 13.4-14.7 7.3 0 14 6 14 16.8 0 13.6-9 15.4-12.6 15.4zm59.7.5c-.2 0-1.3-.1-1.7-.1-1.5-.2-3.1-.6-5.7-3.3-2.7-2.8-5.9-6.8-9.9-11.6 4.2-3.4 5.7-7.2 5.7-10.1 0-3.6-2.2-5.8-3.2-6.5-2.5-1.8-5.8-2-8.8-2-1.5 0-5.1.2-5.6.2-.1 0-3.4-.2-5.7-.2-.5 0-.6.2-.6.4s.2.3.6.3 1 .1 1.3.1c1.7.3 2 1.1 2.1 2.6.1 1.4.1 2.7.1 9.8v8c0 4 .1 8.4-.2 10.3-.2 1.3-.5 1.9-1.4 2-.4.1-.8.1-1.2.1-.3 0-.6.2-.6.3 0 .3.2.4.8.4 1.4 0 3.8-.2 4.7-.2.2 0 3.2.2 6 .2.5 0 .7-.2.7-.4s-.2-.3-.7-.3c-.4 0-1-.1-1.6-.1-1.8-.2-1.9-1.3-2.1-2.6-.3-1.9-.3-5.8-.3-10.1v-.8c0-.2.1-.3.3-.3l5.5.1c.3 0 .4.1.6.3.9 1.1 3.1 4 5.1 6.6 2.8 3.6 4.4 6 6.6 7 1.2.5 2.4.6 4.9.6h3.7c.7 0 1-.1 1-.4.2-.1.1-.3-.4-.3zm-18.5-16.1c-1.1.7-2.5.8-3.6.8-1.9 0-4.1-.3-4.8-.7-.2-.1-.3-.4-.3-.6v-14.6c0-.3.2-.4.3-.5.6-.2 1.8-.3 3.1-.3 4.8 0 7.9 3.2 7.9 9 0 3.5-1 5.8-2.6 6.9zm43.5-17.9c-.2 0-.3.1-1 .2-.8.2-2.4.3-3.9.3h-17.6c-.1 0-1.6-.1-3.4-.3-1-.1-2-.6-2.4-.6-.2 0-.3.2-.5.9-.3 1.4-1.1 5-1.1 5.3 0 .3.1.5.3.5s.3-.1.5-.4c.1-.3.3-.9.8-1.7.7-1.1 1.5-1.7 4.9-1.7 2.1-.1 5-.1 6.7-.1v19.1c0 4 0 7.9-.2 9.8-.2 1.8-.4 2.5-1.4 2.6-.4.1-.7.1-1.2.1-.4 0-.6.2-.6.4 0 .3.2.4.8.4 1.4 0 4.6-.2 4.8-.2s3.4.2 6.1.2c.5 0 .7-.2.7-.4s-.2-.3-.6-.3-1.4-.1-2.1-.2c-1.3-.3-1.4-1.1-1.6-2.4-.2-2-.3-5.8-.3-9.9v-19.1c1.6 0 3.2.1 5.2.1 5.4.1 6.1.6 6.3 2.7.1.5.1.6.1.8 0 .4.1.6.4.6.2 0 .4-.2.4-.6s.1-4 .1-5.5c.2-.3.1-.6-.2-.6zm38.6.3c-1.5 0-3.8.2-4.1.2-.2 0-2.9-.2-5.2-.2-.5 0-.8.1-.8.4 0 .2.2.3.5.3.5 0 1.1.1 1.5.1 1.7.3 1.9 1.1 2 2.6.1 1.4.1 2.7.1 9.7v5.7c0 4.7-.5 8.7-2.6 11.2-2 2.4-4.6 3.1-7.3 3.1-2.2 0-4.8-.4-7.1-2.5-2-1.8-3.3-4.6-3.3-11.1v-6.4c0-7.1 0-8.3.1-9.7.1-1.5.3-2.4 1.6-2.6.4-.1.9-.1 1.2-.1s.6-.1.6-.4c0-.3-.2-.4-.8-.4-1.4 0-4.6.2-5 .2s-3.3-.2-5.6-.2c-.6 0-.8.1-.8.4 0 .2.2.3.6.3.4 0 1.1.1 1.4.1 1.7.2 1.9 1.1 2 2.6.2 1.4.2 2.7.2 9.7v6.6c0 6.6 1.7 9.9 4 12 3.5 3.2 8.5 3.2 10 3.2 2.9 0 6.3-.3 9.8-3.2 3.8-3.3 4.3-9 4.3-13.9v-4.8c0-7 0-8.2.1-9.7.1-1.6.3-2.5 1.8-2.7.5-.1.6-.1 1-.1s.5-.2.5-.4c0 .2-.2 0-.7 0zm36.8 33.7c-.4 0-1.1 0-1.8-.3s-2.3-1-4.1-5.2c-2.8-6.7-10.1-25.4-10.9-27.1-.6-1.5-.8-1.7-1.1-1.7-.4 0-.5.3-1.1 1.8L276.9 350c-.9 2.2-1.8 4-4.1 4.2-.3.1-.8.1-1.1.1-.4 0-.6.2-.6.4 0 .3.3.4.9.4 2.2 0 4.6-.2 5.1-.2.6 0 3.1.2 4.2.2.4 0 .8-.1.8-.4 0-.2-.2-.4-.6-.4h-.4c-1.2 0-1.8-.4-1.8-1.4 0-.9.4-2.3.9-3.8l2.4-6.7c.1-.3.3-.4.5-.4h9.7c.2 0 .3.1.4.3l4.3 10.7c.3.8 0 1.1-.2 1.2s-.4.2-.4.4c0 .3.3.3 1.3.4 3.6.1 7.6.1 8.1.1.6 0 .8-.1.8-.4s-.2-.4-.6-.4zm-14.3-14.2h-8.6c-.1 0-.2-.1-.1-.3l4-11.8c.3-.7.3-.7.6 0l4.2 11.8c.1.2.1.3-.1.3zm52.9 14.2c-.2 0-1.3-.1-1.7-.1-1.5-.2-3.1-.6-5.7-3.3-2.7-2.8-5.9-6.8-9.9-11.6 4.2-3.4 5.7-7.2 5.7-10.1 0-3.6-2.2-5.8-3.2-6.5-2.5-1.8-5.8-2-8.8-2-1.5 0-5.1.2-5.6.2-.1 0-3.4-.2-5.7-.2-.5 0-.6.2-.6.4s.2.3.6.3c.4 0 1 .1 1.3.1 1.7.3 2 1.1 2.1 2.6.1 1.4.1 2.7.1 9.8v8c0 4 .1 8.4-.2 10.3-.2 1.3-.5 1.9-1.4 2-.4.1-.8.1-1.2.1-.3 0-.6.2-.6.3 0 .3.2.4.8.4 1.4 0 3.8-.2 4.7-.2.2 0 3.2.2 6 .2.5 0 .7-.2.7-.4s-.2-.3-.7-.3c-.4 0-1-.1-1.6-.1-1.8-.2-1.9-1.3-2.1-2.6-.3-1.9-.3-5.8-.3-10.1v-.8c0-.2.1-.3.3-.3l5.5.1c.3 0 .4.1.6.3.9 1.1 3.1 4 5.1 6.6 2.8 3.6 4.4 6 6.6 7 1.2.5 2.4.6 4.9.6h3.7c.7 0 1-.1 1-.4.2-.1 0-.3-.4-.3zm-18.6-16.1c-1.1.7-2.5.8-3.6.8-1.9 0-4.1-.3-4.8-.7-.2-.1-.3-.4-.3-.6v-14.6c0-.3.2-.4.3-.5.6-.2 1.8-.3 3.1-.3 4.8 0 7.9 3.2 7.9 9 .1 3.5-1 5.8-2.6 6.9zm45.9-17.6c-.9 0-4 .2-4.7.2-.9 0-2-.2-3.3-.2-.5 0-.6.2-.6.3 0 .2.2.4.6.4.6.1 1.2.1 1.2.8 0 .6-.2 1.1-1.2 2.8-.7 1.3-6.7 11.1-7.6 13-.8-1.3-7.9-12.7-8.6-14-.4-.7-.7-1.2-.7-1.8 0-.4.1-.7.9-.9.4-.1.6-.2.6-.4s-.2-.3-.7-.3c-2 0-3.7.2-4.1.2-.1 0-4.2-.2-5-.2-.4 0-.6.2-.6.3 0 .3.3.4.6.4 1.1.1 1.8.3 2.5.8.7.6 1.3 1.2 2.7 3.3 1.7 2.3 7.9 12.4 8.2 13 .8 1.4 1.2 2.4 1.2 4.9v3.9c0 .4 0 2.4-.2 4.3-.1 1.3-.5 2.4-1.4 2.6-.4.1-.9.2-1.3.2s-.5.2-.5.3c0 .3.2.4.7.4 1.5 0 4.7-.2 4.8-.2.2 0 3.5.2 6.2.2.5 0 .6-.2.6-.4s-.2-.3-.6-.3c-.4 0-1.3-.1-2-.2-1.7-.3-1.8-1.2-1.9-2.5-.1-1.9-.1-3.9-.1-4.3v-3.9c0-1.4-.1-2.6.5-4.2.8-1.9 6-10.6 9.1-14.9.9-1.2 1.2-1.7 2-2.2s1.6-.6 2.7-.7c.4 0 .6-.2.6-.4 0-.1-.1-.3-.6-.3zM-1 301.6h444.6v1.8H-1zm34.3-36.3c.2 0 .3-.1.3-.3v-1.1c0-8.4 0-9.9-.1-11.7-.1-1.8-.5-2.7-2.3-3.1-.4-.1-1.4-.2-1.8-.2-.2 0-.4-.1-.4-.3 0-.3.3-.4.9-.4 2.4 0 5.8.2 6.1.2s3.7-.2 5.3-.2c.6 0 .9.1.9.4 0 .2-.2.3-.4.3-.4 0-.7.1-1.4.2-1.5.3-1.9 1.2-2 3.1-.1 1.7-.1 3.2-.1 11.7v9.5c0 5.2 0 9.4.3 11.7.2 1.6.5 2.8 2.1 3 .8.1 1.9.2 2.4.2.3 0 .4.2.4.3 0 .3-.3.4-.9.4-3 0-6.4-.2-6.6-.2s-3.7.2-5.3.2c-.6 0-.9-.1-.9-.4 0-.2.1-.3.4-.3.5 0 1.1-.1 1.6-.2 1.1-.2 1.4-1.4 1.6-3 .3-2.3.3-6.5.3-11.7v-5.7c0-.2-.2-.3-.3-.3h-23c-.2 0-.3.1-.3.3v5.7c0 5.2 0 9.4.3 11.7.2 1.6.5 2.8 2.1 3 .8.1 1.9.2 2.4.2.3 0 .4.2.4.3 0 .3-.3.4-.9.4-3 0-6.4-.2-6.6-.2-.3 0-3.7.2-5.3.2-.6 0-.9-.1-.9-.4 0-.2.1-.3.4-.3.5 0 1.1-.1 1.6-.2 1.1-.2 1.3-1.4 1.6-3 .3-2.3.3-6.5.3-11.7v-9.5c0-8.4 0-9.9-.1-11.7-.1-1.8-.5-2.7-2.3-3.1-.4-.1-1.4-.2-1.8-.2-.2 0-.4-.1-.4-.3 0-.3.3-.4.9-.4 2.4 0 5.8.2 6.1.2.3 0 3.7-.2 5.3-.2.6 0 .9.1.9.4 0 .2-.2.3-.4.3-.4 0-.7.1-1.4.2-1.5.3-1.9 1.2-2 3.1-.1 1.7-.1 3.2-.1 11.7v1.1c0 .3.2.3.3.3h22.8zM58 275.8c-.3 0-.4.2-.5.4l-2.4 6.8c-.5 1.5-.9 3-.9 3.8 0 1 .6 1.4 1.8 1.4h.4c.5 0 .6.2.6.4 0 .3-.4.4-.8.4-1.2 0-3.7-.2-4.3-.2-.5 0-2.9.2-5.2.2-.6 0-.9-.1-.9-.4 0-.2.2-.4.6-.4.3 0 .8 0 1.1-.1 2.3-.2 3.2-2 4.2-4.3l10.8-28.5c.6-1.6.8-1.8 1.1-1.8.3 0 .5.2 1.1 1.7.8 1.8 8.1 20.6 11 27.4 1.8 4.3 3.3 5 4.1 5.2.7.3 1.5.3 1.8.3s.6.1.6.4-.2.4-.8.4c-.5 0-4.6 0-8.2-.1-1-.1-1.4-.1-1.4-.4 0-.2.2-.3.4-.4.2-.1.5-.4.2-1.2l-4.3-10.9c-.1-.2-.2-.3-.4-.3H58zm9.2-1.9c.2 0 .2-.2.2-.3l-4.3-11.9c-.3-.8-.3-.8-.6 0l-4 11.9c-.1.2 0 .3.1.3h8.6zm21.7-6.3c0-7.1 0-8.4-.1-9.9s-.5-2.3-2.2-2.6c-.3-.1-.9-.1-1.3-.1s-.6-.1-.6-.3c0-.2.2-.4.6-.4 2.3 0 5.6.2 5.7.2.5 0 4.2-.2 5.7-.2 3 0 6.3.3 8.9 2.1 1 .8 3.2 2.9 3.2 6.6 0 3-1.5 6.8-5.7 10.2 3.9 4.9 7.2 8.9 9.9 11.7 2.6 2.6 4.2 3.1 5.7 3.3.4.1 1.5.1 1.7.1.4 0 .6.2.6.4 0 .3-.2.4-1 .4h-3.8c-2.5 0-3.7-.2-4.9-.6-2.3-1-3.9-3.4-6.7-7-2.1-2.6-4.3-5.5-5.2-6.6-.2-.2-.3-.3-.6-.3l-5.6-.1c-.2 0-.3.1-.3.3v.8c0 4.3 0 8.3.3 10.2.2 1.3.3 2.4 2.1 2.6.5.1 1.1.1 1.6.1s.7.2.7.3c0 .3-.2.4-.8.4-2.8 0-5.8-.2-6-.2-.9 0-3.2.2-4.7.2-.5 0-.8-.1-.8-.4 0-.2.3-.3.6-.3.4 0 .8 0 1.2-.1.9-.2 1.2-.8 1.4-2.1.3-1.9.2-6.4.2-10.4v-8.3zm4.2 3.8c0 .3.1.5.3.6.7.4 2.9.7 4.8.7 1.1 0 2.5-.1 3.6-.8 1.6-1 2.7-3.4 2.7-6.9 0-5.9-3.1-9.1-7.9-9.1-1.3 0-2.5.1-3.1.3-.2.1-.3.2-.3.5v14.7z"/><path d="M124 267.6c0-7.1 0-8.4-.1-9.9s-.5-2.3-2.2-2.6c-.3-.1-.9-.1-1.3-.1s-.6-.1-.6-.3c0-.2.2-.4.6-.4 2.3 0 5.6.2 5.7.2.5 0 4.2-.2 5.7-.2 3 0 6.3.3 8.9 2.1 1 .8 3.2 2.9 3.2 6.6 0 3-1.5 6.8-5.7 10.2 3.9 4.9 7.2 8.9 9.9 11.7 2.6 2.6 4.2 3.1 5.7 3.3.4.1 1.5.1 1.7.1.4 0 .6.2.6.4 0 .3-.2.4-1 .4h-3.8c-2.5 0-3.7-.2-4.9-.6-2.3-1-3.9-3.4-6.7-7-2.1-2.6-4.3-5.5-5.2-6.6-.2-.2-.3-.3-.6-.3l-5.6-.1c-.2 0-.3.1-.3.3v.8c0 4.3 0 8.3.3 10.2.2 1.3.3 2.4 2.1 2.6.5.1 1.1.1 1.6.1s.7.2.7.3c0 .3-.2.4-.8.4-2.8 0-5.8-.2-6-.2-.9 0-3.2.2-4.7.2-.5 0-.8-.1-.8-.4 0-.2.3-.3.6-.3.4 0 .8 0 1.2-.1.9-.2 1.2-.8 1.4-2.1.3-1.9.2-6.4.2-10.4v-8.3zm4.1 3.8c0 .3.1.5.3.6.7.4 2.9.7 4.8.7 1.1 0 2.5-.1 3.6-.8 1.6-1 2.7-3.4 2.7-6.9 0-5.9-3.1-9.1-7.9-9.1-1.3 0-2.5.1-3.1.3-.2.1-.3.2-.3.5v14.7z"/><path d="M159 267.6c0-7.1 0-8.4-.1-9.9s-.4-2.3-1.6-2.5c-.5-.1-.9-.1-1.2-.2-.4-.1-.6-.2-.6-.4 0-.3.2-.4.8-.4 1.7 0 4.8.2 4.9.2.2 0 3.3-.2 4.9-.2.5 0 .8.1.8.4 0 .2-.2.3-.6.4-.3.1-.6.1-1 .1-1.6.2-1.7 1-1.8 2.6-.1 1.5-.1 2.7-.1 9.8v8.1c0 4.2-.1 7.9.2 9.9.2 1.6.4 2.2 1.8 2.5.7.2 1.8.2 2.1.2.5.1.6.2.6.4s-.2.4-.8.4c-2.8 0-5.9-.2-6.2-.2-.2 0-3.3.2-4.9.2-.5 0-.9-.1-.9-.4 0-.2.2-.4.7-.4.3 0 .9-.1 1.3-.2.9-.2 1.1-1.3 1.2-2.6.3-1.9.3-5.8.3-9.8v-8zm17.4 20.8c-.7-.3-.7-.5-.7-1.8 0-2.5.2-4.3.2-5.1.1-.5.2-.8.4-.8.3 0 .4.2.4.5s0 1 .2 1.6c.7 3.5 3.9 4.9 7 4.9 4.5 0 6.6-3.1 6.6-5.8 0-3.1-1.4-5-5.3-8.2L183 272c-5.2-4.2-6.3-7-6.3-10.2 0-5 3.9-8.3 10-8.3 1.9 0 3.2.2 4.4.4 1 .2 1.5.3 1.8.3s.5.1.5.3c0 .2-.2 2.1-.2 5.2 0 .8-.1 1.1-.4 1.1-.3 0-.3-.2-.4-.6-.1-.5-.2-1.6-.6-2.5-.3-.5-1.5-2.5-6-2.5-3.2 0-5.7 1.9-5.7 5.2 0 2.5 1.3 4.1 5.8 7.5l1.2 1c5.6 4.3 7.1 7.2 7.1 11 0 1.9-.8 5.4-4.1 7.7-2.1 1.3-4.7 1.9-7.3 1.9-2.2.1-4.3-.2-6.4-1.1zm36.8-19.1c1.2 0 1.3.2 1.3.4 0 .4-.8.6-1.8.8-3.7.6-8.3 1.4-10.7 2.1-1.1.3-1.8.6-2.1.6-.3 0-.3-.3-.2-.8l.7-2.8c.1-.4.3-.4 1.1-.4h11.7zm11 3.8c0-19.5.1-12.5.1-23 0-2.1.2-2.7.6-2.7.4 0 1.3 1.2 1.9 1.7.8.9 8.9 9.6 17.2 18.5 5.3 5.7 11.2 12.3 13 14.1l-.6-27.4c-.1-3.5-.4-4.7-2.1-5.1-1-.2-1.8-.3-2.3-.3-.6 0-.8-.2-.8-.4 0-.3.4-.4 1.1-.4 2.4 0 5 .2 5.6.2.6 0 2.4-.2 4.6-.2.6 0 1 .1 1 .4 0 .2-.2.3-.6.4-.4.1-.8.1-1.4.2-1.5.3-1.9 1.1-1.9 4.9l-.1 31.5c0 3.6-.1 3.8-.5 3.8s-1.1-.6-3.9-3.5c-.6-.5-8.4-8.5-14.1-14.6-6.3-6.8-12.4-13.6-14.1-15.5l.7 25.9c.1 4.4.6 5.8 2.1 6.3 1 .3 2.2.3 2.7.3.3 0 .4.1.4.3 0 .3-.3.4-1 .4-3.1 0-5.2-.2-5.7-.2s-2.8.2-5.2.2c-.5 0-.9-.1-.9-.4 0-.2.2-.3.4-.3.4 0 1.4-.1 2.2-.3 1.4-.4 1.6-1.9 1.6-6.9v-7.9zm54.1 2.7c-.3 0-.4.2-.5.4l-2.4 6.8c-.5 1.5-.9 3-.9 3.8 0 1 .6 1.4 1.8 1.4h.4c.5 0 .6.2.6.4 0 .3-.4.4-.8.4-1.2 0-3.7-.2-4.3-.2-.5 0-2.9.2-5.2.2-.6 0-.9-.1-.9-.4 0-.2.2-.4.6-.4.3 0 .8 0 1.1-.1 2.3-.2 3.2-2 4.2-4.3l10.8-28.5c.6-1.6.8-1.8 1.1-1.8.3 0 .5.2 1.1 1.7.8 1.8 8.1 20.6 11 27.4 1.8 4.3 3.3 5 4.1 5.2.7.3 1.5.3 1.8.3s.6.1.6.4-.2.4-.8.4c-.5 0-4.6 0-8.2-.1-1-.1-1.3-.1-1.3-.4 0-.2.2-.3.4-.4.2-.1.5-.4.2-1.2l-4.3-10.9c-.1-.2-.2-.3-.4-.3h-9.8zm9.2-1.9c.2 0 .2-.2.2-.3l-4.3-11.9c-.3-.8-.3-.8-.6 0l-4.1 11.9c-.1.2 0 .3.1.3h8.7zm21.7-6.3c0-7.1 0-8.5-.1-9.9-.1-1.5-.5-2.2-2.1-2.5-.3-.1-1.1-.1-1.6-.1-.3 0-.5-.2-.5-.3 0-.3.3-.4.8-.4 2.2 0 5.6.2 5.8.2.4 0 3.2-.2 6.2-.2 4.8 0 13.6-.5 19.3 5.3 2.4 2.4 4.6 6.2 4.6 11.6 0 5.7-2.5 10.2-5.1 12.9-2.1 2.1-6.2 5.3-14.4 5.3-2.1 0-4.7-.1-6.8-.3-2.1-.1-3.7-.3-3.9-.3-.1 0-.8 0-1.8.1-1 0-2.3.1-3.1.1-.5 0-.8-.1-.8-.4 0-.2.2-.4.6-.4s.8-.1 1.2-.2c.9-.2 1.2-1.3 1.4-2.5.3-2 .3-5.7.3-10v-8zm4.4 4.6c0 4.9.1 9.1.1 9.9.1 1.7.2 3.1.5 3.6.6.9 2.3 2.1 7.9 2.1 4.4 0 8.4-1.4 11.2-4.2 2.4-2.4 3.5-6.4 3.5-10.7 0-6.1-2.8-9.8-4.6-11.6-4.6-4.6-9.9-5.1-15.2-5.1-.8 0-2.4.2-2.8.4-.4.2-.6.4-.6.9-.1 1.6-.1 6.2-.1 9.4v5.3zm38.8-4.6c0-7.1 0-8.4-.1-9.8-.1-1.5-.5-2.3-2.1-2.6-.3-.1-.9-.1-1.3-.1s-.7-.2-.7-.3c0-.3.3-.4.8-.4 1.1 0 2.5.1 5.6.2.3 0 9.9 0 11-.1 1.1-.1 1.7-.1 2.1-.3.3-.1.4-.2.6-.2.1 0 .2.1.2.4 0 .3-.3 1.1-.4 2.4-.1.9-.1 1.8-.2 2.8 0 .5-.1.8-.4.8-.3 0-.4-.2-.4-.6-.1-.8-.2-1.4-.4-1.7-.3-1.1-.8-1.5-3.5-1.6-.7-.1-6-.1-6.2-.1-.2 0-.3.1-.3.4V269c0 .3.1.5.3.5.6 0 6.2-.1 7.3-.2 1.2-.1 2.1-.2 2.5-.8.2-.3.4-.4.6-.4.1 0 .2.1.2.3s-.2 1.3-.4 2.9c-.2 1.5-.2 2.6-.2 3.3-.1.4-.2.6-.4.6-.3 0-.3-.3-.3-.7 0-.3-.1-.9-.2-1.3-.2-.7-.5-1.5-2.6-1.6-1.2-.1-5.6-.2-6.5-.2-.3 0-.4.2-.4.4v3.9c0 1.7-.1 6.4 0 7.3.1 2 .4 3 1.5 3.5.8.4 2.1.5 3.9.5 1 0 2.8.1 4.1-.3 1.6-.5 2-1.6 2.4-3.6.1-.5.3-.8.5-.8.3 0 .3.5.3.8 0 .4-.4 3.8-.6 4.7-.2 1.1-.6 1.2-2.4 1.2-3.6 0-5.1-.1-7-.1-1.9-.1-4.4-.2-6.4-.2-1.2 0-2.3.2-3.6.2-.5 0-.8-.1-.8-.4 0-.2.2-.4.5-.4s.7-.1 1.1-.2c1-.2 1.6-.9 1.7-4.3.1-1.8.1-4.1.1-8.2v-7.8zm32.8 8.2c-.3 0-.4.2-.5.4l-2.4 6.8c-.5 1.5-.9 3-.9 3.8 0 1 .6 1.4 1.8 1.4h.4c.5 0 .6.2.6.4 0 .3-.4.4-.8.4-1.2 0-3.7-.2-4.3-.2-.5 0-2.9.2-5.2.2-.6 0-.9-.1-.9-.4 0-.2.2-.4.6-.4.3 0 .8 0 1.1-.1 2.3-.2 3.2-2 4.2-4.3l10.8-28.5c.6-1.6.8-1.8 1.1-1.8.3 0 .5.2 1.1 1.7.8 1.8 8.1 20.6 11 27.4 1.8 4.3 3.3 5 4.1 5.2.7.3 1.5.3 1.8.3s.6.1.6.4-.2.4-.8.4c-.5 0-4.6 0-8.2-.1-1-.1-1.3-.1-1.3-.4 0-.2.2-.3.4-.4.2-.1.5-.4.2-1.2l-4.3-10.9c-.1-.2-.2-.3-.4-.3h-9.8zm9.2-1.9c.2 0 .2-.2.2-.3l-4.3-11.9c-.3-.8-.3-.8-.6 0l-4.1 11.9c-.1.2 0 .3.1.3h8.7zm23 .1c0 6.6 1.2 9.4 3.3 11.2 2.3 2.1 4.9 2.5 7.1 2.5 2.8 0 5.3-.8 7.4-3.1 2.2-2.5 2.6-6.6 2.6-11.3v-5.7c0-7.1 0-8.3-.1-9.8-.1-1.6-.3-2.4-2-2.6-.4-.1-1-.1-1.5-.1-.3 0-.5-.2-.5-.3 0-.3.3-.4.8-.4 2.3 0 5 .2 5.2.2.3 0 2.6-.2 4.1-.2.5 0 .8.1.8.4 0 .2-.2.4-.5.4s-.4 0-1 .1c-1.5.2-1.7 1.1-1.8 2.7-.1 1.5-.1 2.7-.1 9.8v4.8c0 4.9-.5 10.7-4.4 14-3.5 3-7 3.2-9.9 3.2-1.5 0-6.6 0-10.1-3.2-2.3-2.2-4-5.4-4-12.1v-6.7c0-7.1 0-8.4-.2-9.8-.1-1.5-.3-2.4-2-2.6-.3-.1-1-.1-1.4-.1-.4 0-.6-.2-.6-.3 0-.3.2-.4.8-.4 2.3 0 5.2.2 5.6.2.4 0 3.6-.2 5.1-.2.6 0 .8.1.8.4s-.4.4-.6.4c-.3 0-.8.1-1.2.1-1.3.2-1.5 1.1-1.6 2.6-.1 1.5-.1 2.7-.1 9.8v6.1zm-294.9 80.3c-.5 0-1.8 0-3.3-.5-2.3-.7-2.7-3.7-2.9-5.7l-3.6-32.9c-.1-1-.3-1.4-.6-1.4-.4 0-.6.4-.8.9l-15.8 33.6-16.4-33.7c-.3-.6-.5-.8-.8-.8s-.5.5-.6 1.1l-3.9 34.8c-.3 2.2-.4 4.1-2.1 4.4-.8.2-1.2.2-1.6.2-.3 0-.5.1-.5.3 0 .4.4.4.9.4 1.4 0 4-.2 4.5-.2.4 0 3.2.2 5.1.2.5 0 .8-.1.8-.5 0-.2-.2-.3-.5-.3s-1 0-1.9-.2c-.8-.2-1.4-.6-1.4-1.9 0-.9.1-1.7.1-2.5l2.2-25.2c.6 1.4 6.7 14.7 7.2 15.6.3.5 4.9 9.8 6.3 12.4 1 1.9 1.3 2.5 1.7 2.5.5 0 .6-.5 1.8-2.8l13.3-28.2 2.6 28c.1 1 .2 1.8-.2 1.9-.3.1-.4.2-.4.4 0 .3.3.4 1.5.5 2 .2 8.1.3 9.3.3.6 0 .8-.1.8-.4-.2-.2-.5-.3-.8-.3zm22.8-34.3c-13.2 0-18.7 10.7-18.7 17.8 0 8.1 5.4 17.9 18.5 17.9 11.4 0 19-8.4 19-18.6-.1-10.8-8.2-17.1-18.8-17.1zm1.1 33.8c-9 0-14.8-7-14.8-17.5 0-10.1 6-14.7 13.4-14.7 7.3 0 14 6 14 16.8 0 13.6-9 15.4-12.6 15.4zm59.7.5c-.2 0-1.3-.1-1.7-.1-1.5-.2-3.1-.6-5.7-3.3-2.7-2.8-5.9-6.8-9.9-11.6 4.2-3.4 5.7-7.2 5.7-10.1 0-3.6-2.2-5.8-3.2-6.5-2.5-1.8-5.8-2-8.8-2-1.5 0-5.1.2-5.6.2-.1 0-3.4-.2-5.7-.2-.5 0-.6.2-.6.4s.2.3.6.3 1 .1 1.3.1c1.7.3 2 1.1 2.1 2.6.1 1.4.1 2.7.1 9.8v8c0 4 .1 8.4-.2 10.3-.2 1.3-.5 1.9-1.4 2-.4.1-.8.1-1.2.1-.3 0-.6.2-.6.3 0 .3.2.4.8.4 1.4 0 3.8-.2 4.7-.2.2 0 3.2.2 6 .2.5 0 .7-.2.7-.4s-.2-.3-.7-.3c-.4 0-1-.1-1.6-.1-1.8-.2-1.9-1.3-2.1-2.6-.3-1.9-.3-5.8-.3-10.1v-.8c0-.2.1-.3.3-.3l5.5.1c.3 0 .4.1.6.3.9 1.1 3.1 4 5.1 6.6 2.8 3.6 4.4 6 6.6 7 1.2.5 2.4.6 4.9.6h3.7c.7 0 1-.1 1-.4.2-.1.1-.3-.4-.3zm-18.5-16.1c-1.1.7-2.5.8-3.6.8-1.9 0-4.1-.3-4.8-.7-.2-.1-.3-.4-.3-.6v-14.6c0-.3.2-.4.3-.5.6-.2 1.8-.3 3.1-.3 4.8 0 7.9 3.2 7.9 9 0 3.5-1 5.8-2.6 6.9zm43.5-17.9c-.2 0-.3.1-1 .2-.8.2-2.4.3-3.9.3h-17.6c-.1 0-1.6-.1-3.4-.3-1-.1-2-.6-2.4-.6-.2 0-.3.2-.5.9-.3 1.4-1.1 5-1.1 5.3 0 .3.1.5.3.5s.3-.1.5-.4c.1-.3.3-.9.8-1.7.7-1.1 1.5-1.7 4.9-1.7 2.1-.1 5-.1 6.7-.1v19.1c0 4 0 7.9-.2 9.8-.2 1.8-.4 2.5-1.4 2.6-.4.1-.7.1-1.2.1-.4 0-.6.2-.6.4 0 .3.2.4.8.4 1.4 0 4.6-.2 4.8-.2s3.4.2 6.1.2c.5 0 .7-.2.7-.4s-.2-.3-.6-.3-1.4-.1-2.1-.2c-1.3-.3-1.4-1.1-1.6-2.4-.2-2-.3-5.8-.3-9.9v-19.1c1.6 0 3.2.1 5.2.1 5.4.1 6.1.6 6.3 2.7.1.5.1.6.1.8 0 .4.1.6.4.6.2 0 .4-.2.4-.6s.1-4 .1-5.5c.2-.3.1-.6-.2-.6zm38.6.3c-1.5 0-3.8.2-4.1.2-.2 0-2.9-.2-5.2-.2-.5 0-.8.1-.8.4 0 .2.2.3.5.3.5 0 1.1.1 1.5.1 1.7.3 1.9 1.1 2 2.6.1 1.4.1 2.7.1 9.7v5.7c0 4.7-.5 8.7-2.6 11.2-2 2.4-4.6 3.1-7.3 3.1-2.2 0-4.8-.4-7.1-2.5-2-1.8-3.3-4.6-3.3-11.1v-6.4c0-7.1 0-8.3.1-9.7.1-1.5.3-2.4 1.6-2.6.4-.1.9-.1 1.2-.1s.6-.1.6-.4c0-.3-.2-.4-.8-.4-1.4 0-4.6.2-5 .2s-3.3-.2-5.6-.2c-.6 0-.8.1-.8.4 0 .2.2.3.6.3.4 0 1.1.1 1.4.1 1.7.2 1.9 1.1 2 2.6.2 1.4.2 2.7.2 9.7v6.6c0 6.6 1.7 9.9 4 12 3.5 3.2 8.5 3.2 10 3.2 2.9 0 6.3-.3 9.8-3.2 3.8-3.3 4.3-9 4.3-13.9v-4.8c0-7 0-8.2.1-9.7.1-1.6.3-2.5 1.8-2.7.5-.1.6-.1 1-.1s.5-.2.5-.4c0 .2-.2 0-.7 0zm36.8 33.7c-.4 0-1.1 0-1.8-.3s-2.3-1-4.1-5.2c-2.8-6.7-10.1-25.4-10.9-27.1-.6-1.5-.8-1.7-1.1-1.7-.4 0-.5.3-1.1 1.8L276.9 350c-.9 2.2-1.8 4-4.1 4.2-.3.1-.8.1-1.1.1-.4 0-.6.2-.6.4 0 .3.3.4.9.4 2.2 0 4.6-.2 5.1-.2.6 0 3.1.2 4.2.2.4 0 .8-.1.8-.4 0-.2-.2-.4-.6-.4h-.4c-1.2 0-1.8-.4-1.8-1.4 0-.9.4-2.3.9-3.8l2.4-6.7c.1-.3.3-.4.5-.4h9.7c.2 0 .3.1.4.3l4.3 10.7c.3.8 0 1.1-.2 1.2s-.4.2-.4.4c0 .3.3.3 1.3.4 3.6.1 7.6.1 8.1.1.6 0 .8-.1.8-.4s-.2-.4-.6-.4zm-14.3-14.2h-8.6c-.1 0-.2-.1-.1-.3l4-11.8c.3-.7.3-.7.6 0l4.2 11.8c.1.2.1.3-.1.3zm52.9 14.2c-.2 0-1.3-.1-1.7-.1-1.5-.2-3.1-.6-5.7-3.3-2.7-2.8-5.9-6.8-9.9-11.6 4.2-3.4 5.7-7.2 5.7-10.1 0-3.6-2.2-5.8-3.2-6.5-2.5-1.8-5.8-2-8.8-2-1.5 0-5.1.2-5.6.2-.1 0-3.4-.2-5.7-.2-.5 0-.6.2-.6.4s.2.3.6.3c.4 0 1 .1 1.3.1 1.7.3 2 1.1 2.1 2.6.1 1.4.1 2.7.1 9.8v8c0 4 .1 8.4-.2 10.3-.2 1.3-.5 1.9-1.4 2-.4.1-.8.1-1.2.1-.3 0-.6.2-.6.3 0 .3.2.4.8.4 1.4 0 3.8-.2 4.7-.2.2 0 3.2.2 6 .2.5 0 .7-.2.7-.4s-.2-.3-.7-.3c-.4 0-1-.1-1.6-.1-1.8-.2-1.9-1.3-2.1-2.6-.3-1.9-.3-5.8-.3-10.1v-.8c0-.2.1-.3.3-.3l5.5.1c.3 0 .4.1.6.3.9 1.1 3.1 4 5.1 6.6 2.8 3.6 4.4 6 6.6 7 1.2.5 2.4.6 4.9.6h3.7c.7 0 1-.1 1-.4.2-.1 0-.3-.4-.3zm-18.6-16.1c-1.1.7-2.5.8-3.6.8-1.9 0-4.1-.3-4.8-.7-.2-.1-.3-.4-.3-.6v-14.6c0-.3.2-.4.3-.5.6-.2 1.8-.3 3.1-.3 4.8 0 7.9 3.2 7.9 9 .1 3.5-1 5.8-2.6 6.9zm45.9-17.6c-.9 0-4 .2-4.7.2-.9 0-2-.2-3.3-.2-.5 0-.6.2-.6.3 0 .2.2.4.6.4.6.1 1.2.1 1.2.8 0 .6-.2 1.1-1.2 2.8-.7 1.3-6.7 11.1-7.6 13-.8-1.3-7.9-12.7-8.6-14-.4-.7-.7-1.2-.7-1.8 0-.4.1-.7.9-.9.4-.1.6-.2.6-.4s-.2-.3-.7-.3c-2 0-3.7.2-4.1.2-.1 0-4.2-.2-5-.2-.4 0-.6.2-.6.3 0 .3.3.4.6.4 1.1.1 1.8.3 2.5.8.7.6 1.3 1.2 2.7 3.3 1.7 2.3 7.9 12.4 8.2 13 .8 1.4 1.2 2.4 1.2 4.9v3.9c0 .4 0 2.4-.2 4.3-.1 1.3-.5 2.4-1.4 2.6-.4.1-.9.2-1.3.2s-.5.2-.5.3c0 .3.2.4.7.4 1.5 0 4.7-.2 4.8-.2.2 0 3.5.2 6.2.2.5 0 .6-.2.6-.4s-.2-.3-.6-.3c-.4 0-1.3-.1-2-.2-1.7-.3-1.8-1.2-1.9-2.5-.1-1.9-.1-3.9-.1-4.3v-3.9c0-1.4-.1-2.6.5-4.2.8-1.9 6-10.6 9.1-14.9.9-1.2 1.2-1.7 2-2.2s1.6-.6 2.7-.7c.4 0 .6-.2.6-.4 0-.1-.1-.3-.6-.3zM-1 301.6h444.6v1.8H-1z"/></g><g class="st1"><path d="M95.9 199.4c.6 3.6 1.9 7 3.8 9.9s4.5 5.3 7.6 6.8c3.1 1.6 6.6 2.2 10.1 2.5s7.1 0 10.8-.3c-3.5 1.1-7.1 1.8-10.8 1.9-3.7 0-7.5-.6-10.9-2.3-1.7-.9-3.3-2-4.7-3.3-1.4-1.3-2.5-2.9-3.4-4.5-1.9-3.3-2.7-7-2.5-10.7z"/><path d="M99.2 183.2c-2.8 1.3-4.8 3.7-6 6.4-1.3 2.7-1.9 5.6-2 8.6s0 5.9.7 8.7 2.1 5.5 3.9 7.7l.7.8c.2.3.5.5.8.8l.8.7.4.4.4.3 1.8 1.3 1.9 1c.6.4 1.3.6 2 .9.7.3 1.3.6 2.1.7l2.1.6c.7.1 1.5.2 2.2.3 5.9.8 12 0 17.9-1.3-1.4.5-2.9 1-4.3 1.4-1.5.4-3 .7-4.5 1-1.5.2-3 .4-4.6.5H112l-1.2-.1c-.8-.1-1.5-.1-2.3-.2l-2.3-.5c-.8-.1-1.5-.4-2.2-.7s-1.5-.5-2.2-.9l-2.1-1.1-1.9-1.4-.5-.3-.4-.4-.9-.8c-.3-.3-.6-.5-.9-.8l-.8-.9c-2-2.5-3.5-5.4-4.1-8.5-.7-3.1-.8-6.3-.5-9.3.3-3.1 1.2-6.2 2.7-8.9.8-1.3 1.8-2.6 2.9-3.6 1.1-1.2 2.4-2 3.9-2.4z"/><path d="M73 197.1c.9 3.5 2.4 6.8 4.2 9.9 1.8 3.1 3.9 5.9 6.4 8.5 5 5 11.3 8.6 18 10.6 3.4 1 6.9 1.6 10.4 2l2.7.2 2.7.1c1.8.1 3.6 0 5.3-.1 7.1-.4 14.2-2.1 20.7-5.1-3.1 1.9-6.5 3.3-9.9 4.4-3.5 1.1-7.1 1.8-10.7 2.2-7.3.7-14.7.1-21.8-1.9-3.5-1.1-6.9-2.5-10.1-4.5-3.1-1.9-6-4.3-8.5-7-4.9-5.3-8.3-12.2-9.4-19.3z"/><path d="M79.9 171.9c-2.4-3.9-6.4-6.5-10.7-7.7-2.1-.6-4.4-.9-6.6-.9-2.2-.1-4.4.2-6.5.7-2.1.6-4.1 1.5-5.9 2.7-1.8 1.3-3.3 2.8-4.7 4.5-1.3 1.8-2.4 3.6-3.3 5.7-.8 2-1.5 4.1-1.8 6.3-.8 4.3-.8 8.9.2 13.1.6 2.1 1.5 4 2.8 5.8.7.8 1.4 1.7 2.2 2.4.8.8 1.6 1.5 2.5 2.2s1.8 1.3 2.7 1.9c1 .6 1.9 1.1 2.9 1.7 1 .5 2 1.1 3 1.6l3.1 1.5c4.1 1.9 8.4 3.6 12.6 5.3-4.4-1.3-8.7-2.8-13-4.4-4.2-1.7-8.5-3.6-12.3-6.3-1.9-1.3-3.7-2.9-5.2-4.8-1.4-1.9-2.5-4.1-3.2-6.4-.6-2.3-.9-4.7-.9-7s.1-4.7.6-7c.8-4.6 2.7-9.1 5.6-12.8 1.5-1.8 3.2-3.5 5.2-4.8s4.2-2.2 6.5-2.8c2.3-.5 4.7-.7 7-.5 2.3.1 4.6.5 6.8 1.3s4.3 1.9 6.1 3.3c1.8 1.6 3.4 3.3 4.3 5.4z"/><path d="M143.7 228.3c-1.6 2-3.6 3.7-5.7 5.1-2.1 1.5-4.4 2.7-6.8 3.7-4.8 2-9.9 3.2-15 3.7s-10.4.3-15.5-.7-10-2.9-14.6-5.4c-4.5-2.5-8.7-5.7-12.5-9.3-3.7-3.6-7-7.6-9.6-12.2-2.6-4.5-4.4-9.3-6.3-14.1-.9-2.4-1.8-4.8-3-7s-2.7-4.3-4.6-6c2.1 1.5 3.7 3.6 5.1 5.8 1.4 2.2 2.4 4.5 3.5 6.9 2 4.7 4 9.4 6.7 13.7 1.3 2.2 2.8 4.1 4.4 6.1 1.6 1.9 3.3 3.8 5.2 5.5 3.7 3.5 7.7 6.5 12.1 8.9s9.1 4.3 14 5.3c4.9 1.1 9.9 1.3 15 1 5-.3 10-1.3 14.8-3 4.6-1.8 9.2-4.3 12.8-8z"/><path d="M149.6 218.3c-1.3 2.2-3.1 4.2-5 5.9-1.9 1.8-4 3.3-6.3 4.6-4.5 2.6-9.5 4.4-14.7 5.3-5.2.9-10.4 1.1-15.6.7l-3.9-.5-3.8-.8c-2.5-.7-5-1.5-7.5-2.5-9.6-4.2-18.1-11.1-23.4-20.3-.6-1.2-1.2-2.4-1.6-3.6-.4-1.3-.7-2.5-1-3.8-.5-2.6-.8-5.1-1.1-7.7-.5-5.1-1.1-10.3-3.1-15 1.2 2.3 2 4.8 2.6 7.3s1 5.1 1.4 7.6.8 5.1 1.4 7.6c.3 1.2.6 2.5 1.1 3.6.4 1.2 1 2.3 1.6 3.4.3.6.7 1.1 1 1.6s.7 1 1.1 1.5l1.2 1.5 1.2 1.4c.8 1 1.7 1.8 2.6 2.7 1 .8 1.9 1.7 2.8 2.5 3.9 3.2 8.2 5.9 12.9 7.9 4.6 2 9.6 3.4 14.6 3.8 5 .5 10.2.4 15.2-.3 5-.8 9.9-2.3 14.4-4.6 2.3-1.1 4.4-2.6 6.4-4.2.5-.4 1-.8 1.5-1.3.5-.4.9-.9 1.4-1.3 1-.9 1.9-1.9 2.6-3z"/><path class="st3" d="M83.2 173.3s-5.6 4.1-4.8 11.1c.8 7-1.3 12.4-6 12.3-4.6-.2-12.7-12.5 10.8-23.4zm-35.7-18.9s7 4.3 6.7 12.4c-.3 8.2 2.8 14.4 8.2 13.7s13.6-15.8-14.9-26.1zm-19.3 19.2s7 .2 10.3 6.4 8.1 9.5 11.9 6.7 3.4-17.4-22.2-13.1z"/><path d="M347.7 199.4c.2 3.6-.6 7.4-2.4 10.7-.9 1.7-2 3.2-3.4 4.5s-3 2.4-4.7 3.3c-3.4 1.7-7.2 2.3-10.9 2.3s-7.3-.7-10.8-1.9c3.6.3 7.2.6 10.8.3 3.5-.3 7-1 10.1-2.5s5.7-3.9 7.6-6.8c1.8-2.9 3.1-6.3 3.7-9.9z"/><path d="M344.4 183.2c1.5.4 2.8 1.3 4 2.3s2.1 2.3 2.9 3.6c1.6 2.7 2.4 5.8 2.7 8.9.3 3.1.2 6.2-.5 9.3s-2.2 6-4.1 8.5l-.8.9c-.3.3-.6.6-.9.8l-.9.8-.4.4-.5.3-1.9 1.4-2.1 1.1c-.7.4-1.5.6-2.2.9-.7.3-1.5.6-2.2.7l-2.3.5c-.8.1-1.5.2-2.3.2l-1.2.1h-3.5c-1.5-.1-3.1-.3-4.6-.5-1.5-.3-3-.7-4.5-1-1.5-.5-2.9-.9-4.3-1.4 5.9 1.4 12 2.1 17.9 1.3.7-.1 1.5-.2 2.2-.3l2.1-.6c.7-.1 1.4-.4 2.1-.7s1.4-.5 2-.9l1.9-1 1.8-1.3.4-.3.4-.4.8-.7.8-.8.7-.8c1.8-2.2 3.2-4.8 3.9-7.7.7-2.8.9-5.8.7-8.7-.2-2.9-.8-5.9-2-8.6-1.3-2.6-3.4-5-6.1-6.3z"/><path d="M370.6 197.1c-1.1 7.1-4.5 14-9.5 19.4-2.5 2.7-5.4 5.1-8.5 7s-6.6 3.4-10.1 4.5c-7.1 2.1-14.5 2.6-21.8 1.9-3.6-.3-7.2-1.1-10.7-2.2-3.5-1.2-6.8-2.6-9.9-4.4 6.6 3 13.6 4.7 20.7 5.1 1.8.1 3.6.1 5.3.1l2.7-.1 2.7-.2c3.5-.4 7-1 10.4-2 6.8-2 13.1-5.6 18-10.6 2.5-2.5 4.6-5.4 6.4-8.5 1.9-3.2 3.3-6.5 4.3-10z"/><path d="M363.6 171.9c1-2.1 2.5-3.8 4.3-5.3 1.8-1.4 3.9-2.6 6.1-3.3 2.2-.8 4.5-1.2 6.8-1.3 2.3-.2 4.7 0 7 .5s4.5 1.5 6.5 2.8 3.7 3 5.2 4.8c2.9 3.7 4.8 8.2 5.6 12.8.5 2.3.6 4.6.6 7 0 2.3-.3 4.7-.9 7-.7 2.3-1.8 4.5-3.2 6.4-1.5 1.9-3.2 3.5-5.2 4.8-3.8 2.7-8 4.6-12.3 6.3-4.3 1.6-8.6 3.1-13 4.4 4.2-1.7 8.5-3.4 12.6-5.3l3.1-1.5c1-.5 2-1 3-1.6 1-.5 1.9-1.1 2.9-1.7.9-.6 1.9-1.2 2.7-1.9.9-.7 1.7-1.4 2.5-2.2.8-.7 1.5-1.6 2.2-2.4 1.3-1.8 2.2-3.7 2.8-5.8 1-4.2 1-8.8.2-13.1-.4-2.2-1-4.3-1.8-6.3s-2-3.9-3.3-5.7c-1.4-1.7-2.9-3.2-4.7-4.5-1.8-1.2-3.8-2.2-5.9-2.7s-4.3-.8-6.5-.7c-2.2 0-4.4.3-6.6.9-4.3 1.1-8.3 3.7-10.7 7.6z"/><path d="M299.9 228.3c3.6 3.7 8.1 6.2 12.8 7.9 4.7 1.7 9.8 2.7 14.8 3s10.1.1 15-1 9.6-2.9 14-5.3 8.5-5.4 12.1-8.9c1.9-1.7 3.5-3.6 5.2-5.5 1.6-2 3.1-4 4.4-6.1 2.6-4.3 4.7-9 6.7-13.7 1-2.3 2.1-4.7 3.5-6.9 1.3-2.2 3-4.2 5.1-5.8-1.9 1.7-3.4 3.8-4.6 6s-2.1 4.6-3 7c-1.8 4.8-3.7 9.6-6.3 14.1-2.6 4.5-5.9 8.5-9.6 12.2-3.7 3.6-7.9 6.7-12.5 9.3-4.6 2.5-9.5 4.4-14.6 5.4s-10.4 1.2-15.5.7-10.2-1.7-15-3.7c-2.4-1-4.7-2.2-6.8-3.7-2.1-1.3-4.1-3-5.7-5z"/><path d="M293.9 218.3c.7 1.1 1.6 2 2.5 2.9.4.5.9.9 1.4 1.3.5.4 1 .9 1.5 1.3 2 1.6 4.1 3 6.4 4.2 4.5 2.4 9.4 3.9 14.4 4.6 5 .7 10.2.8 15.2.3s10-1.9 14.6-3.8c4.7-2 9-4.7 12.9-7.9 1-.8 1.9-1.7 2.8-2.5.9-.9 1.8-1.8 2.6-2.7l1.2-1.4 1.2-1.5c.4-.5.8-1 1.1-1.5.3-.5.7-1 1-1.6.6-1.1 1.2-2.2 1.6-3.4s.8-2.4 1.1-3.6c.6-2.5 1-5 1.4-7.6.4-2.5.8-5.1 1.4-7.6s1.4-5 2.6-7.3c-2 4.8-2.5 9.9-3.1 15-.3 2.6-.6 5.1-1.1 7.7-.3 1.3-.6 2.6-1 3.8-.4 1.3-1 2.5-1.6 3.6-5.3 9.1-13.8 16.1-23.4 20.3-2.4 1-4.9 1.8-7.5 2.5l-3.8.8-3.9.5c-5.2.4-10.5.3-15.6-.7-5.1-.9-10.2-2.7-14.7-5.3-2.3-1.3-4.4-2.9-6.3-4.6-1.8-1.6-3.6-3.5-4.9-5.8z"/><path class="st3" d="M360.3 173.3s5.6 4.1 4.8 11.1c-.8 7 1.3 12.4 6 12.3 4.7-.2 12.8-12.5-10.8-23.4zm35.8-18.9s-7 4.3-6.7 12.4c.3 8.2-2.8 14.4-8.2 13.7s-13.6-15.8 14.9-26.1zm19.3 19.2s-7 .2-10.3 6.4-8.1 9.5-11.9 6.7c-3.7-2.7-3.4-17.4 22.2-13.1z"/><path d="M254.3 230.7c-2 1.7-3.8 3.3-6 5.2-3.8-9.3-9.9-15.8-17.7-20.9-7.3-4.8-12.8-4.7-20.1.1-7.9 5.1-13.7 11.9-17.7 20.8-2.1-2-3.9-3.6-5.7-5.3 6.5-9.6 15.5-15.5 25.3-20.5-2.3.7-5.2.7-7 2.1-8.7 6.6-19 7.9-29.1 10.5-5.8 1.5-11.3 4.3-17 6.5 4.5-11 12.4-19.2 24.5-20.8 10.4-1.4 21.1-.1 31.7-.2 7.1-.1 14.2-.3 21.3-.7 9.1-.6 18.2-1.2 26.9 2.7 8.8 3.9 14.5 10.6 17.7 18.2-8.4-2.6-17.5-5.1-26.4-8.2-8.9-3.1-17.6-6.7-26.7-9.6 10.3 4.5 19.3 10.3 26 20.1zm-86.7-58.6c7.5 4.5 15.6 9.5 23.9 14 7.2 4 13.5 8.8 17 16.7-22.7-.1-41-13.9-40.9-30.7zM349 116.8c1.5-23.7 15.1-39.9 36.1-39.6-11.5 7.1-15.3 18.8-22.6 27.8-3.7 4.6-9 7.9-13.5 11.8zm-42.2 37.3c1.2 22-12.5 35.2-35.6 40.8 2.2-7.7 6.4-13.6 12.4-18.2 8.5-6.4 17.5-12.4 23.2-22.6zm-204.4-11.3c-9.2-1.3-15.8-6.2-22.1-12.2-6.6-6.3-13.8-12-20.2-17.5 16.2-4.6 35.2 7.2 42.3 29.7zm10.8-24.4c1.2 12.6 8.2 21.6 13.1 31.7 2.9 6 4.3 12.3 3.2 19.2-16.7-11.1-27-31-16.3-50.9zm56.8 76.4c-23.6-5.1-36.2-19.2-35.6-38.9.3 0 .8-.2.8-.1 5.2 8.8 13.7 14.3 21.6 20.3 6.2 4.7 10.9 10.5 13.2 18.7zm103.9-24.1c.2 17.6-20.3 33.8-41 32 3.2-7.7 9.3-12.3 16.2-16.2 4.3-2.4 9-4.3 13.1-7 4.1-2.5 7.8-5.8 11.7-8.8zM100.6 83.1c1.3-24.3 14.2-41.1 33-41.8-9.5 7.5-12.8 18.1-18 27.6-4.1 7.5-8.8 11.8-15 14.2zm228 36.3c9.7 18.9.2 39.3-17.1 49.7-.9-7.8 1.2-14.8 4.7-21.4 2.4-4.5 5.3-8.8 7.3-13.5 2-4.7 3.3-9.6 5.1-14.8zM108.1 47.3c.5-24.1 14-41.7 30.3-42-4.5 8-9.5 16.4-14.1 25.1-3.7 7-8.5 12.9-16.2 16.9zm6.9 116.6c-8.1.9-15-1.2-21.7-4.9-8.9-4.9-17.9-9.5-26.3-13.8 15.4-8.7 35.5-.1 48 18.7zm212 1c10.5-18 29.1-28.8 47.7-19.9-10.5 5.4-21.6 11.5-33 16.8-4.4 2.1-9.8 2.2-14.7 3.1zm28.9 12.4c-11.8-1.4-21.4 2.6-31.1 5.7-7.3 2.3-14.6 2.5-21.9-.1 13.5-14.5 36.8-19.7 53-5.6zm-53-172c17.9 1.2 30.4 19.8 29.8 41.8-7.7-3.9-12.3-10.3-16.2-17.6-4.4-8.2-9.1-16.3-13.6-24.2zM325.7 79c17.9 9.8 21.2 30.6 14.4 49.6-6.3-6.6-8.5-14.7-9.8-23.3-1.2-7.8-3.2-15.4-4.8-23.1-.2-.8.1-1.7.2-3.2zM183 201.7c-6.5 7.6-14.9 9.7-23.6 11.5-8.6 1.8-17.1 4.2-25 6.1 3.2-12.2 19.3-24 48.6-17.6zm159.5-135c-7.3-19.8-5.4-39.5 15.3-51.8-6.7 11.7-5.2 24.1-7.5 35.8-1.2 5.6-4.1 10.9-6.3 16.3l-1.5-.3zm-3.7 76.3c6.7-20.3 23.5-34.7 44.6-29.4-11.2 4.1-18.3 12.7-26.2 20.2-5.3 5.1-11.4 7.6-18.4 9.2zM117.7 78c-6 10.6-6.3 21.8-7.6 32.8-.9 7-4.9 14-9.2 17.3-7.5-24.2-.2-42 16.8-50.1zm230.1 16.2c-4.5-21.5 3.8-41.5 25.3-46.9-9.3 9.7-10.4 22.1-15.5 32.8-2.6 5-6.5 9.4-9.8 14.1zm-8.5 109.2c-10.7-4.3-21.3-2.3-31.7-1.9-7.4.3-14.4-.8-20.8-5 13.9-9.8 39.4-12.4 52.5 6.9zM98.8 67.1c-7.5-8-8.3-17.7-9.4-27.4-1-7.9-2.6-15.7-3.8-23 15.3 6.1 21.4 27.4 13.2 50.4zm-4 26.6c-5.9-4.5-10.1-9.9-12.5-16.8-3.5-10.1-5.8-20.8-13.7-29.2 18 2.2 29.7 23 26.2 46zM86 177.3c12.2-12.2 34.3-11.6 52.6 5.4-6.9 2.8-13.6 2.6-20.4.8-10.5-2.9-20.5-7.7-32.2-6.2zm7.1-61.2c-8.3-3.8-13.8-9.6-18.4-16.8-4.9-7.7-10.6-15-15.5-21.8 17.4-1.8 32.3 17.1 33.9 38.6zm9.4 86.4c11.1-15.4 31.4-18.1 52.5-6.5-6.7 4.6-13.7 5.8-21.2 5.4-5.3-.3-10.6-.9-15.9-.7-5.1.2-10.1 1.2-15.4 1.8zm156.6-1c27.9-5.3 41.2 3 48.7 18.5-7-2.1-14.4-4.4-21.9-6.4-5.1-1.4-10.5-1.7-15.4-3.5-4.3-1.6-8.1-4.7-12.1-7.1.2-.5.4-1 .7-1.5zm78-135.9c-3.6 1.1-7.2 2.1-10.8 3.2-5.5-9.2-11.2-18.6-16.4-27.4 12 .7 23.9 10.9 27.2 24.2zm-6.8 10.6c3.4-1.5 5.6-2.4 8.8-3.8.6 3.9 1.1 7.1 1.6 10.4-.3.3-.7.5-1 .8-2.8-2.3-5.7-4.6-9.4-7.4z"/><path class="st3" d="M243.7 168.9c-.1-.3-.4-.6-.4-.9 3.9-17.4 7.4-34.9 11.8-52.2 2-7.9 5.7-15.5 8.6-23.2.5-1.3 1.1-2.6 1.7-4-.4-.3-.8-.6-1.3-.9-6.2 7.4-12.6 14.6-18.6 22.2-13 16.2-25.4 33-41.7 46.2-8.8 7.2-18.7 11.5-30.6 11-19.4-.8-29.6-18.3-19.3-34.8 7.4-11.7 18.1-18.8 32.7-18.4 9.7.3 16 6.1 15.7 14.8-.2 5-3.4 9.6-7.4 12.5-4.2 3-10.5 4.6-15 1.6-6.2-4.2-3.6-15.1 3.7-16.5-2.8 3.2-4.5 7.1-3.8 11.4.1.7.3 1.4.7 2 .4.5.9 1 1.5 1.3 1.5.9 3.4 1 5.1.7 2.3-.5 4.5-1.9 6.5-3.2 3.8-2.5 7.2-6.5 7-11.3-.3-6.3-6.1-9.8-11.8-10.4-14.2-1.6-31.9 15.4-34.2 28.5-2.3 12.7 5.8 18.3 16.9 19.6 10.9 1.3 20-3.7 27.6-10.6 9.5-8.5 18.1-18.1 26.5-26.7-2.8-1.9-6.4-2.8-8.3-5.8-.8-1.3-1.3-2.9-1.7-4.4-1.3-5.5-1-11.3.8-16.7 1.9-5.7 4.7-11 7-16.5-5.6 0-11.8-.1-17.9.1-1.1.1-2.2 1.8-3.1 2.9-12.1 14.8-25.9 27.1-44.5 33-8.5 2.7-16.7 2.3-24.6-1.5-8-3.9-12.6-14.4-10.5-23.2 3.7-16 20.1-28.4 36.4-27.5 9.7.5 15.5 5.5 15.5 13.3 0 8.9-8.4 18.9-18 17.5-3.3-.5-6.4-2.7-7.5-5.8-1.2-3.4.1-7.4 2.7-9.9 1.3-1.3 2.9-2.3 4.7-2.3-.6 1.1-1.4 2.1-2.3 3-.8.8-1.8 1.4-2.4 2.4-1.4 2.3-1 4.9 0 7.2 1.5 3.3 4.6 3.8 8.1 3 6.4-1.5 11.4-6.5 12.4-12.8 1.3-8.2-6.6-14.6-16.2-12.9-13.2 2.3-21 11.3-26.9 22.4-3.5 6.5-5.1 13.4.1 19.6 5.3 6.4 12.7 8.2 20.7 6.9 15.3-2.4 25-12.9 34.2-24 2.5-3.1 4.7-6.4 7.7-10.4h-12.7c-.1-.5-.8-1.8-.2-2.1l1.2-.6c.7-.3 1.4-.6 2.1-.8 1.8-.4 3.9.5 5.9.4 1.8-.1 3.5-.5 5-1.4 3.3-1.8 5.7-5 7.7-8.1 9.2-14.5 19.6-28.1 32.5-39.9-4.7 3.3-9.5 6.5-14.2 9.9-11 8-21.8 16.5-35 20.5-4.4 1.3-9.7 2.1-14 .9-11.1-3.2-14.3-15.1-7.6-25.4 8.7-13.3 30.7-18.8 44.5-11 1.9 1.1 3.4 2.7 4.5 5.1-.6 0-1.3.1-1.7-.2-13.2-9.4-26.8-8.1-38.9 3.6-5.2 5-7.6 10.9-6.2 18 1.4 7 8.7 10.3 14.1 8.1 9.9-4.1 19.6-8.7 28.8-14.2 12.1-7.2 23.5-15.5 35.4-22.9 3.5-2.2 7.9-2.8 13-4.5-.9 1.8-1.1 2.6-1.5 2.8-9.4 2.6-14.7 10.1-20 17.2-9.5 12.8-18.2 26-28.1 40.3 7.5 0 13.5.1 19.6-.1.8 0 1.8-1.2 2.5-2.1 15.8-19.9 32.8-38.4 52.9-54 2.1-1.7 4.7-2.7 7.1-4.1l1.2 1.2c-1 1.4-1.9 2.9-3.1 4-25.7 24.3-46.9 52-64 82.9-1.4 2.6-2.4 5.5-2.8 8.4-.3 1.7.4 4.3 1.6 5.2 1.4 1.1 4.2 1.5 5.8.9 2.3-.9 4.4-2.9 6.2-4.8 14.1-15 28.2-30.1 42.3-45.1 1.6-1.7 3.8-2.9 5.9-4.3.4.9.8 1.3.7 1.5-10.3 13.7-12.1 30.6-16.8 46.3-3.3 10.9-6.3 21.8-9.8 33.9 6.6-8.3 12.6-15.9 18.7-23.4 8.7-10.6 17.5-21.3 26.3-31.9 7.8-9.4 15.4-19 26.5-24.7 5.2-2.7 13.5-5.1 17.4.8-8.8-2.2-15.9 2.7-21.9 8.6-14.4 14.1-27.4 29.6-40.4 44.9-3.3 3.9-38.4 43.7-36.8 45.3-1-.4-1.5-.9-2-1.4z"/></g></g></svg>