<svg xmlns="http://www.w3.org/2000/svg" viewBox="0 0 368.7 331.3"><path d="M360.1 98.6C354.9 41.5 314.3 0 263.6 0c-32.7 0-62.5 16.6-80.4 44.5C165.6 16.6 136.5 0 104.6 0 53.9 0 13.4 41.4 8.1 98.6c-.4 2.6-2.1 16 3 37.5 7.3 31.1 24.3 59.3 48.9 81.7l123 111.6 125.1-111.6c24.7-22.4 41.6-50.6 48.9-81.7 5.1-21.5 3.5-34.9 3.1-37.5zm-63.7 106.1l-113.2 101-111.3-101c-22-20-37.1-45.1-43.6-72.7-4.4-18.7-2.9-29.6-2.8-30.7v-.1l.1-.7c4.3-48 37.5-82.9 79-82.9 30.6 0 57.6 18.8 70.4 49.2l8.1 19.2 8.1-19.2c12.6-29.9 41-49.2 72.4-49.2 41.5 0 74.8 35.1 79.1 83.5v.2c.2 1.2 1.7 12-2.8 30.8-6.4 27.5-21.5 52.7-43.5 72.6z" fill="#68162a"/></svg>