<svg xmlns="http://www.w3.org/2000/svg" viewBox="0 0 368.7 331.3"><path d="M365.6 117.8l-8.7-5.8c-34.5-23-80.9-18.4-110.3 11l-7 7c-3.5 3.5-7.5 6.5-11.9 8.9C186.7 97.1 135 4.5 134.4 3.5c-1-1.7-2.6-2.9-4.5-3.4-1.9-.4-3.9 0-5.5 1.2-25.1 18.9-33.1 41.2-35.2 57.9C77.7 45.1 70.6 35 70.4 34.7c-1.3-1.9-3.6-3-5.9-2.9-2.3.1-4.5 1.4-5.6 3.5-28.7 51.7-21.1 94.5-9.6 121.4 5.8 13.6 13.1 24.5 19.3 32.3-31.6-7-56.9-29.9-57.1-30.2-2.2-2-5.4-2.4-8-.9s-3.9 4.5-3.3 7.4c8.6 39.3 28.8 73.4 60.1 101.2 45.8 40.7 90.3 61.8 130.1 61.8 6.9 0 13.6-.6 20.2-1.9 36.4-7 67.2-33.8 89.1-77.6 27.2-54.4 67.6-121.1 68-121.8 1.9-3.1 1-7.1-2.1-9.2zM126.5 17.2c12.6 22 52.2 89.2 87.4 126.9-11.7 2.6-23.9 1.3-34.1-3.9-28.3-14.2-56.8-42.3-77.6-65.9.2-.7.3-1.4.3-2.2-.8-12.3 1.8-35 24-54.9zm160.9 225.5c-20.2 40.4-46.9 64-79.5 70.3-40.3 7.7-88.2-11.9-138.6-56.7-23.9-21.2-40.8-46.3-50.5-74.7 15.4 10.3 40 23 67.2 23 2.9 0 5.4-1.8 6.4-4.5s.2-5.7-1.9-7.6c-.2-.2-17.8-15.6-28.9-41.8-13.4-31.8-12-65.1 4.2-99.2 16.5 21.9 61.5 77.6 107.8 100.9 15 7.6 33.2 8.7 49.8 3.2 9.7-3.2 18.7-8.8 25.9-16l7-7c24.8-24.8 63.9-28.7 93.1-9.2l3.2 2.2c-10.3 17.3-42.3 71.4-65.2 117.1z" fill="#68162a"/></svg>