<svg xmlns="http://www.w3.org/2000/svg" width="37" height="37" viewBox="0 0 37 37"><defs><style>.a{fill:#fff;}.b,.d{fill:none;}.b{stroke:#fff;}.c{stroke:none;}</style></defs><g transform="translate(-361 -54)"><g transform="translate(372.039 62.755)"><path class="a" d="M193.507,83.8c.88,1.523,1.753,3.036,2.629,4.552a.544.544,0,0,0-.042.038,1.678,1.678,0,0,0-.734,1.109,3.2,3.2,0,0,0-.038,1.092,7.494,7.494,0,0,0,1.45,3.474,5.673,5.673,0,0,0,1.175,1.221,3.028,3.028,0,0,0,1.043.532,1.728,1.728,0,0,0,1.3-.143.5.5,0,0,1,.056-.024q1.315,2.279,2.625,4.549c-.01.014-.014.024-.021.028a6.64,6.64,0,0,1-1.269.605,2.645,2.645,0,0,1-2.087-.167,7.643,7.643,0,0,1-1.283-.845,13.6,13.6,0,0,1-1.86-1.8,23.482,23.482,0,0,1-4.229-7.177,14.46,14.46,0,0,1-.682-2.434,8.821,8.821,0,0,1-.153-1.864,2.578,2.578,0,0,1,1-2.013A7.84,7.84,0,0,1,193.507,83.8Z" transform="translate(-191.385 -82.082)"/><path class="a" d="M459.666,372.479a.572.572,0,0,1,.522.306c.163.278.323.56.487.842.654,1.13,1.3,2.264,1.961,3.394a.644.644,0,0,1,.1.442.59.59,0,0,1-.306.428c-.25.143-.5.289-.751.435-.167.1-.337.188-.5.289a.606.606,0,0,1-.862-.226q-1.215-2.123-2.445-4.236a.612.612,0,0,1,.233-.862c.414-.23.821-.473,1.231-.709A.552.552,0,0,1,459.666,372.479Z" transform="translate(-448.517 -360.722)"/><path class="a" d="M265.646,40.647a.63.63,0,0,1-.525-.323c-.177-.306-.355-.616-.532-.922q-.955-1.654-1.909-3.3a.636.636,0,0,1-.108-.417.6.6,0,0,1,.32-.466c.417-.24.835-.48,1.252-.723a.737.737,0,0,1,.073-.038.588.588,0,0,1,.73.195c.021.028.038.059.056.087q1.215,2.107,2.434,4.215a.62.62,0,0,1,.09.442.6.6,0,0,1-.313.421c-.372.212-.741.428-1.113.64a1.323,1.323,0,0,1-.181.1A2.85,2.85,0,0,1,265.646,40.647Z" transform="translate(-260.092 -34.398)"/></g><g class="b" transform="translate(361 54)"><circle class="c" cx="18.5" cy="18.5" r="18.5"/><circle class="d" cx="18.5" cy="18.5" r="18"/></g></g></svg>