<?xml version="1.0" encoding="utf-8"?>
<!-- Generator: Adobe Illustrator 25.2.1, SVG Export Plug-In . SVG Version: 6.00 Build 0)  -->
<svg version="1.1" id="Layer_1" xmlns="http://www.w3.org/2000/svg" xmlns:xlink="http://www.w3.org/1999/xlink" x="0px" y="0px"
	 viewBox="0 0 821.6 506" style="fill: #fff" xml:space="preserve">
<g>
	<g>
		<g>
			<path d="M318.9,254.7c-0.2,0-0.3,0-0.5,0.1c-2.3,1.2-4,5.1-6.1,4.2c-3.1-1.4-4.4-5.3-5.5-8.6c-1.9-5.4-0.5-10.9,0.6-16.2
				c1.6-7.8,3.7-15.5,5.7-23.2c1.1-4.3,1.4-8.5,0.5-12.8c-0.5-2.2-1.5-3.8-3.6-4.3c-1.8-0.4-3.3-0.5-2.5,2.4
				c2.7,9.4,2.1,18.7-1.1,27.9c-2.1,6.1-4.8,11.9-8,17.5c-3.3,5.7-1.2,11.9,4.5,15.4c8.7,5.3,10.4,9.9,6.4,19.5
				c-2.1,4.9-3,9.8-2.6,15c0.3,3.8-0.3,7.6-0.7,11.4c-0.4,3.6,1.4,7.2,1.2,10.9c1.4,0.2,2.1-0.3,2.3-1.1c0.5-2,1.4-3,3.5-2
				c1.9,1,2.5,2.3,1.4,4.5c-5.6,10.6-5.5,11-13.3,2.2c-6.3-7.1-6.2-15.1-3.6-23.4c1.7-5.2,1.3-10.5,2.3-15.8
				c0.7-3.6-2.3-5.6-4.6-7.7c-4.3-4.1-10-6.5-13.6-11.4c-0.5-0.7-1.3-1.1-1.6-1.9c-1.7-4.3-4.5-6.7-9.3-5.5
				c-2.1,0.5-4.1-3.4-5.6-0.3c-0.8,1.7,0,4.2,0.2,6.4c0.3,2.5,0.9,4.9,1.1,7.4c0.4,4.7,0.5,8.5-3.7,12.8c-6.2,6.3-11.5,13.6-17.8,20
				c-3.8,3.9-4.3,9.5-6.5,14.3c-2.5,5.3-5.3,7-10.6,6.4c-1.6-0.2-3.3,0-5.4,0c1.1-3.6,4-5.3,6.3-7c3.9-2.9,6.4-6.6,7.9-11.2
				c1.4-4.5,6.1-6.3,8.5-10.1c2.7-4.2,5-8.5,7.3-12.9c1.1-2,0.7-4.3,0.4-6.4c-0.3-2.1-0.4-5.1-2.9-5.2c-3,0-1.8,3.3-1.7,4.8
				c0.1,9.1-4.9,15.7-9.9,22.3c-3.4,4.5-7,8.9-9.9,13.7c-0.7,1.1-1.4,2.5-2.5,3c-1.7,0.9-4,2.4-5.5,0.8c-1.9-2,0.5-3.6,1.8-5
				c7.5-8.2,14-16.9,18.1-27.4c2.9-7.5,1-14.6-1.6-21.6c-1.8-4.9-5.9-9.2-7.3-13.9c-2.1-6.8-6.1-3.2-9.5-3.9c-0.2,2.6,1.8,3.3,3,4.5
				c4,3.8,3.6,7.9-1.4,10.3c-4.3,2.1-8.7,3.9-12.3,7.3c-7.6,7-10.9,16-13.6,25.5c-0.4,1.5-0.9,2.8,1.2,3.6c1.6,0.6,2,2.4,1.6,3.8
				c-0.7,2.8-1.3,6.8-4.4,7c-1.6,0.1-2.4-4.1-2.4-6.8c0.3-14.5,6-26.9,14.5-38.3c0.9-1.2,3.9-2,1.5-4.2c-2-1.8-3.3,0.1-4.5,1.4
				c-6.3,6.6-7.7,15.7-11.6,23.5c-4.4,9-3.6,19.2-6.6,28.5c-0.7,2.3-1.6,4.3-3.1,6.1c-1.9,2.2-3.6,4.4-4.6,7.5
				c-1.1,3.6-5.2,3.8-8.9,4.2c0.1-1-0.1-1.7,0.2-1.9c9.4-8.8,9.2-21.2,11.7-32.4c1.9-8.4,2.8-17.1,4.3-25.6
				c2.1-11.6-2.6-21.4-7.7-31.2c-4.7-9.1-6.4-19.1-7.5-29.3c-0.3-2.5,0.8-3,3.1-3.3c12.7-1.3,22-7.8,27.5-19.4
				c1.4-2.8,3.2-5.5,4.6-8.3c1.1-2.2,3-1.6,4.7-1.7c7.3-0.4,13.3,3.8,20.1,5.3c7.7,1.7,15.1,1.4,22.7-0.6
				c12.3-3.2,24.7-2.9,36.9,0.9c3.5,1.1,6.3,3.3,7.9,6.4c1.6,3,3.6,3.8,6.7,3.5c8.1-0.9,15.4,1.8,22.5,5c4.3,1.9,6.7,5.6,7.3,10.5
				c1.5,12.5-3.1,23.5-7.8,34.5c-2.8,6.5-7.9,11.9-9,19.2L318.9,254.7z M314.1,236.6c0.8-4.5,3.3-8.3,5-12.3
				c3.2-7.7,6.6-15.3,4-23.9c-0.4-1.2-0.3-3.2-1.9-3c-1.9,0.3-0.8,2.1-0.7,3.3c0.8,7.2,0.3,14-3.1,20.8
				C315,226,312.9,231,314.1,236.6z M327.6,196.2c1.7,6.5,2.9,12.7,1.2,19.2c-1.4,5.3-3.1,10.5-5.9,15.3c-1.2,2.1-3,4.2-1.8,7.5
				c3.3-4.1,4.5-8.7,6.5-12.8c3-5.9,4.7-12.5,4.9-19.1C332.6,202.5,331.7,198.4,327.6,196.2z"/>
			<path d="M583.5,132.3c22.3,1.6,44.6,1.3,66.9,1.2c3.9,0,5.6,0.7,5.5,5.1c-0.3,19-0.3,38-0.3,57c0,3.7-1.6,5.3-5,6.2
				c-8.8,2.3-17.4,5.4-25.1,10.4c-1.9,1.2-3.9,1.6-6.2,1.6c-33.8-0.4-67.6-0.6-101.4-1c-7-0.1-7.7-1.1-7.6-8.2
				c0.4-22.7,0.8-45.3,1-68c0-3.7,0.8-4.5,4.7-4.4C538.5,132.5,561,132.3,583.5,132.3z M583.1,139.6c0-0.2,0-0.5,0-0.7
				c-20.8,0-41.6,0-62.5,0c-1.9,0-3.7-0.2-3.8,2.6c-0.6,17.5-1.3,34.9-1.9,52.4c0,1.3-0.2,2.8,1.7,3c1.5,0.2,3,0.1,3.9-1.5
				c1-1.8,1.5-3.5,0.6-5.7c-1.4-3.7-0.4-6.6,3.7-7.8c2.9-0.8,4.2-2.4,3.2-5.5c-1.5-4.9,1-8.1,5.2-10c2.7-1.2,3.9-2.8,3.5-5.7
				c-0.6-3.6,1.4-5.6,4.3-7.7c5.4-3.8,11.5-3.1,17.3-3.5c6.2-0.4,12.5-0.3,18.1,4c5.2,3.9,11.3,2.9,17.1,0.7
				c11.4-4.4,23-6.6,35.1-3.9c4.7,1,7.1,3.6,6.3,7.3c-1.1,4.7-0.1,8.9,0.9,13.6c1.2,5.4,2.3,10.5,4.3,15.7c1.2,3.1,2.2,6,5.5,5.8
				c3.6-0.2,3.8-3.6,3.8-6.5c0-14,0-28,0.2-42c0.1-3.9-1.6-4.7-5.1-4.7C624.1,139.7,603.6,139.6,583.1,139.6z"/>
			<path d="M709.5,226.7c-9.8-8.9-19.2-17.3-29.9-23.9c-5.6-3.4-6.7-7.4-6.6-13.4c0.3-22-0.1-44,0.1-65.9c0-4.1-1.5-4.6-4.9-4.7
				c-55.3-0.3-110.6-0.6-165.9-1.1c-2.8,0-3.7,0.6-3.7,3.5c-0.4,26.5-1,53-1.4,79.4c-0.1,5.6,12.9,17.8,18.5,17.8
				c31.8,0.1,63.6,0.1,95.5,0.2c1.9,0,3.9-0.5,6.1,0.7c-3.7,4.7-7.1,7.8-14.1,7.7c-29.6-0.6-59.3-0.4-89-0.1
				c-5.7,0.1-9.4-1.7-12.2-6.5c-2.4-4.2-4.8-8.5-7.8-12.1c-4-4.7-4.4-9.9-4.3-15.7c0.3-25.5,0.2-51,0.2-76.5c0-3.4,0.8-4.6,4.4-4.6
				c53.1,0.4,106.3,0.3,159.4,0.9c19,0.2,38,1,56.9,0.9c3.4,0,5.3,0.4,3,4.4c-1.8,3-2.1,6.5-2.2,10.1c-0.4,28.5-1,56.9-1.4,85.4
				C710.1,217.6,711,221.7,709.5,226.7z"/>
			<path d="M712.1,259.3c0.1,23.8-8.3,41.1-25.5,53.3c-16.2,11.5-34.1,12.5-52.1,4c-31.6-15-41.9-58.6-20.5-87.3
				c14.7-19.7,39.3-28.7,62.3-22.1c14.4,4.2,24.2,14.8,30.4,28.4C710.5,243.9,712.6,252.6,712.1,259.3z M662.2,252.1
				c2.3-0.2,2.8-1.7,3.5-2.7c4.6-6.5,9.1-13,13.8-19.4c8.5-11.8,8.3-12.7-5.7-18.4c-0.5-0.2-0.9-0.5-1.3-0.7c-2.7-1-4.6-0.6-4.9,2.7
				c-0.4,3.8-0.7,7.6-1.2,11.3C665,233.9,663.6,242.8,662.2,252.1z M668.8,254.3c0.5,0.2,0.8,0.6,1,0.5c10.7-4,21.3-8,32-12
				c1.5-0.6,2.2-1.7,1.3-3.1c-2.9-4.4-4.7-9.5-8.2-13.6c-2.5-2.8-4.4-2.2-6.3,0.5c-2.9,4-6,8-8.7,12.1
				C676.3,243.9,671.6,248.5,668.8,254.3z M648.7,254.6c-0.1-2.2-1.7-3-2.6-4.3c-4.3-5.7-9-11.1-13-16.9
				c-8.1-11.6-8.8-11.6-16.6,0.3c-2,3-1.2,4.2,1.6,5.6c6,2.9,11.7,6.4,17.7,9C640,250.3,643.8,253.4,648.7,254.6z M654.4,274.3
				c-5.3,9.3-10.7,18.5-15.9,27.9c-5.6,10.2-5.5,10.2,6,12.9c2.9,0.7,4.3,0,4.8-3c1.4-8.6,3.2-17.2,4.4-25.9
				C654.2,282.3,655.7,278.6,654.4,274.3z M648,260.5c0.1-0.5,0.1-1,0.2-1.6c-11.3-5.4-22.5-10.9-33.8-16.3
				c-2.2-1.1-2.4,0.5-3.1,1.9c-2.1,4.1-2.4,8.5-3.2,12.9c-0.6,3.2,0.6,3.7,3.3,3.6c7.5-0.3,14.9-0.4,22.4-0.5
				C638.5,260.5,643.3,260.5,648,260.5z M672.9,266.9c0.2,1,0.1,1.5,0.3,1.6c8.7,5.5,17.4,11,26.1,16.6c1.8,1.1,3.3,0.9,4.1-1.1
				c1.4-3.4,2.9-6.7,3.4-10.3c0.5-3.3-0.5-5-4.2-4.8c-4.5,0.2-8.9-0.4-13.4-1.1C683.9,267,678.5,267.1,672.9,266.9z M698.8,263.3
				c9.5,0.6,9.5,0.6,8.3-7.4c-0.1-0.7-0.1-1.3-0.2-2c-0.5-5.8-1.3-6.3-7.1-4.3c-9.1,3.1-18.3,6.1-27.4,9.1c-1.2,0.4-3.2,0-3,1.8
				c0.1,1.7,2.1,1.3,3.3,1.3C681.9,261.7,691,262.1,698.8,263.3z M663.9,276.9c-0.3,0.1-0.5,0.3-0.8,0.4c0.3,1.7,0.5,3.5,1,5.2
				c2.5,9.2,5.2,18.4,7.7,27.7c0.4,1.4,0.5,3.6,2.2,3.3c4.3-0.8,8-3,11.3-5.8c1.5-1.3,0-2.7-0.8-3.9c-2.8-3.7-5.4-7.5-8.3-11.2
				C672.2,287.4,668,282.1,663.9,276.9z M650.8,274.4c-1,0-1.4-0.1-1.6,0c-9.4,7.6-18.8,15.1-28.3,22.7c-1.6,1.3-1.2,2.6,0,3.8
				c9.6,8.8,7,9.9,13.7-0.7c0.4-0.7,0.9-1.4,1.3-2.1C640.9,290.2,645.8,282.5,650.8,274.4z M646.5,268.7c-0.2-0.3-0.4-0.6-0.6-0.9
				c-10,4.3-19.9,8.8-30,12.6c-4.6,1.7-5,4.1-3.1,7.8c0.8,1.6,1.8,3.2,2.7,4.8c1.1,1.8,2.3,2.1,4,0.5
				C628.4,285.2,637.4,277,646.5,268.7z M656.5,249.2c0.3,0,0.7,0,1-0.1c1.5-11.1,2.9-22.3,4.5-33.4c1.1-7.5,1.2-7.6-6.2-6.9
				c-1.1,0.1-2.2,0.7-3.3,0.8c-5,0.6-7.1,2.5-4,7.7c1.3,2.2,1.6,5,2.3,7.6C652.7,233,654.6,241.1,656.5,249.2z M659.2,280.7
				c-0.5,0-1,0-1.4,0c-1.3,11.3-2.6,22.5-3.9,33.8c-0.2,1.3,0.3,2.4,1.8,2.3c3.4-0.2,7.4,1.2,10.2-0.9c2.6-2-0.4-4.8-0.6-7.3
				c-0.1-0.7-0.1-1.3-0.2-2C663.1,297.9,661.1,289.3,659.2,280.7z M669.7,273.5c-0.3,0.3-0.5,0.6-0.8,1c6.7,8.8,13.3,17.6,20,26.5
				c0.6,0.8,1.6,1.9,2.4,1.2c2.8-2.5,6-5,7-8.8c0.8-3-2.6-3.2-4.1-4.2C686.1,283.7,677.9,278.6,669.7,273.5z M653.5,251
				c-2.7-9.9-4.9-19.9-8.1-29.6c-3.1-9.5-4.3-9.6-12.6-4.1c-4.6,3.1-4.5,5.1,0.7,8c-1.7-5.8-1.7-5.5,4.9-5.7
				c5.2-0.1,4.9,3.6,5.3,6.7c0.5,4.4-3.1,2-4.9,2.6c-0.7,0.2-1.7-0.1-2.3,1.4C641,237.6,647.2,244.1,653.5,251z M643.8,264.9
				c-11.4-2.1-22.5,0.5-33.7,0c-1.3-0.1-2.3,0.8-2.2,2.2c0.3,3.3,0.6,6.6,1.1,9.9c0.1,1.1,0.9,1.8,2.1,1.7c1.4-0.1,1-1,1.2-2.1
				c0.3-2.6,1-5.2,1.9-7.6c0.4-1.2,1.7-2.3,3.2-1.6c1.4,0.7,0.7,2,0.2,3c-0.9,2.2-2,4.4-3.4,6.8C624,273.1,633.9,269,643.8,264.9z
				 M658.9,268.8c3.5-0.2,5.6-2.5,5.5-5.6c0-3.3-1.8-5.9-5.9-5.8c-3.8,0.1-5.4,2.2-5.4,5.6C653,266.6,654.9,268.8,658.9,268.8z"/>
			<path d="M310,155.5c10,8.3,21.5,14.1,32.3,21.2c2.9,1.9,6.3,3.2,8.9,5.5c4.6,4,9.8,3.7,15.1,2.8c6-1.1,8.5-4,9.3-10
				c0.5-3.4,1.8-6.8,1.2-10.3c-1.7-8.9,3.1-15.1,9.2-20.3c7.2-6.1,15.8-8.9,25.4-8.7c3.9,0.1,5.4,2.2,7.1,5.9
				c5.5,12,4.5,24.7,5.5,37.2c0.1,1.6,0.1,3.4-0.4,4.9c-0.7,2-2.4,3.9-0.1,5.8c2.5,2.1,5.8,4,8.7,2.5c6-3.2,5.1,1.4,5.2,4.3
				c0.4,11.9,0.4,11.7-11.6,11.4c-17.1-0.5-34.3-0.8-51.4-0.6c-7.4,0.1-13.4-2-19.3-6.2c-12.8-9.1-26-17.8-39-26.6
				c-8-5.4-15.9-10.8-24-16c-2.6-1.7-1.9-2.7,0.3-3.7c4.8-2.1,9.5-5,14.7-0.9C307.8,154.3,308.9,154.9,310,155.5z"/>
			<path d="M379.7,98.8c-1.7,0-2.5-0.1-3.3,0c-4.6,0.8-6.4-0.7-4.8-5.5c0.6-1.9,0.5-4-0.2-5.9c-1.7-4,0.7-5.5,3.9-6.4
				c2.7-0.7,5.5-1.1,8.3-1.8c3.3-0.8,6-3.3,5.1-6.3c-2.1-6.8,1.7-11,5.3-15.5c2.4-3,6.1-5.9,0.5-9.4c-1.2-0.8-1.2-2.9-0.1-4.1
				c2.6-2.9,2.3-4.6-1.7-5.2c-1.1-0.2-2.5-0.4-2.6-1.9c0-1.6,1.5-1.6,2.6-1.7c3-0.3,2.6-2.4,2.6-4.4c-0.2-10.6-0.2-10.7,10.1-9
				c2.8,0.5,6.8-2,8,1.5c0.7,2.1-1.3,5.3-2.2,7.9c-0.9,2.5-0.6,4.1,2.5,4.5c2.5,0.4,2.8,2.2,1.2,4c-5.2,5.7-5.7,11.8-2,18.2
				c3.2,5.5,7.6,10.6,5.8,17.9c-2.1,8.9-4.6,17.8-5.7,26.8c-1.2,10.6-7.9,15.8-16.4,19.9c-4.7,2.3-9.1,5.3-14.4,6.7
				c-5.2,1.3-8.3,6.1-8.4,11.6c-0.1,4.7,0,9.3,0,14c0,2.1-0.2,4.2-2.4,5.1c-2.4,1-4.3-0.6-5.6-2.3c-1.5-2-2.9-4.1-3.8-6.4
				c-4.5-12-14.8-15.6-25.9-17c-5.6-0.7-7.4-5.1-10.8-7.9c-1.2-1,0.4-2.2,1.4-2.5c10.7-3.3,17.9-12.4,28.4-16.2
				c6.1-2.2,12.4-3.5,18.5-5.5C375.5,101.3,377.5,101,379.7,98.8z"/>
			<path d="M460,282.2c-0.6,28.4-22.2,50.6-48.7,50.8c-30.4,0.2-51.4-22-51-51.5c0.4-29.6,23-51.3,50.3-51.2
				C439.2,230.3,460.8,253.5,460,282.2z M427.7,278.6c7.6-1,16-2,24.5-1.8c3,0.1,2.6-1.6,2.3-3.6c-0.9-6.8-4.2-12.5-7.4-18.4
				c-1.9-3.4-3.3-2.7-5.5-0.3c-6.2,6.8-12.5,13.4-18.8,20c-0.9,0.9-2.4,1.7-1.6,3.3c0.6,1.4,2,0.7,3.1,0.8
				C425.2,278.7,426,278.6,427.7,278.6z M416.5,269.9c-0.6,1.7-0.2,2.7,1,3.3c1.4,0.7,2.1-0.3,2.8-1.2c6.1-7.6,12.2-15.3,18.3-22.9
				c1.3-1.6,1.4-3.2-0.2-4.4c-4.5-3.3-9.1-6.6-14.9-7.4c-2.2-0.3-3,0.3-3.2,2.4C419,249.9,417.7,260.1,416.5,269.9z M408.7,328.5
				c1.5,0,3.2,0.2,4.8-0.1c2.2-0.4,3.9-1.6,3.2-4.1c-2.4-7.8-3.6-15.8-5.5-23.7c-0.2-1-0.4-2.5-1.8-2.7c-1.1-0.1-1.6,1.1-2.1,1.9
				c-4.7,7.3-9.2,14.6-14,21.8c-1.5,2.2-0.3,3.3,1.3,3.7C399.1,326.6,403.4,329.3,408.7,328.5z M386.1,319.7
				c1.7,0.1,2.1-1.4,2.8-2.4c4.7-7,9.3-14,13.9-21c0.8-1.3,2.8-2.5,0.8-4.2c-1.8-1.6-3.7-2.6-6.2-0.7c-7.3,5.7-14.7,11.2-22.1,16.8
				c-0.8,0.6-1.6,1.1-1.3,2.3C374.7,312.4,384,319.7,386.1,319.7z M405.7,269.9c0.3-0.2,0.5-0.4,0.8-0.6c-1-3.4-2-6.9-2.9-10.3
				c-1-3.7-1.5-7.5-3-11c-1.5-3.3,0.5-9.1-4.2-9.8c-3.6-0.5-7.2,2.8-10.7,4.8c-3.1,1.7-2.7,3.2-0.6,5.3c2.8,2.8,5.5,5.7,8.3,8.6
				C397.4,261.2,401.5,265.5,405.7,269.9z M365.7,290.1c0.6,4.7,2.1,8.7,4.3,12.5c1.2,1.9,2.7,1.7,4.2,0.6
				c7.6-5.4,15.1-10.8,22.7-16.2c0.9-0.7,2.1-1.5,1.6-2.8c-0.5-1.2-1.8-1.3-3.1-1.1c-9,1.4-18,2.8-27,4.1
				C366.3,287.4,365.4,288.3,365.7,290.1z M404.7,274.4c-8.3-7.6-16.3-14.9-24.3-22.4c-1.7-1.6-2.9-1.7-4.6-0.1
				c-1.6,1.5-2.6,3.4-3.8,5.2c-1.8,2.9-1,4.2,2,5.5c8.8,3.8,17.5,7.8,26.2,11.8C401.5,274.9,402.7,276.2,404.7,274.4z M423.3,292.4
				c-0.2,0.3-0.4,0.6-0.7,0.9c2,2.6,3.9,5.3,5.9,7.9c2,2.7,4,5.3,5.9,7.9c6.1,8.4,7.9,8,12.9-1.5c1.6-3,0.7-4.4-1.6-5.4
				C438.3,298.9,430.8,295.7,423.3,292.4z M425.2,286.3c8.6,3.3,17,6.8,25.3,10.3c1.1,0.5,2.5,0.5,2.8-1.1c0.6-3.3,1-6.6,1.3-9.9
				c0.2-1.8-1.2-2.3-2.6-2.2C443.1,283.8,434.2,284.1,425.2,286.3z M417.9,296.2c-0.3,0.1-0.7,0.2-1,0.3c1.8,9,3.5,18.1,5.3,27.1
				c0.3,1.4,1.6,1.9,2.8,1.4c2.7-1.2,5.7-1.7,8.1-3.5c1.5-1.1,2.4-2.1,0.9-4C428.6,310.4,423.2,303.3,417.9,296.2z M411,268.1
				c1.6-1.9,1.7-3.7,2-5.5c0.8-6.7,1.5-13.5,2.6-20.2c1.1-7,1.3-7-6.1-7.1c-1,0-2,0-3,0.1c-1.8,0.1-2.7,0.8-2.3,2.9
				C406.5,248.1,408.7,257.9,411,268.1z M397.7,278.7c0-0.4,0.1-0.8,0.1-1.2c-9.2-3.1-18.4-6.3-27.5-9.4c-1.2-0.4-2.8-1.2-3.2,0.8
				c-0.7,2.7-1.1,5.5-1.4,8.3c-0.2,1.9,0.7,3,2.9,2.9C378.3,279.9,387.9,278.4,397.7,278.7z M406.4,280.8c0,4.4,2.6,7.2,5.6,7.2
				c2.7,0.1,6.1-3.4,5.8-6.3c-0.4-3.3-2.3-5.8-5.7-5.7C408.6,276.2,406.2,278.3,406.4,280.8z"/>
			<path d="M447.9,108.3c1.6-1.5,2.8-1.5,3.9-1.3c9.9,2.3,20.1,1.9,30.2,2.9c3.3,0.4,4.5,1.3,4.5,4.8c-0.7,27-1.2,53.9-1.6,80.9
				c-0.1,3.4-1.2,4.1-4.6,3.8c-10.9-1.1-21.8-1.9-32.8-2.5c-3-0.2-4.4-0.7-4.4-4.2c0.1-11.2,0.3-22.3-0.5-33.5
				c-1-14.2,4.2-27.1,7.9-40.2C451.7,114.5,452.7,111,447.9,108.3z"/>
			<path d="M138.1,263.8c-1.6-6,2.2-12.6,3.4-19.5c0.3-1.8,1.9-4.3-0.6-5.3c-2.4-0.9-4.7,0.8-5.7,3c-2.3,4.6-4,9.6-2.8,14.9
				c1.1,5.3,0,10.9,1.9,16.3c0.7,2-0.1,5.3-3.5,5.6c-2.8,0.2-4.5-1.2-5.2-4.2c-2.7-12.6-0.3-24.7,3.6-36.6c1.2-3.7,4.4-6.6,8-8.6
				c2.7-1.6,3.1-3.5,2.5-6.7c-2.3-10.8-3.7-21.6,1.6-32c1.1-2.2,0.4-4.6,0.4-6.9c0-3.5,2.5-4.9,4.8-3.3c3.9,2.5,5.3,0,7.1-2.3
				c0.5-0.6,0.9-1.4,1.2-2.2c1.4-3.2,4.8-3.7,7-3.3c2.9,0.6,0.3,3.3,0.2,5c-0.2,4.8-0.2,9.6,0.8,14.4c2.2,10.2,4.5,20.4,7,30.6
				c1,3.9,2.9,7.4,4.4,11c1.3,3.2,0.4,5.2-2.1,6.7c-2.7,1.6-5.2,3.4-8.6,3.6c-5.4,0.3-10.2,4.8-11.5,10.1
				c-2.8,10.7-4.8,21.6-11.2,31.2c-2.7,4-3,9.6-4.2,14.5c-0.6,2.2-8.2,5.9-9.6,4.2c-1.4-1.6,0.1-3.4,0.8-4.9
				c2.4-5.2,5.8-9.9,7.6-15.5C137.3,277.4,138.5,271.5,138.1,263.8z"/>
			<path d="M563.3,228.8c13.6,0.4,27.3-0.4,40.9,0.8c3.1,0.3,4.2,0.6,2.9,4.1c-2,5.1-4.4,10.1-5.2,15.5c-0.3,2.2-1.5,1.4-2.8,1.3
				c-6.8-0.6-13.5-2.2-20.4-1.7c-1.4,0.1-3.4-0.6-3.6,1.6c-0.2,2.2,1.8,1.8,3.2,2.1c6.2,1.3,12.6,1.3,18.9,1.4
				c1.2,0,2.9-0.9,2.9,1.4c0,1.8-1.5,1.9-2.9,2c-1.3,0-2.7-0.2-4,0.1c-2,0.3-5-1.1-5.9,1.1c-0.7,1.9,1.8,3.7,3,5.4
				c4.4,6.1,9.9,11.4,12.4,18.8c1.9,5.8,1.2,7.6-4.1,10.9c-9.9,6.2-20.8,7.3-32.1,6.2c-9.1-0.9-18.4-1.8-25.9-7.7
				c-15.4-12.2-20.9-28.4-18.3-47.6c0.4-3.1,1.4-6.2,1.9-9.2c0.9-5.2,3.3-6.8,8.4-6.6C543,229.1,553.2,228.8,563.3,228.8z
				 M546.7,246.8C546.7,246.9,546.7,246.9,546.7,246.8c5.8,0.1,11.6,0.1,17.5,0.1c1.1,0,2.5,0.2,2.6-1.5c0.1-1.3-0.9-1.5-1.9-1.9
				c-8.2-3.6-16.2-7.4-24.5-10.9c-3.1-1.3-7.1-1.9-9.4,0.6c-2.9,3.1-3.7,7.7-3.8,12c-0.1,2.1,2.2,1.5,3.6,1.5
				C536,246.9,541.3,246.8,546.7,246.8z M561.6,253c-0.1-0.3-0.3-0.5-0.4-0.8c-10.7,0-21.5,0-32.2,0c-1.4,0-2.1,1-1.9,2.4
				c0.6,4.3,1.3,8.6,3,12.6c0.8,1.9,2.1,2.5,4,1.5C543.2,263.4,552.4,258.2,561.6,253z M570.1,259.2c-0.5-0.2-1-0.3-1.4-0.5
				c-7.1,9.1-14.2,18.3-21.2,27.5c-0.5,0.7-0.8,1.7-0.2,2.3c3.1,2.9,6.7,5.1,11,4.9c3.4-0.2,3.2-3.6,3.7-6.2
				c0.2-1.1,0.7-2.2,1.1-3.3C565.4,275.6,567.8,267.4,570.1,259.2z M572.8,295.6c1.7-1.3,6.8,2.1,6.7-2.5
				c-0.4-10.7-2.1-21.4-3.3-32.1c-0.1-0.8-0.9-1.6-1.8-1.4c-0.5,0.1-1,0.9-1.1,1.5c-2.2,9.5-4.6,19-6.5,28.5
				C565.7,295.7,566,295.8,572.8,295.6z M563.8,257.9c-0.3-0.4-0.6-0.7-0.9-1.1c-7.5,4.4-15,8.9-22.5,13.2
				c-7.8,4.4-7.8,4.4-2.2,11.3c0.3,0.4,0.6,0.8,0.9,1.2c1.4,1.7,2.7,1.7,4.1,0C550,274.2,556.9,266,563.8,257.9z M581,262.2
				c1.9,9.4,3.8,18.4,5.6,27.5c0.4,2.1,1.3,2.7,3.5,2c7.7-2.4,9.6-7.5,4.9-13.6c-2.8-3.7-5.6-7.5-8.5-11.1
				C585.1,265.3,584.3,262.8,581,262.2z M552.9,233.2c4.8,2.4,9.6,4.9,14.4,7.3c0.9,0.4,1.9,0.9,2.6-0.2c1.2-1.8-1.4-7.8-3.8-8.1
				C561.8,231.6,557.5,231.4,552.9,233.2z M603.5,234.8c-6.4,2.8-11.7,5.9-17.2,9.8c4.1,1.2,7.7,1.2,11.3,1.3c1,0,2.2-0.3,2.2-1.5
				C599.5,241,601.8,238.4,603.5,234.8z M568.9,251.2c0,1.1,0.7,3,2.4,4.2c0.7,0.5,2.1,0.8,2.8,0.4c1.2-0.6,0.2-1.6,0-2.5
				c-1-3.5-0.5-6.3,3.8-7c0.9-0.1,2.2-0.5,2.2-1.6c0.1-1.5-1.5-1.6-2.5-2C573.7,241.5,569.6,245.1,568.9,251.2z M578.5,231.6
				c-1.7,0.7-4.8-1.2-4.7,2.7c0.1,3,2,4.4,4.5,4.3c2.7-0.1,3.9-2.9,4.2-4.9C582.8,230.7,579.8,232.4,578.5,231.6z M597.9,232.4
				c-8.3-1.4-9.9-0.5-10.9,5.5c3-1.3,5.9-2.5,8.8-3.8C596.3,233.8,596.7,233.3,597.9,232.4z"/>
			<path d="M318.7,254.9c6.8-9.9,14.3-19.5,16.2-31.9c1.8-11.3,7-15.4,21.4-15c11.2,0.2,22,2.5,31.7,8.8c3.2,2.1,5.4,4.9,7.9,7.5
				c2.4,2.5-0.5,3.5-2,4.4c-6.6,3.8-13.2,7.4-18.6,13c-8.6,8.8-14.1,18.8-16.8,30.9c-2.1,9.5-2.4,18.7,0.2,28
				c0.7,2.4,0.5,2.9-2.5,2.6c-9.2-1-18.1-2.3-26-7.6c-6.6-4.4-12-10-15.2-17.4c-2.6-6.1-0.4-12.3,1.2-18.2c0.5-1.9,2.3-3.3,2.6-5.3
				C318.9,254.7,318.7,254.9,318.7,254.9z M356.7,222.7c0.2-10.3-3.5-12.6-12.5-8.1c-1.2,0.6-2.3,1.3-3.4,2
				c-1.9,1.1-2.5,2.9-1.8,4.7c3.5,8,7.1,16,10.7,24c0.7,1.5,1.9,1.7,3.3,1.6c1.8-0.2,1.9-1.5,2-2.9
				C355.5,236.7,356.1,229.5,356.7,222.7z M321.8,269.1c6.8-2.5,13.7-4.7,20.3-7.6c2.5-1.1,3-3.7-0.3-5.1c-4.5-2-9.1-3.8-13.7-5.6
				c-1-0.4-2.7-1.1-2.9,0.4c-0.8,5.4-4.8,9.4-5.8,14.6C319,267.8,319.1,269.2,321.8,269.1z M361,243.5c4-6.7,7.8-12.9,11.4-19.1
				c4.3-7.4,3.4-9-5.2-10.2c-0.7-0.1-1.3-0.1-2-0.2c-2.6-0.4-3.5,0.7-3.6,3.3c-0.3,6.5-0.8,12.9-1.3,19.3
				C360.2,238.8,359.8,240.8,361,243.5z M337.1,231.7c-0.3,0.2-0.9,0.4-1.1,0.8c-1.8,3.6-3.5,7.2-5.2,10.8c-0.5,1.1,0.1,1.9,1,2.5
				c3.8,2.4,7.6,4.8,11.4,7.2c1.8,1.1,3.1,0.2,4.4-0.9c1.5-1.3,0.5-2.4-0.2-3.5c-2.9-5-5.8-10.1-8.6-15.1
				C338.4,232.7,338.1,232,337.1,231.7z M349.9,272.4c0-1.2,0.1-2-0.6-2.2c-0.9-0.3-1.7,0.3-2.1,1c-3.6,6.2-8.9,11-12.9,17
				c-1,1.6-2.4,3.3,0.1,4.4c2.7,1.2,6.7,4.6,8.3,1.3C346.1,287,347.8,279.3,349.9,272.4z M342.4,267.8c-6.2,2.8-12.3,5.5-18.5,8.4
				c-3.4,1.6-1.1,3.8,0.1,5.2c1.3,1.6,2.3,5.9,5.3,3.1C334.3,279.6,339,274.3,342.4,267.8z M387.1,225.1c-0.7-1.6-2.5-2.1-4.1-3
				c-1.7-1-2.8,0-3.6,1.4c-5,8.3-10.9,15.9-16.7,23.5c-0.8,1-1.4,2,0,2.9c1.1,0.7,1.8,0,2.2-1.1c4.3-9.7,12.7-15.6,20.8-21.5
				C386.5,226.8,387.4,226.4,387.1,225.1z M356.6,264.6c0.2-2.7,1.2-4.7,2.6-6.6c0.9-1.2,1.2-2.5-0.4-3.4c-2.1-1.2-4.5-1.7-6.4,0.1
				c-2,1.9-2.5,4.4-0.6,6.6C352.9,262.7,354.2,264.1,356.6,264.6z M354.3,272.3c-2.5,7.1-2.9,14.3-4.2,21.4
				c-0.3,1.6-0.5,3.2,1.6,3.5c2.3,0.2,2.1-1.7,2-3.1c-0.3-5.7,0.7-11.3,1.1-16.9C354.9,275.6,356.4,274,354.3,272.3z"/>
			<path d="M597.2,107.9c-31.3,0-62.6,0-94,0c-4.5,0-9,0.3-13.5,0.4c-1.5,0-3.1-0.2-1.8-2.2c2.5-3.7,4.8-6.7,10.4-6.8
				c45.5-1.3,91-0.2,136.4-0.3c20.7,0,41.3,2.1,61.9,1.7c2.1,0,4.6-0.1,6.1,1.7c1.4,1.7,4.5,3.2,3.7,5.5c-0.8,2.3-3.8,0.9-5.8,0.9
				c-34.5,0.1-69,0.1-103.5,0.1C597.2,108.5,597.2,108.2,597.2,107.9z"/>
			<path d="M204.7,147.2c-1.4,3.8-0.7,8.5-1.3,13.2c-0.4,2.4-1.4,3.4-3.9,3.4c-12.2,0-24.1,2-35.9,4.7c-3.6,0.8-8.4-5.2-6.6-9.1
				c2.3-4.8,2.3-9.9,2.4-14.6c0.1-9,3.6-16.8,6.5-24.8c0.4-1.1,0.6-2.2,0.8-3.4c0.5-4.4,3.5-6.1,6.5-3.1
				c9.3,9.3,22.1,14.9,29.3,26.6C204.4,143.4,204.9,143.7,204.7,147.2z"/>
			<path d="M697.2,98.6c-7,0.5-12.7-0.6-18.4-0.9c-21.8-1.2-43.6-1.7-65.4-2.8c-18-0.9-35.9-0.7-53.8-0.3
				c-21.9,0.5-43.9,0.6-65.8,2.1c-9,0.6-18.1-0.9-27.1-2.5c6.6-0.7,13.1-1.6,19.7-2.1c42.7-3.1,85.4-4.9,128.2-3.2
				c24.7,0.9,49.5,2.2,74.2,4.7C691.9,94,694.1,95.9,697.2,98.6z"/>
			<path d="M669.2,122.3c-5.2,4.8-8.9,8.6-15.6,8.4c-46.1-1.6-92.2-1.8-138.3-1.8c-4.3,0-5.8-3-7.8-5.3c-1.6-1.8,0.8-1.9,1.9-1.9
				c4.5-0.1,9-0.1,13.5,0c47.3,0.1,94.6,0.3,141.9,0.4C665.7,122.1,666.7,122.2,669.2,122.3z"/>
			<path d="M500.3,225.6c-6.5-1.3-11.7-2.3-17-3.3c-9.9-1.8-19.9-3.5-29.8-5.4c-6.7-1.2-12.8-8.1-13.3-14.6
				c-0.2-1.9,0.6-2.8,2.6-2.6c9.1,0.9,18.1,1.9,27.2,2.8c2.1,0.2,4.3,1.1,6.4,0.9c7.1-0.8,11,2.7,13.7,8.8
				C492.1,217.1,496.6,220.4,500.3,225.6z"/>
			<path d="M172.7,195.7c-3,0.2-4.8-1.3-6.3-4.5c-3-6.2-0.8-11.7,1.4-17.2c0.9-2.3,3.2-2,5.1-2.3c7.6-1.2,15.1-3.7,23.1-2.7
				c4.1,0.5,5.6,1.7,3.9,6C196.1,184.5,181.9,195.7,172.7,195.7z"/>
			<path d="M218.6,164.8c13.7-8,26.4-15.6,39.1-22.9c9.5-5.5,19-10.9,28.6-16.2c10.4-5.8,20.9-11.4,31.4-17
				c11.3-6,20.8-14.2,29.8-23.2c3-3,3.1-3.1,7.2-3.2c-4.4,4.5-7.6,9.3-10.3,14.6c-1.5,3-5.5,4.1-8.5,5.8
				c-27.1,15.3-54.6,30.1-81.4,46c-9.3,5.5-18.7,10.6-28,16.1C224.2,166.1,222.1,166.1,218.6,164.8z"/>
			<path d="M660.5,166.8c0-8.8,0-17.7,0-26.5c0-3.3,4.4-9.5,7.4-10.1c2.7-0.6,2,1.7,2,2.9c0.1,9.5,0.4,19-0.1,28.5
				c-0.6,10.7-0.7,21.3-0.6,31.9c0.1,4.2-1.8,4.9-5.4,5.1c-4,0.2-3.8-2.2-3.8-4.8c0-9,0-18,0-27
				C660.2,166.8,660.4,166.8,660.5,166.8z"/>
			<path d="M355.6,99.9c-5.4,4.8-11.3,7.3-16.8,10.5c-30.6,17.6-61.3,35-91.9,52.5c-3.7,2.1-7.5,4.3-11.3,6.3
				c-1.1,0.6-2.5,1-3.7,1.2c-1.1,0.2-2.7,0-3-1.2c-0.3-1.2,0.9-2,2-2.6c12.7-7.2,25.3-14.5,38-21.7c13.1-7.4,26.2-14.8,39.4-22
				c14.1-7.7,28.4-15.2,42.6-22.7C352,99.6,353.2,99.1,355.6,99.9z"/>
			<path d="M328.3,157.9c1.9,1.5,4,2.8,5.8,4.4c1.2,1.1,1.5,2.7,0.2,4c-1.3,1.4-2.3,0.3-3.4-0.5c-1.6-1.2-3.2-2.4-4.7-3.7
				c-2-1.7-5-3.4-0.3-5.5c-0.7-7.1,7-10.4,7.7-16.8c0.3-2.3,1.4-3,3.3-2.3c5.3,1.8,11,2.8,15.7,6c4.1,2.8,4,4.3,0.1,7.3
				c-3.7,2.7-7.6,5.3-11,8.3c-3.4,3-6.2,3.1-9.4,0c-0.9-0.9-2.3-1.1-3.5-1.7C328.6,157.5,328.5,157.7,328.3,157.9z"/>
			<path d="M372.8,171.2c-0.3,7.9-8.4,11.9-16.8,8.8c-4.7-1.8-7.4-4.5-6.4-10.1c0.8-4.1,0.7-8.3,1.1-12.4c0.2-2.1,1.1-4,3.4-4.3
				c2.1-0.3,4,0.4,5,2.5c2.5,5.5,5.5,9.8,12.5,10.3C374.4,166,372.3,169.6,372.8,171.2z"/>
			<path d="M502.3,123.4c3.9,3.4,5.3,6.5,5.1,11c-0.5,18.5-0.5,37-0.8,55.5c-0.1,5.5-0.6,10.9-0.9,16.7c-3.3-0.8-5.4-2.6-5.1-5.8
				C502.4,175.3,501.3,149.8,502.3,123.4z"/>
			<path d="M116.3,118.6c0,4.6,1.5,8.5,3.3,12.5c1.3,2.8,0.3,5.7-2.6,8.3c-6.3,5.5-10.8,12.5-13.9,21.2c-2.1-3.9-6.3-5.7-4.5-10.5
				c0.2-0.6,0.1-1.6,0.5-1.9c4.4-3.4,4.6-6.6,1-11.2c-2.4-3.1,0.5-7.1,2.3-10.1c1.2-1.9,3,0.5,4.1,1.8c1.1,1.3,1.4,3.7,3.9,3.1
				c2.5-0.6,1.7-2.8,1.9-4.5C112.6,124.1,114.1,121.4,116.3,118.6z"/>
			<path d="M149.8,105.3c0.3,1.1-1.9,3.2,0.2,3.5c2.3,0.3,5.4,0.8,7.1-2.1c1.9-3,4.5-5.3,7.1-7.6c0.6-0.5,1.1-1.6,2-1
				c0.5,0.4,0.8,1.4,0.8,2.1c0,1.1,0,2.5-0.6,3.4c-2.6,3.4-5.5,6.4-4.5,11.4c0.4,2-2,2.4-3.7,2.5c-5.7,0.4-10.9,2.5-16.1,4.9
				c-1.5,0.7-3.3,2.9-4.8,1.3c-1.3-1.4-1.3-4.6-0.2-5.6c4.2-4.2,3.4-11.2,8.7-14.6c1-0.6,0.9-3,2.8-2
				C150.3,102.2,149.7,103.8,149.8,105.3z"/>
			<path d="M441.2,103.3c8-7.2,17.3-7.5,26.9-6.5c5.9,0.6,11.9,1.3,17.8,1.8c2.2,0.2,2.5,0.8,1.5,2.8c-2,3.9-4.7,6.5-9.3,6
				C465.9,106.1,453.7,104.7,441.2,103.3z"/>
			<path d="M432,113.6c8.8,0.2,9.3-2.5,7,8.7c-0.6,3.1-1.8,6.1-1.9,9.2c-0.1,4.3-2.7,4.1-5.7,4.1c-3.2,0-4.7-0.7-4.9-4.4
				c-0.3-4.4-0.9-9-2-13.2c-1.1-4.5,0.7-4.8,4-4.5C429.6,113.7,430.8,113.6,432,113.6z"/>
			<path d="M435.4,167.1c0,6-1.3,12,0.1,17.9c0.4,1.6-0.5,3-2.1,3.5c-1.9,0.6-3.6,0.2-5.2-1c-1.7-1.3-0.9-2.6,0-3.9
				c0.8-1.3,1.5-2.5,1.2-4.2c-1.6-8-0.5-16.3-2.2-24.3c-0.6-2.6-0.8-5.3,3.5-5.4c3.9-0.2,4.9,1.3,4.7,4.9
				C435.2,158.8,435.4,162.9,435.4,167.1z"/>
			<path d="M432,141.8c-11.5-0.1-11.4-0.1-12.3-10.3c-0.4-4.6-1.4-9.2-2.1-13.8c-0.2-1.5-1.8-3.5,1-3.9c2.2-0.4,2.9,1.8,2.9,3.3
				c0,5.7,2.2,11.1,2.2,16.8c0,3.4,1.5,4.5,4.5,4.2c0.5,0,1,0,1.5,0c8.6-0.4,8.5-0.4,10.3-9c0.9-4.4,2.2-8.7,3.3-13
				c0.3-1.2,0.5-2.4,2.1-2.3c1.6,0.1,1.8,1.4,1.5,2.6c-2.1,8.2-4.3,16.3-6.6,24.5c-0.4,1.6-1.8,1.6-3.3,1.4
				C434.9,142,432.8,141.9,432,141.8z"/>
			<path d="M135,148.5c-4.3-3.9-7.4-7.2-10.3-10.5c-2.6-3-3-8.2-1.8-11.8c1-3.1,6.1-3.3,9.2-5.3c0.8-0.5,1.3,0.5,1.6,1.3
				C136,130.6,135.1,138.9,135,148.5z"/>
			<path d="M433.7,79.9c0,3.3-0.1,5.3,0,7.3c0.1,2.7,0.1,4.8-3.7,4.7c-3.8,0-4.4-1.9-4.2-5c0.5-6.4,2.1-12.7-0.3-19.1
				c-0.6-1.5,0.7-3.3,2.3-4c1.6-0.8,3.5-1.3,5.2-0.1c1.6,1.2,2.6,3.2,1.8,4.8C432.7,72.7,434,77,433.7,79.9z"/>
			<path d="M321.5,150.8c-3.5,0-6-1.6-8.6-2.6c-1.9-0.7-0.9-2.1,0.1-3.1c3.5-3.5,7-7,10.5-10.4c1-0.9,1.8-2.9,3.6-1.2
				c1.8,1.6,5.1,3.4,4,5.6c-1.9,4.1-5.1,7.6-7.9,11.2C322.9,150.9,321.7,150.8,321.5,150.8z"/>
			<path d="M358.4,84.9c2.6,0.7,5.7,1.1,8.3,2.4c2.9,1.5,0.7,4.1,0.2,6.2c-0.6,2.9-2.7,4.2-5.6,3.4c-2.4-0.7-4.6-1.6-7.1-1.8
				c-4.1-0.3-5-1.6-2.7-5C353.2,87.8,354.5,84.8,358.4,84.9z"/>
			<path d="M431.8,110.8c-3.1,0-6.3,0-9.4,0c-1.1,0-2.6,0.3-3-1.1c-0.4-1.2,0.7-2.1,1.3-3c0.2-0.3,0.5-0.5,0.7-0.7
				c3.4-3,19.1-1.6,21.8,1.9c0.5,0.6,1.3,1.2,0.8,2.1c-0.5,0.8-1.4,0.7-2.2,0.7c-3.3,0-6.6,0-9.9,0
				C431.8,110.7,431.8,110.8,431.8,110.8z"/>
			<path d="M207.1,156.6c0.3-3.1,0.6-6.3,1-9.4c0.3-2.3,1.5-2.8,3.4-1.2c0.4,0.3,0.9,0.6,1.1,1c1.2,2.2,5.8,2,4.6,5.5
				c-1.6,4.5-4.4,8.6-8.4,11.4c-1.5,1-1.9-0.5-1.9-1.8c0.1-1.8,0.2-3.6,0.3-5.5C207.2,156.6,207.2,156.6,207.1,156.6z"/>
			<path d="M429.5,95.6c2,0,4-0.2,6,0.1c1.3,0.2,3.8-0.9,3.5,2.1c-0.2,1.9-0.4,4.3-3.1,4.5c-4.1,0.2-8.3,0.4-12.4,0.1
				c-2.8-0.2-2.9-3.1-2.9-5.1c-0.1-2.3,2.1-1.4,3.5-1.5C425.9,95.5,427.7,95.6,429.5,95.6C429.5,95.6,429.5,95.6,429.5,95.6z"/>
			<path d="M378.4,146.2c-0.6-7,0.6-13.1,7.1-16.8c1.5-0.9,3.3-1.6,4.6-0.7c1.6,1.1-0.2,2.7-0.4,4.1c-0.2,1.8-1,3.4-2.7,4.5
				C383.6,139.6,380.6,142.5,378.4,146.2z"/>
			<path d="M406.7,127c0.6,3.5-0.7,5-3.6,5.2c-0.5,0-1,0.2-1.5,0c-2.2-0.7-4.6,3.5-6,0.5c-0.8-1.7,0.4-5.2,1.8-6.8
				c2-2.1,5.3-2.9,8.3-2.2C407.8,124.2,406.3,126.3,406.7,127z"/>
			<path d="M407.1,222.8c-0.1,0.8,0.3,1.8-0.9,2c-1.6,0.3-3.4,0-3.9-1.4c-1.2-3.5-3.3-6.9-2.8-10.9c0.2-1.4,0.7-2.3,2-2.3
				c1.3,0,3.2-0.1,3.2,1.6C404.7,215.7,406.5,219.1,407.1,222.8z"/>
			<path d="M424.9,213c-1.9,4.3-3.6,8.8-6.4,12.8c-0.5,0.7-1.3,1.1-2.2,0.7c-0.7-0.3-0.6-1.1-0.3-1.7c1.7-4.1,3.5-8.2,5.2-12.3
				c0.5-1.1,1.3-2,2.7-1.6C425,211.1,424.9,212,424.9,213z"/>
			<path d="M310,155.5c-1.1-0.6-2.2-1.2-3.3-1.8c0-2.5,1.6-3.7,3.7-3.5c2.5,0.2,5.9,0.3,7.1,2.5c1,1.9-1.2,3.8-3.5,4.2
				C312.7,157,311.2,156.6,310,155.5z"/>
			<path d="M152.9,162.5c1.7,0.5,3.3,1.3,3.3,3.2c0,2.1-1.3,3.2-3.5,3.2c-2,0-3.3-0.9-3.2-2.9C149.5,164,150.9,162.8,152.9,162.5z"
				/>
			<path d="M431.2,143.9c1.7,0.1,3.8-0.4,3.9,2c0.1,2.5-1.8,2.4-3.4,2c-1.7-0.4-4.6,1.1-4.8-1.8
				C426.7,142.8,429.7,144.3,431.2,143.9z"/>
			<path d="M677.3,216.8c-1.8,2.4-4.9,2.4-7,4c-0.9,0.6-1.8-0.6-1.4-1.2c1.1-2-0.3-5.8,3.6-6C674.5,213.5,676,214.8,677.3,216.8z"/>
			<path d="M697.4,235.5c0,1.7-1.7,2.4-3,2.1c-3.4-0.9-3.7-4.3-4.6-6.9c-0.6-1.8,1.4-3,2.7-2.7C696.1,228.8,696.6,232.2,697.4,235.5
				z"/>
			<path d="M637.1,257.4c-8.1,2.1-15.6,0.7-23.1,0.2c-1.3-0.1-2.3-0.6-2.2-2.1c0-1.2,0.9-2,2-1.7c7.2,2.1,14.7,1.2,21.9,3.1
				C636.2,257.1,636.6,257.3,637.1,257.4z"/>
			<path d="M658.6,213.9c0,4.3,0.1,8-0.1,11.8c-0.1,1.7-1.2,3.4-3.1,3.2c-1.6-0.1-1.6-1.9-1.7-3.2
				C653.5,221.3,653.1,216.8,658.6,213.9z"/>
			<path d="M393.5,251.1c-1.6,0-1.9-1.2-1.7-2.4c0.4-2.4,2.7-2.2,4.3-2.6c1.3-0.3,1.4,1,1.3,2.1
				C397.1,250.5,395.6,251.1,393.5,251.1z"/>
			<path d="M373.1,299.7c-1.2,0.2-2.2-0.6-2.6-1.7c-0.6-1.4,0.6-1.9,1.7-2.4c5.4-2.4,10.9-4.8,15.8-8.1c1-0.7,2.3-1.3,3.1-0.3
				c1.2,1.5-0.7,2-1.4,2.5C384.6,293.7,379.5,297.6,373.1,299.7z"/>
		</g>
	</g>
	<path d="M156.8,121c-4.8,0.9-9.1,3-13.8,4.2c-3.5,1-4.8,2.9-4.7,6.4c0.3,8.3,0.3,16.5-1.4,24.8c-0.9,4.4-4.4,7.9-3.8,13
		c-1.4,3.6,2,4.5,4.2,6.1c2.1,1.5,4.2,3,6.7,0.7c2.1-2,4.1-4,2.5-7.3c-1.9-4.1-0.2-7,3.8-8c3.5-0.9,4.4-3,4.6-6.1
		c0.7-10.3,2.2-20.5,4.9-30.4C160.6,121.3,159.9,120.4,156.8,121z M146.6,137.8c0,0-1.3-5,2.7-5.8
		C153.2,131.1,153.2,136.8,146.6,137.8z"/>
	<path d="M136.8,179.2c-6.1-4.9-7-10.7-4.2-17.7c2.3-5.7,3.3-10.6-3.4-15.3c-8-5.5-11.1-5.7-16.5,2.7c-1.9,3-3.6,6-3.1,9.7
		c0.2,1.8,0.7,3.2,2.4,4.1c7.5,3.8,10.8,10.4,12.1,18.3c0.5,3.4,2,6.3,4.7,8.6c1.4,1.2,3.1,2,3.4-0.7c0.2-1.4-0.8-3.4,1.4-3.3
		c2.8,0.1,0.5,2.7,1.7,4.2C138.9,186.7,139.7,181.5,136.8,179.2z M116,157.5c0,0-1-3.7,2-4.3C121,152.6,121,156.8,116,157.5z"/>
</g>
<g>
	<g>
		<path d="M65.5,419.6H50.6c-3.3-5.2-6.3-9.6-8.9-13.4c-2.7-3.8-5.5-7.6-8.7-11.6h-5.7V412c0,0.9,0.1,1.7,0.4,2.4
			c0.3,0.7,0.9,1.2,1.8,1.6c0.5,0.2,1.3,0.4,2.5,0.5c1.2,0.2,2.2,0.2,3,0.3v2.8H11.7v-2.8c0.6-0.1,1.5-0.1,2.7-0.3s2-0.3,2.5-0.5
			c0.8-0.3,1.3-0.8,1.7-1.5c0.4-0.6,0.5-1.5,0.5-2.5v-40c0-0.9-0.1-1.7-0.4-2.4c-0.3-0.7-0.9-1.2-1.8-1.6c-0.6-0.2-1.5-0.4-2.5-0.6
			c-1-0.2-1.9-0.3-2.6-0.4v-2.8h25.5c2.3,0,4.5,0.2,6.6,0.7c2.1,0.5,3.9,1.3,5.6,2.3c1.6,1,2.9,2.4,3.9,4.1c1,1.7,1.4,3.7,1.4,6.1
			c0,2.1-0.3,4-1,5.6c-0.6,1.6-1.6,3.1-2.9,4.2c-1.2,1.1-2.6,2.1-4.2,2.9c-1.6,0.8-3.4,1.5-5.4,2.1c2.7,3.6,5,6.6,6.8,9.1
			c1.8,2.5,4,5.5,6.6,9c1.1,1.6,2.2,2.7,3.1,3.4c0.9,0.7,1.8,1.3,2.7,1.8c0.7,0.3,1.5,0.6,2.5,0.8c1,0.2,1.9,0.3,2.5,0.3V419.6z
			 M45,378.4c0-3.3-1-6-2.9-8c-1.9-2-4.6-2.9-8.1-2.9h-6.6v23.7h5.1c3.6,0,6.6-1.1,9-3.4C43.8,385.4,45,382.3,45,378.4z"/>
		<path d="M78,415.1c0,1.5-0.5,2.7-1.6,3.7c-1.1,1-2.3,1.5-3.8,1.5c-1.5,0-2.7-0.5-3.8-1.5c-1.1-1-1.6-2.3-1.6-3.7
			c0-1.5,0.5-2.7,1.6-3.8c1.1-1.1,2.3-1.6,3.8-1.6c1.5,0,2.7,0.5,3.8,1.6C77.4,412.4,78,413.6,78,415.1z"/>
		<path d="M160.3,367.1c-0.6,0-1.4,0.2-2.3,0.4c-0.9,0.3-1.6,0.6-2.4,1.1c-0.9,0.6-1.6,1.2-2.2,2c-0.6,0.7-1,1.8-1.5,3.1
			c-1.8,6-4,13-6.4,21c-2.4,8-5.1,16.5-7.9,25.6h-3.6l-13.9-42.6l-14.5,42.6h-3.4c-2.6-9.1-5.2-18.5-8-28.3
			c-2.8-9.8-4.6-16.3-5.5-19.6c-0.2-0.8-0.6-1.5-1-2.1c-0.5-0.6-1.1-1.2-1.8-1.7c-0.6-0.4-1.4-0.8-2.3-1c-0.9-0.2-1.7-0.4-2.4-0.4
			v-2.8h22.5v2.8c-2,0.1-3.7,0.3-5,0.6c-1.4,0.3-2.1,0.8-2.1,1.4c0,0.3,0,0.6,0.1,1c0.1,0.4,0.1,0.8,0.2,1c0.6,2.3,1.7,6.1,3.2,11.3
			c1.5,5.3,3.8,13.2,6.7,23.7l13.8-41.1h3.8l13.9,42c1.9-6.4,3.5-12.1,4.8-16.9s2.5-9,3.4-12.4c0.6-2.4,1-4.1,1.2-5s0.2-1.7,0.2-2.3
			c0-0.9-0.6-1.6-1.8-2.2c-1.2-0.6-3.2-1-5.9-1.2v-2.8h20V367.1z"/>
		<path d="M173.3,415.1c0,1.5-0.5,2.7-1.6,3.7c-1.1,1-2.3,1.5-3.8,1.5c-1.5,0-2.7-0.5-3.8-1.5c-1.1-1-1.6-2.3-1.6-3.7
			c0-1.5,0.5-2.7,1.6-3.8c1.1-1.1,2.3-1.6,3.8-1.6c1.5,0,2.7,0.5,3.8,1.6C172.8,412.4,173.3,413.6,173.3,415.1z"/>
		<path d="M236.9,393.8c1.6,1.1,2.9,2.5,4,4.3c1.1,1.8,1.6,3.9,1.6,6.4c0,2.6-0.6,4.8-1.7,6.7c-1.1,1.9-2.6,3.5-4.4,4.7
			c-1.7,1.2-3.7,2.1-5.9,2.7c-2.2,0.6-4.5,0.9-6.8,0.9h-26.2v-2.8c0.6-0.1,1.5-0.2,2.7-0.3c1.2-0.2,2.1-0.4,2.6-0.6
			c0.8-0.4,1.4-0.9,1.7-1.5c0.3-0.6,0.5-1.4,0.5-2.4v-39.7c0-0.9-0.1-1.7-0.4-2.3s-0.9-1.2-1.8-1.6c-0.8-0.4-1.6-0.7-2.6-0.9
			s-1.8-0.3-2.4-0.4v-2.8h25.5c2,0,3.9,0.2,5.7,0.6c1.8,0.4,3.5,1.1,5.2,2.1c1.5,0.9,2.8,2.1,3.8,3.7c1,1.6,1.5,3.5,1.5,5.7
			c0,1.9-0.4,3.7-1.1,5.2c-0.7,1.5-1.7,2.8-3,3.9c-1.2,1-2.6,1.9-4.1,2.6c-1.5,0.7-3.2,1.3-5,1.7v0.4c1.6,0.2,3.4,0.6,5.3,1.2
			C233.6,391.9,235.3,392.7,236.9,393.8z M227.4,385.5c1-1.1,1.6-2.3,2-3.7c0.4-1.3,0.6-2.9,0.6-4.7c0-3-0.8-5.4-2.5-7.2
			c-1.7-1.7-4.3-2.6-7.8-2.6c-0.8,0-1.9,0-3.1,0.1c-1.3,0-2.3,0.1-3.2,0.1v21.3h4.9c2.1,0,3.9-0.3,5.5-0.8
			C225.3,387.4,226.5,386.6,227.4,385.5z M232.8,403.1c0-3.3-1.1-6-3.3-8.1c-2.2-2.1-5.3-3.2-9.4-3.2c-1.7,0-3.1,0-4.2,0.1
			c-1.1,0-2,0.1-2.6,0.1v19.5c0,1.6,0.7,2.9,2,3.7c1.3,0.8,3.2,1.2,5.5,1.2c3.9,0,6.8-1.1,8.9-3.4
			C231.8,410.8,232.8,407.5,232.8,403.1z"/>
		<path d="M283.2,418.9c-1.2,0.4-2.3,0.8-3.2,1.1c-0.9,0.3-2,0.4-3.1,0.4c-2,0-3.6-0.5-4.8-1.4s-2-2.3-2.3-4.1h-0.2
			c-1.7,1.9-3.5,3.3-5.4,4.3c-1.9,1-4.3,1.5-7,1.5c-2.9,0-5.3-0.9-7.1-2.6c-1.9-1.8-2.8-4.1-2.8-6.9c0-1.5,0.2-2.8,0.6-4
			c0.4-1.2,1-2.2,1.9-3.2c0.6-0.8,1.5-1.5,2.6-2.1c1.1-0.6,2.1-1.1,3-1.5c1.2-0.4,3.5-1.3,7.1-2.5c3.6-1.2,6-2.1,7.2-2.8v-3.9
			c0-0.3-0.1-1-0.2-1.9c-0.1-1-0.4-1.9-0.9-2.7c-0.5-1-1.3-1.8-2.2-2.5c-0.9-0.7-2.3-1.1-4-1.1c-1.2,0-2.3,0.2-3.3,0.6
			c-1,0.4-1.7,0.8-2.2,1.3c0,0.5,0.1,1.3,0.4,2.3c0.2,1,0.4,1.9,0.4,2.8c0,0.9-0.4,1.7-1.2,2.5c-0.8,0.8-2,1.1-3.4,1.1
			c-1.3,0-2.3-0.5-2.9-1.4c-0.6-0.9-0.9-2-0.9-3.1c0-1.2,0.4-2.3,1.3-3.4c0.8-1.1,1.9-2.1,3.3-2.9c1.2-0.7,2.6-1.3,4.2-1.8
			c1.7-0.5,3.3-0.8,4.9-0.8c2.2,0,4.1,0.1,5.7,0.4c1.6,0.3,3.1,0.9,4.4,1.9c1.3,1,2.3,2.3,3,3.9c0.7,1.6,1,3.8,1,6.4
			c0,3.7,0,7-0.1,9.9c-0.1,2.9-0.1,6-0.1,9.4c0,1,0.2,1.8,0.5,2.4c0.4,0.6,0.9,1.1,1.6,1.5c0.4,0.2,1,0.4,1.8,0.4c0.8,0,1.7,0,2.6,0
			V418.9z M269.6,398.3c-2.2,0.7-4.1,1.3-5.8,1.9c-1.7,0.6-3.2,1.4-4.6,2.3c-1.3,0.9-2.3,1.9-3.1,3.1c-0.8,1.2-1.1,2.6-1.1,4.3
			c0,2.2,0.6,3.7,1.7,4.8c1.1,1,2.6,1.5,4.3,1.5c1.8,0,3.5-0.4,4.9-1.3s2.6-2,3.5-3.2L269.6,398.3z"/>
		<path d="M325.7,419.6h-11.6c-2-2.9-4.2-6.1-6.5-9.4c-2.3-3.3-4.7-6.6-7.2-9.8l-3.2,3v9.1c0,0.9,0.2,1.7,0.5,2.3
			c0.3,0.6,0.9,1.1,1.6,1.3c0.6,0.3,1.2,0.5,1.8,0.6c0.6,0.1,1.2,0.2,2,0.3v2.6h-18.8V417c0.6-0.1,1.2-0.1,1.9-0.2
			c0.6-0.1,1.2-0.2,1.6-0.3c0.7-0.2,1.3-0.6,1.6-1.2c0.4-0.6,0.5-1.3,0.5-2.3v-44.7c0-1-0.2-1.9-0.6-2.7c-0.4-0.8-0.9-1.5-1.6-1.9
			c-0.5-0.4-1.4-0.7-2.6-0.8c-1.2-0.1-2.1-0.2-2.8-0.3v-2.5l14.2-0.9l0.5,0.6v40.6c2-2,4.2-4.2,6.6-6.5c2.4-2.3,4.3-4.4,5.9-6.2
			c0.2-0.2,0.4-0.5,0.7-0.9c0.2-0.4,0.4-0.7,0.4-0.9c0-0.7-0.6-1.2-1.7-1.6c-1.1-0.3-2.2-0.6-3.3-0.7v-2.5h16.9v2.4
			c-2.2,0.6-4.1,1.5-5.8,2.4s-3,1.8-3.8,2.6c-0.6,0.5-1.5,1.4-2.7,2.5c-1.1,1.2-2.7,2.7-4.8,4.6c2.1,2.6,4.5,5.8,7.2,9.4
			c2.7,3.7,4.6,6.3,5.8,7.9c1.1,1.5,2.2,2.5,3.1,3c0.9,0.5,2.2,0.8,4,0.9V419.6z"/>
		<path d="M359.8,410.5c-1.6,3.1-3.8,5.5-6.5,7.3c-2.7,1.8-5.8,2.7-9.3,2.7c-3.1,0-5.8-0.5-8.1-1.6c-2.3-1.1-4.2-2.6-5.7-4.4
			c-1.5-1.9-2.6-4-3.4-6.5s-1.1-5.1-1.1-7.9c0-2.5,0.4-4.9,1.2-7.3c0.8-2.4,2-4.6,3.5-6.5c1.5-1.8,3.3-3.3,5.5-4.5
			c2.2-1.1,4.7-1.7,7.4-1.7c2.8,0,5.2,0.4,7.2,1.3c2,0.9,3.6,2.1,4.9,3.6c1.2,1.5,2.1,3.2,2.7,5.1s0.9,4.1,0.9,6.4v2.6h-25.4
			c0,2.5,0.2,4.8,0.7,6.9c0.5,2.1,1.2,3.9,2.3,5.4c1,1.5,2.3,2.7,4,3.6c1.6,0.9,3.6,1.3,5.8,1.3c2.3,0,4.3-0.5,6-1.6
			c1.7-1.1,3.3-3,4.8-5.9L359.8,410.5z M351.2,395.9c0-1.4-0.1-3-0.4-4.7c-0.2-1.7-0.6-3-1.2-4.2c-0.6-1.2-1.4-2.2-2.5-2.9
			c-1-0.8-2.4-1.1-4-1.1c-2.7,0-5,1.1-6.8,3.4c-1.8,2.3-2.8,5.4-2.9,9.5H351.2z"/>
		<path d="M391.7,386.1c0,1.3-0.3,2.5-1,3.5c-0.6,1-1.6,1.5-3,1.5c-1.5,0-2.6-0.4-3.3-1.1c-0.8-0.8-1.1-1.6-1.1-2.5
			c0-0.6,0-1.1,0.1-1.6c0.1-0.5,0.2-0.9,0.3-1.4c-1.2,0-2.6,0.5-4.3,1.5s-3,2.4-4.2,4.2v22.4c0,0.9,0.2,1.6,0.5,2.2
			c0.4,0.6,0.9,1,1.7,1.3c0.6,0.3,1.5,0.5,2.5,0.6s1.9,0.2,2.7,0.3v2.6h-20.2V417c0.6-0.1,1.2-0.1,1.8-0.2c0.6-0.1,1.2-0.2,1.7-0.3
			c0.7-0.2,1.3-0.6,1.6-1.2c0.4-0.6,0.5-1.3,0.5-2.3v-23.7c0-0.8-0.2-1.6-0.6-2.4c-0.4-0.8-0.9-1.4-1.6-1.9
			c-0.5-0.3-1.1-0.5-1.8-0.7c-0.7-0.1-1.4-0.2-2.2-0.3v-2.6l12.8-0.9l0.5,0.5v5.4h0.2c1.6-2.1,3.4-3.7,5.4-4.8
			c2-1.1,3.8-1.6,5.4-1.6s3,0.5,4,1.6S391.7,384.3,391.7,386.1z"/>
		<path d="M464,387.3c-1.5,0.1-3.1,0.4-4.6,0.9s-2.8,1.2-3.6,2.3c-0.5,0.6-1.1,1.5-1.7,2.8c-0.6,1.2-1.2,2.7-2,4.3s-1.6,3.3-2.4,4.9
			c-0.8,1.6-1.8,3.2-3.1,4.8c1,1.2,2.3,2.6,3.8,4.1c1.5,1.5,2.8,2.5,3.9,3.2c1,0.6,2.5,1.1,4.4,1.5c1.9,0.4,3.5,0.6,4.7,0.7v2.8h-16
			l-5.8-6.6c-0.9,0.9-1.8,1.9-2.9,2.9c-1.1,1-2.3,1.9-3.5,2.6c-1.4,0.8-2.7,1.4-4.1,1.8c-1.4,0.4-3,0.7-4.8,0.7
			c-1.9,0-3.8-0.3-5.7-0.8c-1.9-0.6-3.6-1.4-5.2-2.7c-1.5-1.2-2.7-2.7-3.7-4.6s-1.4-4.1-1.4-6.7c0-3.2,0.8-6.1,2.6-8.7
			c1.7-2.6,4.9-5.4,9.5-8.3c-2.1-2.8-3.7-5.2-4.9-7.2c-1.2-2-1.8-4.3-1.8-6.8c0-1.8,0.4-3.4,1.1-4.9c0.7-1.5,1.7-2.8,3-3.9
			c1.2-1,2.6-1.8,4.4-2.4c1.7-0.6,3.5-0.9,5.2-0.9c2.1,0,3.9,0.3,5.5,1c1.6,0.7,2.8,1.5,3.8,2.6c0.9,1,1.6,2.1,2.1,3.4
			c0.5,1.3,0.7,2.6,0.7,3.9c0,3.1-1,5.8-2.9,8s-4.6,4.3-8,6.1c2.4,3.3,4.8,6.3,7.2,9s4.6,5.4,6.7,8c1.7-2.8,3.1-5.4,4-7.8
			c1-2.5,1.4-4.6,1.4-6.5c0-0.8-0.6-1.5-1.8-2c-1.2-0.5-2.9-0.9-5-1.4v-2.8H464V387.3z M439.5,410.7c-2.4-3.1-5.1-6.4-8.2-10.1
			c-3-3.6-5.4-6.7-7.3-9.2c-2.1,1.5-3.6,3.2-4.5,5.1c-0.9,2-1.3,4.2-1.3,6.7c0,3.5,1,6.5,3,8.8c2,2.3,4.7,3.5,8.1,3.5
			c1.9,0,3.8-0.4,5.6-1.2S438.4,412.2,439.5,410.7z M436.5,374.7c0-2.6-0.6-4.7-1.7-6.1c-1.2-1.4-2.8-2.1-5-2.1
			c-1.2,0-2.2,0.2-3,0.7c-0.8,0.5-1.5,1.1-2.1,1.9c-0.5,0.7-0.9,1.5-1.1,2.3c-0.2,0.8-0.3,1.6-0.3,2.2c0,1.8,0.5,3.6,1.4,5.4
			s2.4,4,4.4,6.6c2.7-1.5,4.6-3.1,5.8-4.9C435.9,379,436.5,377,436.5,374.7z"/>
		<path d="M507.5,420.9c-3.3,0-6.5-0.7-9.5-1.9c-3-1.3-5.7-3.2-8-5.6c-2.3-2.4-4.2-5.4-5.5-8.9c-1.4-3.5-2.1-7.5-2.1-11.9
			s0.7-8.4,2-12c1.3-3.6,3.2-6.7,5.6-9.3c2.4-2.6,5.1-4.6,8.4-6c3.2-1.4,6.7-2.1,10.3-2.1c2.7,0,5.2,0.3,7.4,1
			c2.2,0.7,4.3,1.6,6.3,2.8l1.6-2.6h3.1l0.4,19.7h-3.2c-0.4-1.9-1-4-1.9-6.2c-0.8-2.2-1.8-4.1-2.9-5.7c-1.2-1.8-2.7-3.1-4.4-4.1
			c-1.7-1-3.7-1.5-5.9-1.5c-2.5,0-4.9,0.6-7,1.7c-2.2,1.1-4,2.8-5.6,4.9c-1.5,2.1-2.7,4.8-3.5,8c-0.9,3.2-1.3,6.9-1.3,10.9
			c0,3.5,0.4,6.8,1.3,9.7c0.9,2.9,2.2,5.5,3.8,7.8c1.7,2.2,3.6,3.9,5.9,5.2c2.3,1.2,4.8,1.9,7.6,1.9c2.1,0,4-0.3,5.8-1
			c1.8-0.7,3.3-1.5,4.6-2.6c1.3-1.1,2.4-2.4,3.4-3.9s1.8-3,2.4-4.8l2.9,1.4c-2.2,5.5-5.2,9.4-8.9,11.7S512.5,420.9,507.5,420.9z"/>
		<path d="M568.8,400c0,2.7-0.4,5.4-1.3,8c-0.9,2.6-2.1,4.8-3.7,6.6c-1.8,2.1-3.9,3.6-6.2,4.6c-2.4,1-5,1.5-8,1.5
			c-2.4,0-4.8-0.5-7-1.4c-2.2-0.9-4.2-2.3-5.9-4c-1.7-1.7-3-3.9-4-6.4c-1-2.5-1.5-5.3-1.5-8.4c0-6,1.7-10.9,5.2-14.7
			c3.5-3.8,8.1-5.7,13.7-5.7c5.4,0,9.8,1.8,13.3,5.4C567,389.1,568.8,393.9,568.8,400z M560.7,400c0-1.9-0.2-4-0.6-6.2
			c-0.4-2.2-1-4-1.8-5.5c-0.8-1.6-1.9-2.9-3.3-3.9c-1.4-1-3-1.5-5-1.5c-2,0-3.7,0.5-5.1,1.5c-1.4,1-2.6,2.3-3.5,4.1
			c-0.8,1.6-1.4,3.4-1.8,5.4c-0.3,2-0.5,4-0.5,5.9c0,2.5,0.2,4.8,0.6,6.9c0.4,2.1,1,4,1.9,5.7c0.9,1.7,2,3,3.3,3.9
			c1.3,0.9,3,1.4,5,1.4c3.3,0,5.8-1.6,7.7-4.7S560.7,405.6,560.7,400z"/>
		<path d="M638,419.6h-18.7V417c0.6-0.1,1.2-0.1,1.8-0.2c0.6-0.1,1.1-0.2,1.6-0.3c0.7-0.2,1.3-0.6,1.6-1.2c0.4-0.6,0.5-1.3,0.5-2.3
			v-19.8c0-2.7-0.6-4.8-1.8-6.2c-1.2-1.5-2.8-2.2-4.6-2.2c-1.3,0-2.5,0.2-3.6,0.6c-1.1,0.4-2.1,0.9-3.1,1.6
			c-0.8,0.6-1.4,1.2-1.9,1.8c-0.5,0.7-0.9,1.2-1.1,1.7v22.2c0,0.9,0.2,1.7,0.5,2.2s0.8,1,1.6,1.3c0.6,0.2,1.1,0.4,1.6,0.5
			c0.5,0.1,1.1,0.2,1.9,0.3v2.6H596V417c0.6-0.1,1.2-0.1,1.7-0.2s1.1-0.2,1.5-0.3c0.7-0.2,1.3-0.6,1.6-1.2c0.4-0.6,0.5-1.3,0.5-2.3
			v-19.8c0-2.7-0.6-4.8-1.9-6.2s-2.8-2.2-4.6-2.2c-1.3,0-2.5,0.2-3.6,0.6c-1.1,0.4-2.1,1-3.1,1.7c-0.8,0.6-1.4,1.2-1.9,1.9
			c-0.5,0.7-0.9,1.3-1.2,1.6v22c0,0.9,0.2,1.6,0.5,2.2c0.4,0.6,0.9,1.1,1.6,1.4c0.5,0.3,1.1,0.5,1.7,0.6c0.6,0.1,1.2,0.2,1.9,0.3
			v2.6h-18.7V417c0.6-0.1,1.2-0.1,1.8-0.2s1.2-0.2,1.7-0.3c0.7-0.2,1.3-0.6,1.6-1.2c0.4-0.6,0.5-1.3,0.5-2.3v-23.8
			c0-0.8-0.2-1.6-0.6-2.2c-0.4-0.7-0.9-1.2-1.6-1.7c-0.5-0.3-1.1-0.6-1.8-0.8c-0.7-0.2-1.5-0.3-2.3-0.4v-2.6l12.9-0.9l0.5,0.5v5.5
			h0.3c0.6-0.6,1.4-1.4,2.4-2.3s1.8-1.6,2.6-2.1c0.9-0.6,2-1.1,3.4-1.6s2.8-0.6,4.4-0.6c2.5,0,4.6,0.7,6.4,2c1.8,1.3,3.1,3,3.9,4.8
			c0.9-0.9,1.8-1.7,2.5-2.4c0.7-0.7,1.7-1.4,2.8-2.2c1-0.7,2.1-1.2,3.5-1.6s2.8-0.6,4.5-0.6c3.2,0,5.8,1.1,7.7,3.2
			c1.9,2.1,2.8,5.4,2.8,9.8v19.5c0,0.9,0.2,1.7,0.5,2.2s0.8,1,1.6,1.3c0.6,0.2,1.2,0.4,1.8,0.5s1.2,0.2,2,0.3V419.6z"/>
		<path d="M675.7,385.7c1.5,1.8,2.7,3.9,3.6,6.3s1.3,5.1,1.3,8.2c0,3-0.5,5.8-1.5,8.3c-1,2.5-2.3,4.6-4,6.4
			c-1.7,1.8-3.7,3.2-5.8,4.1c-2.1,1-4.4,1.4-6.8,1.4c-2.3,0-4.2-0.3-5.7-0.8c-1.5-0.5-2.7-1.1-3.6-1.8h-0.3v11.6
			c0,0.9,0.2,1.7,0.5,2.3c0.4,0.6,0.9,1.1,1.7,1.4c0.6,0.2,1.5,0.5,2.7,0.7c1.2,0.2,2.1,0.3,2.9,0.4v2.6h-21.5v-2.6
			c0.8-0.1,1.6-0.1,2.3-0.2s1.4-0.2,2-0.4c0.8-0.3,1.3-0.7,1.6-1.4c0.3-0.6,0.5-1.4,0.5-2.3v-40.8c0-0.8-0.2-1.5-0.6-2.3
			s-0.9-1.3-1.5-1.8c-0.5-0.3-1.1-0.6-1.9-0.7s-1.6-0.3-2.4-0.3v-2.6l13.1-0.9l0.5,0.5v4.3l0.3,0.1c1.3-1.6,3-2.9,5-3.9
			c2-1,4-1.6,6-1.6c2.4,0,4.6,0.5,6.6,1.5C672.5,382.6,674.2,384,675.7,385.7z M669.3,413.3c1-1.6,1.8-3.5,2.3-5.6s0.7-4.5,0.7-7.1
			c0-1.9-0.2-3.9-0.6-5.9c-0.4-2-1.1-3.7-1.9-5.2c-0.9-1.5-2-2.7-3.5-3.7s-3.1-1.4-5.1-1.4c-1.9,0-3.6,0.4-4.9,1.3s-2.5,1.8-3.5,3
			v22.7c0.2,0.7,0.6,1.4,1.1,2.2c0.5,0.8,1.1,1.4,1.8,1.9c0.8,0.6,1.7,1.2,2.6,1.6s2.1,0.6,3.4,0.6c1.5,0,2.9-0.4,4.2-1.1
			C667.3,415.8,668.4,414.7,669.3,413.3z"/>
		<path d="M720.5,418.9c-1.2,0.4-2.3,0.8-3.2,1.1c-0.9,0.3-2,0.4-3.1,0.4c-2,0-3.6-0.5-4.8-1.4s-2-2.3-2.3-4.1h-0.2
			c-1.7,1.9-3.5,3.3-5.4,4.3s-4.3,1.5-7,1.5c-2.9,0-5.3-0.9-7.1-2.6c-1.9-1.8-2.8-4.1-2.8-6.9c0-1.5,0.2-2.8,0.6-4s1-2.2,1.9-3.2
			c0.6-0.8,1.5-1.5,2.6-2.1s2.1-1.1,3-1.5c1.2-0.4,3.5-1.3,7.1-2.5c3.6-1.2,6-2.1,7.2-2.8v-3.9c0-0.3-0.1-1-0.2-1.9
			c-0.1-1-0.4-1.9-0.9-2.7c-0.5-1-1.3-1.8-2.2-2.5c-0.9-0.7-2.3-1.1-4-1.1c-1.2,0-2.3,0.2-3.3,0.6c-1,0.4-1.7,0.8-2.2,1.3
			c0,0.5,0.1,1.3,0.4,2.3c0.2,1,0.4,1.9,0.4,2.8c0,0.9-0.4,1.7-1.2,2.5c-0.8,0.8-2,1.1-3.4,1.1c-1.3,0-2.3-0.5-2.9-1.4
			c-0.6-0.9-0.9-2-0.9-3.1c0-1.2,0.4-2.3,1.3-3.4s1.9-2.1,3.3-2.9c1.2-0.7,2.6-1.3,4.2-1.8c1.7-0.5,3.3-0.8,4.9-0.8
			c2.2,0,4.1,0.1,5.7,0.4c1.6,0.3,3.1,0.9,4.4,1.9c1.3,1,2.3,2.3,3,3.9c0.7,1.6,1,3.8,1,6.4c0,3.7,0,7-0.1,9.9
			c-0.1,2.9-0.1,6-0.1,9.4c0,1,0.2,1.8,0.5,2.4c0.4,0.6,0.9,1.1,1.6,1.5c0.4,0.2,1,0.4,1.9,0.4c0.8,0,1.7,0,2.6,0V418.9z
			 M706.9,398.3c-2.2,0.7-4.1,1.3-5.8,1.9c-1.7,0.6-3.2,1.4-4.6,2.3c-1.3,0.9-2.3,1.9-3.1,3.1c-0.8,1.2-1.1,2.6-1.1,4.3
			c0,2.2,0.6,3.7,1.7,4.8c1.1,1,2.6,1.5,4.3,1.5c1.8,0,3.5-0.4,4.9-1.3c1.4-0.9,2.6-2,3.5-3.2L706.9,398.3z"/>
		<path d="M764.8,419.6H746V417c0.6-0.1,1.3-0.1,2-0.2c0.7-0.1,1.3-0.2,1.8-0.3c0.7-0.2,1.3-0.6,1.6-1.2c0.4-0.6,0.5-1.3,0.5-2.3
			v-19.7c0-2.7-0.6-4.8-1.9-6.3c-1.3-1.5-2.9-2.2-4.7-2.2c-1.4,0-2.6,0.2-3.8,0.6c-1.1,0.4-2.2,1-3,1.6c-0.9,0.6-1.5,1.2-2,1.9
			c-0.5,0.7-0.9,1.2-1.1,1.7v22.1c0,0.9,0.2,1.6,0.5,2.2c0.4,0.6,0.9,1,1.6,1.3c0.5,0.3,1.1,0.5,1.8,0.6c0.6,0.1,1.3,0.2,2,0.3v2.6
			h-18.8V417c0.6-0.1,1.2-0.1,1.8-0.2c0.6-0.1,1.2-0.2,1.7-0.3c0.7-0.2,1.3-0.6,1.6-1.2c0.4-0.6,0.5-1.3,0.5-2.3v-23.7
			c0-0.9-0.2-1.7-0.6-2.4c-0.4-0.7-0.9-1.3-1.6-1.8c-0.5-0.3-1.1-0.5-1.8-0.7c-0.7-0.1-1.4-0.2-2.2-0.3v-2.6l12.8-0.9l0.5,0.5v5.4
			h0.2c0.6-0.6,1.4-1.4,2.3-2.2s1.8-1.6,2.6-2.1c1-0.6,2.1-1.1,3.4-1.6c1.3-0.4,2.8-0.6,4.5-0.6c3.7,0,6.4,1.1,8.2,3.4
			c1.8,2.3,2.7,5.4,2.7,9.2v20c0,0.9,0.2,1.6,0.5,2.2s0.8,1,1.6,1.3c0.6,0.3,1.2,0.4,1.6,0.5s1.1,0.2,1.9,0.2V419.6z"/>
		<path d="M764.6,432.1c0-1.3,0.4-2.4,1.1-3.2c0.7-0.8,1.6-1.2,2.7-1.2c0.8,0,1.5,0.2,2.1,0.5c0.6,0.3,1.1,0.7,1.6,1.2
			c0.4,0.4,0.8,0.9,1.2,1.6c0.4,0.7,0.8,1.2,1.1,1.7c1.3-0.7,2.8-2.5,4.7-5.5s3.1-5.5,3.9-7.8c-2.5-6.2-4.7-11.7-6.7-16.5
			c-2-4.9-4.1-9.9-6.3-15.1c-0.5-1.2-1.3-2.1-2.5-2.8s-2.3-1.1-3.5-1.3v-2.6h17.5v2.7c-0.8,0-1.7,0.2-2.8,0.5
			c-1.1,0.3-1.6,0.6-1.6,1c0,0.2,0.1,0.4,0.2,0.8s0.3,0.7,0.4,1.1c1,2.6,2.5,6.3,4.5,11.1s3.6,8.7,4.7,11.6c1.2-2.8,2.4-5.6,3.6-8.6
			c1.3-3,2.7-6.5,4.2-10.5c0.2-0.5,0.4-1.2,0.8-2c0.3-0.9,0.5-1.6,0.5-2.2c0-0.7-0.6-1.3-1.8-1.9c-1.2-0.6-2.3-0.9-3.4-1.1v-2.5
			h14.3v2.4c-0.8,0.1-1.8,0.6-3.1,1.3c-1.3,0.8-2.2,1.8-2.8,3.3c-3.1,7.2-5.8,13.7-8.2,19.6s-4.2,10.2-5.5,13
			c-1.6,3.6-3.1,6.5-4.4,8.5s-2.5,3.6-3.8,4.8c-1.2,1.1-2.3,1.8-3.3,2.2c-1,0.4-2,0.6-3,0.6c-2,0-3.6-0.5-4.8-1.4
			C765.1,434.4,764.6,433.3,764.6,432.1z"/>
	</g>
	<g>
		<path d="M133.4,454.8h-1.9c-0.4-1.4-1.1-2.8-2.3-4.4c-1.2-1.6-2.3-2.4-3.3-2.6c-0.5-0.1-1.2-0.1-1.9-0.2c-0.7,0-1.6-0.1-2.5-0.1
			h-6.2v14.8h4.2c1.3,0,2.3-0.1,3-0.4c0.7-0.3,1.3-0.7,1.8-1.2c0.3-0.4,0.7-1,0.9-1.8c0.3-0.8,0.5-1.7,0.6-2.6h1.9v14.5h-1.9
			c-0.1-0.8-0.2-1.6-0.5-2.6c-0.3-1-0.6-1.7-1-2.1c-0.5-0.6-1.2-1.1-2-1.3c-0.8-0.2-1.7-0.4-2.8-0.4h-4.2v12.7
			c0,0.6,0.1,1.1,0.3,1.5s0.6,0.8,1.2,1.1c0.3,0.1,0.8,0.3,1.7,0.4c0.9,0.2,1.5,0.3,2,0.3v1.8h-16v-1.8c0.5,0,1.2-0.1,2.1-0.2
			c0.9-0.1,1.4-0.2,1.7-0.3c0.5-0.2,0.9-0.6,1.1-1c0.2-0.4,0.4-1,0.4-1.6v-26.6c0-0.6-0.1-1.1-0.3-1.5c-0.2-0.4-0.6-0.8-1.2-1.1
			c-0.5-0.2-1.1-0.4-1.9-0.6s-1.4-0.3-1.9-0.3v-1.8h28.9V454.8z"/>
		<path d="M162.1,481.9l-8.4,0.6l-0.4-0.4v-3.2h-0.2c-0.4,0.4-0.9,0.9-1.4,1.4s-1.1,0.9-1.8,1.3c-0.8,0.5-1.5,0.8-2.3,1.1
			s-1.8,0.4-3.1,0.4c-2.3,0-4-0.7-5.2-2.2c-1.2-1.5-1.8-3.6-1.8-6.4v-12.2c0-0.6-0.1-1.1-0.4-1.6c-0.2-0.4-0.6-0.8-1-1.1
			c-0.3-0.2-0.7-0.4-1.2-0.5c-0.5-0.1-1-0.2-1.5-0.2v-1.7l8.5-0.6l0.4,0.4v17.8c0,1.9,0.4,3.2,1.2,4.2c0.8,0.9,1.8,1.4,3,1.4
			c1,0,1.8-0.1,2.5-0.4s1.4-0.6,1.9-1c0.5-0.4,0.9-0.7,1.2-1.2c0.4-0.4,0.6-0.8,0.8-1.1V462c0-0.6-0.1-1.1-0.4-1.5
			c-0.2-0.4-0.6-0.8-1-1.1c-0.3-0.2-0.8-0.3-1.4-0.4s-1.3-0.1-2.1-0.1v-1.7l9.3-0.6l0.4,0.4v20.3c0,0.6,0.1,1.1,0.4,1.5
			c0.2,0.4,0.6,0.8,1,1.1c0.3,0.2,0.7,0.3,1.1,0.4c0.4,0.1,0.9,0.1,1.4,0.1V481.9z"/>
		<path d="M192.2,482.4h-12.5v-1.7c0.4,0,0.8-0.1,1.3-0.1c0.5,0,0.9-0.1,1.2-0.2c0.5-0.2,0.8-0.4,1.1-0.8c0.2-0.4,0.4-0.9,0.4-1.5
			v-13.2c0-1.8-0.4-3.2-1.3-4.2s-1.9-1.5-3.1-1.5c-0.9,0-1.8,0.1-2.5,0.4c-0.8,0.3-1.4,0.6-2,1.1c-0.6,0.4-1,0.8-1.4,1.3
			c-0.3,0.5-0.6,0.8-0.7,1.1v14.7c0,0.6,0.1,1.1,0.4,1.5c0.2,0.4,0.6,0.7,1.1,0.9c0.4,0.2,0.8,0.3,1.2,0.4c0.4,0.1,0.9,0.1,1.3,0.2
			v1.7h-12.5v-1.7c0.4,0,0.8-0.1,1.2-0.1c0.4,0,0.8-0.1,1.1-0.2c0.5-0.2,0.8-0.4,1.1-0.8c0.2-0.4,0.4-0.9,0.4-1.5v-15.8
			c0-0.6-0.1-1.1-0.4-1.6c-0.3-0.5-0.6-0.9-1.1-1.2c-0.3-0.2-0.7-0.4-1.2-0.5c-0.5-0.1-0.9-0.2-1.5-0.2v-1.7l8.5-0.6l0.4,0.4v3.6
			h0.1c0.4-0.4,0.9-0.9,1.6-1.5s1.2-1.1,1.8-1.4c0.6-0.4,1.4-0.8,2.3-1c0.9-0.3,1.9-0.4,3-0.4c2.5,0,4.3,0.8,5.5,2.3
			s1.8,3.6,1.8,6.1v13.3c0,0.6,0.1,1.1,0.3,1.5c0.2,0.4,0.6,0.7,1.1,0.9c0.4,0.2,0.8,0.3,1.1,0.4c0.3,0.1,0.7,0.1,1.3,0.2V482.4z"/>
		<path d="M216.8,476.4c-1.1,2-2.5,3.7-4.3,4.9c-1.8,1.2-3.9,1.8-6.2,1.8c-2.1,0-3.9-0.4-5.4-1.1c-1.5-0.7-2.8-1.7-3.8-3
			s-1.8-2.7-2.2-4.4c-0.5-1.7-0.7-3.4-0.7-5.3c0-1.7,0.3-3.3,0.8-4.9c0.5-1.6,1.3-3,2.3-4.3c1-1.2,2.2-2.2,3.7-3
			c1.5-0.8,3.1-1.1,4.9-1.1c1.9,0,3.5,0.3,4.8,0.9c1.3,0.6,2.4,1.4,3.2,2.4c0.8,1,1.4,2.1,1.8,3.4c0.4,1.3,0.6,2.7,0.6,4.3v1.7h-17
			c0,1.7,0.2,3.2,0.5,4.6c0.3,1.4,0.8,2.6,1.5,3.6c0.7,1,1.6,1.8,2.6,2.4s2.4,0.9,3.9,0.9c1.5,0,2.9-0.4,4-1.1
			c1.1-0.7,2.2-2,3.2-3.9L216.8,476.4z M211,466.6c0-1-0.1-2-0.2-3.1c-0.2-1.1-0.4-2-0.8-2.8c-0.4-0.8-0.9-1.4-1.6-1.9
			c-0.7-0.5-1.6-0.8-2.7-0.8c-1.8,0-3.3,0.8-4.5,2.3c-1.2,1.5-1.9,3.6-2,6.3H211z"/>
		<path d="M238,460.1c0,0.9-0.2,1.7-0.6,2.3c-0.4,0.7-1.1,1-2,1c-1,0-1.7-0.2-2.2-0.8c-0.5-0.5-0.8-1.1-0.8-1.7c0-0.4,0-0.7,0.1-1
			c0.1-0.3,0.1-0.6,0.2-0.9c-0.8,0-1.8,0.3-2.9,1c-1.1,0.7-2,1.6-2.8,2.8v14.9c0,0.6,0.1,1.1,0.4,1.5c0.2,0.4,0.6,0.7,1.1,0.9
			c0.4,0.2,1,0.3,1.7,0.4c0.7,0.1,1.3,0.1,1.8,0.2v1.7h-13.5v-1.7c0.4,0,0.8-0.1,1.2-0.1c0.4,0,0.8-0.1,1.1-0.2
			c0.5-0.2,0.8-0.4,1.1-0.8c0.2-0.4,0.4-0.9,0.4-1.5v-15.8c0-0.5-0.1-1.1-0.4-1.6c-0.3-0.5-0.6-0.9-1.1-1.2
			c-0.3-0.2-0.7-0.4-1.2-0.5c-0.5-0.1-0.9-0.2-1.5-0.2v-1.7l8.5-0.6l0.4,0.4v3.6h0.1c1.1-1.4,2.3-2.5,3.6-3.2
			c1.3-0.7,2.5-1.1,3.6-1.1s2,0.4,2.7,1.1C237.7,458,238,458.9,238,460.1z"/>
		<path d="M263.1,481.9c-0.8,0.3-1.5,0.5-2.1,0.7c-0.6,0.2-1.3,0.3-2.1,0.3c-1.4,0-2.4-0.3-3.2-0.9c-0.8-0.6-1.3-1.6-1.5-2.8h-0.2
			c-1.1,1.2-2.3,2.2-3.6,2.9c-1.3,0.7-2.8,1-4.7,1c-1.9,0-3.5-0.6-4.7-1.8c-1.2-1.2-1.9-2.7-1.9-4.6c0-1,0.1-1.9,0.4-2.6
			c0.3-0.8,0.7-1.5,1.2-2.1c0.4-0.5,1-1,1.7-1.4c0.7-0.4,1.4-0.7,2-1c0.8-0.3,2.4-0.8,4.7-1.6s4-1.4,4.8-1.9v-2.6
			c0-0.2,0-0.7-0.1-1.3c-0.1-0.6-0.3-1.2-0.6-1.8c-0.3-0.6-0.8-1.2-1.5-1.7c-0.6-0.5-1.5-0.7-2.7-0.7c-0.8,0-1.5,0.1-2.2,0.4
			c-0.7,0.3-1.2,0.5-1.4,0.8c0,0.3,0.1,0.9,0.2,1.5c0.2,0.7,0.2,1.3,0.2,1.9c0,0.6-0.3,1.2-0.8,1.7c-0.5,0.5-1.3,0.8-2.3,0.8
			c-0.9,0-1.5-0.3-1.9-0.9c-0.4-0.6-0.6-1.3-0.6-2.1c0-0.8,0.3-1.6,0.8-2.3c0.6-0.7,1.3-1.4,2.2-1.9c0.8-0.5,1.7-0.9,2.8-1.2
			c1.1-0.3,2.2-0.5,3.2-0.5c1.5,0,2.7,0.1,3.8,0.3c1.1,0.2,2.1,0.6,2.9,1.3c0.9,0.6,1.6,1.5,2,2.6c0.5,1.1,0.7,2.5,0.7,4.2
			c0,2.5,0,4.7-0.1,6.6c-0.1,1.9-0.1,4-0.1,6.3c0,0.7,0.1,1.2,0.4,1.6c0.2,0.4,0.6,0.7,1.1,1c0.3,0.2,0.7,0.2,1.2,0.3
			c0.6,0,1.1,0,1.7,0V481.9z M254,468.2c-1.5,0.4-2.8,0.9-3.9,1.3c-1.1,0.4-2.1,0.9-3.1,1.6c-0.9,0.6-1.5,1.3-2.1,2.1
			s-0.8,1.8-0.8,2.9c0,1.4,0.4,2.5,1.1,3.2s1.7,1,2.9,1c1.2,0,2.3-0.3,3.2-0.9s1.7-1.3,2.4-2.1L254,468.2z"/>
		<path d="M276.3,482.4h-12.5v-1.7c0.4,0,0.8-0.1,1.3-0.1c0.4,0,0.8-0.1,1.1-0.2c0.5-0.2,0.8-0.4,1.1-0.8s0.4-0.9,0.4-1.5v-29.7
			c0-0.6-0.1-1.2-0.4-1.8c-0.3-0.5-0.6-1-1.1-1.3c-0.3-0.2-0.9-0.4-1.7-0.6c-0.8-0.2-1.5-0.3-2-0.3v-1.7l9.6-0.6l0.4,0.4v35.1
			c0,0.6,0.1,1.1,0.3,1.5c0.2,0.4,0.6,0.7,1.1,0.9c0.4,0.2,0.8,0.3,1.1,0.4c0.4,0.1,0.8,0.1,1.3,0.2V482.4z"/>
		<path d="M328.5,482.4h-15.3v-1.8c0.4,0,1-0.1,1.8-0.2c0.8-0.1,1.3-0.2,1.6-0.3c0.5-0.2,0.9-0.5,1.1-0.9c0.2-0.4,0.4-1,0.4-1.6
			v-13.1h-17.3v12.8c0,0.6,0.1,1.1,0.3,1.5c0.2,0.4,0.6,0.8,1.2,1.1c0.3,0.2,0.8,0.3,1.6,0.5c0.8,0.2,1.3,0.2,1.8,0.3v1.8h-15.3
			v-1.8c0.4,0,1-0.1,1.8-0.2c0.8-0.1,1.3-0.2,1.6-0.3c0.5-0.2,0.9-0.5,1.1-0.9c0.2-0.4,0.4-1,0.4-1.6v-26.6c0-0.6-0.1-1.1-0.3-1.5
			c-0.2-0.5-0.6-0.8-1.2-1.1c-0.5-0.2-1-0.4-1.7-0.6c-0.7-0.2-1.2-0.3-1.7-0.3v-1.8h15.3v1.8c-0.5,0-1.1,0.1-1.8,0.2
			c-0.7,0.1-1.2,0.3-1.6,0.4c-0.6,0.2-1,0.6-1.2,1c-0.2,0.5-0.3,1-0.3,1.6v11.4h17.3v-11.2c0-0.6-0.1-1.1-0.3-1.5
			c-0.2-0.5-0.6-0.8-1.2-1.1c-0.5-0.2-1-0.4-1.7-0.6c-0.7-0.2-1.2-0.3-1.7-0.3v-1.8h15.3v1.8c-0.5,0-1.1,0.1-1.8,0.2
			c-0.7,0.1-1.2,0.3-1.6,0.4c-0.6,0.2-1,0.6-1.2,1c-0.2,0.5-0.3,1-0.3,1.6v26.6c0,0.6,0.1,1.1,0.3,1.5c0.2,0.4,0.6,0.8,1.2,1.1
			c0.3,0.2,0.8,0.3,1.6,0.5c0.8,0.2,1.3,0.2,1.8,0.3V482.4z"/>
		<path d="M356.7,469.3c0,1.8-0.3,3.6-0.9,5.3c-0.6,1.7-1.4,3.2-2.4,4.4c-1.2,1.4-2.6,2.4-4.2,3.1c-1.6,0.7-3.3,1-5.3,1
			c-1.6,0-3.2-0.3-4.7-0.9c-1.5-0.6-2.8-1.5-3.9-2.7c-1.1-1.2-2-2.6-2.7-4.2c-0.7-1.7-1-3.5-1-5.6c0-4,1.2-7.3,3.5-9.8
			c2.3-2.5,5.4-3.8,9.2-3.8c3.6,0,6.5,1.2,8.9,3.6C355.5,462.1,356.7,465.3,356.7,469.3z M351.3,469.4c0-1.3-0.1-2.7-0.4-4.1
			c-0.3-1.4-0.7-2.7-1.2-3.7c-0.6-1.1-1.3-1.9-2.2-2.6c-0.9-0.6-2-1-3.3-1c-1.3,0-2.5,0.3-3.4,1c-0.9,0.7-1.7,1.6-2.3,2.7
			c-0.6,1.1-0.9,2.3-1.2,3.6c-0.2,1.4-0.3,2.7-0.3,3.9c0,1.7,0.1,3.2,0.4,4.6c0.3,1.4,0.7,2.7,1.3,3.8c0.6,1.1,1.3,2,2.2,2.6
			s2,0.9,3.3,0.9c2.2,0,3.9-1,5.1-3.1C350.7,476,351.3,473.1,351.3,469.4z"/>
		<path d="M402.8,482.4h-12.5v-1.7c0.4,0,0.8-0.1,1.2-0.1c0.4,0,0.8-0.1,1.1-0.2c0.5-0.2,0.8-0.4,1.1-0.8c0.2-0.4,0.4-0.9,0.4-1.5
			v-13.2c0-1.8-0.4-3.2-1.2-4.2c-0.8-1-1.8-1.5-3.1-1.5c-0.8,0-1.6,0.1-2.4,0.4c-0.7,0.3-1.4,0.6-2.1,1.1c-0.5,0.4-0.9,0.8-1.3,1.2
			c-0.3,0.4-0.6,0.8-0.8,1.1v14.8c0,0.6,0.1,1.1,0.3,1.5c0.2,0.4,0.6,0.7,1.1,0.9c0.4,0.2,0.8,0.3,1.1,0.4c0.3,0.1,0.7,0.1,1.3,0.2
			v1.7h-12.2v-1.7c0.4,0,0.8-0.1,1.2-0.1c0.4,0,0.7-0.1,1-0.2c0.5-0.2,0.8-0.4,1.1-0.8c0.2-0.4,0.4-0.9,0.4-1.5v-13.2
			c0-1.8-0.4-3.2-1.2-4.2s-1.9-1.5-3.1-1.5c-0.9,0-1.6,0.1-2.4,0.4s-1.4,0.6-2.1,1.1c-0.5,0.4-0.9,0.8-1.3,1.3
			c-0.3,0.5-0.6,0.8-0.8,1.1v14.7c0,0.6,0.1,1.1,0.4,1.5c0.2,0.4,0.6,0.7,1.1,0.9c0.4,0.2,0.7,0.3,1.1,0.4c0.4,0.1,0.8,0.1,1.3,0.2
			v1.7H359v-1.7c0.4,0,0.8-0.1,1.2-0.1c0.4,0,0.8-0.1,1.1-0.2c0.5-0.2,0.8-0.4,1.1-0.8c0.2-0.4,0.4-0.9,0.4-1.5v-15.9
			c0-0.6-0.1-1-0.4-1.5c-0.3-0.4-0.6-0.8-1.1-1.1c-0.3-0.2-0.7-0.4-1.2-0.5c-0.5-0.1-1-0.2-1.5-0.2v-1.7l8.6-0.6l0.4,0.4v3.7h0.2
			c0.4-0.4,1-0.9,1.6-1.5c0.6-0.6,1.2-1.1,1.7-1.4c0.6-0.4,1.4-0.8,2.3-1c0.9-0.3,1.9-0.4,2.9-0.4c1.7,0,3.1,0.4,4.3,1.3
			c1.2,0.9,2.1,2,2.6,3.2c0.6-0.6,1.2-1.1,1.6-1.6c0.5-0.5,1.1-0.9,1.9-1.5c0.7-0.4,1.4-0.8,2.3-1.1c0.9-0.3,1.9-0.4,3-0.4
			c2.2,0,3.9,0.7,5.1,2.1c1.3,1.4,1.9,3.6,1.9,6.5v13c0,0.6,0.1,1.1,0.3,1.5c0.2,0.4,0.6,0.7,1.1,0.9c0.4,0.2,0.8,0.3,1.2,0.4
			c0.4,0.1,0.8,0.1,1.3,0.2V482.4z"/>
		<path d="M427.3,476.4c-1.1,2-2.5,3.7-4.3,4.9c-1.8,1.2-3.9,1.8-6.2,1.8c-2.1,0-3.9-0.4-5.4-1.1c-1.5-0.7-2.8-1.7-3.8-3
			s-1.8-2.7-2.2-4.4s-0.7-3.4-0.7-5.3c0-1.7,0.3-3.3,0.8-4.9c0.5-1.6,1.3-3,2.3-4.3c1-1.2,2.2-2.2,3.7-3c1.5-0.8,3.1-1.1,4.9-1.1
			c1.9,0,3.5,0.3,4.8,0.9c1.3,0.6,2.4,1.4,3.2,2.4c0.8,1,1.4,2.1,1.8,3.4c0.4,1.3,0.6,2.7,0.6,4.3v1.7h-17c0,1.7,0.2,3.2,0.5,4.6
			c0.3,1.4,0.8,2.6,1.5,3.6c0.7,1,1.6,1.8,2.6,2.4c1.1,0.6,2.4,0.9,3.9,0.9c1.5,0,2.9-0.4,4-1.1c1.1-0.7,2.2-2,3.2-3.9L427.3,476.4z
			 M421.5,466.6c0-1-0.1-2-0.2-3.1c-0.2-1.1-0.4-2-0.8-2.8c-0.4-0.8-0.9-1.4-1.6-1.9s-1.6-0.8-2.7-0.8c-1.8,0-3.3,0.8-4.5,2.3
			s-1.9,3.6-2,6.3H421.5z"/>
		<path d="M514.8,483.3c-2.2,0-4.3-0.4-6.3-1.3c-2-0.9-3.8-2.1-5.4-3.7c-1.5-1.6-2.8-3.6-3.7-6c-0.9-2.3-1.4-5-1.4-7.9
			s0.4-5.6,1.3-8c0.9-2.4,2.1-4.5,3.7-6.2c1.6-1.7,3.4-3,5.6-4c2.1-0.9,4.4-1.4,6.9-1.4c1.8,0,3.5,0.2,4.9,0.7
			c1.5,0.5,2.9,1.1,4.2,1.9l1.1-1.8h2.1l0.2,13.1h-2.1c-0.3-1.3-0.7-2.7-1.2-4.2c-0.6-1.5-1.2-2.8-1.9-3.8c-0.8-1.2-1.8-2.1-3-2.8
			c-1.1-0.7-2.4-1-3.9-1c-1.7,0-3.2,0.4-4.7,1.1c-1.4,0.7-2.7,1.8-3.7,3.3c-1,1.4-1.8,3.2-2.4,5.4c-0.6,2.2-0.9,4.6-0.9,7.2
			c0,2.4,0.3,4.5,0.9,6.5s1.4,3.7,2.6,5.2c1.1,1.5,2.4,2.6,3.9,3.5c1.5,0.8,3.2,1.2,5.1,1.2c1.4,0,2.7-0.2,3.9-0.7s2.2-1,3.1-1.8
			c0.9-0.8,1.6-1.6,2.3-2.6c0.7-1,1.2-2,1.6-3.2l1.9,0.9c-1.5,3.7-3.5,6.3-5.9,7.8S518.1,483.3,514.8,483.3z"/>
		<path d="M550.3,460.1c0,0.9-0.2,1.7-0.6,2.3s-1.1,1-2,1c-1,0-1.7-0.2-2.2-0.8c-0.5-0.5-0.8-1.1-0.8-1.7c0-0.4,0-0.7,0.1-1
			s0.1-0.6,0.2-0.9c-0.8,0-1.8,0.3-2.9,1c-1.1,0.7-2,1.6-2.8,2.8v14.9c0,0.6,0.1,1.1,0.4,1.5c0.2,0.4,0.6,0.7,1.1,0.9
			c0.4,0.2,1,0.3,1.7,0.4c0.7,0.1,1.3,0.1,1.8,0.2v1.7h-13.5v-1.7c0.4,0,0.8-0.1,1.2-0.1c0.4,0,0.8-0.1,1.1-0.2
			c0.5-0.2,0.8-0.4,1.1-0.8c0.2-0.4,0.4-0.9,0.4-1.5v-15.8c0-0.5-0.1-1.1-0.4-1.6s-0.6-0.9-1.1-1.2c-0.3-0.2-0.7-0.4-1.2-0.5
			s-0.9-0.2-1.5-0.2v-1.7l8.5-0.6l0.4,0.4v3.6h0.1c1.1-1.4,2.3-2.5,3.6-3.2c1.3-0.7,2.5-1.1,3.6-1.1c1.1,0,2,0.4,2.7,1.1
			C549.9,458,550.3,458.9,550.3,460.1z"/>
		<path d="M573.9,476.4c-1.1,2-2.5,3.7-4.3,4.9c-1.8,1.2-3.9,1.8-6.2,1.8c-2.1,0-3.9-0.4-5.4-1.1c-1.5-0.7-2.8-1.7-3.8-3
			s-1.8-2.7-2.2-4.4s-0.7-3.4-0.7-5.3c0-1.7,0.3-3.3,0.8-4.9c0.5-1.6,1.3-3,2.3-4.3c1-1.2,2.2-2.2,3.7-3c1.5-0.8,3.1-1.1,4.9-1.1
			c1.9,0,3.5,0.3,4.8,0.9c1.3,0.6,2.4,1.4,3.2,2.4c0.8,1,1.4,2.1,1.8,3.4c0.4,1.3,0.6,2.7,0.6,4.3v1.7h-17c0,1.7,0.2,3.2,0.5,4.6
			c0.3,1.4,0.8,2.6,1.5,3.6c0.7,1,1.6,1.8,2.6,2.4c1.1,0.6,2.4,0.9,3.9,0.9c1.5,0,2.9-0.4,4-1.1c1.1-0.7,2.2-2,3.2-3.9L573.9,476.4z
			 M568.1,466.6c0-1-0.1-2-0.2-3.1c-0.2-1.1-0.4-2-0.8-2.8c-0.4-0.8-0.9-1.4-1.6-1.9s-1.6-0.8-2.7-0.8c-1.8,0-3.3,0.8-4.5,2.3
			s-1.9,3.6-2,6.3H568.1z"/>
		<path d="M619.3,482.4h-12.5v-1.7c0.4,0,0.8-0.1,1.2-0.1c0.4,0,0.8-0.1,1.1-0.2c0.5-0.2,0.8-0.4,1.1-0.8c0.2-0.4,0.4-0.9,0.4-1.5
			v-13.2c0-1.8-0.4-3.2-1.2-4.2c-0.8-1-1.8-1.5-3.1-1.5c-0.8,0-1.6,0.1-2.4,0.4c-0.7,0.3-1.4,0.6-2.1,1.1c-0.5,0.4-0.9,0.8-1.3,1.2
			c-0.3,0.4-0.6,0.8-0.8,1.1v14.8c0,0.6,0.1,1.1,0.3,1.5c0.2,0.4,0.6,0.7,1.1,0.9c0.4,0.2,0.8,0.3,1.1,0.4c0.3,0.1,0.7,0.1,1.3,0.2
			v1.7h-12.2v-1.7c0.4,0,0.8-0.1,1.2-0.1c0.4,0,0.7-0.1,1-0.2c0.5-0.2,0.8-0.4,1.1-0.8c0.2-0.4,0.4-0.9,0.4-1.5v-13.2
			c0-1.8-0.4-3.2-1.2-4.2s-1.9-1.5-3.1-1.5c-0.9,0-1.6,0.1-2.4,0.4s-1.4,0.6-2.1,1.1c-0.5,0.4-0.9,0.8-1.3,1.3
			c-0.3,0.5-0.6,0.8-0.8,1.1v14.7c0,0.6,0.1,1.1,0.4,1.5c0.2,0.4,0.6,0.7,1.1,0.9c0.4,0.2,0.7,0.3,1.1,0.4c0.4,0.1,0.8,0.1,1.3,0.2
			v1.7h-12.4v-1.7c0.4,0,0.8-0.1,1.2-0.1c0.4,0,0.8-0.1,1.1-0.2c0.5-0.2,0.8-0.4,1.1-0.8c0.2-0.4,0.4-0.9,0.4-1.5v-15.9
			c0-0.6-0.1-1-0.4-1.5c-0.3-0.4-0.6-0.8-1.1-1.1c-0.3-0.2-0.7-0.4-1.2-0.5c-0.5-0.1-1-0.2-1.5-0.2v-1.7l8.6-0.6l0.4,0.4v3.7h0.2
			c0.4-0.4,1-0.9,1.6-1.5c0.6-0.6,1.2-1.1,1.7-1.4c0.6-0.4,1.4-0.8,2.3-1c0.9-0.3,1.9-0.4,2.9-0.4c1.7,0,3.1,0.4,4.3,1.3
			c1.2,0.9,2.1,2,2.6,3.2c0.6-0.6,1.2-1.1,1.6-1.6c0.5-0.5,1.1-0.9,1.9-1.5c0.7-0.4,1.4-0.8,2.3-1.1c0.9-0.3,1.9-0.4,3-0.4
			c2.2,0,3.9,0.7,5.1,2.1c1.3,1.4,1.9,3.6,1.9,6.5v13c0,0.6,0.1,1.1,0.3,1.5c0.2,0.4,0.6,0.7,1.1,0.9c0.4,0.2,0.8,0.3,1.2,0.4
			c0.4,0.1,0.8,0.1,1.3,0.2V482.4z"/>
		<path d="M645.3,481.9c-0.8,0.3-1.5,0.5-2.1,0.7c-0.6,0.2-1.3,0.3-2.1,0.3c-1.3,0-2.4-0.3-3.2-0.9c-0.8-0.6-1.3-1.6-1.5-2.8h-0.2
			c-1.1,1.2-2.3,2.2-3.6,2.9c-1.3,0.7-2.8,1-4.7,1c-1.9,0-3.5-0.6-4.7-1.8s-1.9-2.7-1.9-4.6c0-1,0.1-1.9,0.4-2.6
			c0.3-0.8,0.7-1.5,1.2-2.1c0.4-0.5,1-1,1.7-1.4c0.7-0.4,1.4-0.7,2-1c0.8-0.3,2.4-0.8,4.7-1.6s4-1.4,4.8-1.9v-2.6
			c0-0.2,0-0.7-0.1-1.3c-0.1-0.6-0.3-1.2-0.6-1.8c-0.3-0.6-0.8-1.2-1.5-1.7c-0.6-0.5-1.5-0.7-2.7-0.7c-0.8,0-1.5,0.1-2.2,0.4
			c-0.7,0.3-1.2,0.5-1.4,0.8c0,0.3,0.1,0.9,0.2,1.5c0.2,0.7,0.2,1.3,0.2,1.9c0,0.6-0.3,1.2-0.8,1.7c-0.5,0.5-1.3,0.8-2.3,0.8
			c-0.9,0-1.5-0.3-1.9-0.9c-0.4-0.6-0.6-1.3-0.6-2.1c0-0.8,0.3-1.6,0.8-2.3c0.6-0.7,1.3-1.4,2.2-1.9c0.8-0.5,1.7-0.9,2.8-1.2
			c1.1-0.3,2.2-0.5,3.2-0.5c1.5,0,2.7,0.1,3.8,0.3c1.1,0.2,2.1,0.6,2.9,1.3c0.9,0.6,1.6,1.5,2,2.6c0.5,1.1,0.7,2.5,0.7,4.2
			c0,2.5,0,4.7-0.1,6.6c-0.1,1.9-0.1,4-0.1,6.3c0,0.7,0.1,1.2,0.4,1.6c0.2,0.4,0.6,0.7,1.1,1c0.3,0.2,0.7,0.2,1.2,0.3
			c0.6,0,1.1,0,1.7,0V481.9z M636.2,468.2c-1.5,0.4-2.8,0.9-3.9,1.3c-1.1,0.4-2.1,0.9-3.1,1.6c-0.9,0.6-1.5,1.3-2.1,2.1
			s-0.8,1.8-0.8,2.9c0,1.4,0.4,2.5,1.1,3.2c0.8,0.7,1.7,1,2.9,1c1.2,0,2.3-0.3,3.2-0.9s1.7-1.3,2.4-2.1L636.2,468.2z"/>
		<path d="M662.3,481.3c-1.1,0.5-2.2,0.9-3.2,1.2c-1,0.3-2.2,0.5-3.7,0.5c-2.1,0-3.7-0.5-4.5-1.6c-0.9-1.1-1.3-2.6-1.3-4.6v-17.3
			h-4.6v-2.5h4.7v-8h4.7v8h7.3v2.5h-7.3v14.3c0,1.1,0,2,0.1,2.7s0.3,1.3,0.6,1.9c0.3,0.5,0.7,0.9,1.2,1.1c0.6,0.3,1.3,0.4,2.2,0.4
			c0.4,0,1.1,0,1.9-0.1c0.8-0.1,1.4-0.2,1.8-0.3V481.3z"/>
		<path d="M688.5,469.3c0,1.8-0.3,3.6-0.9,5.3c-0.6,1.7-1.4,3.2-2.4,4.4c-1.2,1.4-2.6,2.4-4.2,3.1c-1.6,0.7-3.3,1-5.3,1
			c-1.6,0-3.2-0.3-4.7-0.9s-2.8-1.5-3.9-2.7c-1.1-1.2-2-2.6-2.7-4.2s-1-3.5-1-5.6c0-4,1.2-7.3,3.5-9.8c2.3-2.5,5.4-3.8,9.2-3.8
			c3.6,0,6.5,1.2,8.9,3.6C687.3,462.1,688.5,465.3,688.5,469.3z M683.1,469.4c0-1.3-0.1-2.7-0.4-4.1c-0.3-1.4-0.6-2.7-1.2-3.7
			c-0.6-1.1-1.3-1.9-2.2-2.6c-0.9-0.6-2-1-3.3-1c-1.3,0-2.5,0.3-3.4,1c-0.9,0.7-1.7,1.6-2.3,2.7c-0.6,1.1-0.9,2.3-1.2,3.6
			c-0.2,1.4-0.3,2.7-0.3,3.9c0,1.7,0.1,3.2,0.4,4.6c0.3,1.4,0.7,2.7,1.3,3.8c0.6,1.1,1.3,2,2.2,2.6s2,0.9,3.3,0.9
			c2.2,0,3.9-1,5.2-3.1C682.5,476,683.1,473.1,683.1,469.4z"/>
		<path d="M710.4,460.1c0,0.9-0.2,1.7-0.6,2.3s-1.1,1-2,1c-1,0-1.7-0.2-2.2-0.8c-0.5-0.5-0.8-1.1-0.8-1.7c0-0.4,0-0.7,0.1-1
			s0.1-0.6,0.2-0.9c-0.8,0-1.8,0.3-2.9,1c-1.1,0.7-2,1.6-2.8,2.8v14.9c0,0.6,0.1,1.1,0.4,1.5c0.2,0.4,0.6,0.7,1.1,0.9
			c0.4,0.2,1,0.3,1.7,0.4c0.7,0.1,1.3,0.1,1.8,0.2v1.7h-13.5v-1.7c0.4,0,0.8-0.1,1.2-0.1c0.4,0,0.8-0.1,1.1-0.2
			c0.5-0.2,0.8-0.4,1.1-0.8c0.2-0.4,0.4-0.9,0.4-1.5v-15.8c0-0.5-0.1-1.1-0.4-1.6s-0.6-0.9-1.1-1.2c-0.3-0.2-0.7-0.4-1.2-0.5
			s-0.9-0.2-1.5-0.2v-1.7l8.5-0.6l0.4,0.4v3.6h0.1c1.1-1.4,2.3-2.5,3.6-3.2c1.3-0.7,2.5-1.1,3.6-1.1c1.1,0,2,0.4,2.7,1.1
			C710.1,458,710.4,458.9,710.4,460.1z"/>
		<path d="M709.3,490.8c0-0.9,0.2-1.6,0.7-2.1c0.5-0.5,1.1-0.8,1.8-0.8c0.6,0,1,0.1,1.4,0.3c0.4,0.2,0.8,0.5,1.1,0.8
			c0.3,0.3,0.5,0.6,0.8,1.1c0.3,0.4,0.5,0.8,0.7,1.1c0.9-0.5,1.9-1.7,3.1-3.7c1.2-2,2.1-3.7,2.6-5.2c-1.6-4.1-3.1-7.8-4.5-11
			c-1.3-3.2-2.7-6.6-4.2-10c-0.3-0.8-0.9-1.4-1.7-1.9c-0.8-0.4-1.6-0.7-2.3-0.8v-1.7h11.7v1.8c-0.5,0-1.1,0.1-1.9,0.3
			c-0.7,0.2-1.1,0.4-1.1,0.7c0,0.1,0,0.3,0.1,0.5c0.1,0.2,0.2,0.5,0.3,0.8c0.7,1.7,1.7,4.2,3,7.4c1.3,3.2,2.4,5.8,3.1,7.7
			c0.8-1.9,1.6-3.8,2.4-5.7c0.8-2,1.8-4.3,2.8-7c0.1-0.3,0.3-0.8,0.5-1.4c0.2-0.6,0.3-1.1,0.3-1.5c0-0.4-0.4-0.9-1.2-1.3
			c-0.8-0.4-1.5-0.6-2.2-0.7v-1.7h9.5v1.6c-0.5,0.1-1.2,0.4-2.1,0.9c-0.8,0.5-1.5,1.2-1.9,2.2c-2.1,4.8-3.9,9.1-5.5,13.1
			c-1.6,3.9-2.8,6.8-3.6,8.7c-1.1,2.4-2.1,4.3-2.9,5.7c-0.9,1.4-1.7,2.4-2.5,3.2c-0.8,0.7-1.5,1.2-2.2,1.5s-1.3,0.4-2,0.4
			c-1.4,0-2.4-0.3-3.2-1C709.7,492.3,709.3,491.6,709.3,490.8z"/>
	</g>
	<g>
		<path d="M453.6,473.3c-0.5,0.2-0.9,0.3-1.3,0.4c-0.4,0.1-0.8,0.2-1.3,0.2c-0.8,0-1.5-0.2-2-0.6s-0.8-0.9-0.9-1.7h-0.1
			c-0.7,0.8-1.4,1.3-2.2,1.7c-0.8,0.4-1.7,0.6-2.8,0.6c-1.2,0-2.1-0.4-2.9-1.1c-0.7-0.7-1.1-1.6-1.1-2.8c0-0.6,0.1-1.1,0.3-1.6
			c0.2-0.5,0.4-0.9,0.8-1.3c0.3-0.3,0.6-0.6,1-0.8c0.4-0.2,0.8-0.4,1.2-0.6c0.5-0.2,1.4-0.5,2.9-1c1.4-0.5,2.4-0.9,2.9-1.1v-1.6
			c0-0.1,0-0.4-0.1-0.8c-0.1-0.4-0.2-0.8-0.4-1.1c-0.2-0.4-0.5-0.7-0.9-1c-0.4-0.3-0.9-0.4-1.6-0.4c-0.5,0-0.9,0.1-1.3,0.2
			s-0.7,0.3-0.9,0.5c0,0.2,0,0.5,0.1,0.9c0.1,0.4,0.1,0.8,0.1,1.1c0,0.4-0.2,0.7-0.5,1c-0.3,0.3-0.8,0.5-1.4,0.5
			c-0.5,0-0.9-0.2-1.2-0.6c-0.2-0.4-0.4-0.8-0.4-1.2c0-0.5,0.2-0.9,0.5-1.4c0.3-0.4,0.8-0.8,1.3-1.2c0.5-0.3,1-0.5,1.7-0.7
			c0.7-0.2,1.3-0.3,2-0.3c0.9,0,1.6,0.1,2.3,0.2s1.2,0.4,1.8,0.8c0.5,0.4,0.9,0.9,1.2,1.6s0.4,1.5,0.4,2.6c0,1.5,0,2.8,0,4
			c0,1.2,0,2.4,0,3.8c0,0.4,0.1,0.7,0.2,1c0.1,0.2,0.4,0.4,0.7,0.6c0.2,0.1,0.4,0.1,0.7,0.2c0.3,0,0.7,0,1,0V473.3z M448.1,465
			c-0.9,0.3-1.7,0.5-2.3,0.8c-0.7,0.3-1.3,0.6-1.9,0.9c-0.5,0.4-0.9,0.8-1.2,1.3c-0.3,0.5-0.5,1.1-0.5,1.7c0,0.9,0.2,1.5,0.7,1.9
			c0.5,0.4,1,0.6,1.7,0.6c0.7,0,1.4-0.2,2-0.5c0.6-0.4,1-0.8,1.4-1.3L448.1,465z"/>
		<path d="M471.4,473.6h-7.6v-1c0.2,0,0.5,0,0.8-0.1c0.3,0,0.5-0.1,0.7-0.1c0.3-0.1,0.5-0.3,0.7-0.5s0.2-0.5,0.2-0.9v-8
			c0-1.1-0.3-1.9-0.8-2.5c-0.5-0.6-1.2-0.9-1.9-0.9c-0.6,0-1.1,0.1-1.5,0.3c-0.5,0.2-0.9,0.4-1.2,0.6c-0.3,0.2-0.6,0.5-0.8,0.8
			c-0.2,0.3-0.4,0.5-0.4,0.7v8.9c0,0.4,0.1,0.6,0.2,0.9c0.1,0.2,0.4,0.4,0.7,0.5c0.2,0.1,0.5,0.2,0.7,0.2c0.3,0.1,0.5,0.1,0.8,0.1v1
			h-7.6v-1c0.2,0,0.5,0,0.7-0.1c0.3,0,0.5-0.1,0.7-0.1c0.3-0.1,0.5-0.3,0.7-0.5c0.1-0.2,0.2-0.5,0.2-0.9v-9.5c0-0.4-0.1-0.7-0.2-1
			c-0.2-0.3-0.4-0.5-0.6-0.7c-0.2-0.1-0.4-0.2-0.7-0.3c-0.3-0.1-0.6-0.1-0.9-0.1v-1l5.1-0.3l0.2,0.2v2.2h0.1
			c0.3-0.3,0.6-0.6,0.9-0.9c0.4-0.4,0.7-0.6,1.1-0.9c0.4-0.3,0.8-0.5,1.4-0.6s1.1-0.3,1.8-0.3c1.5,0,2.6,0.5,3.3,1.4
			c0.7,0.9,1.1,2.2,1.1,3.7v8c0,0.4,0.1,0.7,0.2,0.9c0.1,0.2,0.3,0.4,0.6,0.5c0.3,0.1,0.5,0.2,0.7,0.2s0.4,0.1,0.8,0.1V473.6z"/>
		<path d="M489.5,473.3l-5.4,0.3l-0.2-0.2V472l-0.1,0c-0.5,0.6-1.2,1.1-2,1.5s-1.6,0.6-2.5,0.6c-0.9,0-1.7-0.2-2.5-0.6
			c-0.8-0.4-1.5-0.9-2.1-1.7c-0.6-0.7-1.1-1.6-1.5-2.6s-0.5-2.1-0.5-3.4c0-1.1,0.2-2.2,0.6-3.2c0.4-1,0.9-1.9,1.6-2.6
			c0.6-0.7,1.4-1.3,2.3-1.7c0.9-0.4,1.9-0.6,2.8-0.6c0.7,0,1.4,0.1,2.1,0.3c0.7,0.2,1.3,0.4,1.8,0.7v-5.4c0-0.4-0.1-0.8-0.2-1.2
			s-0.3-0.6-0.6-0.8c-0.3-0.2-0.7-0.3-1.2-0.4c-0.5-0.1-1-0.2-1.6-0.2v-1l6.3-0.3l0.2,0.2v20.8c0,0.4,0.1,0.7,0.2,0.9
			c0.1,0.3,0.3,0.5,0.6,0.7c0.2,0.1,0.5,0.2,0.9,0.2c0.4,0,0.7,0.1,1,0.1V473.3z M483.8,470.6v-9c-0.1-0.3-0.2-0.6-0.4-0.9
			c-0.2-0.3-0.4-0.6-0.7-0.9c-0.3-0.3-0.7-0.5-1.1-0.7c-0.4-0.2-0.9-0.3-1.4-0.3c-0.6,0-1.2,0.2-1.7,0.5s-1,0.8-1.4,1.4
			c-0.4,0.6-0.7,1.3-0.9,2.2s-0.3,1.9-0.3,3c0,0.9,0.1,1.7,0.3,2.4c0.2,0.7,0.4,1.4,0.8,2c0.4,0.6,0.8,1.1,1.4,1.4
			c0.6,0.4,1.2,0.5,2,0.5c0.8,0,1.5-0.2,2.1-0.5S483.4,471,483.8,470.6z"/>
	</g>
</g>
</svg>
