<?xml version="1.0" encoding="utf-8"?>
<!-- Generator: Adobe Illustrator 25.1.0, SVG Export Plug-In . SVG Version: 6.00 Build 0)  -->
<svg version="1.1" id="Layer_1" xmlns="http://www.w3.org/2000/svg" xmlns:xlink="http://www.w3.org/1999/xlink" x="0px" y="0px"
	 viewBox="0 0 95.1 105.3" style="enable-background:new 0 0 95.1 105.3;" xml:space="preserve">
<style type="text/css">
	.st0{fill-rule:evenodd;clip-rule:evenodd;fill:#D29E43;}
</style>
<path class="st0" d="M30.2,13.7c-0.5,0-0.9,0.4-0.9,0.9s0.4,0.9,0.9,0.9h1c-0.1,5.6-2.6,7.9-7,10.5c-19.3,11.1-7.9,41.8,2.5,70h40.8
	C77.9,67.8,89.3,37.1,70,25.9c-4.3-2.5-6.9-4.9-7-10.5h1c0.5,0,0.9-0.4,0.9-0.9s-0.4-0.9-0.9-0.9L30.2,13.7L30.2,13.7z M27.7,98.6
	l-0.4,5.8c0,0.3,0.3,0.6,0.6,0.6h38.6c0.3,0,0.6-0.3,0.6-0.6l-0.4-5.8H27.7L27.7,98.6z M63.1,11.8v-1.7C59.3,8.6,54.3,7.3,49.5,7
	c0.9-0.7,1.4-1.8,1.4-2.9c0-2.1-1.7-3.8-3.8-3.8S43.3,2,43.3,4.1c0,1.2,0.5,2.3,1.4,2.9c-4.8,0.3-9.8,1.6-13.6,3.1v1.7H63.1z"/>
</svg>
