<svg version="1.1" id="dove" xmlns="http://www.w3.org/2000/svg" x="0" y="0" viewBox="0 0 368.7 331.3" xml:space="preserve"><style>.st0{fill:#68162a}</style><path class="st0" d="M295.2-.7H74.4c-21.2 0-38.5 17.2-38.5 38.5v238.9c0 11.2 9.1 20.4 20.4 20.4h84.8c4.1 0 7.5-3.3 7.5-7.5 0-4.1-3.3-7.5-7.5-7.5H56.3c-3 0-5.5-2.4-5.5-5.5V37.8c0-13 10.6-23.5 23.5-23.5h190.5c-5.2 6.7-8.1 15-8.1 23.5v208.1c0 5.4-4.4 9.8-9.8 9.8-4.2 0-8-2.7-9.3-6.7l-9.7-29.2c-2.9-8.7-10.9-14.5-20.1-14.5-11.7 0-21.2 9.5-21.2 21.2v4h-32.5c-4.1 0-7.5 3.3-7.5 7.5s3.3 7.5 7.5 7.5h32.5v31.1c0 9.7 1.9 19.1 5.6 28l9.5 22.8c1.2 2.8 3.9 4.6 6.9 4.6 1 0 2-.2 2.9-.6 1.8-.8 3.3-2.2 4-4 .8-1.8.8-3.9 0-5.7l-9.5-22.8c-3-7.1-4.5-14.6-4.5-22.3v-50.1c0-3.4 2.8-6.2 6.2-6.2 2.7 0 5.1 1.7 5.9 4.3l9.7 29.2c3.4 10.1 12.8 16.9 23.5 16.9 13.6 0 24.7-11.1 24.7-24.7V137.6l6.9 6.9c15.2 15.2 23.6 35.4 23.6 56.9V270c0 17.6-4 35.4-11.5 51.3-1.8 3.7-.2 8.2 3.5 9.9 1 .5 2.1.7 3.2.7.8 0 1.7-.1 2.5-.4 1.9-.7 3.4-2 4.2-3.8 8.5-17.9 13-37.9 13-57.7v-68.6c0-25.5-9.9-49.4-28-67.4l-17.5-17.4v-4.8H313c11.2 0 20.4-9.1 20.4-20.4V37.8c.3-21.2-17-38.5-38.2-38.5zm23.5 38.5v53.6c0 3-2.4 5.5-5.5 5.5h-41.6V37.8c0-13 10.6-23.5 23.5-23.5s23.6 10.5 23.6 23.5z"/><path class="st0" d="M169.3 282.2c-2 0-3.9.8-5.3 2.2-1.4 1.4-2.2 3.3-2.2 5.3s.8 3.9 2.2 5.3 3.3 2.2 5.3 2.2 3.9-.8 5.3-2.2c1.4-1.4 2.2-3.3 2.2-5.3s-.8-3.9-2.2-5.3c-1.4-1.4-3.4-2.2-5.3-2.2zM126.8 48.1c0-7.7-6.2-13.9-13.9-13.9H84.5c-7.7 0-13.9 6.2-13.9 13.9v28.4c0 7.7 6.2 13.9 13.9 13.9h28.4c7.7 0 13.9-6.2 13.9-13.9V48.1zm-14.9 27.4H85.5V49.1h26.4v26.4zm14.9 50.1c0-7.7-6.2-13.9-13.9-13.9H84.5c-7.7 0-13.9 6.2-13.9 13.9V154c0 7.7 6.2 13.9 13.9 13.9h28.4c7.7 0 13.9-6.2 13.9-13.9v-28.4zM111.9 153H85.5v-26.4h26.4V153zm1 36.2H84.5c-7.7 0-13.9 6.2-13.9 13.9v28.4c0 7.7 6.2 13.9 13.9 13.9h28.4c7.7 0 13.9-6.2 13.9-13.9v-28.4c0-7.7-6.2-13.9-13.9-13.9zm-1 41.3H85.5v-26.4h26.4v26.4zM228.3 90.4c4.1 0 7.5-3.3 7.5-7.5 0-4.1-3.3-7.5-7.5-7.5h-44.5c-4.1 0-7.5 3.3-7.5 7.5 0 4.1 3.3 7.5 7.5 7.5h44.5zm-74.1 0c2 0 3.9-.8 5.3-2.2s2.2-3.3 2.2-5.3-.8-3.9-2.2-5.3-3.3-2.2-5.3-2.2-3.9.8-5.3 2.2c-1.4 1.4-2.2 3.3-2.2 5.3s.8 3.9 2.2 5.3c1.4 1.4 3.4 2.2 5.3 2.2zm0 77.5h74c4.1 0 7.5-3.3 7.5-7.5 0-4.1-3.3-7.5-7.5-7.5h-74c-4.1 0-7.5 3.3-7.5 7.5.1 4.2 3.4 7.5 7.5 7.5z"/></svg>